<svg version="1.1" viewBox="0.0 0.0 600.0 371.0" fill="none" stroke="none" stroke-linecap="square" stroke-miterlimit="10" width="600" height="371" xmlns:xlink="http://www.w3.org/1999/xlink" xmlns="http://www.w3.org/2000/svg"><path fill="#ffffff" d="M0 0L600.0 0L600.0 371.0L0 371.0L0 0Z" fill-rule="nonzero"/><path stroke="#333333" stroke-width="1.0" stroke-linecap="butt" d="M85.5 286.5L581.5 286.5" fill-rule="nonzero"/><path stroke="#cccccc" stroke-width="1.0" stroke-linecap="butt" d="M85.5 221.5L581.5 221.5" fill-rule="nonzero"/><path stroke="#cccccc" stroke-width="1.0" stroke-linecap="butt" d="M85.5 156.5L581.5 156.5" fill-rule="nonzero"/><path stroke="#cccccc" stroke-width="1.0" stroke-linecap="butt" d="M85.5 91.5L581.5 91.5" fill-rule="nonzero"/><path stroke="#cccccc" stroke-width="1.0" stroke-linecap="butt" d="M85.5 26.5L581.5 26.5" fill-rule="nonzero"/><clipPath id="id_0"><path d="M85.55 26.05L581.45 26.05L581.45 286.69946L85.55 286.69946L85.55 26.05Z" clip-rule="nonzero"/></clipPath><path stroke="#000000" stroke-width="2.0" stroke-linecap="butt" stroke-opacity="0.0" clip-path="url(#id_0)" d="M123.0 287.0L99.0 287.0L99.0 118.0C99.0 116.89543 99.89543 116.0 101.0 116.0L121.0 116.0C122.10457 116.0 123.0 116.89543 123.0 118.0Z" fill-rule="nonzero"/><path fill="#4285f4" clip-path="url(#id_0)" d="M123.0 287.0L99.0 287.0L99.0 118.0C99.0 116.89543 99.89543 116.0 101.0 116.0L121.0 116.0C122.10457 116.0 123.0 116.89543 123.0 118.0Z" fill-rule="nonzero"/><path stroke="#000000" stroke-width="2.0" stroke-linecap="butt" stroke-opacity="0.0" clip-path="url(#id_0)" d="M160.0 287.0L136.0 287.0L136.0 95.0C136.0 93.89543 136.89543 93.0 138.0 93.0L158.0 93.0C159.10457 93.0 160.0 93.89543 160.0 95.0Z" fill-rule="nonzero"/><path fill="#4285f4" clip-path="url(#id_0)" d="M160.0 287.0L136.0 287.0L136.0 95.0C136.0 93.89543 136.89543 93.0 138.0 93.0L158.0 93.0C159.10457 93.0 160.0 93.89543 160.0 95.0Z" fill-rule="nonzero"/><path stroke="#000000" stroke-width="2.0" stroke-linecap="butt" stroke-opacity="0.0" clip-path="url(#id_0)" d="M197.0 287.0L173.0 287.0L173.0 101.0C173.0 99.89543 173.89543 99.0 175.0 99.0L195.0 99.0C196.10457 99.0 197.0 99.89543 197.0 101.0Z" fill-rule="nonzero"/><path fill="#4285f4" clip-path="url(#id_0)" d="M197.0 287.0L173.0 287.0L173.0 101.0C173.0 99.89543 173.89543 99.0 175.0 99.0L195.0 99.0C196.10457 99.0 197.0 99.89543 197.0 101.0Z" fill-rule="nonzero"/><path stroke="#000000" stroke-width="2.0" stroke-linecap="butt" stroke-opacity="0.0" clip-path="url(#id_0)" d="M234.0 287.0L210.0 287.0L210.0 124.0C210.0 122.89543 210.89543 122.0 212.0 122.0L232.0 122.0C233.10457 122.0 234.0 122.89543 234.0 124.0Z" fill-rule="nonzero"/><path fill="#4285f4" clip-path="url(#id_0)" d="M234.0 287.0L210.0 287.0L210.0 124.0C210.0 122.89543 210.89543 122.0 212.0 122.0L232.0 122.0C233.10457 122.0 234.0 122.89543 234.0 124.0Z" fill-rule="nonzero"/><path stroke="#000000" stroke-width="2.0" stroke-linecap="butt" stroke-opacity="0.0" clip-path="url(#id_0)" d="M271.0 287.0L247.0 287.0L247.0 95.0C247.0 93.89543 247.89543 93.0 249.0 93.0L269.0 93.0C270.10458 93.0 271.0 93.89543 271.0 95.0Z" fill-rule="nonzero"/><path fill="#4285f4" clip-path="url(#id_0)" d="M271.0 287.0L247.0 287.0L247.0 95.0C247.0 93.89543 247.89543 93.0 249.0 93.0L269.0 93.0C270.10458 93.0 271.0 93.89543 271.0 95.0Z" fill-rule="nonzero"/><path stroke="#000000" stroke-width="2.0" stroke-linecap="butt" stroke-opacity="0.0" clip-path="url(#id_0)" d="M308.0 287.0L284.0 287.0L284.0 86.0C284.0 84.89543 284.89542 84.0 286.0 84.0L306.0 84.0C307.10458 84.0 308.0 84.89543 308.0 86.0Z" fill-rule="nonzero"/><path fill="#4285f4" clip-path="url(#id_0)" d="M308.0 287.0L284.0 287.0L284.0 86.0C284.0 84.89543 284.89542 84.0 286.0 84.0L306.0 84.0C307.10458 84.0 308.0 84.89543 308.0 86.0Z" fill-rule="nonzero"/><path stroke="#000000" stroke-width="2.0" stroke-linecap="butt" stroke-opacity="0.0" clip-path="url(#id_0)" d="M346.0 287.0L322.0 287.0L322.0 88.0C322.0 86.89543 322.89542 86.0 324.0 86.0L344.0 86.0C345.10458 86.0 346.0 86.89543 346.0 88.0Z" fill-rule="nonzero"/><path fill="#4285f4" clip-path="url(#id_0)" d="M346.0 287.0L322.0 287.0L322.0 88.0C322.0 86.89543 322.89542 86.0 324.0 86.0L344.0 86.0C345.10458 86.0 346.0 86.89543 346.0 88.0Z" fill-rule="nonzero"/><path stroke="#000000" stroke-width="2.0" stroke-linecap="butt" stroke-opacity="0.0" clip-path="url(#id_0)" d="M383.0 287.0L359.0 287.0L359.0 98.0C359.0 96.89543 359.89542 96.0 361.0 96.0L381.0 96.0C382.10458 96.0 383.0 96.89543 383.0 98.0Z" fill-rule="nonzero"/><path fill="#4285f4" clip-path="url(#id_0)" d="M383.0 287.0L359.0 287.0L359.0 98.0C359.0 96.89543 359.89542 96.0 361.0 96.0L381.0 96.0C382.10458 96.0 383.0 96.89543 383.0 98.0Z" fill-rule="nonzero"/><path stroke="#000000" stroke-width="2.0" stroke-linecap="butt" stroke-opacity="0.0" clip-path="url(#id_0)" d="M420.0 287.0L396.0 287.0L396.0 93.0C396.0 91.89543 396.89542 91.0 398.0 91.0L418.0 91.0C419.10458 91.0 420.0 91.89543 420.0 93.0Z" fill-rule="nonzero"/><path fill="#4285f4" clip-path="url(#id_0)" d="M420.0 287.0L396.0 287.0L396.0 93.0C396.0 91.89543 396.89542 91.0 398.0 91.0L418.0 91.0C419.10458 91.0 420.0 91.89543 420.0 93.0Z" fill-rule="nonzero"/><path stroke="#000000" stroke-width="2.0" stroke-linecap="butt" stroke-opacity="0.0" clip-path="url(#id_0)" d="M457.0 287.0L433.0 287.0L433.0 84.0C433.0 82.89543 433.89542 82.0 435.0 82.0L455.0 82.0C456.10458 82.0 457.0 82.89543 457.0 84.0Z" fill-rule="nonzero"/><path fill="#4285f4" clip-path="url(#id_0)" d="M457.0 287.0L433.0 287.0L433.0 84.0C433.0 82.89543 433.89542 82.0 435.0 82.0L455.0 82.0C456.10458 82.0 457.0 82.89543 457.0 84.0Z" fill-rule="nonzero"/><path stroke="#000000" stroke-width="2.0" stroke-linecap="butt" stroke-opacity="0.0" clip-path="url(#id_0)" d="M494.0 287.0L470.0 287.0L470.0 85.0C470.0 83.89543 470.89542 83.0 472.0 83.0L492.0 83.0C493.10458 83.0 494.0 83.89543 494.0 85.0Z" fill-rule="nonzero"/><path fill="#4285f4" clip-path="url(#id_0)" d="M494.0 287.0L470.0 287.0L470.0 85.0C470.0 83.89543 470.89542 83.0 472.0 83.0L492.0 83.0C493.10458 83.0 494.0 83.89543 494.0 85.0Z" fill-rule="nonzero"/><path stroke="#000000" stroke-width="2.0" stroke-linecap="butt" stroke-opacity="0.0" clip-path="url(#id_0)" d="M531.0 287.0L507.0 287.0L507.0 59.0C507.0 57.89543 507.89542 57.0 509.0 57.0L529.0 57.0C530.10455 57.0 531.0 57.89543 531.0 59.0Z" fill-rule="nonzero"/><path fill="#4285f4" clip-path="url(#id_0)" d="M531.0 287.0L507.0 287.0L507.0 59.0C507.0 57.89543 507.89542 57.0 509.0 57.0L529.0 57.0C530.10455 57.0 531.0 57.89543 531.0 59.0Z" fill-rule="nonzero"/><path stroke="#000000" stroke-width="2.0" stroke-linecap="butt" stroke-opacity="0.0" clip-path="url(#id_0)" d="M568.0 287.0L544.0 287.0L544.0 55.0C544.0 53.89543 544.89545 53.0 546.0 53.0L566.0 53.0C567.10455 53.0 568.0 53.89543 568.0 55.0Z" fill-rule="nonzero"/><path fill="#4285f4" clip-path="url(#id_0)" d="M568.0 287.0L544.0 287.0L544.0 55.0C544.0 53.89543 544.89545 53.0 546.0 53.0L566.0 53.0C567.10455 53.0 568.0 53.89543 568.0 55.0Z" fill-rule="nonzero"/><path fill="#757575" d="M53.565624 288.99634Q53.565624 288.4651 53.190624 288.1057Q52.815624 287.7307 51.909374 287.4182Q50.659374 287.0432 50.08125 286.43384Q49.51875 285.82446 49.51875 284.87134Q49.51875 283.9182 50.08125 283.30884Q50.64375 282.68384 51.628124 282.57446L51.628124 281.2776L52.4875 281.2776L52.4875 282.57446Q53.471874 282.7151 54.01875 283.4026Q54.58125 284.0901 54.58125 285.2932L53.503124 285.2932Q53.503124 284.4651 53.096874 283.9807Q52.70625 283.49634 52.05 283.49634Q51.346874 283.49634 50.971874 283.8557Q50.6125 284.2151 50.6125 284.8557Q50.6125 285.44946 51.003124 285.80884Q51.39375 286.1682 52.284374 286.4651Q53.175 286.74634 53.675 287.1057Q54.175 287.44946 54.409374 287.9182Q54.64375 288.37134 54.64375 288.99634Q54.64375 289.9807 54.05 290.5901Q53.45625 291.18384 52.39375 291.2932L52.39375 292.4182L51.51875 292.4182L51.51875 291.2932Q50.425 291.19946 49.8 290.5276Q49.190624 289.8401 49.190624 288.68384L50.284374 288.68384Q50.284374 289.49634 50.70625 289.93384Q51.128124 290.37134 51.925 290.37134Q52.690624 290.37134 53.128124 290.01196Q53.565624 289.63696 53.565624 288.99634ZM61.6125 287.55884Q61.6125 289.4651 60.95625 290.4026Q60.315624 291.32446 58.925 291.32446Q57.565624 291.32446 56.909374 290.4182Q56.253124 289.51196 56.221874 287.69946L56.221874 286.26196Q56.221874 284.37134 56.8625 283.4651Q57.51875 282.5432 58.909374 282.5432Q60.284374 282.5432 60.940624 283.43384Q61.596874 284.30884 61.6125 286.1526L61.6125 287.55884ZM60.51875 286.07446Q60.51875 284.69946 60.128124 284.07446Q59.753124 283.43384 58.909374 283.43384Q58.08125 283.43384 57.690624 284.07446Q57.315624 284.69946 57.315624 285.99634L57.315624 287.7307Q57.315624 289.1057 57.70625 289.7776Q58.1125 290.43384 58.925 290.43384Q59.721874 290.43384 60.1125 289.80884Q60.503124 289.18384 60.51875 287.8557L60.51875 286.07446ZM63.39375 290.63696Q63.39375 290.3557 63.55 290.1682Q63.721874 289.9807 64.05 289.9807Q64.39375 289.9807 64.56563 290.1682Q64.7375 290.3557 64.7375 290.63696Q64.7375 290.9026 64.56563 291.0901Q64.39375 291.26196 64.05 291.26196Q63.721874 291.26196 63.55 291.0901Q63.39375 290.9026 63.39375 290.63696ZM71.6125 287.55884Q71.6125 289.4651 70.95625 290.4026Q70.31563 291.32446 68.925 291.32446Q67.56563 291.32446 66.90938 290.4182Q66.25313 289.51196 66.22188 287.69946L66.22188 286.26196Q66.22188 284.37134 66.8625 283.4651Q67.51875 282.5432 68.90938 282.5432Q70.28438 282.5432 70.94063 283.43384Q71.59688 284.30884 71.6125 286.1526L71.6125 287.55884ZM70.51875 286.07446Q70.51875 284.69946 70.12813 284.07446Q69.75313 283.43384 68.90938 283.43384Q68.08125 283.43384 67.69063 284.07446Q67.31563 284.69946 67.31563 285.99634L67.31563 287.7307Q67.31563 289.1057 67.70625 289.7776Q68.1125 290.43384 68.925 290.43384Q69.72188 290.43384 70.1125 289.80884Q70.50313 289.18384 70.51875 287.8557L70.51875 286.07446ZM78.6125 287.55884Q78.6125 289.4651 77.95625 290.4026Q77.31563 291.32446 75.925 291.32446Q74.56563 291.32446 73.90938 290.4182Q73.25313 289.51196 73.22188 287.69946L73.22188 286.26196Q73.22188 284.37134 73.8625 283.4651Q74.51875 282.5432 75.90938 282.5432Q77.28438 282.5432 77.94063 283.43384Q78.59688 284.30884 78.6125 286.1526L78.6125 287.55884ZM77.51875 286.07446Q77.51875 284.69946 77.12813 284.07446Q76.75313 283.43384 75.90938 283.43384Q75.08125 283.43384 74.69063 284.07446Q74.31563 284.69946 74.31563 285.99634L74.31563 287.7307Q74.31563 289.1057 74.70625 289.7776Q75.1125 290.43384 75.925 290.43384Q76.72188 290.43384 77.1125 289.80884Q77.50313 289.18384 77.51875 287.8557L77.51875 286.07446Z" fill-rule="nonzero"/><path fill="#757575" d="M23.565624 223.83398Q23.565624 223.30273 23.190624 222.94336Q22.815624 222.56836 21.909374 222.25586Q20.659374 221.88086 20.08125 221.27148Q19.51875 220.66211 19.51875 219.70898Q19.51875 218.75586 20.08125 218.14648Q20.64375 217.52148 21.628124 217.41211L21.628124 216.11523L22.4875 216.11523L22.4875 217.41211Q23.471874 217.55273 24.01875 218.24023Q24.58125 218.92773 24.58125 220.13086L23.503124 220.13086Q23.503124 219.30273 23.096874 218.81836Q22.70625 218.33398 22.05 218.33398Q21.346874 218.33398 20.971874 218.69336Q20.6125 219.05273 20.6125 219.69336Q20.6125 220.28711 21.003124 220.64648Q21.39375 221.00586 22.284374 221.30273Q23.175 221.58398 23.675 221.94336Q24.175 222.28711 24.409374 222.75586Q24.64375 223.20898 24.64375 223.83398Q24.64375 224.81836 24.05 225.42773Q23.45625 226.02148 22.39375 226.13086L22.39375 227.25586L21.51875 227.25586L21.51875 226.13086Q20.425 226.03711 19.8 225.36523Q19.190624 224.67773 19.190624 223.52148L20.284374 223.52148Q20.284374 224.33398 20.70625 224.77148Q21.128124 225.20898 21.925 225.20898Q22.690624 225.20898 23.128124 224.84961Q23.565624 224.47461 23.565624 223.83398ZM29.815624 226.03711L28.7375 226.03711L28.7375 218.81836L26.55 219.61523L26.55 218.63086L29.659374 217.45898L29.815624 217.45898L29.815624 226.03711ZM38.6125 222.39648Q38.6125 224.30273 37.95625 225.24023Q37.315624 226.16211 35.925 226.16211Q34.565624 226.16211 33.909374 225.25586Q33.253124 224.34961 33.221874 222.53711L33.221874 221.09961Q33.221874 219.20898 33.8625 218.30273Q34.51875 217.38086 35.909374 217.38086Q37.284374 217.38086 37.940624 218.27148Q38.596874 219.14648 38.6125 220.99023L38.6125 222.39648ZM37.51875 220.91211Q37.51875 219.53711 37.128124 218.91211Q36.753124 218.27148 35.909374 218.27148Q35.08125 218.27148 34.690624 218.91211Q34.315624 219.53711 34.315624 220.83398L34.315624 222.56836Q34.315624 223.94336 34.70625 224.61523Q35.1125 225.27148 35.925 225.27148Q36.721874 225.27148 37.1125 224.64648Q37.503124 224.02148 37.51875 222.69336L37.51875 220.91211ZM40.33125 227.74023L39.721874 227.31836Q40.26875 226.55273 40.3 225.72461L40.3 224.75586L41.3625 224.75586L41.3625 225.59961Q41.3625 226.19336 41.065624 226.78711Q40.76875 227.38086 40.33125 227.74023ZM47.6125 222.39648Q47.6125 224.30273 46.95625 225.24023Q46.315624 226.16211 44.925 226.16211Q43.565624 226.16211 42.909374 225.25586Q42.253124 224.34961 42.221874 222.53711L42.221874 221.09961Q42.221874 219.20898 42.8625 218.30273Q43.51875 217.38086 44.909374 217.38086Q46.284374 217.38086 46.940624 218.27148Q47.596874 219.14648 47.6125 220.99023L47.6125 222.39648ZM46.51875 220.91211Q46.51875 219.53711 46.128124 218.91211Q45.753124 218.27148 44.909374 218.27148Q44.08125 218.27148 43.690624 218.91211Q43.315624 219.53711 43.315624 220.83398L43.315624 222.56836Q43.315624 223.94336 43.70625 224.61523Q44.1125 225.27148 44.925 225.27148Q45.721874 225.27148 46.1125 224.64648Q46.503124 224.02148 46.51875 222.69336L46.51875 220.91211ZM54.6125 222.39648Q54.6125 224.30273 53.95625 225.24023Q53.315624 226.16211 51.925 226.16211Q50.565624 226.16211 49.909374 225.25586Q49.253124 224.34961 49.221874 222.53711L49.221874 221.09961Q49.221874 219.20898 49.8625 218.30273Q50.51875 217.38086 51.909374 217.38086Q53.284374 217.38086 53.940624 218.27148Q54.596874 219.14648 54.6125 220.99023L54.6125 222.39648ZM53.51875 220.91211Q53.51875 219.53711 53.128124 218.91211Q52.753124 218.27148 51.909374 218.27148Q51.08125 218.27148 50.690624 218.91211Q50.315624 219.53711 50.315624 220.83398L50.315624 222.56836Q50.315624 223.94336 50.70625 224.61523Q51.1125 225.27148 51.925 225.27148Q52.721874 225.27148 53.1125 224.64648Q53.503124 224.02148 53.51875 222.69336L53.51875 220.91211ZM61.6125 222.39648Q61.6125 224.30273 60.95625 225.24023Q60.315624 226.16211 58.925 226.16211Q57.565624 226.16211 56.909374 225.25586Q56.253124 224.34961 56.221874 222.53711L56.221874 221.09961Q56.221874 219.20898 56.8625 218.30273Q57.51875 217.38086 58.909374 217.38086Q60.284374 217.38086 60.940624 218.27148Q61.596874 219.14648 61.6125 220.99023L61.6125 222.39648ZM60.51875 220.91211Q60.51875 219.53711 60.128124 218.91211Q59.753124 218.27148 58.909374 218.27148Q58.08125 218.27148 57.690624 218.91211Q57.315624 219.53711 57.315624 220.83398L57.315624 222.56836Q57.315624 223.94336 57.70625 224.61523Q58.1125 225.27148 58.925 225.27148Q59.721874 225.27148 60.1125 224.64648Q60.503124 224.02148 60.51875 222.69336L60.51875 220.91211ZM63.39375 225.47461Q63.39375 225.19336 63.55 225.00586Q63.721874 224.81836 64.05 224.81836Q64.39375 224.81836 64.56563 225.00586Q64.7375 225.19336 64.7375 225.47461Q64.7375 225.74023 64.56563 225.92773Q64.39375 226.09961 64.05 226.09961Q63.721874 226.09961 63.55 225.92773Q63.39375 225.74023 63.39375 225.47461ZM71.6125 222.39648Q71.6125 224.30273 70.95625 225.24023Q70.31563 226.16211 68.925 226.16211Q67.56563 226.16211 66.90938 225.25586Q66.25313 224.34961 66.22188 222.53711L66.22188 221.09961Q66.22188 219.20898 66.8625 218.30273Q67.51875 217.38086 68.90938 217.38086Q70.28438 217.38086 70.94063 218.27148Q71.59688 219.14648 71.6125 220.99023L71.6125 222.39648ZM70.51875 220.91211Q70.51875 219.53711 70.12813 218.91211Q69.75313 218.27148 68.90938 218.27148Q68.08125 218.27148 67.69063 218.91211Q67.31563 219.53711 67.31563 220.83398L67.31563 222.56836Q67.31563 223.94336 67.70625 224.61523Q68.1125 225.27148 68.925 225.27148Q69.72188 225.27148 70.1125 224.64648Q70.50313 224.02148 70.51875 222.69336L70.51875 220.91211ZM78.6125 222.39648Q78.6125 224.30273 77.95625 225.24023Q77.31563 226.16211 75.925 226.16211Q74.56563 226.16211 73.90938 225.25586Q73.25313 224.34961 73.22188 222.53711L73.22188 221.09961Q73.22188 219.20898 73.8625 218.30273Q74.51875 217.38086 75.90938 217.38086Q77.28438 217.38086 77.94063 218.27148Q78.59688 219.14648 78.6125 220.99023L78.6125 222.39648ZM77.51875 220.91211Q77.51875 219.53711 77.12813 218.91211Q76.75313 218.27148 75.90938 218.27148Q75.08125 218.27148 74.69063 218.91211Q74.31563 219.53711 74.31563 220.83398L74.31563 222.56836Q74.31563 223.94336 74.70625 224.61523Q75.1125 225.27148 75.925 225.27148Q76.72188 225.27148 77.1125 224.64648Q77.50313 224.02148 77.51875 222.69336L77.51875 220.91211Z" fill-rule="nonzero"/><path fill="#757575" d="M23.565624 158.67162Q23.565624 158.14037 23.190624 157.78099Q22.815624 157.40599 21.909374 157.09349Q20.659374 156.71849 20.08125 156.10912Q19.51875 155.49974 19.51875 154.54662Q19.51875 153.59349 20.08125 152.98412Q20.64375 152.35912 21.628124 152.24974L21.628124 150.95287L22.4875 150.95287L22.4875 152.24974Q23.471874 152.39037 24.01875 153.07787Q24.58125 153.76537 24.58125 154.96849L23.503124 154.96849Q23.503124 154.14037 23.096874 153.65599Q22.70625 153.17162 22.05 153.17162Q21.346874 153.17162 20.971874 153.53099Q20.6125 153.89037 20.6125 154.53099Q20.6125 155.12474 21.003124 155.48412Q21.39375 155.84349 22.284374 156.14037Q23.175 156.42162 23.675 156.78099Q24.175 157.12474 24.409374 157.59349Q24.64375 158.04662 24.64375 158.67162Q24.64375 159.65599 24.05 160.26537Q23.45625 160.85912 22.39375 160.96849L22.39375 162.09349L21.51875 162.09349L21.51875 160.96849Q20.425 160.87474 19.8 160.20287Q19.190624 159.51537 19.190624 158.35912L20.284374 158.35912Q20.284374 159.17162 20.70625 159.60912Q21.128124 160.04662 21.925 160.04662Q22.690624 160.04662 23.128124 159.68724Q23.565624 159.31224 23.565624 158.67162ZM31.846874 160.87474L26.253124 160.87474L26.253124 160.09349L29.20625 156.81224Q29.8625 156.06224 30.1125 155.60912Q30.3625 155.14037 30.3625 154.64037Q30.3625 153.96849 29.95625 153.54662Q29.565624 153.10912 28.878124 153.10912Q28.08125 153.10912 27.628124 153.57787Q27.175 154.03099 27.175 154.85912L26.096874 154.85912Q26.096874 153.67162 26.846874 152.95287Q27.6125 152.21849 28.878124 152.21849Q30.08125 152.21849 30.76875 152.84349Q31.45625 153.46849 31.45625 154.51537Q31.45625 155.76537 29.846874 157.51537L27.565624 159.98412L31.846874 159.98412L31.846874 160.87474ZM38.6125 157.23412Q38.6125 159.14037 37.95625 160.07787Q37.315624 160.99974 35.925 160.99974Q34.565624 160.99974 33.909374 160.09349Q33.253124 159.18724 33.221874 157.37474L33.221874 155.93724Q33.221874 154.04662 33.8625 153.14037Q34.51875 152.21849 35.909374 152.21849Q37.284374 152.21849 37.940624 153.10912Q38.596874 153.98412 38.6125 155.82787L38.6125 157.23412ZM37.51875 155.74974Q37.51875 154.37474 37.128124 153.74974Q36.753124 153.10912 35.909374 153.10912Q35.08125 153.10912 34.690624 153.74974Q34.315624 154.37474 34.315624 155.67162L34.315624 157.40599Q34.315624 158.78099 34.70625 159.45287Q35.1125 160.10912 35.925 160.10912Q36.721874 160.10912 37.1125 159.48412Q37.503124 158.85912 37.51875 157.53099L37.51875 155.74974ZM40.33125 162.57787L39.721874 162.15599Q40.26875 161.39037 40.3 160.56224L40.3 159.59349L41.3625 159.59349L41.3625 160.43724Q41.3625 161.03099 41.065624 161.62474Q40.76875 162.21849 40.33125 162.57787ZM47.6125 157.23412Q47.6125 159.14037 46.95625 160.07787Q46.315624 160.99974 44.925 160.99974Q43.565624 160.99974 42.909374 160.09349Q42.253124 159.18724 42.221874 157.37474L42.221874 155.93724Q42.221874 154.04662 42.8625 153.14037Q43.51875 152.21849 44.909374 152.21849Q46.284374 152.21849 46.940624 153.10912Q47.596874 153.98412 47.6125 155.82787L47.6125 157.23412ZM46.51875 155.74974Q46.51875 154.37474 46.128124 153.74974Q45.753124 153.10912 44.909374 153.10912Q44.08125 153.10912 43.690624 153.74974Q43.315624 154.37474 43.315624 155.67162L43.315624 157.40599Q43.315624 158.78099 43.70625 159.45287Q44.1125 160.10912 44.925 160.10912Q45.721874 160.10912 46.1125 159.48412Q46.503124 158.85912 46.51875 157.53099L46.51875 155.74974ZM54.6125 157.23412Q54.6125 159.14037 53.95625 160.07787Q53.315624 160.99974 51.925 160.99974Q50.565624 160.99974 49.909374 160.09349Q49.253124 159.18724 49.221874 157.37474L49.221874 155.93724Q49.221874 154.04662 49.8625 153.14037Q50.51875 152.21849 51.909374 152.21849Q53.284374 152.21849 53.940624 153.10912Q54.596874 153.98412 54.6125 155.82787L54.6125 157.23412ZM53.51875 155.74974Q53.51875 154.37474 53.128124 153.74974Q52.753124 153.10912 51.909374 153.10912Q51.08125 153.10912 50.690624 153.74974Q50.315624 154.37474 50.315624 155.67162L50.315624 157.40599Q50.315624 158.78099 50.70625 159.45287Q51.1125 160.10912 51.925 160.10912Q52.721874 160.10912 53.1125 159.48412Q53.503124 158.85912 53.51875 157.53099L53.51875 155.74974ZM61.6125 157.23412Q61.6125 159.14037 60.95625 160.07787Q60.315624 160.99974 58.925 160.99974Q57.565624 160.99974 56.909374 160.09349Q56.253124 159.18724 56.221874 157.37474L56.221874 155.93724Q56.221874 154.04662 56.8625 153.14037Q57.51875 152.21849 58.909374 152.21849Q60.284374 152.21849 60.940624 153.10912Q61.596874 153.98412 61.6125 155.82787L61.6125 157.23412ZM60.51875 155.74974Q60.51875 154.37474 60.128124 153.74974Q59.753124 153.10912 58.909374 153.10912Q58.08125 153.10912 57.690624 153.74974Q57.315624 154.37474 57.315624 155.67162L57.315624 157.40599Q57.315624 158.78099 57.70625 159.45287Q58.1125 160.10912 58.925 160.10912Q59.721874 160.10912 60.1125 159.48412Q60.503124 158.85912 60.51875 157.53099L60.51875 155.74974ZM63.39375 160.31224Q63.39375 160.03099 63.55 159.84349Q63.721874 159.65599 64.05 159.65599Q64.39375 159.65599 64.56563 159.84349Q64.7375 160.03099 64.7375 160.31224Q64.7375 160.57787 64.56563 160.76537Q64.39375 160.93724 64.05 160.93724Q63.721874 160.93724 63.55 160.76537Q63.39375 160.57787 63.39375 160.31224ZM71.6125 157.23412Q71.6125 159.14037 70.95625 160.07787Q70.31563 160.99974 68.925 160.99974Q67.56563 160.99974 66.90938 160.09349Q66.25313 159.18724 66.22188 157.37474L66.22188 155.93724Q66.22188 154.04662 66.8625 153.14037Q67.51875 152.21849 68.90938 152.21849Q70.28438 152.21849 70.94063 153.10912Q71.59688 153.98412 71.6125 155.82787L71.6125 157.23412ZM70.51875 155.74974Q70.51875 154.37474 70.12813 153.74974Q69.75313 153.10912 68.90938 153.10912Q68.08125 153.10912 67.69063 153.74974Q67.31563 154.37474 67.31563 155.67162L67.31563 157.40599Q67.31563 158.78099 67.70625 159.45287Q68.1125 160.10912 68.925 160.10912Q69.72188 160.10912 70.1125 159.48412Q70.50313 158.85912 70.51875 157.53099L70.51875 155.74974ZM78.6125 157.23412Q78.6125 159.14037 77.95625 160.07787Q77.31563 160.99974 75.925 160.99974Q74.56563 160.99974 73.90938 160.09349Q73.25313 159.18724 73.22188 157.37474L73.22188 155.93724Q73.22188 154.04662 73.8625 153.14037Q74.51875 152.21849 75.90938 152.21849Q77.28438 152.21849 77.94063 153.10912Q78.59688 153.98412 78.6125 155.82787L78.6125 157.23412ZM77.51875 155.74974Q77.51875 154.37474 77.12813 153.74974Q76.75313 153.10912 75.90938 153.10912Q75.08125 153.10912 74.69063 153.74974Q74.31563 154.37474 74.31563 155.67162L74.31563 157.40599Q74.31563 158.78099 74.70625 159.45287Q75.1125 160.10912 75.925 160.10912Q76.72188 160.10912 77.1125 159.48412Q77.50313 158.85912 77.51875 157.53099L77.51875 155.74974Z" fill-rule="nonzero"/><path fill="#757575" d="M23.565624 93.50925Q23.565624 92.978 23.190624 92.61862Q22.815624 92.24362 21.909374 91.93112Q20.659374 91.55612 20.08125 90.94675Q19.51875 90.33737 19.51875 89.38425Q19.51875 88.43112 20.08125 87.82175Q20.64375 87.19675 21.628124 87.08737L21.628124 85.7905L22.4875 85.7905L22.4875 87.08737Q23.471874 87.228 24.01875 87.9155Q24.58125 88.603 24.58125 89.80612L23.503124 89.80612Q23.503124 88.978 23.096874 88.49362Q22.70625 88.00925 22.05 88.00925Q21.346874 88.00925 20.971874 88.36862Q20.6125 88.728 20.6125 89.36862Q20.6125 89.96237 21.003124 90.32175Q21.39375 90.68112 22.284374 90.978Q23.175 91.25925 23.675 91.61862Q24.175 91.96237 24.409374 92.43112Q24.64375 92.88425 24.64375 93.50925Q24.64375 94.49362 24.05 95.103Q23.45625 95.69675 22.39375 95.80612L22.39375 96.93112L21.51875 96.93112L21.51875 95.80612Q20.425 95.71237 19.8 95.0405Q19.190624 94.353 19.190624 93.19675L20.284374 93.19675Q20.284374 94.00925 20.70625 94.44675Q21.128124 94.88425 21.925 94.88425Q22.690624 94.88425 23.128124 94.52487Q23.565624 94.14987 23.565624 93.50925ZM27.83125 90.9155L28.64375 90.9155Q29.425 90.89987 29.8625 90.50925Q30.3 90.11862 30.3 89.44675Q30.3 87.94675 28.8 87.94675Q28.096874 87.94675 27.675 88.353Q27.26875 88.75925 27.26875 89.4155L26.175 89.4155Q26.175 88.39987 26.909374 87.728Q27.659374 87.05612 28.8 87.05612Q30.003124 87.05612 30.690624 87.69675Q31.378124 88.33737 31.378124 89.478Q31.378124 90.0405 31.01875 90.55612Q30.659374 91.07175 30.034374 91.33737Q30.7375 91.55612 31.1125 92.07175Q31.503124 92.58737 31.503124 93.33737Q31.503124 94.478 30.753124 95.1655Q30.003124 95.83737 28.8 95.83737Q27.6125 95.83737 26.846874 95.18112Q26.096874 94.52487 26.096874 93.46237L27.190624 93.46237Q27.190624 94.13425 27.628124 94.5405Q28.065624 94.94675 28.815624 94.94675Q29.596874 94.94675 30.003124 94.5405Q30.425 94.11862 30.425 93.353Q30.425 92.61862 29.971874 92.228Q29.51875 91.82175 28.64375 91.80612L27.83125 91.80612L27.83125 90.9155ZM38.6125 92.07175Q38.6125 93.978 37.95625 94.9155Q37.315624 95.83737 35.925 95.83737Q34.565624 95.83737 33.909374 94.93112Q33.253124 94.02487 33.221874 92.21237L33.221874 90.77487Q33.221874 88.88425 33.8625 87.978Q34.51875 87.05612 35.909374 87.05612Q37.284374 87.05612 37.940624 87.94675Q38.596874 88.82175 38.6125 90.6655L38.6125 92.07175ZM37.51875 90.58737Q37.51875 89.21237 37.128124 88.58737Q36.753124 87.94675 35.909374 87.94675Q35.08125 87.94675 34.690624 88.58737Q34.315624 89.21237 34.315624 90.50925L34.315624 92.24362Q34.315624 93.61862 34.70625 94.2905Q35.1125 94.94675 35.925 94.94675Q36.721874 94.94675 37.1125 94.32175Q37.503124 93.69675 37.51875 92.36862L37.51875 90.58737ZM40.33125 97.4155L39.721874 96.99362Q40.26875 96.228 40.3 95.39987L40.3 94.43112L41.3625 94.43112L41.3625 95.27487Q41.3625 95.86862 41.065624 96.46237Q40.76875 97.05612 40.33125 97.4155ZM47.6125 92.07175Q47.6125 93.978 46.95625 94.9155Q46.315624 95.83737 44.925 95.83737Q43.565624 95.83737 42.909374 94.93112Q42.253124 94.02487 42.221874 92.21237L42.221874 90.77487Q42.221874 88.88425 42.8625 87.978Q43.51875 87.05612 44.909374 87.05612Q46.284374 87.05612 46.940624 87.94675Q47.596874 88.82175 47.6125 90.6655L47.6125 92.07175ZM46.51875 90.58737Q46.51875 89.21237 46.128124 88.58737Q45.753124 87.94675 44.909374 87.94675Q44.08125 87.94675 43.690624 88.58737Q43.315624 89.21237 43.315624 90.50925L43.315624 92.24362Q43.315624 93.61862 43.70625 94.2905Q44.1125 94.94675 44.925 94.94675Q45.721874 94.94675 46.1125 94.32175Q46.503124 93.69675 46.51875 92.36862L46.51875 90.58737ZM54.6125 92.07175Q54.6125 93.978 53.95625 94.9155Q53.315624 95.83737 51.925 95.83737Q50.565624 95.83737 49.909374 94.93112Q49.253124 94.02487 49.221874 92.21237L49.221874 90.77487Q49.221874 88.88425 49.8625 87.978Q50.51875 87.05612 51.909374 87.05612Q53.284374 87.05612 53.940624 87.94675Q54.596874 88.82175 54.6125 90.6655L54.6125 92.07175ZM53.51875 90.58737Q53.51875 89.21237 53.128124 88.58737Q52.753124 87.94675 51.909374 87.94675Q51.08125 87.94675 50.690624 88.58737Q50.315624 89.21237 50.315624 90.50925L50.315624 92.24362Q50.315624 93.61862 50.70625 94.2905Q51.1125 94.94675 51.925 94.94675Q52.721874 94.94675 53.1125 94.32175Q53.503124 93.69675 53.51875 92.36862L53.51875 90.58737ZM61.6125 92.07175Q61.6125 93.978 60.95625 94.9155Q60.315624 95.83737 58.925 95.83737Q57.565624 95.83737 56.909374 94.93112Q56.253124 94.02487 56.221874 92.21237L56.221874 90.77487Q56.221874 88.88425 56.8625 87.978Q57.51875 87.05612 58.909374 87.05612Q60.284374 87.05612 60.940624 87.94675Q61.596874 88.82175 61.6125 90.6655L61.6125 92.07175ZM60.51875 90.58737Q60.51875 89.21237 60.128124 88.58737Q59.753124 87.94675 58.909374 87.94675Q58.08125 87.94675 57.690624 88.58737Q57.315624 89.21237 57.315624 90.50925L57.315624 92.24362Q57.315624 93.61862 57.70625 94.2905Q58.1125 94.94675 58.925 94.94675Q59.721874 94.94675 60.1125 94.32175Q60.503124 93.69675 60.51875 92.36862L60.51875 90.58737ZM63.39375 95.14987Q63.39375 94.86862 63.55 94.68112Q63.721874 94.49362 64.05 94.49362Q64.39375 94.49362 64.56563 94.68112Q64.7375 94.86862 64.7375 95.14987Q64.7375 95.4155 64.56563 95.603Q64.39375 95.77487 64.05 95.77487Q63.721874 95.77487 63.55 95.603Q63.39375 95.4155 63.39375 95.14987ZM71.6125 92.07175Q71.6125 93.978 70.95625 94.9155Q70.31563 95.83737 68.925 95.83737Q67.56563 95.83737 66.90938 94.93112Q66.25313 94.02487 66.22188 92.21237L66.22188 90.77487Q66.22188 88.88425 66.8625 87.978Q67.51875 87.05612 68.90938 87.05612Q70.28438 87.05612 70.94063 87.94675Q71.59688 88.82175 71.6125 90.6655L71.6125 92.07175ZM70.51875 90.58737Q70.51875 89.21237 70.12813 88.58737Q69.75313 87.94675 68.90938 87.94675Q68.08125 87.94675 67.69063 88.58737Q67.31563 89.21237 67.31563 90.50925L67.31563 92.24362Q67.31563 93.61862 67.70625 94.2905Q68.1125 94.94675 68.925 94.94675Q69.72188 94.94675 70.1125 94.32175Q70.50313 93.69675 70.51875 92.36862L70.51875 90.58737ZM78.6125 92.07175Q78.6125 93.978 77.95625 94.9155Q77.31563 95.83737 75.925 95.83737Q74.56563 95.83737 73.90938 94.93112Q73.25313 94.02487 73.22188 92.21237L73.22188 90.77487Q73.22188 88.88425 73.8625 87.978Q74.51875 87.05612 75.90938 87.05612Q77.28438 87.05612 77.94063 87.94675Q78.59688 88.82175 78.6125 90.6655L78.6125 92.07175ZM77.51875 90.58737Q77.51875 89.21237 77.12813 88.58737Q76.75313 87.94675 75.90938 87.94675Q75.08125 87.94675 74.69063 88.58737Q74.31563 89.21237 74.31563 90.50925L74.31563 92.24362Q74.31563 93.61862 74.70625 94.2905Q75.1125 94.94675 75.925 94.94675Q76.72188 94.94675 77.1125 94.32175Q77.50313 93.69675 77.51875 92.36862L77.51875 90.58737Z" fill-rule="nonzero"/><path fill="#757575" d="M23.565624 28.346874Q23.565624 27.815624 23.190624 27.45625Q22.815624 27.08125 21.909374 26.76875Q20.659374 26.39375 20.08125 25.784374Q19.51875 25.175 19.51875 24.221874Q19.51875 23.26875 20.08125 22.659374Q20.64375 22.034374 21.628124 21.925L21.628124 20.628124L22.4875 20.628124L22.4875 21.925Q23.471874 22.065624 24.01875 22.753124Q24.58125 23.440624 24.58125 24.64375L23.503124 24.64375Q23.503124 23.815624 23.096874 23.33125Q22.70625 22.846874 22.05 22.846874Q21.346874 22.846874 20.971874 23.20625Q20.6125 23.565624 20.6125 24.20625Q20.6125 24.8 21.003124 25.159374Q21.39375 25.51875 22.284374 25.815624Q23.175 26.096874 23.675 26.45625Q24.175 26.8 24.409374 27.26875Q24.64375 27.721874 24.64375 28.346874Q24.64375 29.33125 24.05 29.940624Q23.45625 30.534374 22.39375 30.64375L22.39375 31.76875L21.51875 31.76875L21.51875 30.64375Q20.425 30.55 19.8 29.878124Q19.190624 29.190624 19.190624 28.034374L20.284374 28.034374Q20.284374 28.846874 20.70625 29.284374Q21.128124 29.721874 21.925 29.721874Q22.690624 29.721874 23.128124 29.3625Q23.565624 28.9875 23.565624 28.346874ZM30.83125 27.690624L32.01875 27.690624L32.01875 28.565624L30.83125 28.565624L30.83125 30.55L29.753124 30.55L29.753124 28.565624L25.8625 28.565624L25.8625 27.925L29.675 22.01875L30.83125 22.01875L30.83125 27.690624ZM27.096874 27.690624L29.753124 27.690624L29.753124 23.503124L29.6125 23.7375L27.096874 27.690624ZM38.6125 26.909374Q38.6125 28.815624 37.95625 29.753124Q37.315624 30.675 35.925 30.675Q34.565624 30.675 33.909374 29.76875Q33.253124 28.8625 33.221874 27.05L33.221874 25.6125Q33.221874 23.721874 33.8625 22.815624Q34.51875 21.89375 35.909374 21.89375Q37.284374 21.89375 37.940624 22.784374Q38.596874 23.659374 38.6125 25.503124L38.6125 26.909374ZM37.51875 25.425Q37.51875 24.05 37.128124 23.425Q36.753124 22.784374 35.909374 22.784374Q35.08125 22.784374 34.690624 23.425Q34.315624 24.05 34.315624 25.346874L34.315624 27.08125Q34.315624 28.45625 34.70625 29.128124Q35.1125 29.784374 35.925 29.784374Q36.721874 29.784374 37.1125 29.159374Q37.503124 28.534374 37.51875 27.20625L37.51875 25.425ZM40.33125 32.253124L39.721874 31.83125Q40.26875 31.065624 40.3 30.2375L40.3 29.26875L41.3625 29.26875L41.3625 30.1125Q41.3625 30.70625 41.065624 31.3Q40.76875 31.89375 40.33125 32.253124ZM47.6125 26.909374Q47.6125 28.815624 46.95625 29.753124Q46.315624 30.675 44.925 30.675Q43.565624 30.675 42.909374 29.76875Q42.253124 28.8625 42.221874 27.05L42.221874 25.6125Q42.221874 23.721874 42.8625 22.815624Q43.51875 21.89375 44.909374 21.89375Q46.284374 21.89375 46.940624 22.784374Q47.596874 23.659374 47.6125 25.503124L47.6125 26.909374ZM46.51875 25.425Q46.51875 24.05 46.128124 23.425Q45.753124 22.784374 44.909374 22.784374Q44.08125 22.784374 43.690624 23.425Q43.315624 24.05 43.315624 25.346874L43.315624 27.08125Q43.315624 28.45625 43.70625 29.128124Q44.1125 29.784374 44.925 29.784374Q45.721874 29.784374 46.1125 29.159374Q46.503124 28.534374 46.51875 27.20625L46.51875 25.425ZM54.6125 26.909374Q54.6125 28.815624 53.95625 29.753124Q53.315624 30.675 51.925 30.675Q50.565624 30.675 49.909374 29.76875Q49.253124 28.8625 49.221874 27.05L49.221874 25.6125Q49.221874 23.721874 49.8625 22.815624Q50.51875 21.89375 51.909374 21.89375Q53.284374 21.89375 53.940624 22.784374Q54.596874 23.659374 54.6125 25.503124L54.6125 26.909374ZM53.51875 25.425Q53.51875 24.05 53.128124 23.425Q52.753124 22.784374 51.909374 22.784374Q51.08125 22.784374 50.690624 23.425Q50.315624 24.05 50.315624 25.346874L50.315624 27.08125Q50.315624 28.45625 50.70625 29.128124Q51.1125 29.784374 51.925 29.784374Q52.721874 29.784374 53.1125 29.159374Q53.503124 28.534374 53.51875 27.20625L53.51875 25.425ZM61.6125 26.909374Q61.6125 28.815624 60.95625 29.753124Q60.315624 30.675 58.925 30.675Q57.565624 30.675 56.909374 29.76875Q56.253124 28.8625 56.221874 27.05L56.221874 25.6125Q56.221874 23.721874 56.8625 22.815624Q57.51875 21.89375 58.909374 21.89375Q60.284374 21.89375 60.940624 22.784374Q61.596874 23.659374 61.6125 25.503124L61.6125 26.909374ZM60.51875 25.425Q60.51875 24.05 60.128124 23.425Q59.753124 22.784374 58.909374 22.784374Q58.08125 22.784374 57.690624 23.425Q57.315624 24.05 57.315624 25.346874L57.315624 27.08125Q57.315624 28.45625 57.70625 29.128124Q58.1125 29.784374 58.925 29.784374Q59.721874 29.784374 60.1125 29.159374Q60.503124 28.534374 60.51875 27.20625L60.51875 25.425ZM63.39375 29.9875Q63.39375 29.70625 63.55 29.51875Q63.721874 29.33125 64.05 29.33125Q64.39375 29.33125 64.56563 29.51875Q64.7375 29.70625 64.7375 29.9875Q64.7375 30.253124 64.56563 30.440624Q64.39375 30.6125 64.05 30.6125Q63.721874 30.6125 63.55 30.440624Q63.39375 30.253124 63.39375 29.9875ZM71.6125 26.909374Q71.6125 28.815624 70.95625 29.753124Q70.31563 30.675 68.925 30.675Q67.56563 30.675 66.90938 29.76875Q66.25313 28.8625 66.22188 27.05L66.22188 25.6125Q66.22188 23.721874 66.8625 22.815624Q67.51875 21.89375 68.90938 21.89375Q70.28438 21.89375 70.94063 22.784374Q71.59688 23.659374 71.6125 25.503124L71.6125 26.909374ZM70.51875 25.425Q70.51875 24.05 70.12813 23.425Q69.75313 22.784374 68.90938 22.784374Q68.08125 22.784374 67.69063 23.425Q67.31563 24.05 67.31563 25.346874L67.31563 27.08125Q67.31563 28.45625 67.70625 29.128124Q68.1125 29.784374 68.925 29.784374Q69.72188 29.784374 70.1125 29.159374Q70.50313 28.534374 70.51875 27.20625L70.51875 25.425ZM78.6125 26.909374Q78.6125 28.815624 77.95625 29.753124Q77.31563 30.675 75.925 30.675Q74.56563 30.675 73.90938 29.76875Q73.25313 28.8625 73.22188 27.05L73.22188 25.6125Q73.22188 23.721874 73.8625 22.815624Q74.51875 21.89375 75.90938 21.89375Q77.28438 21.89375 77.94063 22.784374Q78.59688 23.659374 78.6125 25.503124L78.6125 26.909374ZM77.51875 25.425Q77.51875 24.05 77.12813 23.425Q76.75313 22.784374 75.90938 22.784374Q75.08125 22.784374 74.69063 23.425Q74.31563 24.05 74.31563 25.346874L74.31563 27.08125Q74.31563 28.45625 74.70625 29.128124Q75.1125 29.784374 75.925 29.784374Q76.72188 29.784374 77.1125 29.159374Q77.50313 28.534374 77.51875 27.20625L77.51875 25.425Z" fill-rule="nonzero"/><path fill="#757575" d="M69.11422 351.1794L65.158844 355.1348L64.606415 354.58237L64.3744 350.174Q64.308105 349.17963 64.164474 348.68246Q64.009796 348.17422 63.656242 347.82068Q63.181156 347.34558 62.59558 347.33453Q62.01001 347.3014 61.523872 347.78754Q60.9604 348.35098 60.971447 349.00287Q60.971447 349.64368 61.55702 350.22925L60.79467 350.9916Q59.95498 350.15192 59.977077 349.11334Q59.999176 348.05267 60.894108 347.15775Q61.744846 346.307 62.672924 346.26282Q63.601 346.21863 64.341255 346.9589Q65.225136 347.84277 65.32457 350.2182L65.45715 353.57697L68.48446 350.54965L69.11422 351.1794ZM71.32393 343.8211Q72.67185 345.169 72.87073 346.29596Q73.0696 347.40082 72.08628 348.38416Q71.12506 349.34537 70.0202 349.16858Q68.91535 348.99182 67.61162 347.73227L66.59515 346.71582Q65.25828 345.37894 65.07046 344.28513Q64.88263 343.16922 65.86595 342.1859Q66.83823 341.21365 67.93203 341.37936Q69.014786 341.53406 70.32956 342.82672L71.32393 343.8211ZM69.50092 343.5449Q68.52865 342.5726 67.81049 342.4069Q67.09234 342.21906 66.49572 342.81567Q65.91015 343.40125 66.08692 344.13046Q66.2637 344.83755 67.180725 345.75458L68.40712 346.981Q69.37939 347.95325 70.13069 348.15213Q70.88199 348.3289 71.45651 347.75436Q72.01999 347.1909 71.85426 346.47275Q71.68854 345.75458 70.76046 344.8044L69.50092 343.5449ZM79.01372 341.27994L75.05834 345.23532L74.50591 344.6829L74.273895 340.2745Q74.2076 339.28015 74.06397 338.78296Q73.909294 338.27472 73.55574 337.92117Q73.08065 337.44608 72.49508 337.43503Q71.90951 337.4019 71.42337 337.88803Q70.85989 338.4515 70.87094 339.10336Q70.87094 339.74417 71.45651 340.32974L70.69417 341.0921Q69.85448 340.2524 69.87657 339.21387Q69.89867 338.1532 70.7936 337.25827Q71.64434 336.40753 72.57242 336.36334Q73.500496 336.31912 74.240746 337.0594Q75.12463 337.94327 75.22407 340.3187L75.35665 343.67746L78.38395 340.65018L79.01372 341.27994ZM81.22343 333.9216Q82.57135 335.26953 82.770226 336.39648Q82.96909 337.50134 81.98578 338.48465Q81.02455 339.44586 79.9197 339.2691Q78.81484 339.09232 77.511116 337.8328L76.49465 336.8163Q75.157776 335.47943 74.96995 334.38565Q74.78213 333.26974 75.76545 332.2864Q76.73772 331.31415 77.83153 331.47986Q78.91428 331.63455 80.22906 332.92725L81.22343 333.9216ZM79.40041 333.6454Q78.42815 332.67313 77.70999 332.5074Q76.99184 332.31955 76.39521 332.91617Q75.80964 333.50177 75.98642 334.23096Q76.16319 334.93808 77.08022 335.8551L78.30661 337.08148Q79.278885 338.05374 80.03018 338.25262Q80.78149 338.4294 81.35601 337.8549Q81.91949 337.2914 81.75375 336.57324Q81.58803 335.8551 80.65995 334.9049L79.40041 333.6454ZM83.77564 324.453L84.582184 323.64645L88.85797 327.92224Q89.71976 328.78403 89.686615 329.81155Q89.653465 330.81696 88.79168 331.67874Q87.89674 332.57367 86.92448 332.61786Q85.96325 332.65103 85.13461 331.8224L85.93011 331.0269Q86.44939 331.54617 87.02391 331.56827Q87.598434 331.56827 88.13982 331.0269Q88.637 330.5297 88.62595 329.92203Q88.61491 329.29227 88.06248 328.73984L83.77564 324.453ZM94.879425 325.4142Q94.68055 325.34793 94.29385 325.04962Q94.326996 326.14343 93.58675 326.88367Q92.923836 327.5466 92.117294 327.60184Q91.32179 327.64603 90.73622 327.06046Q90.04016 326.3644 90.18379 325.44736Q90.32742 324.53033 91.2997 323.55807L92.03995 322.8178L91.6864 322.46426Q91.28865 322.0665 90.81356 322.07758Q90.33848 322.0665 89.86339 322.5416Q89.45459 322.9504 89.3883 323.43652Q89.31096 323.91162 89.60927 324.20993L88.83588 324.98334Q88.49337 324.64084 88.41603 324.09946Q88.34974 323.54703 88.58176 322.96146Q88.80273 322.36484 89.288864 321.8787Q90.07331 321.09424 90.8909 321.05005Q91.71954 320.9948 92.4156 321.64667L94.48168 323.71274Q95.100395 324.33145 95.61968 324.54138L95.685974 324.60767L94.879425 325.4142ZM93.02327 326.09924Q93.38787 325.73462 93.520454 325.2264Q93.65304 324.71817 93.49836 324.2762L92.58133 323.3592L91.98471 323.9558Q90.570496 325.37003 91.39913 326.19867Q91.752686 326.55222 92.20568 326.51907Q92.64762 326.47488 93.02327 326.09924ZM99.82918 320.46448Q99.6303 320.3982 99.2436 320.09988Q99.27675 321.19366 98.53649 321.93393Q97.87358 322.59683 97.06704 322.6521Q96.271545 322.6963 95.685974 322.11072Q94.989914 321.41464 95.133545 320.49762Q95.277176 319.5806 96.24944 318.6083L96.9897 317.86807L96.63615 317.51453Q96.238396 317.11676 95.76331 317.1278Q95.28822 317.11676 94.81313 317.59186Q94.40434 318.00064 94.33805 318.4868Q94.26071 318.96188 94.55902 319.2602L93.78562 320.03357Q93.443115 319.69107 93.365776 319.1497Q93.299484 318.59726 93.5315 318.0117Q93.75247 317.41507 94.23861 316.92896Q95.023056 316.1445 95.84065 316.1003Q96.66929 316.04504 97.36535 316.69693L99.43143 318.763Q100.05015 319.3817 100.56943 319.59164L100.63572 319.65793L99.82918 320.46448ZM97.97302 321.14948Q98.33762 320.78488 98.4702 320.27664Q98.60278 319.7684 98.448105 319.32648L97.531075 318.40945L96.934456 319.00607Q95.52024 320.4203 96.348885 321.24893Q96.70244 321.60248 97.155426 321.56934Q97.59737 321.52515 97.97302 321.14948ZM98.24923 313.073L98.83481 313.61438Q98.71327 312.45428 99.54191 311.62564Q100.96717 310.20038 102.58026 311.79138L105.54127 314.75238L104.767876 315.5258L101.795815 312.5537Q101.320724 312.07864 100.86774 312.06757Q100.4258 312.04547 99.961754 312.50952Q99.586105 312.88516 99.49772 313.3713Q99.42038 313.8464 99.586105 314.32147L102.77914 317.51453L102.016785 318.27686L97.531075 313.79117L98.24923 313.073ZM109.28673 310.12305Q109.375114 311.0953 108.50228 311.96814Q107.78413 312.6863 106.98863 312.64212Q106.19314 312.5979 105.37554 311.7803L102.458725 308.8635L103.22108 308.10117L106.1158 310.99588Q107.14331 312.02338 107.971954 311.19473Q108.855835 310.31085 108.48019 309.3607L105.22086 306.10138L105.99426 305.32797L110.47997 309.8137L109.75076 310.54288L109.28673 310.12305ZM114.67841 305.61523Q114.479546 305.54895 114.09284 305.25064Q114.12599 306.34442 113.385735 307.0847Q112.722824 307.7476 111.91628 307.80286Q111.12079 307.84705 110.53521 307.26147Q109.83916 306.5654 109.98279 305.64838Q110.12642 304.73135 111.09869 303.75906L111.83894 303.01883L111.48539 302.66528Q111.08764 302.26752 110.61255 302.27856Q110.13747 302.26752 109.66238 302.7426Q109.25358 303.1514 109.187294 303.63754Q109.10995 304.11264 109.408264 304.41095L108.634865 305.18433Q108.29236 304.84183 108.21502 304.30045Q108.14873 303.74802 108.380745 303.16245Q108.601715 302.56583 109.08785 302.0797Q109.8723 301.29526 110.689896 301.25107Q111.51853 301.1958 112.21459 301.8477L114.28067 303.91376Q114.89939 304.53247 115.41867 304.7424L115.48496 304.8087L114.67841 305.61523ZM112.82226 306.30023Q113.18687 305.93564 113.31944 305.4274Q113.45203 304.91916 113.29735 304.47723L112.38032 303.5602L111.7837 304.15683Q110.369484 305.57104 111.19813 306.3997Q111.55168 306.75323 112.00467 306.7201Q112.44661 306.6759 112.82226 306.30023ZM115.23084 297.4614Q115.03197 297.6161 114.8331 297.81497Q114.07075 298.5773 114.446396 299.48328L117.62838 302.66528L116.86603 303.4276L112.38032 298.94193L113.120575 298.20166L113.6509 298.7099Q113.42993 297.7376 114.12599 297.04156Q114.34696 296.8206 114.523735 296.7543L115.23084 297.4614Z" fill-rule="nonzero"/><path fill="#757575" d="M123.241905 332.07648L119.99364 325.38107L120.86647 324.50824L124.65612 332.7836L123.96006 333.47964L115.69575 329.67896L116.55753 328.81717L123.241905 332.07648ZM129.79369 327.8228Q128.87666 328.73984 127.70552 328.71774Q126.53437 328.67355 125.52895 327.66812L125.39637 327.53555Q124.72241 326.86157 124.457245 326.08817Q124.18103 325.30374 124.34676 324.56348Q124.51249 323.80112 125.042816 323.2708Q125.91565 322.39798 126.97631 322.48636Q128.03697 322.57474 129.10869 323.64645L129.4291 323.96686L126.39074 327.00522Q127.07575 327.64603 127.84915 327.69022Q128.63359 327.72336 129.20811 327.14883Q129.60587 326.7511 129.71635 326.30914Q129.83789 325.85617 129.78264 325.35898L130.61128 325.25955Q130.92064 326.69586 129.79369 327.8228ZM125.672585 323.90057Q125.20855 324.3646 125.230644 325.02753Q125.25274 325.66833 125.79412 326.3423L128.03697 324.09943L127.98173 324.0442Q127.363014 323.49176 126.75534 323.45862Q126.15872 323.41443 125.672585 323.90057ZM134.03633 323.58017Q133.11931 324.4972 131.94815 324.4751Q130.77701 324.4309 129.77159 323.42548L129.639 323.2929Q128.96506 322.61893 128.69989 321.84555Q128.42368 321.0611 128.5894 320.32083Q128.75513 319.5585 129.28546 319.02817Q130.1583 318.15533 131.21895 318.2437Q132.27962 318.3321 133.35132 319.4038L133.67174 319.7242L130.63338 322.76257Q131.31839 323.40338 132.09178 323.44757Q132.87624 323.4807 133.45076 322.9062Q133.84851 322.50845 133.959 322.0665Q134.08052 321.61353 134.02528 321.11633L134.85393 321.0169Q135.16328 322.45322 134.03633 323.58017ZM129.91522 319.65793Q129.45119 320.12198 129.47328 320.78488Q129.49538 321.4257 130.03676 322.09964L132.27962 319.8568L132.22437 319.80154Q131.60565 319.24915 130.99799 319.21597Q130.40137 319.17178 129.91522 319.65793ZM137.93646 315.12802Q138.96399 316.15555 139.11867 317.2604Q139.27335 318.34314 138.47784 319.13864Q137.6271 319.98938 136.5554 319.84576L137.03049 320.40924L136.33443 321.1053L129.97047 314.74133L130.73282 313.97897L133.10826 316.3544Q132.99777 315.31586 133.81537 314.49826Q134.63295 313.68066 135.71571 313.83536Q136.78741 313.97897 137.87018 315.06174L137.93646 315.12802ZM137.08572 315.80197Q136.30128 315.01755 135.57208 314.90704Q134.84288 314.77448 134.2794 315.33795Q133.51704 316.10028 133.88165 317.1278L135.8262 319.07236Q136.88686 319.4259 137.6271 318.68567Q138.17953 318.13324 138.058 317.39297Q137.93646 316.6527 137.08572 315.80197ZM139.64899 310.18933Q139.45012 310.344 139.25125 310.54288Q138.48889 311.30524 138.86455 312.2112L142.04652 315.3932L141.28418 316.15555L136.79846 311.66983L137.53873 310.92957L138.06905 311.4378Q137.84808 310.46555 138.54414 309.76947Q138.7651 309.54852 138.94188 309.4822L139.64899 310.18933ZM146.4328 310.12305Q146.52118 311.0953 145.64835 311.96814Q144.93019 312.6863 144.1347 312.6421Q143.3392 312.5979 142.5216 311.7803L139.6048 308.8635L140.36714 308.10114L143.26187 310.99588Q144.28938 312.02338 145.11803 311.19473Q146.0019 310.31085 145.62625 309.3607L142.36693 306.10135L143.14034 305.32797L147.62604 309.81366L146.89684 310.54288L146.4328 310.12305ZM151.8245 305.61523Q151.62561 305.54895 151.23892 305.25064Q151.27206 306.34442 150.53181 307.0847Q149.8689 307.7476 149.06235 307.80283Q148.26686 307.84705 147.68129 307.26147Q146.98523 306.5654 147.12886 305.64838Q147.27249 304.73135 148.24477 303.75906L148.98502 303.01883L148.63145 302.66525Q148.2337 302.26752 147.75862 302.27856Q147.28354 302.26752 146.80844 302.7426Q146.39966 303.1514 146.33336 303.63754Q146.25603 304.11264 146.55434 304.41095L145.78093 305.18433Q145.43843 304.84183 145.36108 304.30045Q145.2948 303.74802 145.52682 303.16245Q145.74779 302.56583 146.23392 302.07968Q147.01837 301.29526 147.83597 301.25107Q148.6646 301.1958 149.36066 301.8477L151.42674 303.91376Q152.04546 304.53247 152.56474 304.7424L152.63103 304.8087L151.8245 305.61523ZM149.96834 306.30023Q150.33293 305.93564 150.46552 305.4274Q150.5981 304.91916 150.44342 304.47723L149.5264 303.5602L148.92976 304.15683Q147.51555 305.57104 148.3442 306.3997Q148.69775 306.75323 149.15074 306.7201Q149.59268 306.6759 149.96834 306.30023ZM152.3769 297.4614Q152.17804 297.6161 151.97917 297.81494Q151.21681 298.5773 151.59247 299.48328L154.77444 302.66525L154.0121 303.4276L149.5264 298.9419L150.26665 298.20166L150.79697 298.7099Q150.576 297.7376 151.27206 297.04156Q151.49303 296.8206 151.66982 296.7543L152.3769 297.4614Z" fill-rule="nonzero"/><path fill="#757575" d="M167.17177 315.349L174.06606 318.2879L171.1161 311.40466L172.15466 310.36612L178.18716 316.39862L177.39168 317.19412L175.03833 314.84076L172.58556 312.2333L175.48027 319.1055L174.8726 319.71317L168.0225 316.81845L170.61891 319.2602L172.97226 321.61353L172.17676 322.40903L166.14426 316.37653L167.17177 315.349ZM181.89948 312.6863Q181.7006 312.62003 181.3139 312.32172Q181.34705 313.4155 180.6068 314.15576Q179.9439 314.81866 179.13734 314.8739Q178.34184 314.91812 177.75627 314.33255Q177.06021 313.63647 177.20384 312.71945Q177.34747 311.80243 178.31975 310.83014L179.06 310.0899L178.70645 309.73633Q178.3087 309.3386 177.83362 309.34964Q177.35854 309.3386 176.88344 309.8137Q176.47464 310.22247 176.40836 310.70862Q176.33101 311.18372 176.62932 311.48203L175.85593 312.2554Q175.51343 311.9129 175.43608 311.37152Q175.3698 310.8191 175.6018 310.23352Q175.82278 309.6369 176.30891 309.15076Q177.09337 308.36633 177.91095 308.32214Q178.7396 308.26688 179.43565 308.91876L181.50174 310.98483Q182.12045 311.60355 182.63972 311.81348L182.70602 311.87976L181.89948 312.6863ZM180.04332 313.3713Q180.40793 313.0067 180.54051 312.49847Q180.6731 311.99023 180.51842 311.5483L179.60138 310.6313L179.00476 311.2279Q177.59055 312.64212 178.41919 313.47076Q178.77274 313.8243 179.22574 313.79117Q179.66768 313.74695 180.04332 313.3713ZM173.99977 309.22812Q173.81195 309.04028 173.8009 308.80826Q173.78986 308.55414 174.01082 308.3332Q174.2318 308.1122 174.47485 308.1343Q174.71793 308.1343 174.90575 308.32214Q175.09358 308.50995 175.09358 308.75302Q175.10463 308.98505 174.88365 309.20602Q174.66269 309.42697 174.41962 309.42697Q174.18759 309.41592 173.99977 309.22812ZM175.78964 307.46033Q175.6018 307.27252 175.57971 307.02945Q175.56866 306.77533 175.78964 306.55435Q176.0106 306.3334 176.25368 306.3555Q176.5078 306.36655 176.69562 306.55435Q176.87239 306.73114 176.88344 306.98526Q176.89449 307.2173 176.67352 307.43823Q176.45255 307.6592 176.20947 307.6592Q175.96642 307.63712 175.78964 307.46033ZM182.4519 304.53247Q182.25304 304.68716 182.05415 304.88602Q181.29181 305.64838 181.66747 306.55435L184.84944 309.73633L184.0871 310.4987L179.60138 306.01297L180.34163 305.27274L180.87196 305.78098Q180.651 304.8087 181.34705 304.11264Q181.56802 303.89166 181.7448 303.82538L182.4519 304.53247ZM182.38562 301.06323L183.46837 302.146L184.29701 301.31735L184.89363 301.91397L184.06499 302.7426L186.83818 305.5158Q187.1144 305.79202 187.35747 305.81412Q187.60052 305.8362 187.86569 305.57104Q187.99828 305.43845 188.1861 305.16223L188.80482 305.78098Q188.5949 306.16766 188.30763 306.45493Q187.79941 306.96317 187.22488 306.91898Q186.6393 306.8637 186.06477 306.28918L183.2916 303.51602L182.474 304.33362L181.87738 303.73697L182.69498 302.9194L181.61221 301.83664L182.38562 301.06323ZM191.15816 301.04114Q190.8488 300.73178 190.44 300.8091Q190.0312 300.86435 189.3241 301.3284Q188.62804 301.7814 188.10876 301.9471Q187.58948 302.11285 187.19173 302.04657Q186.79399 301.95816 186.46252 301.6267Q185.9101 301.07428 185.99849 300.2346Q186.07584 299.38385 186.80504 298.65466Q187.56738 297.8923 188.42917 297.82602Q189.29095 297.7376 189.89862 298.3453L189.13628 299.10764Q188.82692 298.79828 188.32973 298.85352Q187.83255 298.88666 187.4348 299.28442Q187.01495 299.70425 186.95972 300.13516Q186.90446 300.54395 187.19173 300.8312Q187.46794 301.10742 187.83255 301.0301Q188.19714 300.95276 188.90425 300.5108Q189.60031 300.05783 190.13065 299.88104Q190.66098 299.70425 191.08083 299.79266Q191.51172 299.87 191.86526 300.22354Q192.47293 300.8312 192.3514 301.68195Q192.24092 302.52164 191.47856 303.284Q190.9372 303.82538 190.32951 304.0574Q189.72185 304.2673 189.14732 304.15683Q188.5728 304.04636 188.17505 303.6486L188.93741 302.88623Q189.34619 303.25085 189.86548 303.19562Q190.37372 303.1293 190.8488 302.65424Q191.2797 302.22333 191.36809 301.7814Q191.45647 301.33945 191.15816 301.04114Z" fill-rule="nonzero"/><path fill="#757575" d="M213.20087 315.3711L210.67076 317.9012L211.68723 320.04462L210.86963 320.8622L207.13522 312.53162L207.83128 311.83557L216.17293 315.55893L215.35533 316.37653L213.20087 315.3711ZM210.26196 317.0063L212.31699 314.95126L208.47209 313.16138L210.26196 317.0063ZM218.58151 308.77512Q219.59798 309.7916 219.7637 310.88538Q219.92943 311.9792 219.1229 312.78574Q218.3053 313.60333 217.32198 313.5481L219.47644 315.70255L218.7141 316.4649L212.5048 310.2556L213.20087 309.55957L213.7312 310.0236Q213.63176 308.974 214.4604 308.14536Q215.26695 307.3388 216.33865 307.48242Q217.42142 307.61502 218.50417 308.69778L218.58151 308.77512ZM217.73077 309.44907Q216.96843 308.68674 216.20607 308.58728Q215.44373 308.46576 214.88025 309.02924Q214.18419 309.72528 214.44936 310.67548L216.59277 312.81888Q217.554 313.0951 218.26111 312.388Q218.81354 311.83557 218.70305 311.08426Q218.59256 310.31085 217.73077 309.44907ZM220.30508 303.82538Q220.10622 303.98004 219.90733 304.17892Q219.14499 304.94128 219.52065 305.84726L222.70262 309.02924L221.94026 309.7916L217.45456 305.30588L218.19481 304.5656L218.72514 305.07385Q218.50417 304.1016 219.20023 303.40552Q219.4212 303.18454 219.59798 303.11826L220.30508 303.82538ZM225.59734 306.13452L224.83499 306.89685L220.34927 302.41116L221.11163 301.6488L225.59734 306.13452ZM219.1008 301.29526Q218.91296 301.10742 218.89087 300.86435Q218.87982 300.61023 219.1008 300.38928Q219.32176 300.1683 219.56483 300.1904Q219.81895 300.20145 220.00677 300.38928Q220.18355 300.56604 220.1946 300.82016Q220.20564 301.0522 219.98468 301.27316Q219.7637 301.4941 219.52065 301.4941Q219.27757 301.47202 219.1008 301.29526ZM227.71866 304.01318L226.95631 304.77554L220.59235 298.4116L221.35469 297.64923L227.71866 304.01318ZM229.83998 301.89188L229.07762 302.65424L222.71367 296.29025L223.47601 295.52792L229.83998 301.89188Z" fill-rule="nonzero"/><path fill="#757575" d="M249.24208 307.57083L256.13638 310.50974L253.18642 303.6265L254.22498 302.58792L260.25748 308.62042L259.462 309.41592L257.10864 307.0626L254.65587 304.45514L257.5506 311.32733L256.94293 311.935L250.09282 309.04028L252.68924 311.482L255.04257 313.83536L254.24709 314.63083L248.21457 308.59833L249.24208 307.57083ZM263.9698 304.9081Q263.77094 304.84183 263.38422 304.54352Q263.41736 305.63733 262.67712 306.37756Q262.0142 307.0405 261.20767 307.09573Q260.41217 307.13992 259.8266 306.55435Q259.13052 305.8583 259.27417 304.94125Q259.4178 304.02423 260.39008 303.05197L261.1303 302.3117L260.77676 301.95816Q260.37903 301.56042 259.90393 301.57147Q259.42883 301.56042 258.95377 302.0355Q258.54495 302.4443 258.47867 302.93042Q258.40134 303.40552 258.69965 303.70383L257.92624 304.47723Q257.58374 304.13474 257.5064 303.59335Q257.4401 303.04092 257.67212 302.45535Q257.8931 301.85873 258.37924 301.3726Q259.16367 300.58813 259.98126 300.54395Q260.8099 300.4887 261.50598 301.14056L263.57205 303.20663Q264.19077 303.82538 264.71005 304.03528L264.77634 304.1016L263.9698 304.9081ZM262.11365 305.59314Q262.47824 305.22852 262.61084 304.7203Q262.7434 304.21207 262.5887 303.7701L261.6717 302.8531L261.07507 303.4497Q259.66086 304.86392 260.4895 305.69257Q260.84305 306.0461 261.29605 306.01297Q261.73798 305.96878 262.11365 305.59314ZM266.98605 301.89188L266.2237 302.6542L261.73798 298.16852L262.50034 297.40616L266.98605 301.89188ZM260.4895 297.0526Q260.30167 296.86478 260.27957 296.6217Q260.26852 296.36758 260.4895 296.14664Q260.71048 295.92566 260.95355 295.94775Q261.20767 295.9588 261.39548 296.14664Q261.57227 296.3234 261.5833 296.5775Q261.59436 296.80954 261.37338 297.03052Q261.1524 297.2515 260.90936 297.2515Q260.6663 297.22937 260.4895 297.0526Z" fill-rule="nonzero"/><path fill="#757575" d="M280.11258 313.8464L280.91913 313.03986L285.19492 317.31564Q286.0567 318.17743 286.02356 319.20496Q285.9904 320.21036 285.1286 321.07214Q284.23367 321.96707 283.2614 322.01126Q282.3002 322.04443 281.47156 321.2158L282.26703 320.4203Q282.78632 320.93958 283.36084 320.96167Q283.93536 320.96167 284.47675 320.4203Q284.97394 319.9231 284.9629 319.31543Q284.95184 318.68567 284.3994 318.13324L280.11258 313.8464ZM290.7744 314.3657Q290.8628 315.33795 289.98996 316.2108Q289.27182 316.92896 288.47632 316.88474Q287.68082 316.84055 286.86322 316.02295L283.9464 313.10614L284.70877 312.3438L287.6035 315.23853Q288.631 316.26602 289.45966 315.43738Q290.34354 314.5535 289.96786 313.60333L286.70856 310.34402L287.48196 309.57062L291.96765 314.05634L291.23846 314.78552L290.7744 314.3657ZM295.72418 309.41592Q295.81256 310.3882 294.93973 311.26105Q294.22156 311.9792 293.42606 311.935Q292.63058 311.8908 291.813 311.0732L288.89618 308.1564L289.6585 307.39404L292.55322 310.28876Q293.58075 311.31628 294.4094 310.48764Q295.29327 309.60376 294.91763 308.6536L291.6583 305.39426L292.4317 304.62088L296.91742 309.10657L296.1882 309.8358L295.72418 309.41592ZM294.58618 302.4664L295.17175 303.00778Q295.0502 301.8477 295.87885 301.01904Q297.3041 299.59378 298.9172 301.18478L301.8782 304.14578L301.1048 304.9192L298.13275 301.9471Q297.65765 301.47205 297.20468 301.461Q296.76273 301.43887 296.2987 301.90292Q295.92303 302.27856 295.83466 302.7647Q295.75732 303.2398 295.92303 303.71487L299.11606 306.90793L298.35373 307.67026L293.868 303.18457L294.58618 302.4664ZM304.1321 301.89188L303.36975 302.65424L298.88406 298.16852L299.6464 297.40616L304.1321 301.89188ZM297.63556 297.0526Q297.44775 296.86478 297.42563 296.62173Q297.41458 296.3676 297.63556 296.14664Q297.85654 295.92566 298.0996 295.94775Q298.35373 295.9588 298.54153 296.14664Q298.71832 296.32343 298.72937 296.5775Q298.74042 296.80954 298.51944 297.03052Q298.2985 297.2515 298.05542 297.2515Q297.81235 297.2294 297.63556 297.0526Z" fill-rule="nonzero"/><path fill="#757575" d="M320.0871 311.01794L320.89362 310.21143L325.1694 314.4872Q326.0312 315.349 325.99805 316.3765Q325.9649 317.38193 325.10312 318.2437Q324.2082 319.13864 323.23593 319.18283Q322.2747 319.21597 321.44604 318.38733L322.24155 317.59183Q322.76083 318.1111 323.33536 318.1332Q323.90988 318.1332 324.45126 317.59183Q324.94846 317.09467 324.9374 316.487Q324.92636 315.8572 324.37393 315.30478L320.0871 311.01794ZM330.74893 311.53723Q330.8373 312.50952 329.96448 313.38235Q329.24634 314.1005 328.45084 314.0563Q327.65533 314.01212 326.83774 313.19452L323.92093 310.2777L324.6833 309.51535L327.578 312.41006Q328.6055 313.4376 329.43414 312.60895Q330.31802 311.72507 329.94238 310.7749L326.68307 307.51556L327.45645 306.7422L331.94217 311.22787L331.21298 311.9571L330.74893 311.53723ZM335.69867 306.5875Q335.78708 307.55975 334.9142 308.4326Q334.19608 309.15076 333.40057 309.10657Q332.60507 309.06238 331.7875 308.24478L328.87067 305.32797L329.63303 304.5656L332.52774 307.46033Q333.55527 308.48785 334.3839 307.6592Q335.2678 306.77533 334.89212 305.82513L331.6328 302.56583L332.40622 301.79242L336.8919 306.27814L336.16272 307.00732L335.69867 306.5875ZM339.15686 304.01318L338.39453 304.77554L332.03055 298.41156L332.7929 297.64923L339.15686 304.01318ZM341.2782 301.89188L340.51584 302.6542L336.03012 298.16852L336.79248 297.40616L341.2782 301.89188ZM334.78165 297.0526Q334.5938 296.86478 334.57172 296.6217Q334.56067 296.36758 334.78165 296.1466Q335.00262 295.92566 335.2457 295.94775Q335.49982 295.9588 335.68762 296.1466Q335.8644 296.3234 335.87546 296.5775Q335.8865 296.80954 335.66553 297.03052Q335.44455 297.25146 335.20148 297.25146Q334.95844 297.22937 334.78165 297.0526Z" fill-rule="nonzero"/><path fill="#757575" d="M354.00696 323.14926L351.47687 325.67938L352.49332 327.8228L351.67572 328.64038L347.9413 320.30978L348.6374 319.61374L356.97903 323.3371L356.16144 324.1547L354.00696 323.14926ZM351.06805 324.78445L353.12308 322.72943L349.2782 320.93954L351.06805 324.78445ZM360.11682 319.31543Q360.2052 320.2877 359.33237 321.16052Q358.61423 321.8787 357.81873 321.8345Q357.02322 321.79028 356.20563 320.97272L353.28882 318.05588L354.05118 317.29355L356.9459 320.18826Q357.9734 321.21576 358.80203 320.38715Q359.6859 319.50323 359.31027 318.55307L356.05096 315.29376L356.82434 314.52036L361.31006 319.00607L360.58084 319.73526L360.11682 319.31543ZM360.28253 315.48157Q359.23294 314.43198 359.10034 313.32712Q358.96777 312.22226 359.76328 311.42676Q360.58084 310.60916 361.61942 310.71967L361.15536 310.18933L361.8625 309.4822L366.2377 313.85745Q367.11053 314.7303 367.08844 315.74673Q367.0774 316.77426 366.2156 317.63605Q365.72946 318.1222 365.0555 318.37628Q364.38156 318.6304 363.78494 318.51993L363.71863 317.65814Q364.81244 317.77966 365.5306 317.06152Q366.08304 316.5091 366.072 315.87933Q366.08304 315.24957 365.5085 314.67505L365.1218 314.28833Q365.19916 315.29376 364.40366 316.08923Q363.6192 316.8737 362.5033 316.73007Q361.37634 316.57538 360.28253 315.48157ZM361.14432 314.79657Q361.89563 315.54788 362.64694 315.68045Q363.38718 315.80197 363.95065 315.2385Q364.66882 314.52036 364.34842 313.51492L362.3044 311.47095Q361.31006 311.1837 360.60294 311.8908Q360.05054 312.44324 360.161 313.19452Q360.28253 313.93478 361.14432 314.79657ZM370.0163 309.41592Q370.1047 310.3882 369.23187 311.26105Q368.5137 311.9792 367.7182 311.935Q366.92273 311.8908 366.10513 311.0732L363.18832 308.1564L363.95065 307.39404L366.84537 310.28876Q367.8729 311.31628 368.70154 310.48764Q369.58542 309.60376 369.20978 308.65356L365.95044 305.39426L366.72385 304.62085L371.20956 309.10657L370.48035 309.8358L370.0163 309.41592ZM374.0601 303.86957Q373.7507 303.5602 373.34192 303.63754Q372.93314 303.69278 372.226 304.15683Q371.52997 304.6098 371.01068 304.77554Q370.4914 304.94125 370.09366 304.87497Q369.6959 304.7866 369.36444 304.45514Q368.812 303.9027 368.90042 303.06302Q368.97775 302.21228 369.70694 301.48306Q370.4693 300.72073 371.3311 300.65442Q372.19287 300.56604 372.80054 301.1737L372.03818 301.93607Q371.72882 301.6267 371.23166 301.68195Q370.73447 301.7151 370.33673 302.11285Q369.91687 302.53268 369.86163 302.9636Q369.8064 303.37238 370.09366 303.65964Q370.36987 303.93585 370.73447 303.85852Q371.09906 303.78116 371.80618 303.33923Q372.50223 302.88623 373.03256 302.70947Q373.5629 302.53268 373.98273 302.62106Q374.41364 302.69843 374.76718 303.05197Q375.37485 303.65964 375.25333 304.51038Q375.14282 305.35007 374.3805 306.11243Q373.8391 306.65378 373.23145 306.8858Q372.62378 307.09573 372.04926 306.98526Q371.47473 306.87476 371.07697 306.47702L371.83932 305.71466Q372.2481 306.07925 372.7674 306.02402Q373.27563 305.95773 373.7507 305.48264Q374.1816 305.05176 374.27 304.6098Q374.3584 304.16788 374.0601 303.86957ZM372.3586 296.8206L373.44135 297.90335L374.27 297.0747L374.8666 297.67133L374.03796 298.49997L376.81116 301.27316Q377.08737 301.54938 377.33044 301.57147Q377.57352 301.59357 377.83868 301.3284Q377.97125 301.1958 378.1591 300.9196L378.7778 301.53833Q378.56787 301.92502 378.2806 302.21228Q377.7724 302.72052 377.19788 302.67633Q376.6123 302.62106 376.03775 302.04654L373.2646 299.27338L372.447 300.09094L371.85037 299.49432L372.66797 298.67676L371.5852 297.594L372.3586 296.8206Z" fill-rule="nonzero"/><path fill="#757575" d="M375.0553 337.0373Q373.74054 337.75546 372.83453 337.79965Q371.9396 337.8328 371.30984 337.20303Q370.60275 336.4959 370.70218 335.4684Q370.8016 334.4188 371.71863 333.50177Q372.33737 332.88303 373.06656 332.63998Q373.79578 332.3969 374.48077 332.55157Q375.17685 332.69522 375.68506 333.20346L374.87854 334.00998Q374.3261 333.45758 373.66318 333.50177Q373.01132 333.5349 372.38156 334.16467Q371.796 334.75024 371.72968 335.34686Q371.65234 335.93243 372.10535 336.38544Q372.481 336.76108 373.04446 336.70584Q373.619 336.63956 374.5802 336.09818Q375.54144 335.5568 376.2154 335.39105Q376.90042 335.2143 377.44177 335.3579Q377.9942 335.4905 378.4472 335.94348Q379.18747 336.68375 379.05487 337.7002Q378.9223 338.71667 377.9721 339.66684Q377.34235 340.2966 376.5579 340.5949Q375.78452 340.88217 375.0774 340.7717Q374.3703 340.63913 373.851 340.11984L374.6465 339.32434Q375.1879 339.86572 375.91708 339.77734Q376.6463 339.68893 377.32025 339.01498Q377.95 338.38522 378.02737 337.79965Q378.09366 337.20303 377.6517 336.76108Q377.20978 336.31915 376.65735 336.38544Q376.10492 336.45172 375.0553 337.0373ZM382.7451 334.8939Q381.82806 335.8109 380.65692 335.78882Q379.48578 335.74463 378.48035 334.7392L378.34778 334.60663Q377.6738 333.93265 377.40863 333.15924Q377.13242 332.37482 377.29816 331.63455Q377.4639 330.8722 377.9942 330.3419Q378.86703 329.46906 379.9277 329.55743Q380.98837 329.6458 382.0601 330.71753L382.3805 331.03793L379.34213 334.0763Q380.02716 334.7171 380.80054 334.7613Q381.585 334.79443 382.15952 334.2199Q382.55725 333.82217 382.66776 333.38022Q382.78928 332.92725 382.73404 332.43005L383.56268 332.33063Q383.87204 333.76694 382.7451 334.8939ZM378.624 330.97165Q378.15994 331.43567 378.18204 332.0986Q378.20413 332.7394 378.7455 333.41336L380.98837 331.1705L380.93314 331.11526Q380.31442 330.56284 379.70673 330.5297Q379.1101 330.4855 378.624 330.97165ZM386.6342 326.4528Q387.65063 327.46927 387.81638 328.56305Q387.9821 329.65686 387.17557 330.4634Q386.35797 331.281 385.37463 331.22577L387.5291 333.38022L386.76675 334.14258L380.55746 327.9333L381.25354 327.23724L381.78387 327.70126Q381.68442 326.65167 382.51306 325.82303Q383.3196 325.01648 384.39133 325.1601Q385.4741 325.2927 386.55682 326.37546L386.6342 326.4528ZM385.78345 327.12674Q385.0211 326.3644 384.25873 326.26495Q383.4964 326.14343 382.93292 326.7069Q382.23685 327.40295 382.502 328.35315L384.64545 330.49655Q385.60666 330.77277 386.31378 330.06567Q386.86618 329.51324 386.7557 328.76193Q386.64523 327.98853 385.78345 327.12674ZM385.46304 320.8622L386.54578 321.94498L387.37442 321.11633L387.97104 321.71295L387.1424 322.5416L389.9156 325.3148Q390.1918 325.591 390.43488 325.6131Q390.67795 325.6352 390.9431 325.37003Q391.07568 325.23746 391.26352 324.96124L391.88223 325.57996Q391.6723 325.96664 391.38504 326.2539Q390.87683 326.76215 390.30228 326.71796Q389.7167 326.66272 389.14218 326.0882L386.36902 323.315L385.55142 324.1326L384.9548 323.53598L385.7724 322.71838L384.68964 321.63562L385.46304 320.8622ZM394.7659 322.87305Q393.84888 323.7901 392.67773 323.768Q391.5066 323.7238 390.50116 322.71838L390.3686 322.5858Q389.6946 321.91183 389.42944 321.13843Q389.15323 320.354 389.31897 319.61374Q389.4847 318.85138 390.015 318.32108Q390.88788 317.4482 391.94852 317.53662Q393.0092 317.625 394.0809 318.69672L394.4013 319.01712L391.36295 322.05548Q392.04797 322.6963 392.82135 322.74048Q393.6058 322.77362 394.18033 322.1991Q394.57806 321.80136 394.68857 321.3594Q394.8101 320.90643 394.75485 320.40924L395.5835 320.30978Q395.89285 321.74612 394.7659 322.87305ZM390.6448 318.95084Q390.18076 319.41486 390.20285 320.0778Q390.22495 320.7186 390.76633 321.39255L393.0092 319.1497L392.95395 319.09445Q392.33524 318.54202 391.72754 318.50888Q391.13092 318.4647 390.6448 318.95084ZM393.29645 315.19434L393.81573 315.6694Q393.72733 314.60876 394.56702 313.76907Q395.50616 312.82993 396.5668 313.2056Q396.46738 312.6642 396.62207 312.1118Q396.78778 311.5483 397.27393 311.06216Q398.75443 309.58167 400.33438 311.1174L403.33957 314.12262L402.5772 314.88495L399.6162 311.92395Q399.1411 311.44885 398.68814 311.4378Q398.2241 311.4157 397.7048 311.935Q397.27393 312.3659 397.24078 312.9073Q397.2187 313.4376 397.60538 313.9127L400.57742 316.88474L399.8151 317.6471L396.8762 314.7082Q395.9039 313.7359 394.9427 314.69714Q394.19138 315.44843 394.55597 316.36548L397.82635 319.63583L397.05295 320.40924L392.56723 315.92352L393.29645 315.19434ZM406.4442 306.64276Q407.47174 307.67026 407.6264 308.77512Q407.7811 309.85788 406.9856 310.65338Q406.13486 311.50412 405.06314 311.36047L405.53824 311.92395L404.84216 312.62003L398.4782 306.25604L399.24057 305.4937L401.616 307.86914Q401.50552 306.83057 402.32312 306.01297Q403.1407 305.1954 404.22345 305.35007Q405.29517 305.4937 406.37793 306.57645L406.4442 306.64276ZM405.59348 307.3167Q404.80902 306.53226 404.07983 306.42178Q403.35062 306.28918 402.78714 306.85266Q402.0248 307.61502 402.3894 308.64255L404.33395 310.58707Q405.3946 310.94064 406.13486 310.20038Q406.6873 309.64795 406.56573 308.9077Q406.4442 308.16745 405.59348 307.3167ZM411.73648 305.9025Q410.81943 306.81952 409.6483 306.79742Q408.47714 306.75323 407.47174 305.74783L407.33914 305.61523Q406.6652 304.94128 406.40002 304.16788Q406.1238 303.38342 406.28952 302.6432Q406.45526 301.88083 406.9856 301.3505Q407.85843 300.47766 408.9191 300.56604Q409.97974 300.65445 411.05145 301.72614L411.37186 302.04657L408.33353 305.0849Q409.01852 305.7257 409.79193 305.76993Q410.57635 305.80307 411.15088 305.22855Q411.54865 304.83078 411.65912 304.38885Q411.78067 303.93585 411.7254 303.43866L412.55405 303.33923Q412.8634 304.77554 411.73648 305.9025ZM407.61536 301.98026Q407.1513 302.4443 407.17343 303.1072Q407.19553 303.74805 407.7369 304.422L409.97974 302.17914L409.9245 302.1239Q409.3058 301.57147 408.69812 301.53833Q408.1015 301.49414 407.61536 301.98026ZM412.39938 297.46143Q412.2005 297.6161 412.00162 297.81497Q411.2393 298.5773 411.61493 299.4833L414.7969 302.66528L414.03458 303.4276L409.54886 298.94193L410.2891 298.20166L410.81943 298.7099Q410.59848 297.7376 411.29453 297.04156Q411.5155 296.8206 411.69226 296.7543L412.39938 297.46143Z" fill-rule="nonzero"/><path fill="#757575" d="M421.29434 327.67917Q422.17822 328.56305 422.54282 329.52426Q422.89636 330.47446 422.6975 331.38043Q422.50967 332.27536 421.78046 333.00455Q421.07336 333.71167 420.1674 333.91055Q419.2614 334.1094 418.31122 333.77795Q417.36105 333.4244 416.48822 332.57367L416.0573 332.14276Q415.18448 331.26993 414.8199 330.30872Q414.46634 329.33646 414.66522 328.43045Q414.85303 327.51343 415.5712 326.7953Q416.28934 326.07712 417.1953 325.87827Q418.10132 325.67938 419.06253 326.04398Q420.02374 326.40857 420.90762 327.29245L421.29434 327.67917ZM420.11215 328.06586Q419.04044 326.99414 418.035 326.85052Q417.0296 326.70688 416.2562 327.4803Q415.49384 328.24265 415.63748 329.24805Q415.7811 330.25348 416.78653 331.28098L417.23953 331.73398Q418.27808 332.77255 419.3056 332.93826Q420.3331 333.0819 421.09546 332.31955Q421.86887 331.54614 421.73627 330.57388Q421.6037 329.5795 420.56512 328.51886L420.11215 328.06586ZM424.18906 326.26495L424.2001 327.24826L425.78003 328.82822L425.0177 329.59058L418.65375 323.2266L419.41608 322.46426L423.261 326.30914L423.18362 325.4142L423.1063 322.53055L424.03436 321.60248L424.16696 325.22638L428.73 325.87827L427.82404 326.78424L424.18906 326.26495ZM424.73044 318.7409L425.8132 319.82364L426.6418 318.995L427.23846 319.59164L426.40982 320.42026L429.18298 323.19345Q429.4592 323.46967 429.70227 323.49176Q429.94534 323.51385 430.2105 323.2487Q430.34308 323.11612 430.5309 322.8399L431.14963 323.45862Q430.93973 323.8453 430.65247 324.13257Q430.14423 324.6408 429.5697 324.59662Q428.98413 324.54138 428.4096 323.96686L425.6364 321.19366L424.81882 322.01126L424.2222 321.41464L425.0398 320.59705L423.95703 319.51428L424.73044 318.7409ZM429.5918 320.44235Q428.93994 319.7905 428.66373 319.00604Q428.39856 318.21057 428.58636 317.4703Q428.76315 316.719 429.34872 316.13342Q430.26575 315.2164 431.45898 315.28268Q432.6633 315.33795 433.72394 316.3986L433.77917 316.45386Q434.43106 317.1057 434.69623 317.87912Q434.9614 318.6525 434.79565 319.41486Q434.61887 320.16617 434.0112 320.77383Q433.10522 321.6798 431.90094 321.62457Q430.69666 321.5472 429.64703 320.49762L429.5918 320.44235ZM430.46463 319.7684Q431.20486 320.50867 432.00037 320.61914Q432.80692 320.71857 433.38144 320.14404Q433.967 319.55847 433.85654 318.763Q433.735 317.95645 432.90634 317.1278Q432.17715 316.3986 431.3706 316.29916Q430.56406 316.17764 429.9785 316.7632Q429.415 317.3267 429.51447 318.1332Q429.6139 318.91766 430.46463 319.7684ZM434.54153 315.4926Q433.88968 314.84076 433.61346 314.0563Q433.3483 313.2608 433.53613 312.52057Q433.7129 311.76926 434.29846 311.1837Q435.21548 310.26666 436.40875 310.33295Q437.61304 310.38818 438.6737 311.44885L438.72894 311.5041Q439.3808 312.15594 439.64597 312.92935Q439.91113 313.70276 439.7454 314.46512Q439.56863 315.2164 438.96097 315.82407Q438.05496 316.73004 436.85068 316.6748Q435.6464 316.59747 434.59677 315.54785L434.54153 315.4926ZM435.41437 314.81866Q436.15463 315.5589 436.95013 315.6694Q437.75665 315.76883 438.33118 315.1943Q438.91675 314.60873 438.80627 313.81323Q438.68475 313.00668 437.8561 312.17807Q437.1269 311.44885 436.32034 311.34943Q435.51382 311.22787 434.92822 311.81345Q434.36478 312.37692 434.4642 313.18347Q434.56363 313.96793 435.41437 314.81866ZM443.5903 306.64273Q444.6178 307.67026 444.7725 308.77512Q444.92715 309.85785 444.13168 310.65335Q443.28094 311.5041 442.20923 311.36047L442.68433 311.92395L441.98825 312.62L435.6243 306.25604L436.38666 305.49368L438.7621 307.8691Q438.6516 306.83057 439.46918 306.01297Q440.28677 305.19537 441.36954 305.35007Q442.44125 305.49368 443.52402 306.57645L443.5903 306.64273ZM442.73956 307.3167Q441.9551 306.53226 441.22592 306.42175Q440.4967 306.28918 439.93323 306.85266Q439.17087 307.61502 439.5355 308.64252L441.48 310.58707Q442.54068 310.9406 443.28094 310.20038Q443.83337 309.64795 443.71182 308.90768Q443.5903 308.16745 442.73956 307.3167ZM448.88254 305.9025Q447.9655 306.81952 446.79437 306.79742Q445.62323 306.75323 444.6178 305.7478L444.48523 305.61523Q443.81128 304.94125 443.5461 304.16788Q443.2699 303.38342 443.4356 302.64316Q443.60135 301.88083 444.13168 301.3505Q445.00452 300.47766 446.06516 300.56604Q447.12582 300.65442 448.19754 301.72614L448.51794 302.04654L445.47958 305.0849Q446.1646 305.7257 446.93802 305.7699Q447.72244 305.80304 448.29697 305.22852Q448.69473 304.83078 448.8052 304.38882Q448.92673 303.93585 448.8715 303.43866L449.70013 303.33923Q450.0095 304.77554 448.88254 305.9025ZM444.76144 301.98026Q444.2974 302.44427 444.3195 303.1072Q444.34158 303.74802 444.88297 304.42197L447.12582 302.17914L447.0706 302.12387Q446.45187 301.57144 445.8442 301.5383Q445.2476 301.4941 444.76144 301.98026ZM449.54547 297.4614Q449.3466 297.6161 449.1477 297.81494Q448.38538 298.5773 448.76102 299.48328L451.943 302.66525L451.18063 303.4276L446.69495 298.9419L447.43518 298.20166L447.9655 298.70987Q447.74454 297.7376 448.4406 297.04156Q448.6616 296.8206 448.83835 296.7543L449.54547 297.4614Z" fill-rule="nonzero"/><path fill="#757575" d="M456.308 335.4463L455.51254 336.2418L447.82275 334.6287L452.47418 339.28015L451.66763 340.08667L445.63513 334.05417L446.44168 333.24765L454.15356 334.8828L449.48004 330.2093L450.2755 329.4138L456.308 335.4463ZM455.42413 331.75607Q454.77228 331.10422 454.49606 330.31976Q454.2309 329.5243 454.41873 328.78403Q454.5955 328.0327 455.18106 327.44714Q456.0981 326.53012 457.29135 326.5964Q458.49564 326.65164 459.5563 327.7123L459.61154 327.76755Q460.2634 328.41943 460.52856 329.1928Q460.79373 329.96622 460.62802 330.72858Q460.45123 331.47986 459.84357 332.08752Q458.9376 332.99353 457.73328 332.93826Q456.529 332.86093 455.4794 331.81134L455.42413 331.75607ZM456.29697 331.08212Q457.03723 331.8224 457.83273 331.93286Q458.63928 332.0323 459.2138 331.45776Q459.79938 330.8722 459.68887 330.0767Q459.56735 329.27017 458.7387 328.44153Q458.0095 327.7123 457.20297 327.61288Q456.39642 327.49133 455.81085 328.0769Q455.24738 328.64038 455.3468 329.44693Q455.44623 330.23138 456.29697 331.08212ZM463.30176 326.37543L460.97052 321.8124L461.75494 321.02795L464.6276 327.12674L464.042 327.7123L457.93216 324.85074L458.7166 324.06628L463.30176 326.37543ZM469.05804 322.87305Q468.14102 323.79007 466.96988 323.76797Q465.79874 323.7238 464.7933 322.71838L464.66074 322.5858Q463.98676 321.91183 463.7216 321.13843Q463.44537 320.35397 463.6111 319.61374Q463.77686 318.85138 464.30716 318.32104Q465.18 317.4482 466.24066 317.53662Q467.30133 317.625 468.37305 318.69672L468.69345 319.01712L465.6551 322.05545Q466.34012 322.6963 467.1135 322.74048Q467.89795 322.77362 468.47247 322.1991Q468.8702 321.80133 468.9807 321.3594Q469.10223 320.9064 469.047 320.40924L469.87564 320.30978Q470.185 321.7461 469.05804 322.87305ZM464.93695 318.9508Q464.4729 319.41486 464.495 320.07776Q464.5171 320.7186 465.05847 321.39255L467.30133 319.1497L467.2461 319.09445Q466.62738 318.54202 466.01968 318.50888Q465.42307 318.4647 464.93695 318.9508ZM467.5886 315.1943L468.10788 315.6694Q468.01947 314.60873 468.85916 313.76904Q469.7983 312.82993 470.85895 313.20557Q470.75952 312.66418 470.9142 312.1118Q471.07993 311.5483 471.56607 311.06216Q473.04657 309.58167 474.62653 311.1174L477.6317 314.12262L476.86935 314.88495L473.90836 311.92395Q473.43326 311.44885 472.9803 311.4378Q472.51624 311.4157 471.99695 311.935Q471.56607 312.36588 471.53293 312.90726Q471.51083 313.4376 471.89752 313.9127L474.86957 316.88474L474.10724 317.6471L471.1683 314.7082Q470.19604 313.7359 469.23483 314.69714Q468.48352 315.44843 468.8481 316.36545L472.1185 319.63583L471.3451 320.40924L466.85938 315.92352L467.5886 315.1943ZM480.73636 306.64273Q481.7639 307.67026 481.91855 308.77512Q482.07324 309.85788 481.27774 310.65335Q480.427 311.5041 479.3553 311.36047L479.83038 311.92395L479.1343 312.62L472.77036 306.25604L473.5327 305.49368L475.90814 307.86914Q475.79767 306.83057 476.61523 306.01297Q477.43283 305.19537 478.5156 305.35007Q479.5873 305.49368 480.67007 306.57645L480.73636 306.64273ZM479.88562 307.3167Q479.10117 306.53226 478.37198 306.42178Q477.64276 306.28918 477.07928 306.85266Q476.31693 307.61502 476.68155 308.64252L478.6261 310.58707Q479.68674 310.9406 480.427 310.20038Q480.97943 309.64795 480.85788 308.90768Q480.73636 308.16745 479.88562 307.3167ZM486.0286 305.9025Q485.11157 306.81952 483.94043 306.79742Q482.7693 306.75323 481.7639 305.7478L481.6313 305.61523Q480.95734 304.94125 480.69217 304.16788Q480.41595 303.38342 480.58167 302.64316Q480.7474 301.88083 481.27774 301.3505Q482.15057 300.47766 483.21124 300.56604Q484.27188 300.65442 485.3436 301.72614L485.664 302.04654L482.62567 305.0849Q483.31067 305.7257 484.08408 305.7699Q484.8685 305.80304 485.44302 305.22852Q485.8408 304.83078 485.95126 304.38885Q486.0728 303.93585 486.01755 303.43866L486.8462 303.33923Q487.15555 304.77554 486.0286 305.9025ZM481.9075 301.98026Q481.44345 302.4443 481.46555 303.1072Q481.48767 303.74802 482.02902 304.422L484.27188 302.17914L484.21664 302.1239Q483.59793 301.57147 482.99026 301.53833Q482.39365 301.4941 481.9075 301.98026ZM486.69153 297.4614Q486.49265 297.6161 486.29376 297.81497Q485.53143 298.5773 485.90707 299.48328L489.08905 302.66525L488.3267 303.4276L483.841 298.9419L484.58124 298.20166L485.11157 298.7099Q484.8906 297.7376 485.58667 297.04156Q485.80765 296.8206 485.9844 296.7543L486.69153 297.4614Z" fill-rule="nonzero"/><path fill="#757575" d="M487.39948 341.50092L481.36697 335.4684L483.0795 333.7559Q483.86395 332.97144 484.81412 332.72836Q485.7643 332.4632 486.73657 332.77255Q487.70883 333.0819 488.54852 333.9216L488.9242 334.29724Q489.78598 335.15903 490.09534 336.13132Q490.41574 337.09253 490.13953 338.05377Q489.87436 339.00394 489.07886 339.82153L487.39948 341.50092ZM482.81433 335.32477L487.54312 340.05356L488.3828 339.21387Q489.29984 338.2968 489.2446 337.22513Q489.18936 336.13132 488.1287 335.07065L487.77515 334.7171Q486.74762 333.68958 485.698 333.61224Q484.6484 333.51282 483.74243 334.3967L482.81433 335.32477ZM494.8904 334.18677Q493.97336 335.1038 492.80222 335.0817Q491.63107 335.0375 490.62567 334.0321L490.49307 333.8995Q489.81912 333.22556 489.55396 332.45215Q489.27774 331.6677 489.44345 330.92746Q489.6092 330.1651 490.13953 329.63477Q491.01236 328.76193 492.07303 328.8503Q493.13367 328.93872 494.20538 330.0104L494.5258 330.33084L491.48746 333.36917Q492.17245 334.00998 492.94586 334.0542Q493.7303 334.08734 494.3048 333.51282Q494.70258 333.11505 494.81305 332.67313Q494.9346 332.22012 494.87933 331.72293L495.70798 331.6235Q496.01733 333.0598 494.8904 334.18677ZM490.7693 330.26453Q490.30524 330.72858 490.32736 331.39148Q490.34946 332.03232 490.89084 332.70627L493.13367 330.4634L493.07843 330.40817Q492.45972 329.85574 491.85205 329.8226Q491.25543 329.7784 490.7693 330.26453ZM492.6586 325.10486L493.74136 326.18762L494.56998 325.35898L495.1666 325.9556L494.33798 326.78424L497.11115 329.55743Q497.38736 329.83365 497.63043 329.85574Q497.8735 329.87784 498.13867 329.61267Q498.27124 329.4801 498.45908 329.2039L499.0778 329.8226Q498.86786 330.2093 498.5806 330.49655Q498.0724 331.0048 497.49786 330.9606Q496.9123 330.90536 496.33777 330.33084L493.56458 327.55765L492.74698 328.37524L492.15036 327.77863L492.96796 326.96103L491.8852 325.87827L492.6586 325.10486ZM501.43112 325.08276Q501.12177 324.7734 500.71298 324.85074Q500.30417 324.906 499.59708 325.37003Q498.90103 325.82303 498.38174 325.98874Q497.86246 326.15448 497.46472 326.0882Q497.06696 325.9998 496.7355 325.66833Q496.18307 325.1159 496.27145 324.2762Q496.34882 323.42548 497.078 322.6963Q497.84036 321.93393 498.70215 321.86765Q499.56393 321.77927 500.1716 322.38693L499.40924 323.14926Q499.09988 322.8399 498.60272 322.89517Q498.10553 322.9283 497.70776 323.32605Q497.28793 323.7459 497.2327 324.1768Q497.17746 324.58557 497.46472 324.87283Q497.74094 325.14905 498.10553 325.07172Q498.47012 324.9944 499.17725 324.55243Q499.8733 324.09946 500.40363 323.92267Q500.93396 323.7459 501.3538 323.8343Q501.7847 323.91162 502.13824 324.26517Q502.7459 324.87283 502.6244 325.72357Q502.5139 326.56326 501.75156 327.32562Q501.21017 327.867 500.6025 328.09903Q499.9948 328.30893 499.4203 328.19846Q498.84576 328.08798 498.44803 327.69022L499.2104 326.9279Q499.61917 327.29248 500.13846 327.23724Q500.6467 327.17096 501.12177 326.69586Q501.55267 326.26495 501.64105 325.82303Q501.72943 325.38107 501.43112 325.08276ZM506.2041 322.87305Q505.28708 323.7901 504.11594 323.768Q502.9448 323.7238 501.93936 322.71838L501.8068 322.5858Q501.1328 321.91183 500.86765 321.13843Q500.59143 320.354 500.75717 319.61374Q500.9229 318.85138 501.45322 318.32108Q502.32608 317.4482 503.38672 317.53662Q504.4474 317.625 505.5191 318.69672L505.8395 319.01712L502.80115 322.05548Q503.48618 322.6963 504.25955 322.74048Q505.044 322.77362 505.61853 322.1991Q506.01627 321.80136 506.12677 321.3594Q506.2483 320.90643 506.19305 320.40924L507.0217 320.30978Q507.33105 321.74612 506.2041 322.87305ZM502.083 318.95084Q501.61896 319.41486 501.64105 320.0778Q501.66315 320.7186 502.20453 321.39255L504.4474 319.1497L504.39215 319.09445Q503.77344 318.54202 503.16574 318.50888Q502.56912 318.4647 502.083 318.95084ZM504.73465 315.19434L505.25394 315.6694Q505.16553 314.60876 506.00522 313.76907Q506.94437 312.82993 508.005 313.2056Q507.90558 312.6642 508.06027 312.1118Q508.22598 311.5483 508.71213 311.06216Q510.19263 309.58167 511.77258 311.1174L514.7778 314.12262L514.01544 314.88498L511.0544 311.92395Q510.5793 311.44885 510.12634 311.4378Q509.6623 311.4157 509.143 311.935Q508.71213 312.3659 508.679 312.9073Q508.6569 313.4376 509.04358 313.9127L512.0156 316.88477L511.2533 317.6471L508.3144 314.7082Q507.3421 313.7359 506.3809 314.69714Q505.62958 315.44843 505.99417 316.36548L509.26456 319.63583L508.49115 320.40924L504.00543 315.92352L504.73465 315.19434ZM517.88245 306.64276Q518.9099 307.67026 519.06464 308.77512Q519.2193 309.85788 518.42377 310.65338Q517.57306 311.50412 516.50134 311.36047L516.97644 311.92395L516.2804 312.62003L509.9164 306.25604L510.67877 305.4937L513.0542 307.86914Q512.9437 306.83057 513.7613 306.01297Q514.5789 305.1954 515.6617 305.35007Q516.73334 305.4937 517.8161 306.57645L517.88245 306.64276ZM517.0317 307.3167Q516.24725 306.53226 515.518 306.42178Q514.7888 306.28918 514.22534 306.85266Q513.463 307.61502 513.8276 308.64255L515.77216 310.58707Q516.8328 310.94064 517.57306 310.20038Q518.1255 309.64795 518.00397 308.9077Q517.88245 308.16745 517.0317 307.3167ZM523.1747 305.9025Q522.2576 306.81952 521.0865 306.79742Q519.91534 306.75323 518.9099 305.74783L518.77734 305.61523Q518.1034 304.94128 517.8382 304.16788Q517.562 303.38342 517.7277 302.6432Q517.8935 301.88083 518.42377 301.3505Q519.29663 300.47766 520.3573 300.56604Q521.41797 300.65445 522.4897 301.72614L522.81006 302.04657L519.7717 305.0849Q520.4567 305.7257 521.2301 305.76993Q522.0146 305.80307 522.5891 305.22855Q522.9868 304.83078 523.09735 304.38885Q523.2189 303.93585 523.16364 303.43866L523.99225 303.33923Q524.30164 304.77554 523.1747 305.9025ZM519.0536 301.98026Q518.58954 302.4443 518.61163 303.1072Q518.6337 303.74805 519.1751 304.422L521.41797 302.17914L521.36273 302.1239Q520.744 301.57147 520.1363 301.53833Q519.5397 301.49414 519.0536 301.98026ZM523.8376 297.46143Q523.63873 297.6161 523.4398 297.81497Q522.6775 298.5773 523.05316 299.4833L526.2351 302.66528L525.4728 303.4276L520.98706 298.94193L521.7273 298.20166L522.2576 298.7099Q522.0367 297.7376 522.7327 297.04156Q522.9537 296.8206 523.1305 296.7543L523.8376 297.46143Z" fill-rule="nonzero"/><path fill="#757575" d="M514.86707 351.17938L510.91168 355.13477L510.35925 354.58234L510.12723 350.17398Q510.06094 349.1796 509.91733 348.68243Q509.76263 348.1742 509.4091 347.82065Q508.934 347.34555 508.34842 347.3345Q507.76285 347.30136 507.2767 347.78748Q506.71323 348.35095 506.72427 349.00284Q506.72427 349.64365 507.30984 350.22922L506.54752 350.99158Q505.70782 350.1519 505.72992 349.1133Q505.752 348.05264 506.64694 347.1577Q507.49768 346.30698 508.42575 346.2628Q509.35385 346.2186 510.0941 346.95886Q510.97797 347.84274 511.07742 350.21817L511.21 353.57693L514.2373 350.54962L514.86707 351.17938ZM517.0768 343.82108Q518.4247 345.16898 518.6236 346.29593Q518.82245 347.4008 517.8391 348.38412Q516.87787 349.34534 515.7731 349.16855Q514.6682 348.9918 513.36444 347.73224L512.348 346.7158Q511.0111 345.3789 510.8233 344.2851Q510.63547 343.1692 511.6188 342.18588Q512.59106 341.2136 513.6849 341.37933Q514.76764 341.53403 516.0824 342.8267L517.0768 343.82108ZM515.2538 343.54486Q514.2815 342.57257 513.56335 342.40686Q512.84515 342.21902 512.24854 342.81564Q511.663 343.4012 511.83975 344.13043Q512.01654 344.83752 512.9336 345.75455L514.16 346.98096Q515.1322 347.95322 515.88354 348.1521Q516.6348 348.32886 517.20935 347.75433Q517.7728 347.19086 517.6071 346.47272Q517.44135 345.75455 516.5133 344.80438L515.2538 343.54486ZM524.76654 341.2799L520.81116 345.2353L520.2587 344.68286L520.02673 340.27448Q519.96045 339.28012 519.81683 338.78293Q519.6621 338.2747 519.3086 337.92114Q518.8335 337.44604 518.2479 337.435Q517.66235 337.40186 517.1762 337.888Q516.61273 338.45148 516.6238 339.10333Q516.6238 339.74414 517.20935 340.3297L516.447 341.09207Q515.6073 340.25238 515.6294 339.2138Q515.6515 338.15317 516.54645 337.25824Q517.39716 336.4075 518.32526 336.3633Q519.25336 336.3191 519.9936 337.05936Q520.87744 337.94324 520.9769 340.31866L521.1095 343.67743L524.1368 340.65015L524.76654 341.2799ZM528.27997 337.76645L527.51764 338.5288L522.4132 333.42438L521.4299 335.53467L520.7338 334.8386L522.1039 331.8113L522.21436 331.7008L528.27997 337.76645ZM529.5285 324.45297L530.335 323.64642L534.61084 327.9222Q535.4726 328.784 535.43945 329.81152Q535.4063 330.81693 534.5445 331.6787Q533.6496 332.57364 532.6773 332.61783Q531.71606 332.651 530.88745 331.82236L531.6829 331.02686Q532.2022 331.54614 532.77673 331.56824Q533.35126 331.56824 533.89264 331.02686Q534.38983 330.52966 534.3788 329.922Q534.36774 329.29224 533.8153 328.7398L529.5285 324.45297ZM540.63226 325.41418Q540.4334 325.3479 540.0467 325.0496Q540.07983 326.1434 539.3396 326.88364Q538.6767 327.54657 537.8701 327.6018Q537.07465 327.646 536.4891 327.06042Q535.793 326.36438 535.93665 325.44733Q536.08026 324.5303 537.05255 323.55804L537.7928 322.81778L537.4392 322.46423Q537.0415 322.06647 536.5664 322.07755Q536.0913 322.06647 535.6162 322.54156Q535.20746 322.95038 535.1411 323.4365Q535.0638 323.9116 535.3621 324.2099L534.5887 324.9833Q534.2462 324.64078 534.1689 324.09943Q534.1026 323.547 534.3346 322.96143Q534.55554 322.3648 535.0417 321.87866Q535.8262 321.0942 536.64374 321.05002Q537.4724 320.99478 538.16846 321.64664L540.2345 323.7127Q540.8532 324.33142 541.3725 324.54135L541.4388 324.60764L540.63226 325.41418ZM538.7761 326.0992Q539.1407 325.7346 539.2733 325.22638Q539.4059 324.71814 539.2512 324.27618L538.33417 323.35916L537.73755 323.95578Q536.32336 325.37 537.152 326.19864Q537.50555 326.5522 537.9585 326.51904Q538.40045 326.47485 538.7761 326.0992ZM545.58203 320.46445Q545.3831 320.39816 544.99646 320.09985Q545.0296 321.19363 544.2893 321.9339Q543.6264 322.5968 542.8199 322.65207Q542.02435 322.69626 541.4388 322.1107Q540.74274 321.4146 540.8864 320.4976Q541.03 319.58057 542.00226 318.60828L542.74255 317.86804L542.389 317.5145Q541.9912 317.11673 541.5162 317.12778Q541.0411 317.11673 540.566 317.59183Q540.15717 318.0006 540.0909 318.48676Q540.01355 318.96185 540.3119 319.26016L539.53845 320.03354Q539.196 319.69104 539.1186 319.14966Q539.0523 318.59723 539.28436 318.01166Q539.5053 317.41504 539.99146 316.9289Q540.7759 316.14447 541.5935 316.10028Q542.4221 316.045 543.11816 316.6969L545.18427 318.76297Q545.803 319.38168 546.32227 319.5916L546.38855 319.6579L545.58203 320.46445ZM543.7258 321.14944Q544.09045 320.78485 544.223 320.2766Q544.35565 319.76837 544.2009 319.32645L543.28394 318.40942L542.6873 319.00604Q541.2731 320.42026 542.10175 321.2489Q542.45526 321.60245 542.90826 321.5693Q543.3502 321.52512 543.7258 321.14944ZM544.0021 313.07297L544.58765 313.61435Q544.4661 312.45425 545.29474 311.6256Q546.72003 310.20035 548.3331 311.79135L551.2941 314.75235L550.5207 315.52576L547.54865 312.55368Q547.07355 312.0786 546.6206 312.06754Q546.17865 312.04544 545.7146 312.5095Q545.3389 312.88513 545.25055 313.37128Q545.1732 313.84637 545.3389 314.32144L548.532 317.5145L547.76965 318.27682L543.28394 313.79114L544.0021 313.07297ZM555.03955 310.12302Q555.1279 311.09528 554.2551 311.9681Q553.537 312.68628 552.74146 312.64206Q551.946 312.59787 551.12836 311.78027L548.21155 308.86346L548.97394 308.10114L551.86865 310.99585Q552.8962 312.02335 553.7248 311.1947Q554.6087 310.31082 554.23303 309.36066L550.9737 306.10135L551.74713 305.32794L556.2328 309.81366L555.5036 310.54285L555.03955 310.12302ZM560.4313 305.6152Q560.23236 305.54892 559.8457 305.2506Q559.87885 306.3444 559.13855 307.08466Q558.47565 307.74756 557.6691 307.80283Q556.8736 307.84702 556.288 307.26144Q555.592 306.56537 555.7356 305.64835Q555.8793 304.73132 556.8515 303.75903L557.5918 303.0188L557.2382 302.66525Q556.84045 302.2675 556.3654 302.27853Q555.8903 302.2675 555.4152 302.74258Q555.0064 303.15137 554.9401 303.6375Q554.8628 304.1126 555.1611 304.41092L554.3877 305.1843Q554.0452 304.8418 553.96783 304.3004Q553.90155 303.748 554.1336 303.1624Q554.35455 302.5658 554.8407 302.07968Q555.6251 301.29523 556.44275 301.25104Q557.27136 301.19577 557.9674 301.84766L560.0335 303.91373Q560.6522 304.53244 561.1715 304.74237L561.2378 304.80865L560.4313 305.6152ZM558.5751 306.3002Q558.9397 305.9356 559.07227 305.42737Q559.2049 304.91913 559.0502 304.4772L558.1332 303.56018L557.53656 304.1568Q556.1223 305.571 556.951 306.39966Q557.3045 306.7532 557.7575 306.72006Q558.19946 306.67587 558.5751 306.3002ZM560.9837 297.46136Q560.7848 297.61606 560.58594 297.81494Q559.8236 298.57727 560.1992 299.48325L563.3812 302.66525L562.6189 303.42758L558.1332 298.9419L558.8734 298.20163L559.40375 298.70987Q559.1828 297.73758 559.87885 297.04153Q560.0998 296.82056 560.27655 296.75427L560.9837 297.46136Z" fill-rule="nonzero"/></svg>