<svg version="1.1" viewBox="0.0 0.0 600.0 371.0" fill="none" stroke="none" stroke-linecap="square" stroke-miterlimit="10" width="600" height="371" xmlns:xlink="http://www.w3.org/1999/xlink" xmlns="http://www.w3.org/2000/svg"><path fill="#ffffff" d="M0 0L600.0 0L600.0 371.0L0 371.0L0 0Z" fill-rule="nonzero"/><path stroke="#333333" stroke-width="1.0" stroke-linecap="butt" d="M69.5 278.5L581.5 278.5" fill-rule="nonzero"/><path stroke="#cccccc" stroke-width="1.0" stroke-linecap="butt" d="M69.5 215.5L581.5 215.5" fill-rule="nonzero"/><path stroke="#cccccc" stroke-width="1.0" stroke-linecap="butt" d="M69.5 152.5L581.5 152.5" fill-rule="nonzero"/><path stroke="#cccccc" stroke-width="1.0" stroke-linecap="butt" d="M69.5 89.5L581.5 89.5" fill-rule="nonzero"/><path stroke="#cccccc" stroke-width="1.0" stroke-linecap="butt" d="M69.5 26.5L581.5 26.5" fill-rule="nonzero"/><clipPath id="id_0"><path d="M69.55 26.05L581.45 26.05L581.45 278.2142L69.55 278.2142L69.55 26.05Z" clip-rule="nonzero"/></clipPath><path stroke="#000000" stroke-width="2.0" stroke-linecap="butt" stroke-opacity="0.0" clip-path="url(#id_0)" d="M108.0 278.0L83.0 278.0L83.0 98.0C83.0 96.89543 83.89543 96.0 85.0 96.0L106.0 96.0C107.10457 96.0 108.0 96.89543 108.0 98.0Z" fill-rule="nonzero"/><path fill="#4285f4" clip-path="url(#id_0)" d="M108.0 278.0L83.0 278.0L83.0 98.0C83.0 96.89543 83.89543 96.0 85.0 96.0L106.0 96.0C107.10457 96.0 108.0 96.89543 108.0 98.0Z" fill-rule="nonzero"/><path stroke="#000000" stroke-width="2.0" stroke-linecap="butt" stroke-opacity="0.0" clip-path="url(#id_0)" d="M147.0 278.0L122.0 278.0L122.0 168.0C122.0 166.89543 122.89543 166.0 124.0 166.0L145.0 166.0C146.10457 166.0 147.0 166.89543 147.0 168.0Z" fill-rule="nonzero"/><path fill="#4285f4" clip-path="url(#id_0)" d="M147.0 278.0L122.0 278.0L122.0 168.0C122.0 166.89543 122.89543 166.0 124.0 166.0L145.0 166.0C146.10457 166.0 147.0 166.89543 147.0 168.0Z" fill-rule="nonzero"/><path stroke="#000000" stroke-width="2.0" stroke-linecap="butt" stroke-opacity="0.0" clip-path="url(#id_0)" d="M185.0 278.0L160.0 278.0L160.0 149.0C160.0 147.89543 160.89543 147.0 162.0 147.0L183.0 147.0C184.10457 147.0 185.0 147.89543 185.0 149.0Z" fill-rule="nonzero"/><path fill="#4285f4" clip-path="url(#id_0)" d="M185.0 278.0L160.0 278.0L160.0 149.0C160.0 147.89543 160.89543 147.0 162.0 147.0L183.0 147.0C184.10457 147.0 185.0 147.89543 185.0 149.0Z" fill-rule="nonzero"/><path stroke="#000000" stroke-width="2.0" stroke-linecap="butt" stroke-opacity="0.0" clip-path="url(#id_0)" d="M223.0 278.0L198.0 278.0L198.0 102.0C198.0 100.89543 198.89543 100.0 200.0 100.0L221.0 100.0C222.10457 100.0 223.0 100.89543 223.0 102.0Z" fill-rule="nonzero"/><path fill="#4285f4" clip-path="url(#id_0)" d="M223.0 278.0L198.0 278.0L198.0 102.0C198.0 100.89543 198.89543 100.0 200.0 100.0L221.0 100.0C222.10457 100.0 223.0 100.89543 223.0 102.0Z" fill-rule="nonzero"/><path stroke="#000000" stroke-width="2.0" stroke-linecap="butt" stroke-opacity="0.0" clip-path="url(#id_0)" d="M262.0 278.0L237.0 278.0L237.0 95.0C237.0 93.89543 237.89543 93.0 239.0 93.0L260.0 93.0C261.10458 93.0 262.0 93.89543 262.0 95.0Z" fill-rule="nonzero"/><path fill="#4285f4" clip-path="url(#id_0)" d="M262.0 278.0L237.0 278.0L237.0 95.0C237.0 93.89543 237.89543 93.0 239.0 93.0L260.0 93.0C261.10458 93.0 262.0 93.89543 262.0 95.0Z" fill-rule="nonzero"/><path stroke="#000000" stroke-width="2.0" stroke-linecap="butt" stroke-opacity="0.0" clip-path="url(#id_0)" d="M300.0 278.0L275.0 278.0L275.0 103.0C275.0 101.89543 275.89542 101.0 277.0 101.0L298.0 101.0C299.10458 101.0 300.0 101.89543 300.0 103.0Z" fill-rule="nonzero"/><path fill="#4285f4" clip-path="url(#id_0)" d="M300.0 278.0L275.0 278.0L275.0 103.0C275.0 101.89543 275.89542 101.0 277.0 101.0L298.0 101.0C299.10458 101.0 300.0 101.89543 300.0 103.0Z" fill-rule="nonzero"/><path stroke="#000000" stroke-width="2.0" stroke-linecap="butt" stroke-opacity="0.0" clip-path="url(#id_0)" d="M339.0 278.0L314.0 278.0L314.0 65.0C314.0 63.89543 314.89542 63.0 316.0 63.0L337.0 63.0C338.10458 63.0 339.0 63.89543 339.0 65.0Z" fill-rule="nonzero"/><path fill="#4285f4" clip-path="url(#id_0)" d="M339.0 278.0L314.0 278.0L314.0 65.0C314.0 63.89543 314.89542 63.0 316.0 63.0L337.0 63.0C338.10458 63.0 339.0 63.89543 339.0 65.0Z" fill-rule="nonzero"/><path stroke="#000000" stroke-width="2.0" stroke-linecap="butt" stroke-opacity="0.0" clip-path="url(#id_0)" d="M377.0 278.0L352.0 278.0L352.0 67.0C352.0 65.89543 352.89542 65.0 354.0 65.0L375.0 65.0C376.10458 65.0 377.0 65.89543 377.0 67.0Z" fill-rule="nonzero"/><path fill="#4285f4" clip-path="url(#id_0)" d="M377.0 278.0L352.0 278.0L352.0 67.0C352.0 65.89543 352.89542 65.0 354.0 65.0L375.0 65.0C376.10458 65.0 377.0 65.89543 377.0 67.0Z" fill-rule="nonzero"/><path stroke="#000000" stroke-width="2.0" stroke-linecap="butt" stroke-opacity="0.0" clip-path="url(#id_0)" d="M415.0 278.0L390.0 278.0L390.0 102.0C390.0 100.89543 390.89542 100.0 392.0 100.0L413.0 100.0C414.10458 100.0 415.0 100.89543 415.0 102.0Z" fill-rule="nonzero"/><path fill="#4285f4" clip-path="url(#id_0)" d="M415.0 278.0L390.0 278.0L390.0 102.0C390.0 100.89543 390.89542 100.0 392.0 100.0L413.0 100.0C414.10458 100.0 415.0 100.89543 415.0 102.0Z" fill-rule="nonzero"/><path stroke="#000000" stroke-width="2.0" stroke-linecap="butt" stroke-opacity="0.0" clip-path="url(#id_0)" d="M454.0 278.0L429.0 278.0L429.0 61.0C429.0 59.89543 429.89542 59.0 431.0 59.0L452.0 59.0C453.10458 59.0 454.0 59.89543 454.0 61.0Z" fill-rule="nonzero"/><path fill="#4285f4" clip-path="url(#id_0)" d="M454.0 278.0L429.0 278.0L429.0 61.0C429.0 59.89543 429.89542 59.0 431.0 59.0L452.0 59.0C453.10458 59.0 454.0 59.89543 454.0 61.0Z" fill-rule="nonzero"/><path stroke="#000000" stroke-width="2.0" stroke-linecap="butt" stroke-opacity="0.0" clip-path="url(#id_0)" d="M492.0 278.0L467.0 278.0L467.0 74.0C467.0 72.89543 467.89542 72.0 469.0 72.0L490.0 72.0C491.10458 72.0 492.0 72.89543 492.0 74.0Z" fill-rule="nonzero"/><path fill="#4285f4" clip-path="url(#id_0)" d="M492.0 278.0L467.0 278.0L467.0 74.0C467.0 72.89543 467.89542 72.0 469.0 72.0L490.0 72.0C491.10458 72.0 492.0 72.89543 492.0 74.0Z" fill-rule="nonzero"/><path stroke="#000000" stroke-width="2.0" stroke-linecap="butt" stroke-opacity="0.0" clip-path="url(#id_0)" d="M530.0 278.0L505.0 278.0L505.0 70.0C505.0 68.89543 505.89542 68.0 507.0 68.0L528.0 68.0C529.10455 68.0 530.0 68.89543 530.0 70.0Z" fill-rule="nonzero"/><path fill="#4285f4" clip-path="url(#id_0)" d="M530.0 278.0L505.0 278.0L505.0 70.0C505.0 68.89543 505.89542 68.0 507.0 68.0L528.0 68.0C529.10455 68.0 530.0 68.89543 530.0 70.0Z" fill-rule="nonzero"/><path stroke="#000000" stroke-width="2.0" stroke-linecap="butt" stroke-opacity="0.0" clip-path="url(#id_0)" d="M569.0 278.0L544.0 278.0L544.0 63.0C544.0 61.89543 544.89545 61.0 546.0 61.0L567.0 61.0C568.10455 61.0 569.0 61.89543 569.0 63.0Z" fill-rule="nonzero"/><path fill="#4285f4" clip-path="url(#id_0)" d="M569.0 278.0L544.0 278.0L544.0 63.0C544.0 61.89543 544.89545 61.0 546.0 61.0L567.0 61.0C568.10455 61.0 569.0 61.89543 569.0 63.0Z" fill-rule="nonzero"/><path fill="#757575" d="M37.51875 279.54233L35.26875 279.54233Q35.3 280.68295 35.815624 281.30795Q36.346874 281.91733 37.315624 281.91733Q38.003124 281.91733 38.596874 281.7142L38.721874 282.6517Q38.01875 282.8392 37.315624 282.8392Q35.8625 282.8392 35.01875 281.97983Q34.190624 281.12045 34.14375 279.54233L33.1125 279.54233L33.1125 278.82358L34.14375 278.82358L34.14375 278.01108L33.1125 278.01108L33.1125 277.2767L34.14375 277.2767Q34.20625 275.74545 35.034374 274.9017Q35.878124 274.05795 37.3 274.05795Q37.925 274.05795 38.721874 274.24545L38.596874 275.19858Q37.95625 274.99545 37.315624 274.99545Q36.346874 274.99545 35.83125 275.5892Q35.315624 276.18295 35.284374 277.2767L37.51875 277.2767L37.51875 278.01108L35.26875 278.01108L35.26875 278.82358L37.51875 278.82358L37.51875 279.54233ZM45.6125 279.07358Q45.6125 280.97983 44.95625 281.91733Q44.315624 282.8392 42.925 282.8392Q41.565624 282.8392 40.909374 281.93295Q40.253124 281.0267 40.221874 279.2142L40.221874 277.7767Q40.221874 275.88608 40.8625 274.97983Q41.51875 274.05795 42.909374 274.05795Q44.284374 274.05795 44.940624 274.94858Q45.596874 275.82358 45.6125 277.66733L45.6125 279.07358ZM44.51875 277.5892Q44.51875 276.2142 44.128124 275.5892Q43.753124 274.94858 42.909374 274.94858Q42.08125 274.94858 41.690624 275.5892Q41.315624 276.2142 41.315624 277.51108L41.315624 279.24545Q41.315624 280.62045 41.70625 281.29233Q42.1125 281.94858 42.925 281.94858Q43.721874 281.94858 44.1125 281.32358Q44.503124 280.69858 44.51875 279.37045L44.51875 277.5892ZM47.39375 282.1517Q47.39375 281.87045 47.55 281.68295Q47.721874 281.49545 48.05 281.49545Q48.39375 281.49545 48.565624 281.68295Q48.7375 281.87045 48.7375 282.1517Q48.7375 282.41733 48.565624 282.60483Q48.39375 282.7767 48.05 282.7767Q47.721874 282.7767 47.55 282.60483Q47.39375 282.41733 47.39375 282.1517ZM55.6125 279.07358Q55.6125 280.97983 54.95625 281.91733Q54.315624 282.8392 52.925 282.8392Q51.565624 282.8392 50.909374 281.93295Q50.253124 281.0267 50.221874 279.2142L50.221874 277.7767Q50.221874 275.88608 50.8625 274.97983Q51.51875 274.05795 52.909374 274.05795Q54.284374 274.05795 54.940624 274.94858Q55.596874 275.82358 55.6125 277.66733L55.6125 279.07358ZM54.51875 277.5892Q54.51875 276.2142 54.128124 275.5892Q53.753124 274.94858 52.909374 274.94858Q52.08125 274.94858 51.690624 275.5892Q51.315624 276.2142 51.315624 277.51108L51.315624 279.24545Q51.315624 280.62045 51.70625 281.29233Q52.1125 281.94858 52.925 281.94858Q53.721874 281.94858 54.1125 281.32358Q54.503124 280.69858 54.51875 279.37045L54.51875 277.5892ZM62.6125 279.07358Q62.6125 280.97983 61.95625 281.91733Q61.315624 282.8392 59.925 282.8392Q58.565624 282.8392 57.909374 281.93295Q57.253124 281.0267 57.221874 279.2142L57.221874 277.7767Q57.221874 275.88608 57.8625 274.97983Q58.51875 274.05795 59.909374 274.05795Q61.284374 274.05795 61.940624 274.94858Q62.596874 275.82358 62.6125 277.66733L62.6125 279.07358ZM61.51875 277.5892Q61.51875 276.2142 61.128124 275.5892Q60.753124 274.94858 59.909374 274.94858Q59.08125 274.94858 58.690624 275.5892Q58.315624 276.2142 58.315624 277.51108L58.315624 279.24545Q58.315624 280.62045 58.70625 281.29233Q59.1125 281.94858 59.925 281.94858Q60.721874 281.94858 61.1125 281.32358Q61.503124 280.69858 61.51875 279.37045L61.51875 277.5892Z" fill-rule="nonzero"/><path fill="#757575" d="M30.51875 216.50127L28.26875 216.50127Q28.3 217.64189 28.815624 218.26689Q29.346874 218.87627 30.315624 218.87627Q31.003124 218.87627 31.596874 218.67314L31.721874 219.61064Q31.01875 219.79814 30.315624 219.79814Q28.8625 219.79814 28.01875 218.93877Q27.190624 218.07939 27.14375 216.50127L26.1125 216.50127L26.1125 215.78252L27.14375 215.78252L27.14375 214.97002L26.1125 214.97002L26.1125 214.23564L27.14375 214.23564Q27.20625 212.70439 28.034374 211.86064Q28.878124 211.01689 30.3 211.01689Q30.925 211.01689 31.721874 211.20439L31.596874 212.15752Q30.95625 211.95439 30.315624 211.95439Q29.346874 211.95439 28.83125 212.54814Q28.315624 213.14189 28.284374 214.23564L30.51875 214.23564L30.51875 214.97002L28.26875 214.97002L28.26875 215.78252L30.51875 215.78252L30.51875 216.50127ZM38.846874 219.67314L33.253124 219.67314L33.253124 218.89189L36.20625 215.61064Q36.8625 214.86064 37.1125 214.40752Q37.3625 213.93877 37.3625 213.43877Q37.3625 212.76689 36.95625 212.34502Q36.565624 211.90752 35.878124 211.90752Q35.08125 211.90752 34.628124 212.37627Q34.175 212.82939 34.175 213.65752L33.096874 213.65752Q33.096874 212.47002 33.846874 211.75127Q34.6125 211.01689 35.878124 211.01689Q37.08125 211.01689 37.76875 211.64189Q38.45625 212.26689 38.45625 213.31377Q38.45625 214.56377 36.846874 216.31377L34.565624 218.78252L38.846874 218.78252L38.846874 219.67314ZM40.753124 215.39189L41.190624 211.14189L45.565624 211.14189L45.565624 212.14189L42.1125 212.14189L41.846874 214.47002Q42.4875 214.09502 43.284374 214.09502Q44.440624 214.09502 45.128124 214.87627Q45.815624 215.64189 45.815624 216.95439Q45.815624 218.26689 45.096874 219.03252Q44.39375 219.79814 43.1125 219.79814Q41.9875 219.79814 41.26875 219.17314Q40.55 218.53252 40.45625 217.42314L41.471874 217.42314Q41.58125 218.15752 42.003124 218.53252Q42.425 218.90752 43.1125 218.90752Q43.8625 218.90752 44.3 218.39189Q44.7375 217.87627 44.7375 216.97002Q44.7375 216.11064 44.26875 215.59502Q43.8 215.07939 43.01875 215.07939Q42.315624 215.07939 41.909374 215.37627L41.628124 215.61064L40.753124 215.39189ZM47.39375 219.11064Q47.39375 218.82939 47.55 218.64189Q47.721874 218.45439 48.05 218.45439Q48.39375 218.45439 48.565624 218.64189Q48.7375 218.82939 48.7375 219.11064Q48.7375 219.37627 48.565624 219.56377Q48.39375 219.73564 48.05 219.73564Q47.721874 219.73564 47.55 219.56377Q47.39375 219.37627 47.39375 219.11064ZM55.6125 216.03252Q55.6125 217.93877 54.95625 218.87627Q54.315624 219.79814 52.925 219.79814Q51.565624 219.79814 50.909374 218.89189Q50.253124 217.98564 50.221874 216.17314L50.221874 214.73564Q50.221874 212.84502 50.8625 211.93877Q51.51875 211.01689 52.909374 211.01689Q54.284374 211.01689 54.940624 211.90752Q55.596874 212.78252 55.6125 214.62627L55.6125 216.03252ZM54.51875 214.54814Q54.51875 213.17314 54.128124 212.54814Q53.753124 211.90752 52.909374 211.90752Q52.08125 211.90752 51.690624 212.54814Q51.315624 213.17314 51.315624 214.47002L51.315624 216.20439Q51.315624 217.57939 51.70625 218.25127Q52.1125 218.90752 52.925 218.90752Q53.721874 218.90752 54.1125 218.28252Q54.503124 217.65752 54.51875 216.32939L54.51875 214.54814ZM62.6125 216.03252Q62.6125 217.93877 61.95625 218.87627Q61.315624 219.79814 59.925 219.79814Q58.565624 219.79814 57.909374 218.89189Q57.253124 217.98564 57.221874 216.17314L57.221874 214.73564Q57.221874 212.84502 57.8625 211.93877Q58.51875 211.01689 59.909374 211.01689Q61.284374 211.01689 61.940624 211.90752Q62.596874 212.78252 62.6125 214.62627L62.6125 216.03252ZM61.51875 214.54814Q61.51875 213.17314 61.128124 212.54814Q60.753124 211.90752 59.909374 211.90752Q59.08125 211.90752 58.690624 212.54814Q58.315624 213.17314 58.315624 214.47002L58.315624 216.20439Q58.315624 217.57939 58.70625 218.25127Q59.1125 218.90752 59.925 218.90752Q60.721874 218.90752 61.1125 218.28252Q61.503124 217.65752 61.51875 216.32939L61.51875 214.54814Z" fill-rule="nonzero"/><path fill="#757575" d="M30.51875 153.46022L28.26875 153.46022Q28.3 154.60085 28.815624 155.22585Q29.346874 155.83522 30.315624 155.83522Q31.003124 155.83522 31.596874 155.6321L31.721874 156.5696Q31.01875 156.7571 30.315624 156.7571Q28.8625 156.7571 28.01875 155.89772Q27.190624 155.03835 27.14375 153.46022L26.1125 153.46022L26.1125 152.74147L27.14375 152.74147L27.14375 151.92897L26.1125 151.92897L26.1125 151.1946L27.14375 151.1946Q27.20625 149.66335 28.034374 148.8196Q28.878124 147.97585 30.3 147.97585Q30.925 147.97585 31.721874 148.16335L31.596874 149.11647Q30.95625 148.91335 30.315624 148.91335Q29.346874 148.91335 28.83125 149.5071Q28.315624 150.10085 28.284374 151.1946L30.51875 151.1946L30.51875 151.92897L28.26875 151.92897L28.26875 152.74147L30.51875 152.74147L30.51875 153.46022ZM33.753124 152.35085L34.190624 148.10085L38.565624 148.10085L38.565624 149.10085L35.1125 149.10085L34.846874 151.42897Q35.4875 151.05397 36.284374 151.05397Q37.440624 151.05397 38.128124 151.83522Q38.815624 152.60085 38.815624 153.91335Q38.815624 155.22585 38.096874 155.99147Q37.39375 156.7571 36.1125 156.7571Q34.9875 156.7571 34.26875 156.1321Q33.55 155.49147 33.45625 154.3821L34.471874 154.3821Q34.58125 155.11647 35.003124 155.49147Q35.425 155.86647 36.1125 155.86647Q36.8625 155.86647 37.3 155.35085Q37.7375 154.83522 37.7375 153.92897Q37.7375 153.0696 37.26875 152.55397Q36.8 152.03835 36.01875 152.03835Q35.315624 152.03835 34.909374 152.33522L34.628124 152.5696L33.753124 152.35085ZM45.6125 152.99147Q45.6125 154.89772 44.95625 155.83522Q44.315624 156.7571 42.925 156.7571Q41.565624 156.7571 40.909374 155.85085Q40.253124 154.9446 40.221874 153.1321L40.221874 151.6946Q40.221874 149.80397 40.8625 148.89772Q41.51875 147.97585 42.909374 147.97585Q44.284374 147.97585 44.940624 148.86647Q45.596874 149.74147 45.6125 151.58522L45.6125 152.99147ZM44.51875 151.5071Q44.51875 150.1321 44.128124 149.5071Q43.753124 148.86647 42.909374 148.86647Q42.08125 148.86647 41.690624 149.5071Q41.315624 150.1321 41.315624 151.42897L41.315624 153.16335Q41.315624 154.53835 41.70625 155.21022Q42.1125 155.86647 42.925 155.86647Q43.721874 155.86647 44.1125 155.24147Q44.503124 154.61647 44.51875 153.28835L44.51875 151.5071ZM47.39375 156.0696Q47.39375 155.78835 47.55 155.60085Q47.721874 155.41335 48.05 155.41335Q48.39375 155.41335 48.565624 155.60085Q48.7375 155.78835 48.7375 156.0696Q48.7375 156.33522 48.565624 156.52272Q48.39375 156.6946 48.05 156.6946Q47.721874 156.6946 47.55 156.52272Q47.39375 156.33522 47.39375 156.0696ZM55.6125 152.99147Q55.6125 154.89772 54.95625 155.83522Q54.315624 156.7571 52.925 156.7571Q51.565624 156.7571 50.909374 155.85085Q50.253124 154.9446 50.221874 153.1321L50.221874 151.6946Q50.221874 149.80397 50.8625 148.89772Q51.51875 147.97585 52.909374 147.97585Q54.284374 147.97585 54.940624 148.86647Q55.596874 149.74147 55.6125 151.58522L55.6125 152.99147ZM54.51875 151.5071Q54.51875 150.1321 54.128124 149.5071Q53.753124 148.86647 52.909374 148.86647Q52.08125 148.86647 51.690624 149.5071Q51.315624 150.1321 51.315624 151.42897L51.315624 153.16335Q51.315624 154.53835 51.70625 155.21022Q52.1125 155.86647 52.925 155.86647Q53.721874 155.86647 54.1125 155.24147Q54.503124 154.61647 54.51875 153.28835L54.51875 151.5071ZM62.6125 152.99147Q62.6125 154.89772 61.95625 155.83522Q61.315624 156.7571 59.925 156.7571Q58.565624 156.7571 57.909374 155.85085Q57.253124 154.9446 57.221874 153.1321L57.221874 151.6946Q57.221874 149.80397 57.8625 148.89772Q58.51875 147.97585 59.909374 147.97585Q61.284374 147.97585 61.940624 148.86647Q62.596874 149.74147 62.6125 151.58522L62.6125 152.99147ZM61.51875 151.5071Q61.51875 150.1321 61.128124 149.5071Q60.753124 148.86647 59.909374 148.86647Q59.08125 148.86647 58.690624 149.5071Q58.315624 150.1321 58.315624 151.42897L58.315624 153.16335Q58.315624 154.53835 58.70625 155.21022Q59.1125 155.86647 59.925 155.86647Q60.721874 155.86647 61.1125 155.24147Q61.503124 154.61647 61.51875 153.28835L61.51875 151.5071Z" fill-rule="nonzero"/><path fill="#757575" d="M30.51875 90.419174L28.26875 90.419174Q28.3 91.5598 28.815624 92.1848Q29.346874 92.794174 30.315624 92.794174Q31.003124 92.794174 31.596874 92.59105L31.721874 93.52855Q31.01875 93.71605 30.315624 93.71605Q28.8625 93.71605 28.01875 92.856674Q27.190624 91.9973 27.14375 90.419174L26.1125 90.419174L26.1125 89.700424L27.14375 89.700424L27.14375 88.887924L26.1125 88.887924L26.1125 88.15355L27.14375 88.15355Q27.20625 86.6223 28.034374 85.77855Q28.878124 84.9348 30.3 84.9348Q30.925 84.9348 31.721874 85.1223L31.596874 86.075424Q30.95625 85.8723 30.315624 85.8723Q29.346874 85.8723 28.83125 86.46605Q28.315624 87.0598 28.284374 88.15355L30.51875 88.15355L30.51875 88.887924L28.26875 88.887924L28.26875 89.700424L30.51875 89.700424L30.51875 90.419174ZM38.76875 85.669174L35.2375 93.59105L34.096874 93.59105L37.6125 85.950424L33.003124 85.950424L33.003124 85.0598L38.76875 85.0598L38.76875 85.669174ZM40.753124 89.3098L41.190624 85.0598L45.565624 85.0598L45.565624 86.0598L42.1125 86.0598L41.846874 88.387924Q42.4875 88.012924 43.284374 88.012924Q44.440624 88.012924 45.128124 88.794174Q45.815624 89.5598 45.815624 90.8723Q45.815624 92.1848 45.096874 92.950424Q44.39375 93.71605 43.1125 93.71605Q41.9875 93.71605 41.26875 93.09105Q40.55 92.450424 40.45625 91.34105L41.471874 91.34105Q41.58125 92.075424 42.003124 92.450424Q42.425 92.825424 43.1125 92.825424Q43.8625 92.825424 44.3 92.3098Q44.7375 91.794174 44.7375 90.887924Q44.7375 90.02855 44.26875 89.512924Q43.8 88.9973 43.01875 88.9973Q42.315624 88.9973 41.909374 89.294174L41.628124 89.52855L40.753124 89.3098ZM47.39375 93.02855Q47.39375 92.7473 47.55 92.5598Q47.721874 92.3723 48.05 92.3723Q48.39375 92.3723 48.565624 92.5598Q48.7375 92.7473 48.7375 93.02855Q48.7375 93.294174 48.565624 93.481674Q48.39375 93.65355 48.05 93.65355Q47.721874 93.65355 47.55 93.481674Q47.39375 93.294174 47.39375 93.02855ZM55.6125 89.950424Q55.6125 91.856674 54.95625 92.794174Q54.315624 93.71605 52.925 93.71605Q51.565624 93.71605 50.909374 92.8098Q50.253124 91.90355 50.221874 90.09105L50.221874 88.65355Q50.221874 86.762924 50.8625 85.856674Q51.51875 84.9348 52.909374 84.9348Q54.284374 84.9348 54.940624 85.825424Q55.596874 86.700424 55.6125 88.544174L55.6125 89.950424ZM54.51875 88.46605Q54.51875 87.09105 54.128124 86.46605Q53.753124 85.825424 52.909374 85.825424Q52.08125 85.825424 51.690624 86.46605Q51.315624 87.09105 51.315624 88.387924L51.315624 90.1223Q51.315624 91.4973 51.70625 92.169174Q52.1125 92.825424 52.925 92.825424Q53.721874 92.825424 54.1125 92.200424Q54.503124 91.575424 54.51875 90.2473L54.51875 88.46605ZM62.6125 89.950424Q62.6125 91.856674 61.95625 92.794174Q61.315624 93.71605 59.925 93.71605Q58.565624 93.71605 57.909374 92.8098Q57.253124 91.90355 57.221874 90.09105L57.221874 88.65355Q57.221874 86.762924 57.8625 85.856674Q58.51875 84.9348 59.909374 84.9348Q61.284374 84.9348 61.940624 85.825424Q62.596874 86.700424 62.6125 88.544174L62.6125 89.950424ZM61.51875 88.46605Q61.51875 87.09105 61.128124 86.46605Q60.753124 85.825424 59.909374 85.825424Q59.08125 85.825424 58.690624 86.46605Q58.315624 87.09105 58.315624 88.387924L58.315624 90.1223Q58.315624 91.4973 58.70625 92.169174Q59.1125 92.825424 59.925 92.825424Q60.721874 92.825424 61.1125 92.200424Q61.503124 91.575424 61.51875 90.2473L61.51875 88.46605Z" fill-rule="nonzero"/><path fill="#757575" d="M23.51875 27.378124L21.26875 27.378124Q21.3 28.51875 21.815624 29.14375Q22.346874 29.753124 23.315624 29.753124Q24.003124 29.753124 24.596874 29.55L24.721874 30.4875Q24.01875 30.675 23.315624 30.675Q21.8625 30.675 21.01875 29.815624Q20.190624 28.95625 20.14375 27.378124L19.1125 27.378124L19.1125 26.659374L20.14375 26.659374L20.14375 25.846874L19.1125 25.846874L19.1125 25.1125L20.14375 25.1125Q20.20625 23.58125 21.034374 22.7375Q21.878124 21.89375 23.3 21.89375Q23.925 21.89375 24.721874 22.08125L24.596874 23.034374Q23.95625 22.83125 23.315624 22.83125Q22.346874 22.83125 21.83125 23.425Q21.315624 24.01875 21.284374 25.1125L23.51875 25.1125L23.51875 25.846874L21.26875 25.846874L21.26875 26.659374L23.51875 26.659374L23.51875 27.378124ZM29.815624 30.55L28.7375 30.55L28.7375 23.33125L26.55 24.128124L26.55 23.14375L29.659374 21.971874L29.815624 21.971874L29.815624 30.55ZM38.6125 26.909374Q38.6125 28.815624 37.95625 29.753124Q37.315624 30.675 35.925 30.675Q34.565624 30.675 33.909374 29.76875Q33.253124 28.8625 33.221874 27.05L33.221874 25.6125Q33.221874 23.721874 33.8625 22.815624Q34.51875 21.89375 35.909374 21.89375Q37.284374 21.89375 37.940624 22.784374Q38.596874 23.659374 38.6125 25.503124L38.6125 26.909374ZM37.51875 25.425Q37.51875 24.05 37.128124 23.425Q36.753124 22.784374 35.909374 22.784374Q35.08125 22.784374 34.690624 23.425Q34.315624 24.05 34.315624 25.346874L34.315624 27.08125Q34.315624 28.45625 34.70625 29.128124Q35.1125 29.784374 35.925 29.784374Q36.721874 29.784374 37.1125 29.159374Q37.503124 28.534374 37.51875 27.20625L37.51875 25.425ZM45.6125 26.909374Q45.6125 28.815624 44.95625 29.753124Q44.315624 30.675 42.925 30.675Q41.565624 30.675 40.909374 29.76875Q40.253124 28.8625 40.221874 27.05L40.221874 25.6125Q40.221874 23.721874 40.8625 22.815624Q41.51875 21.89375 42.909374 21.89375Q44.284374 21.89375 44.940624 22.784374Q45.596874 23.659374 45.6125 25.503124L45.6125 26.909374ZM44.51875 25.425Q44.51875 24.05 44.128124 23.425Q43.753124 22.784374 42.909374 22.784374Q42.08125 22.784374 41.690624 23.425Q41.315624 24.05 41.315624 25.346874L41.315624 27.08125Q41.315624 28.45625 41.70625 29.128124Q42.1125 29.784374 42.925 29.784374Q43.721874 29.784374 44.1125 29.159374Q44.503124 28.534374 44.51875 27.20625L44.51875 25.425ZM47.39375 29.9875Q47.39375 29.70625 47.55 29.51875Q47.721874 29.33125 48.05 29.33125Q48.39375 29.33125 48.565624 29.51875Q48.7375 29.70625 48.7375 29.9875Q48.7375 30.253124 48.565624 30.440624Q48.39375 30.6125 48.05 30.6125Q47.721874 30.6125 47.55 30.440624Q47.39375 30.253124 47.39375 29.9875ZM55.6125 26.909374Q55.6125 28.815624 54.95625 29.753124Q54.315624 30.675 52.925 30.675Q51.565624 30.675 50.909374 29.76875Q50.253124 28.8625 50.221874 27.05L50.221874 25.6125Q50.221874 23.721874 50.8625 22.815624Q51.51875 21.89375 52.909374 21.89375Q54.284374 21.89375 54.940624 22.784374Q55.596874 23.659374 55.6125 25.503124L55.6125 26.909374ZM54.51875 25.425Q54.51875 24.05 54.128124 23.425Q53.753124 22.784374 52.909374 22.784374Q52.08125 22.784374 51.690624 23.425Q51.315624 24.05 51.315624 25.346874L51.315624 27.08125Q51.315624 28.45625 51.70625 29.128124Q52.1125 29.784374 52.925 29.784374Q53.721874 29.784374 54.1125 29.159374Q54.503124 28.534374 54.51875 27.20625L54.51875 25.425ZM62.6125 26.909374Q62.6125 28.815624 61.95625 29.753124Q61.315624 30.675 59.925 30.675Q58.565624 30.675 57.909374 29.76875Q57.253124 28.8625 57.221874 27.05L57.221874 25.6125Q57.221874 23.721874 57.8625 22.815624Q58.51875 21.89375 59.909374 21.89375Q61.284374 21.89375 61.940624 22.784374Q62.596874 23.659374 62.6125 25.503124L62.6125 26.909374ZM61.51875 25.425Q61.51875 24.05 61.128124 23.425Q60.753124 22.784374 59.909374 22.784374Q59.08125 22.784374 58.690624 23.425Q58.315624 24.05 58.315624 25.346874L58.315624 27.08125Q58.315624 28.45625 58.70625 29.128124Q59.1125 29.784374 59.925 29.784374Q60.721874 29.784374 61.1125 29.159374Q61.503124 28.534374 61.51875 27.20625L61.51875 25.425Z" fill-rule="nonzero"/><path fill="#757575" d="M45.437927 351.1794L41.482548 355.1348L40.93012 354.58237L40.6981 350.174Q40.63181 349.17963 40.48818 348.68243Q40.3335 348.17422 39.979946 347.82065Q39.504856 347.34558 38.919285 347.33453Q38.333714 347.3014 37.847576 347.7875Q37.2841 348.35098 37.29515 349.00287Q37.29515 349.64368 37.880722 350.22925L37.118374 350.99158Q36.278683 350.15192 36.30078 349.11334Q36.322876 348.05267 37.217808 347.15775Q38.068546 346.307 38.996624 346.26282Q39.9247 346.21863 40.664955 346.95886Q41.54884 347.84274 41.648273 350.2182L41.780857 353.57697L44.80816 350.54965L45.437927 351.1794ZM47.647633 343.82108Q48.995556 345.169 49.19443 346.29596Q49.393303 347.40082 48.409985 348.38412Q47.44876 349.34537 46.343906 349.16858Q45.23905 348.9918 43.93532 347.73227L42.918858 346.71582Q41.581985 345.37894 41.394157 344.28513Q41.206333 343.16922 42.189655 342.1859Q43.161926 341.21362 44.25573 341.37936Q45.33849 341.53403 46.653267 342.82672L47.647633 343.82108ZM45.824623 343.54486Q44.852352 342.5726 44.134197 342.40686Q43.416042 342.21906 42.81942 342.81567Q42.23385 343.40125 42.410625 344.13043Q42.587402 344.83755 43.50443 345.75458L44.73082 346.98096Q45.70309 347.95325 46.45439 348.15213Q47.205692 348.3289 47.780216 347.75436Q48.343693 347.1909 48.177963 346.47275Q48.012238 345.75458 47.08416 344.8044L45.824623 343.54486ZM53.90111 342.71625L53.13876 343.47858L48.034332 338.37415L47.051014 340.48444L46.354954 339.78836L47.724976 336.76108L47.83546 336.65057L53.90111 342.71625ZM56.619053 334.69498Q56.674294 335.21426 56.508568 335.73355Q56.34284 336.23074 55.94509 336.62848Q55.425808 337.14777 54.784992 337.28033Q54.144176 337.41293 53.470215 337.1588Q52.785206 336.89365 52.22173 336.33017Q51.62511 335.73355 51.359943 335.02646Q51.105827 334.3083 51.271557 333.63434Q51.437286 332.93826 52.00076 332.3748Q52.89569 331.47986 54.077885 331.6456Q55.27113 331.80026 56.420177 332.9493L56.641148 333.1703Q58.408916 334.93805 58.5194 336.44067Q58.629887 337.94327 57.248817 339.36853L57.09414 339.5232L56.453323 338.8824L56.619053 338.71667Q57.54713 337.7444 57.580276 336.76108Q57.61342 335.77774 56.619053 334.69498ZM55.43686 335.8772Q55.823555 335.49048 55.911945 334.93805Q56.00033 334.36353 55.812508 333.86636L55.503147 333.55698Q54.751846 332.8057 53.945305 332.66205Q53.13876 332.51843 52.641575 333.01562Q52.133343 333.52383 52.210682 334.2199Q52.299072 334.9049 52.939888 335.54572Q53.558605 336.16446 54.243614 336.27493Q54.939674 336.37436 55.43686 335.8772ZM63.60173 333.01562L57.569225 326.9831L59.28175 325.27057Q60.066196 324.48615 61.016373 324.24307Q61.966545 323.9779 62.93882 324.28726Q63.91109 324.59662 64.75078 325.4363L65.12643 325.81195Q65.98821 326.67374 66.29758 327.64603Q66.61798 328.60724 66.34177 329.56848Q66.07661 330.51865 65.28111 331.33624L63.60173 333.01562ZM59.016586 326.83948L63.74536 331.56827L64.58505 330.72858Q65.50208 329.81152 65.44684 328.73984Q65.391594 327.64603 64.33093 326.58536L63.977383 326.2318Q62.949867 325.20428 61.900253 325.12695Q60.850643 325.02753 59.944664 325.9114L59.016586 326.83948ZM71.09264 325.70148Q70.17561 326.6185 69.00447 326.5964Q67.83332 326.55222 66.8279 325.54678L66.69532 325.4142Q66.02136 324.74026 65.756195 323.96686Q65.47998 323.1824 65.64571 322.44217Q65.81144 321.6798 66.34177 321.14948Q67.21461 320.27664 68.27527 320.36502Q69.33592 320.45343 70.40763 321.52512L70.72804 321.84552L67.68969 324.88388Q68.3747 325.5247 69.1481 325.5689Q69.93255 325.60205 70.50707 325.02753Q70.904816 324.62976 71.015305 324.18784Q71.13684 323.73483 71.0816 323.23764L71.91023 323.1382Q72.2196 324.57452 71.09264 325.70148ZM66.971535 321.77924Q66.5075 322.2433 66.529594 322.9062Q66.55169 323.547 67.09307 324.22098L69.33592 321.97812L69.280685 321.92288Q68.661964 321.37045 68.05429 321.3373Q67.45767 321.29312 66.971535 321.77924ZM68.86084 316.61957L69.943596 317.70233L70.77223 316.8737L71.36886 317.4703L70.540215 318.29895L73.3134 321.07214Q73.589615 321.34836 73.83268 321.37045Q74.07575 321.39255 74.34091 321.12738Q74.473495 320.99478 74.66132 320.7186L75.280045 321.3373Q75.07012 321.724 74.78286 322.01126Q74.27462 322.5195 73.700096 322.4753Q73.114525 322.42004 72.54 321.84552L69.766815 319.07236L68.94923 319.88995L68.35261 319.29333L69.1702 318.47574L68.08744 317.39297L68.86084 316.61957ZM77.633385 316.59747Q77.32402 316.28812 76.91522 316.36545Q76.50643 316.4207 75.799324 316.88474Q75.103264 317.33774 74.583984 317.50345Q74.064705 317.6692 73.666954 317.6029Q73.2692 317.5145 72.93775 317.18304Q72.38532 316.6306 72.47371 315.79092Q72.55105 314.9402 73.28026 314.211Q74.0426 313.44864 74.90439 313.38235Q75.766174 313.29398 76.37385 313.90164L75.611496 314.66397Q75.30214 314.3546 74.804955 314.40985Q74.30777 314.44302 73.91002 314.84076Q73.49018 315.2606 73.43494 315.6915Q73.37969 316.10028 73.666954 316.38754Q73.94317 316.66376 74.30777 316.58643Q74.67237 316.5091 75.37948 316.06714Q76.07554 315.61417 76.605865 315.43738Q77.1362 315.2606 77.55604 315.349Q77.98693 315.42633 78.340485 315.77988Q78.94816 316.38754 78.82662 317.23828Q78.71614 318.07797 77.95379 318.84033Q77.41241 319.3817 76.80474 319.61374Q76.19707 319.82364 75.62254 319.71317Q75.04802 319.6027 74.650276 319.20493L75.41262 318.4426Q75.82142 318.8072 76.3407 318.75195Q76.84894 318.68564 77.32402 318.21057Q77.75491 317.77966 77.8433 317.33774Q77.931694 316.89578 77.633385 316.59747ZM82.40635 314.38776Q81.48933 315.3048 80.31818 315.28268Q79.14703 315.2385 78.14162 314.2331L78.00903 314.1005Q77.33507 313.42654 77.06991 312.65314Q76.79369 311.8687 76.95942 311.12845Q77.125145 310.3661 77.65548 309.83575Q78.52831 308.96292 79.588974 309.05133Q80.649635 309.1397 81.721344 310.21143L82.04175 310.53183L79.0034 313.5702Q79.68841 314.211 80.46181 314.2552Q81.246254 314.28833 81.82078 313.7138Q82.21853 313.31607 82.32901 312.8741Q82.45055 312.4211 82.3953 311.92395L83.223946 311.8245Q83.5333 313.2608 82.40635 314.38776ZM78.28525 310.46555Q77.821205 310.92957 77.8433 311.5925Q77.8654 312.2333 78.40678 312.90726L80.649635 310.6644L80.59439 310.60916Q79.97567 310.05673 79.368004 310.0236Q78.77138 309.9794 78.28525 310.46555ZM80.9369 306.709L81.45618 307.1841Q81.36779 306.12344 82.20748 305.28375Q83.14661 304.34464 84.20727 304.7203Q84.10783 304.17892 84.262505 303.6265Q84.42824 303.06302 84.91437 302.57687Q86.394875 301.09637 87.974815 302.6321L90.98002 305.63733L90.217674 306.39966L87.25666 303.43866Q86.78158 302.96356 86.32858 302.9525Q85.86455 302.93042 85.34526 303.4497Q84.91437 303.8806 84.881226 304.42197Q84.85913 304.9523 85.24583 305.4274L88.21789 308.39944L87.455536 309.1618L84.516624 306.2229Q83.54435 305.2506 82.58313 306.21185Q81.831825 306.96313 82.19643 307.8802L85.4668 311.15054L84.6934 311.92395L80.207695 307.43823L80.9369 306.709ZM94.08466 298.15747Q95.112175 299.18497 95.26685 300.28983Q95.42154 301.3726 94.62604 302.1681Q93.77531 303.01883 92.7036 302.87518L93.17868 303.43866L92.48262 304.1347L86.11866 297.77075L86.88101 297.00842L89.25645 299.38385Q89.145966 298.34528 89.963554 297.52768Q90.78115 296.71008 91.86391 296.86478Q92.935616 297.00842 94.01837 298.09116L94.08466 298.15747ZM93.233925 298.83142Q92.44948 298.04697 91.720276 297.9365Q90.99107 297.8039 90.4276 298.36737Q89.665245 299.12973 90.02985 300.15726L91.97439 302.10178Q93.03505 302.45535 93.77531 301.7151Q94.32773 301.16266 94.2062 300.4224Q94.08466 299.68216 93.233925 298.83142ZM99.376915 297.4172Q98.459885 298.33423 97.28874 298.31213Q96.11759 298.26794 95.112175 297.2625L94.97959 297.12994Q94.30563 296.456 94.04047 295.6826Q93.76425 294.89813 93.929985 294.1579Q94.09571 293.39554 94.62604 292.8652Q95.49888 291.99237 96.55954 292.08075Q97.62019 292.16916 98.6919 293.24084L99.012314 293.56125L95.97396 296.5996Q96.65897 297.24042 97.43237 297.28464Q98.21682 297.31778 98.79134 296.74326Q99.18909 296.3455 99.299576 295.90356Q99.42111 295.45056 99.36587 294.95337L100.1945 294.85394Q100.50387 296.29025 99.376915 297.4172ZM95.255806 293.49496Q94.79177 293.959 94.813866 294.62192Q94.83596 295.26273 95.37734 295.9367L97.62019 293.69385L97.56496 293.6386Q96.946236 293.08618 96.33856 293.05304Q95.74194 293.00885 95.255806 293.49496ZM100.039825 288.9761Q99.84095 289.1308 99.64208 289.32968Q98.87973 290.092 99.25538 290.998L102.43736 294.18L101.67501 294.94232L97.1893 290.45663L97.92956 289.71637L98.459885 290.2246Q98.238914 289.25232 98.934975 288.55627Q99.155945 288.3353 99.33272 288.269L100.039825 288.9761Z" fill-rule="nonzero"/><path fill="#757575" d="M92.26778 342.69415L88.31239 346.6495L87.75997 346.09708L87.52795 341.68872Q87.461655 340.69437 87.31802 340.19717Q87.163345 339.68893 86.80979 339.3354Q86.33471 338.8603 85.74913 338.84924Q85.16356 338.8161 84.67742 339.30225Q84.11395 339.86572 84.125 340.51758Q84.125 341.1584 84.71057 341.74396L83.94822 342.50632Q83.10853 341.66663 83.13063 340.62805Q83.152725 339.5674 84.04766 338.67245Q84.8984 337.82172 85.82647 337.77753Q86.75455 337.73334 87.494804 338.4736Q88.378685 339.35748 88.47813 341.7329L88.6107 345.09167L91.63801 342.06436L92.26778 342.69415ZM94.477486 335.33582Q95.8254 336.68372 96.02428 337.81067Q96.22315 338.91553 95.23983 339.89886Q94.27861 340.86008 93.17375 340.6833Q92.0689 340.50653 90.765175 339.24698L89.7487 338.23053Q88.411835 336.89365 88.22401 335.79984Q88.03618 334.68393 89.0195 333.70062Q89.991776 332.72836 91.08558 332.89407Q92.168335 333.04877 93.483116 334.34143L94.477486 335.33582ZM92.65447 335.0596Q91.6822 334.0873 90.96404 333.9216Q90.24589 333.73376 89.64927 334.33038Q89.0637 334.91595 89.24047 335.64517Q89.41725 336.35226 90.33428 337.26932L91.56067 338.4957Q92.532936 339.46796 93.28424 339.66684Q94.03554 339.84363 94.61006 339.2691Q95.17354 338.70563 95.00781 337.98746Q94.84209 337.26932 93.91401 336.31912L92.65447 335.0596ZM102.16727 332.79465L98.21189 336.75003L97.65946 336.1976L97.427444 331.7892Q97.36115 330.79486 97.21752 330.29767Q97.06284 329.78943 96.70929 329.43588Q96.2342 328.9608 95.64863 328.94974Q95.06306 328.9166 94.57692 329.40274Q94.01344 329.96622 94.02449 330.61807Q94.02449 331.25888 94.61006 331.84448L93.84772 332.6068Q93.008026 331.76712 93.03012 330.72858Q93.05222 329.6679 93.94715 328.77298Q94.79789 327.92224 95.72597 327.87805Q96.654045 327.83383 97.394295 328.5741Q98.27818 329.45798 98.37762 331.8334L98.5102 335.19217L101.5375 332.1649L102.16727 332.79465ZM104.376976 325.4363Q105.7249 326.78424 105.923775 327.9112Q106.12265 329.01605 105.13933 329.99936Q104.1781 330.96057 103.07325 330.7838Q101.96839 330.60703 100.664665 329.3475L99.6482 328.33102Q98.311325 326.99417 98.123505 325.90036Q97.93568 324.78445 98.919 323.80112Q99.891266 322.82886 100.98508 322.9946Q102.06783 323.14926 103.38261 324.44196L104.376976 325.4363ZM102.55397 325.1601Q101.581696 324.18784 100.86354 324.0221Q100.145386 323.83426 99.54877 324.4309Q98.96319 325.01648 99.13997 325.74567Q99.31674 326.4528 100.23377 327.3698L101.46016 328.5962Q102.432434 329.56848 103.18374 329.76733Q103.935036 329.94412 104.50956 329.3696Q105.07304 328.80612 104.90731 328.08795Q104.74158 327.3698 103.8135 326.41965L102.55397 325.1601ZM106.92919 315.9677L107.73573 315.16116L112.01152 319.43695Q112.87331 320.29874 112.840164 321.32626Q112.807014 322.33167 111.94523 323.19345Q111.0503 324.08838 110.078026 324.1326Q109.116806 324.16574 108.28816 323.3371L109.08366 322.5416Q109.602936 323.06088 110.17746 323.08298Q110.75198 323.08298 111.293365 322.5416Q111.79055 322.0444 111.7795 321.43674Q111.768456 320.80698 111.21603 320.25455L106.92919 315.9677ZM118.032974 316.92896Q117.8341 316.86264 117.4474 316.56433Q117.480545 317.65814 116.740295 318.3984Q116.07738 319.0613 115.270836 319.11655Q114.47535 319.16074 113.88977 318.57516Q113.19372 317.87912 113.33734 316.9621Q113.48097 316.04504 114.45325 315.07278L115.1935 314.33252L114.83994 313.97897Q114.44219 313.58124 113.96711 313.5923Q113.49202 313.58124 113.01693 314.0563Q112.60814 314.46512 112.54185 314.95126Q112.46451 315.42633 112.76282 315.72464L111.989426 316.49805Q111.64692 316.15555 111.56957 315.61417Q111.50328 315.06174 111.735306 314.47617Q111.956276 313.87955 112.442406 313.3934Q113.22685 312.60895 114.04445 312.56476Q114.873085 312.50952 115.569145 313.16138L117.63522 315.22748Q118.253944 315.8462 118.773224 316.0561L118.839516 316.1224L118.032974 316.92896ZM116.17682 317.61395Q116.54142 317.24936 116.674 316.74112Q116.80659 316.23288 116.6519 315.79095L115.73488 314.8739L115.13825 315.47052Q113.72404 316.88474 114.55268 317.71338Q114.906235 318.06693 115.35922 318.03378Q115.80116 317.9896 116.17682 317.61395ZM122.98272 311.9792Q122.783844 311.9129 122.39715 311.6146Q122.43029 312.7084 121.69004 313.44864Q121.02713 314.11157 120.22058 314.1668Q119.42509 314.211 118.839516 313.62543Q118.143456 312.92938 118.28709 312.01233Q118.43072 311.0953 119.40299 310.12305L120.14324 309.38278L119.78969 309.02924Q119.391945 308.63147 118.916855 308.64255Q118.441765 308.63147 117.96668 309.10657Q117.557884 309.51538 117.49159 310.0015Q117.41425 310.4766 117.71256 310.7749L116.93916 311.5483Q116.596664 311.20578 116.519325 310.66443Q116.45303 310.112 116.68505 309.52643Q116.90602 308.9298 117.39216 308.44366Q118.176605 307.6592 118.994194 307.61502Q119.82284 307.55978 120.5189 308.21164L122.58497 310.2777Q123.20369 310.89642 123.72297 311.10635L123.78926 311.17264L122.98272 311.9792ZM121.126564 312.6642Q121.491165 312.2996 121.62375 311.79138Q121.75633 311.28314 121.601654 310.8412L120.68462 309.92416L120.088 310.52078Q118.67379 311.935 119.502426 312.76364Q119.85598 313.1172 120.308975 313.08405Q120.750916 313.03986 121.126564 312.6642ZM121.40278 304.5877L121.98835 305.1291Q121.86681 303.969 122.69546 303.14035Q124.12072 301.7151 125.73381 303.3061L128.69481 306.2671L127.92142 307.0405L124.94936 304.06842Q124.47427 303.59335 124.021286 303.5823Q123.57934 303.5602 123.1153 304.02423Q122.739655 304.3999 122.65126 304.88602Q122.57392 305.3611 122.739655 305.8362L125.93268 309.02924L125.170334 309.7916L120.68462 305.30588L121.40278 304.5877ZM132.44028 301.63776Q132.52866 302.61002 131.65582 303.48285Q130.93767 304.20102 130.14218 304.15683Q129.34668 304.11264 128.52908 303.29504L125.612274 300.37823L126.37462 299.61588L129.26935 302.5106Q130.29686 303.53812 131.1255 302.70947Q132.00938 301.8256 131.63373 300.8754L128.3744 297.6161L129.14781 296.84268L133.63351 301.3284L132.90431 302.0576L132.44028 301.63776ZM137.83195 297.12994Q137.63309 297.06366 137.24638 296.76535Q137.27954 297.85916 136.53928 298.5994Q135.87637 299.26233 135.06982 299.31757Q134.27434 299.36176 133.68875 298.77618Q132.9927 298.08014 133.13634 297.1631Q133.27997 296.24606 134.25223 295.2738L134.9925 294.53354L134.63893 294.18Q134.24118 293.78223 133.7661 293.7933Q133.29102 293.78223 132.81592 294.25732Q132.40712 294.66614 132.34084 295.15225Q132.26349 295.62735 132.56181 295.92566L131.7884 296.69907Q131.4459 296.35654 131.36856 295.8152Q131.30228 295.26276 131.53429 294.6772Q131.75526 294.08057 132.2414 293.59442Q133.02585 292.80997 133.84344 292.76578Q134.67207 292.71054 135.36813 293.3624L137.43422 295.42847Q138.05293 296.04718 138.57222 296.2571L138.6385 296.3234L137.83195 297.12994ZM135.9758 297.81497Q136.34041 297.45035 136.47299 296.94214Q136.60558 296.4339 136.4509 295.99194L135.53386 295.07492L134.93724 295.67154Q133.52303 297.08575 134.35167 297.9144Q134.70523 298.26794 135.15822 298.2348Q135.60016 298.1906 135.9758 297.81497ZM138.38438 288.97614Q138.18552 289.1308 137.98665 289.32968Q137.22429 290.09204 137.59995 290.99802L140.78192 294.18L140.01958 294.94235L135.53386 290.45663L136.27412 289.71637L136.80444 290.2246Q136.58348 289.25235 137.27954 288.55627Q137.5005 288.3353 137.67728 288.269L138.38438 288.97614Z" fill-rule="nonzero"/><path fill="#757575" d="M147.59395 323.59122L144.34569 316.89578L145.21852 316.02295L149.00816 324.2983L148.3121 324.9944L140.04779 321.19366L140.90958 320.33188L147.59395 323.59122ZM154.14574 319.33752Q153.22871 320.25455 152.05757 320.23245Q150.88641 320.18826 149.881 319.18283L149.74841 319.05026Q149.07446 318.37628 148.8093 317.6029Q148.53308 316.81845 148.6988 316.0782Q148.86453 315.31586 149.39487 314.78552Q150.2677 313.9127 151.32835 314.00107Q152.38902 314.08945 153.46072 315.16116L153.78114 315.48157L150.74278 318.51993Q151.4278 319.16074 152.2012 319.20493Q152.98564 319.23807 153.56017 318.66354Q153.95792 318.2658 154.0684 317.82388Q154.18993 317.37088 154.13469 316.8737L154.96333 316.77426Q155.27269 318.21057 154.14574 319.33752ZM150.02463 315.41528Q149.5606 315.87933 149.58269 316.54224Q149.60478 317.18304 150.14616 317.85703L152.38902 315.61417L152.33377 315.55893Q151.71506 315.0065 151.10739 314.97336Q150.51077 314.92914 150.02463 315.41528ZM158.38838 315.09488Q157.47134 316.0119 156.3002 315.9898Q155.12906 315.94562 154.12364 314.9402L153.99106 314.80762Q153.3171 314.13367 153.05193 313.36026Q152.77573 312.5758 152.94145 311.83557Q153.10718 311.0732 153.63751 310.54288Q154.51035 309.67004 155.571 309.75842Q156.63167 309.84683 157.70337 310.91852L158.02377 311.23892L154.98543 314.27728Q155.67044 314.9181 156.44383 314.9623Q157.22829 314.99545 157.80281 314.42093Q158.20056 314.02316 158.31104 313.58124Q158.43257 313.12823 158.37733 312.63104L159.20598 312.53162Q159.51534 313.96793 158.38838 315.09488ZM154.26727 311.17264Q153.80324 311.6367 153.82533 312.2996Q153.84743 312.9404 154.38881 313.61438L156.63167 311.37152L156.57642 311.31628Q155.9577 310.76385 155.35004 310.7307Q154.7534 310.68652 154.26727 311.17264ZM162.28851 306.64273Q163.31602 307.67026 163.4707 308.77512Q163.62538 309.85788 162.8299 310.65335Q161.97916 311.5041 160.90744 311.36047L161.38254 311.92395L160.68648 312.62L154.32251 306.25604L155.08487 305.49368L157.4603 307.86914Q157.34982 306.83057 158.1674 306.01297Q158.985 305.19537 160.06776 305.35007Q161.13947 305.49368 162.22223 306.57645L162.28851 306.64273ZM161.43777 307.3167Q160.65334 306.53226 159.92413 306.42178Q159.19492 306.28918 158.63145 306.85266Q157.8691 307.61502 158.2337 308.64252L160.17824 310.58707Q161.2389 310.9406 161.97916 310.20038Q162.53159 309.64795 162.41005 308.90768Q162.28851 308.16745 161.43777 307.3167ZM164.00104 301.70404Q163.80217 301.85873 163.60329 302.0576Q162.84094 302.81995 163.2166 303.72592L166.39857 306.9079L165.63623 307.67026L161.15051 303.18454L161.89076 302.4443L162.4211 302.9525Q162.20013 301.98026 162.89618 301.2842Q163.11716 301.06323 163.29393 300.99695L164.00104 301.70404ZM170.78485 301.63776Q170.87323 302.61002 170.0004 303.48285Q169.28224 304.20102 168.48676 304.15683Q167.69125 304.11264 166.87366 303.29504L163.95685 300.3782L164.7192 299.61588L167.6139 302.5106Q168.64143 303.53812 169.47006 302.70947Q170.35396 301.8256 169.9783 300.8754L166.71898 297.6161L167.49239 296.84268L171.97809 301.3284L171.24889 302.0576L170.78485 301.63776ZM176.17653 297.12994Q175.97766 297.06366 175.59096 296.76535Q175.6241 297.85916 174.88385 298.5994Q174.22095 299.26233 173.4144 299.31757Q172.6189 299.36176 172.03333 298.77618Q171.33727 298.0801 171.4809 297.1631Q171.62453 296.24606 172.5968 295.2738L173.33705 294.53354L172.9835 294.18Q172.58575 293.78223 172.11067 293.79327Q171.63559 293.78223 171.16049 294.25732Q170.7517 294.6661 170.68541 295.15225Q170.60806 295.62735 170.90637 295.92566L170.13298 296.69907Q169.79048 296.35654 169.71313 295.81516Q169.64685 295.26276 169.87886 294.6772Q170.09984 294.08054 170.58597 293.59442Q171.37042 292.80997 172.188 292.76578Q173.01665 292.71054 173.7127 293.3624L175.7788 295.42847Q176.3975 296.04718 176.9168 296.2571L176.98308 296.3234L176.17653 297.12994ZM174.32037 297.81494Q174.68498 297.45035 174.81757 296.9421Q174.95015 296.4339 174.79547 295.99194L173.87843 295.07492L173.28181 295.67154Q171.8676 297.08575 172.69624 297.9144Q173.04979 298.26794 173.50279 298.2348Q173.94473 298.1906 174.32037 297.81494ZM176.72896 288.97614Q176.53009 289.1308 176.3312 289.32968Q175.56886 290.092 175.94452 290.99802L179.1265 294.18L178.36415 294.94232L173.87843 290.45663L174.61868 289.71637L175.14902 290.2246Q174.92805 289.25235 175.6241 288.55627Q175.84508 288.3353 176.02185 288.269L176.72896 288.97614Z" fill-rule="nonzero"/><path fill="#757575" d="M192.72234 306.8637L199.61662 309.8026L196.66666 302.91937L197.70523 301.88083L203.73773 307.91333L202.94223 308.70883L200.5889 306.35547L198.13612 303.74802L201.03084 310.6202L200.42317 311.22787L193.57307 308.33316L196.16948 310.7749L198.52281 313.12823L197.72733 313.92374L191.69481 307.89124L192.72234 306.8637ZM207.45004 304.20102Q207.25116 304.13474 206.86447 303.8364Q206.89761 304.9302 206.15736 305.67047Q205.49445 306.33337 204.6879 306.3886Q203.89241 306.43283 203.30684 305.84726Q202.61078 305.15118 202.75441 304.23416Q202.89804 303.31714 203.87032 302.34485L204.61057 301.6046L204.257 301.25104Q203.85927 300.8533 203.38417 300.86435Q202.90909 300.8533 202.434 301.3284Q202.0252 301.73718 201.95891 302.22333Q201.88158 302.6984 202.17989 302.99673L201.40648 303.7701Q201.06398 303.4276 200.98665 302.88623Q200.92035 302.3338 201.15237 301.74823Q201.37334 301.1516 201.85948 300.66547Q202.64392 299.88104 203.46152 299.83682Q204.29016 299.7816 204.98622 300.43347L207.05229 302.49954Q207.671 303.11826 208.19029 303.3282L208.25658 303.39447L207.45004 304.20102ZM205.59389 304.88602Q205.95848 304.52142 206.09106 304.01318Q206.22365 303.50494 206.06897 303.06302L205.15195 302.146L204.55533 302.7426Q203.14111 304.15683 203.96974 304.98544Q204.3233 305.33902 204.77629 305.30588Q205.21823 305.26166 205.59389 304.88602ZM199.55032 300.74283Q199.3625 300.555 199.35146 300.32297Q199.34041 300.06885 199.56139 299.8479Q199.78235 299.62692 200.02542 299.64902Q200.26848 299.64902 200.45631 299.83682Q200.64413 300.02466 200.64413 300.26773Q200.65518 300.49976 200.43422 300.72073Q200.21324 300.94168 199.97017 300.94168Q199.73816 300.93063 199.55032 300.74283ZM201.3402 298.97504Q201.15237 298.78723 201.13028 298.54416Q201.11922 298.29004 201.3402 298.06906Q201.56117 297.8481 201.80423 297.8702Q202.05835 297.88126 202.24617 298.06906Q202.42296 298.24585 202.434 298.49997Q202.44505 298.732 202.22408 298.95294Q202.00311 299.17392 201.76004 299.17392Q201.51697 299.15182 201.3402 298.97504ZM208.00247 296.04718Q207.80359 296.20187 207.60472 296.40073Q206.84238 297.1631 207.21802 298.06906L210.4 301.25104L209.63765 302.0134L205.15195 297.52768L205.8922 296.78745L206.42253 297.2957Q206.20155 296.3234 206.89761 295.62735Q207.11858 295.40637 207.29536 295.3401L208.00247 296.04718ZM207.93617 292.57794L209.01894 293.6607L209.84758 292.83206L210.4442 293.42868L209.61555 294.25732L212.38873 297.03052Q212.66495 297.30673 212.90802 297.32883Q213.1511 297.35092 213.41626 297.08575Q213.54883 296.95316 213.73666 296.67694L214.35538 297.2957Q214.14546 297.68237 213.8582 297.96964Q213.34996 298.47787 212.77544 298.4337Q212.18987 298.37842 211.61534 297.8039L208.84216 295.03073L208.02457 295.84833L207.42795 295.25168L208.24553 294.4341L207.16278 293.35135L207.93617 292.57794ZM216.70872 292.55585Q216.39935 292.2465 215.99057 292.32382Q215.58177 292.37906 214.87466 292.8431Q214.1786 293.2961 213.65932 293.46182Q213.14005 293.62756 212.7423 293.56125Q212.34454 293.47287 212.01309 293.14142Q211.46066 292.589 211.54904 291.7493Q211.62639 290.89856 212.35559 290.16937Q213.11794 289.407 213.97972 289.34073Q214.84152 289.25232 215.44919 289.86002L214.68683 290.62234Q214.37747 290.313 213.8803 290.36823Q213.3831 290.40137 212.98537 290.79913Q212.56552 291.21896 212.51027 291.64987Q212.45503 292.05865 212.7423 292.34592Q213.01851 292.62213 213.3831 292.5448Q213.74771 292.46747 214.45482 292.0255Q215.15088 291.57254 215.6812 291.39575Q216.21153 291.21896 216.63138 291.30737Q217.06227 291.3847 217.41583 291.73825Q218.0235 292.34592 217.90196 293.19666Q217.79147 294.03635 217.02913 294.7987Q216.48775 295.3401 215.88008 295.5721Q215.27242 295.782 214.69789 295.67154Q214.12335 295.56104 213.72562 295.1633L214.48796 294.40094Q214.89676 294.76556 215.41605 294.71033Q215.92427 294.644 216.39935 294.16895Q216.83025 293.73804 216.91864 293.2961Q217.00703 292.85416 216.70872 292.55585Z" fill-rule="nonzero"/><path fill="#757575" d="M239.94994 306.8858L237.41982 309.41592L238.43628 311.55933L237.61868 312.37692L233.88428 304.04633L234.58034 303.35028L242.922 307.07364L242.1044 307.89124L239.94994 306.8858ZM237.01102 308.521L239.06606 306.46597L235.22116 304.6761L237.01102 308.521ZM245.33057 300.28983Q246.34705 301.30627 246.51277 302.4001Q246.6785 303.4939 245.87195 304.30045Q245.05435 305.11804 244.07104 305.0628L246.22551 307.21725L245.46315 307.9796L239.25388 301.77032L239.94994 301.07428L240.48026 301.5383Q240.38083 300.4887 241.20947 299.66006Q242.016 298.85352 243.08772 298.99713Q244.17047 299.12973 245.25323 300.2125L245.33057 300.28983ZM244.47983 300.96378Q243.71748 300.20145 242.95514 300.102Q242.19278 299.98047 241.62932 300.54395Q240.93326 301.24 241.19843 302.1902L243.34184 304.3336Q244.30305 304.6098 245.01016 303.9027Q245.56259 303.35028 245.4521 302.59897Q245.34163 301.82556 244.47983 300.96378ZM247.05414 295.3401Q246.85527 295.49475 246.6564 295.69363Q245.89404 296.456 246.2697 297.36197L249.45168 300.54395L248.68933 301.30627L244.20363 296.8206L244.94388 296.08032L245.4742 296.58856Q245.25323 295.6163 245.9493 294.92023Q246.17026 294.69925 246.34705 294.63297L247.05414 295.3401ZM252.3464 297.64923L251.58405 298.41156L247.09834 293.92587L247.86069 293.1635L252.3464 297.64923ZM245.84985 292.80997Q245.66203 292.62213 245.63994 292.37906Q245.62889 292.12494 245.84985 291.904Q246.07083 291.683 246.31389 291.7051Q246.56801 291.71616 246.75583 291.904Q246.93262 292.08075 246.94366 292.33487Q246.95471 292.5669 246.73373 292.78787Q246.51277 293.00882 246.2697 293.00882Q246.02663 292.98672 245.84985 292.80997ZM254.46771 295.5279L253.70537 296.29025L247.34142 289.9263L248.10376 289.16394L254.46771 295.5279ZM256.58905 293.4066L255.82669 294.16895L249.46272 287.80496L250.22508 287.04263L256.58905 293.4066Z" fill-rule="nonzero"/><path fill="#757575" d="M277.18964 299.08554L284.08395 302.02444L281.13397 295.1412L282.17255 294.10263L288.20505 300.13513L287.40955 300.93063L285.0562 298.5773L282.60342 295.96985L285.49817 302.84204L284.89047 303.4497L278.04037 300.555L280.6368 302.9967L282.99014 305.35007L282.19464 306.14554L276.16214 300.11304L277.18964 299.08554ZM291.91736 296.42282Q291.71848 296.35654 291.3318 296.05823Q291.36493 297.15204 290.62466 297.89227Q289.96176 298.5552 289.1552 298.61044Q288.35974 298.65463 287.77417 298.06906Q287.0781 297.37302 287.22174 296.45596Q287.36536 295.53894 288.33762 294.56668L289.07788 293.82642L288.72433 293.47287Q288.32657 293.07513 287.8515 293.08618Q287.3764 293.07513 286.9013 293.5502Q286.49252 293.959 286.42624 294.44513Q286.3489 294.92023 286.64722 295.21854L285.8738 295.99194Q285.5313 295.64944 285.45395 295.10806Q285.38766 294.55563 285.6197 293.97006Q285.84067 293.37344 286.32678 292.8873Q287.11124 292.10284 287.92883 292.05865Q288.75748 292.00342 289.45352 292.65527L291.51962 294.72134Q292.13834 295.3401 292.65762 295.55L292.7239 295.61627L291.91736 296.42282ZM290.06122 297.10785Q290.4258 296.74323 290.55838 296.23502Q290.69098 295.72678 290.5363 295.28482L289.61926 294.3678L289.02264 294.96442Q287.60843 296.37863 288.43707 297.20728Q288.79062 297.56082 289.24362 297.52768Q289.68555 297.4835 290.06122 297.10785ZM294.93362 293.4066L294.17126 294.1689L289.68555 289.68323L290.4479 288.92087L294.93362 293.4066ZM288.43707 288.56732Q288.24924 288.3795 288.22714 288.1364Q288.2161 287.8823 288.43707 287.66135Q288.65805 287.44037 288.9011 287.46246Q289.1552 287.4735 289.34305 287.66135Q289.51984 287.8381 289.53088 288.09222Q289.54193 288.32425 289.32095 288.54523Q289.09998 288.76617 288.8569 288.76617Q288.61383 288.74408 288.43707 288.56732Z" fill-rule="nonzero"/><path fill="#757575" d="M309.25864 305.36108L310.0652 304.55457L314.34097 308.83035Q315.20276 309.69214 315.16962 310.71964Q315.13647 311.72507 314.2747 312.58685Q313.37976 313.48178 312.40747 313.52597Q311.44626 313.5591 310.6176 312.73047L311.41312 311.93497Q311.9324 312.45425 312.50693 312.47635Q313.08145 312.47635 313.62283 311.93497Q314.12 311.4378 314.10895 310.83014Q314.0979 310.20035 313.54547 309.64792L309.25864 305.36108ZM319.9205 305.88037Q320.00888 306.85266 319.13605 307.7255Q318.4179 308.44363 317.6224 308.39944Q316.8269 308.35526 316.0093 307.53766L313.0925 304.62085L313.85486 303.8585L316.74957 306.7532Q317.77707 307.78073 318.6057 306.9521Q319.4896 306.0682 319.11395 305.11804L315.85464 301.8587L316.62802 301.08533L321.11374 305.571L320.38452 306.30023L319.9205 305.88037ZM324.87024 300.93063Q324.95862 301.9029 324.0858 302.77573Q323.36765 303.4939 322.57214 303.4497Q321.77664 303.40552 320.95905 302.58792L318.04224 299.6711L318.8046 298.90875L321.6993 301.80347Q322.72684 302.831 323.55548 302.00235Q324.43936 301.11847 324.0637 300.16827L320.80438 296.90897L321.5778 296.13556L326.06348 300.62128L325.3343 301.35046L324.87024 300.93063ZM323.73224 293.9811L324.3178 294.5225Q324.1963 293.36237 325.02493 292.53375Q326.4502 291.1085 328.06326 292.69946L331.0243 295.6605L330.2509 296.43387L327.27884 293.46182Q326.80374 292.98672 326.35074 292.97568Q325.9088 292.95358 325.44476 293.41763Q325.06912 293.79327 324.9807 294.27942Q324.90338 294.7545 325.06912 295.22958L328.26215 298.4226L327.4998 299.18497L323.0141 294.69925L323.73224 293.9811ZM333.2782 293.4066L332.51584 294.1689L328.03012 289.68323L328.79248 288.92087L333.2782 293.4066ZM326.78165 288.56732Q326.5938 288.3795 326.57172 288.1364Q326.56067 287.8823 326.78165 287.66135Q327.00262 287.44037 327.24567 287.46246Q327.4998 287.4735 327.68762 287.66135Q327.8644 287.8381 327.87546 288.09222Q327.8865 288.32425 327.66553 288.54523Q327.44455 288.76617 327.20148 288.76617Q326.9584 288.74408 326.78165 288.56732Z" fill-rule="nonzero"/><path fill="#757575" d="M350.43164 302.53268L351.23816 301.72614L355.51395 306.00192Q356.37573 306.8637 356.3426 307.89124Q356.30945 308.89664 355.44766 309.75842Q354.55273 310.65338 353.58047 310.69757Q352.61923 310.7307 351.7906 309.90207L352.5861 309.10657Q353.10538 309.62585 353.6799 309.64795Q354.25443 309.64795 354.7958 309.10657Q355.293 308.60938 355.28195 308.0017Q355.2709 307.37195 354.71848 306.81952L350.43164 302.53268ZM361.09348 303.05197Q361.18185 304.02423 360.30902 304.89706Q359.59088 305.61523 358.79538 305.57104Q357.99988 305.52686 357.18228 304.70926L354.26547 301.79245L355.02783 301.0301L357.92255 303.9248Q358.95004 304.95233 359.7787 304.1237Q360.66257 303.2398 360.28693 302.2896L357.02762 299.0303L357.801 298.2569L362.2867 302.7426L361.55753 303.4718L361.09348 303.05197ZM366.0432 298.10223Q366.13162 299.0745 365.2588 299.94733Q364.54062 300.6655 363.74512 300.62128Q362.94962 300.5771 362.13205 299.7595L359.2152 296.84268L359.97757 296.08035L362.87228 298.97507Q363.8998 300.00256 364.72845 299.17392Q365.61234 298.29004 365.23666 297.33987L361.97736 294.08057L362.75076 293.30716L367.23645 297.79288L366.50726 298.52206L366.0432 298.10223ZM369.5014 295.52792L368.73907 296.29025L362.3751 289.9263L363.13745 289.16394L369.5014 295.52792ZM371.62274 293.4066L370.86038 294.16895L366.37466 289.68323L367.13702 288.9209L371.62274 293.4066ZM365.1262 288.56732Q364.93835 288.37952 364.91626 288.13644Q364.9052 287.88232 365.1262 287.66135Q365.34717 287.44037 365.59024 287.46246Q365.84436 287.4735 366.03217 287.66135Q366.20895 287.83813 366.22 288.09225Q366.23105 288.32425 366.01007 288.54523Q365.7891 288.7662 365.54605 288.7662Q365.30298 288.7441 365.1262 288.56732Z" fill-rule="nonzero"/><path fill="#757575" d="M385.55002 314.664L383.0199 317.1941L384.03638 319.33752L383.21878 320.15512L379.48438 311.82452L380.18042 311.12845L388.5221 314.8518L387.7045 315.6694L385.55002 314.664ZM382.6111 316.29916L384.66614 314.24414L380.82126 312.45428L382.6111 316.29916ZM391.65988 310.83014Q391.74826 311.80243 390.87543 312.67526Q390.15726 313.3934 389.3618 313.3492Q388.56628 313.30502 387.7487 312.48743L384.83188 309.57062L385.5942 308.80826L388.48895 311.70297Q389.51645 312.7305 390.3451 311.90186Q391.22897 311.01797 390.85333 310.06778L387.594 306.80847L388.3674 306.03506L392.85312 310.52078L392.1239 311.25L391.65988 310.83014ZM391.8256 306.9963Q390.776 305.9467 390.6434 304.84183Q390.51083 303.73697 391.3063 302.94147Q392.1239 302.1239 393.16248 302.23438L392.69843 301.70404L393.40555 300.99695L397.78076 305.37216Q398.6536 306.245 398.6315 307.26147Q398.62045 308.28897 397.75867 309.15076Q397.27252 309.6369 396.59857 309.89102Q395.92462 310.14514 395.32797 310.03464L395.2617 309.17285Q396.3555 309.2944 397.07367 308.57623Q397.6261 308.0238 397.61505 307.39404Q397.6261 306.76428 397.05157 306.18976L396.66486 305.80307Q396.7422 306.80847 395.94672 307.60397Q395.16226 308.38843 394.04636 308.24478Q392.9194 308.09012 391.8256 306.9963ZM392.68738 306.31128Q393.4387 307.0626 394.19 307.19516Q394.93024 307.3167 395.4937 306.75323Q396.21188 306.03506 395.89145 305.02966L393.84747 302.9857Q392.85312 302.69843 392.146 303.40552Q391.59357 303.95795 391.70407 304.70926Q391.8256 305.4495 392.68738 306.31128ZM401.55936 300.93063Q401.64777 301.90292 400.77493 302.77576Q400.05676 303.4939 399.26126 303.4497Q398.46576 303.40552 397.6482 302.58792L394.73135 299.6711L395.4937 298.90875L398.38843 301.8035Q399.41595 302.831 400.2446 302.00235Q401.12848 301.11847 400.7528 300.1683L397.4935 296.90897L398.2669 296.1356L402.7526 300.62128L402.0234 301.3505L401.55936 300.93063ZM405.60312 295.38428Q405.29376 295.07492 404.88498 295.15225Q404.4762 295.2075 403.76907 295.67154Q403.07303 296.12454 402.55374 296.29025Q402.03445 296.456 401.63672 296.3897Q401.23895 296.3013 400.9075 295.96985Q400.35507 295.41742 400.44345 294.57773Q400.5208 293.727 401.25 292.9978Q402.01236 292.23544 402.87415 292.16916Q403.73593 292.08075 404.3436 292.68845L403.58124 293.45078Q403.27188 293.14142 402.77472 293.19666Q402.27753 293.22983 401.87976 293.62756Q401.45993 294.0474 401.4047 294.4783Q401.34946 294.8871 401.63672 295.17435Q401.91293 295.45056 402.27753 295.37323Q402.64212 295.2959 403.34924 294.85394Q404.0453 294.40097 404.57562 294.22418Q405.10596 294.0474 405.5258 294.1358Q405.9567 294.21313 406.31024 294.56668Q406.9179 295.17435 406.7964 296.0251Q406.68588 296.86478 405.92355 297.62714Q405.38217 298.16852 404.7745 298.40054Q404.1668 298.61044 403.5923 298.49997Q403.01776 298.3895 402.62003 297.99173L403.3824 297.2294Q403.79117 297.594 404.31046 297.53876Q404.8187 297.47244 405.29376 296.99738Q405.72467 296.56647 405.81305 296.12454Q405.90146 295.6826 405.60312 295.38428ZM403.90167 288.3353L404.9844 289.41806L405.81305 288.58942L406.40967 289.18604L405.58102 290.01468L408.35422 292.78787Q408.63043 293.0641 408.8735 293.08618Q409.11658 293.10828 409.38174 292.8431Q409.5143 292.71054 409.70215 292.43433L410.32086 293.05304Q410.11093 293.43973 409.82367 293.727Q409.31543 294.23523 408.7409 294.19104Q408.15533 294.1358 407.5808 293.56128L404.80765 290.7881L403.99005 291.60568L403.39343 291.00906L404.21103 290.19147L403.12827 289.1087L403.90167 288.3353Z" fill-rule="nonzero"/><path fill="#757575" d="M407.79688 328.552Q406.4821 329.27017 405.5761 329.31436Q404.68118 329.3475 404.05142 328.71774Q403.3443 328.01062 403.44376 326.98312Q403.54318 325.9335 404.4602 325.01648Q405.07892 324.39774 405.80814 324.1547Q406.53732 323.91162 407.22235 324.06628Q407.9184 324.20993 408.42664 324.71817L407.6201 325.5247Q407.06766 324.97226 406.40475 325.01648Q405.7529 325.04962 405.12314 325.67938Q404.53754 326.26495 404.47125 326.86157Q404.39392 327.44714 404.84692 327.90015Q405.22256 328.2758 405.78604 328.22055Q406.36057 328.15427 407.32178 327.61288Q408.28302 327.0715 408.95697 326.90576Q409.64197 326.729 410.18335 326.87262Q410.73578 327.00522 411.18878 327.4582Q411.92902 328.19846 411.79645 329.2149Q411.66385 330.23138 410.71368 331.18155Q410.08392 331.8113 409.29947 332.10962Q408.52606 332.39688 407.81897 332.2864Q407.11185 332.15384 406.5926 331.63455L407.38806 330.83905Q407.92944 331.38043 408.65866 331.29205Q409.38785 331.20364 410.06183 330.5297Q410.6916 329.89993 410.76892 329.31436Q410.83524 328.71774 410.39328 328.2758Q409.95132 327.83386 409.3989 327.90015Q408.8465 327.96643 407.79688 328.552ZM415.48666 326.4086Q414.56964 327.32562 413.39847 327.30353Q412.22733 327.25934 411.22192 326.2539L411.08932 326.12134Q410.41537 325.44736 410.1502 324.67395Q409.874 323.88953 410.03973 323.14926Q410.20544 322.3869 410.73578 321.8566Q411.6086 320.98376 412.66928 321.07214Q413.72995 321.16052 414.80164 322.23224L415.12207 322.55264L412.0837 325.591Q412.7687 326.2318 413.5421 326.276Q414.32657 326.30914 414.9011 325.73462Q415.29883 325.33688 415.40933 324.89493Q415.53085 324.44196 415.47562 323.94476L416.30426 323.84534Q416.61362 325.28165 415.48666 326.4086ZM411.36554 322.48636Q410.90152 322.95038 410.9236 323.6133Q410.9457 324.25412 411.4871 324.92807L413.72995 322.6852L413.67468 322.62997Q413.05597 322.07755 412.4483 322.0444Q411.85168 322.0002 411.36554 322.48636ZM419.37573 317.9675Q420.3922 318.98398 420.55795 320.07776Q420.72366 321.17157 419.9171 321.97812Q419.09952 322.79572 418.1162 322.74048L420.2707 324.89493L419.50833 325.6573L413.29904 319.448L413.99512 318.75195L414.52542 319.21597Q414.426 318.16638 415.25464 317.33774Q416.0612 316.5312 417.1329 316.6748Q418.21564 316.8074 419.2984 317.89017L419.37573 317.9675ZM418.525 318.64145Q417.76266 317.87912 417.0003 317.77966Q416.23795 317.65814 415.67447 318.22162Q414.97842 318.91766 415.2436 319.86786L417.387 322.01126Q418.34824 322.28748 419.05533 321.58038Q419.60776 321.02795 419.49728 320.27664Q419.38678 319.50323 418.525 318.64145ZM418.2046 312.37692L419.28735 313.4597L420.116 312.63104L420.71262 313.22766L419.88397 314.0563L422.65717 316.8295Q422.93338 317.1057 423.17645 317.1278Q423.41953 317.1499 423.68466 316.88474Q423.81726 316.75217 424.0051 316.47595L424.6238 317.09467Q424.41388 317.48135 424.12662 317.76862Q423.61838 318.27686 423.04385 318.23267Q422.45828 318.17743 421.88376 317.6029L419.11057 314.8297L418.293 315.6473L417.69638 315.0507L418.51395 314.2331L417.4312 313.15033L418.2046 312.37692ZM427.50748 314.38776Q426.59045 315.3048 425.4193 315.2827Q424.24814 315.2385 423.24274 314.2331L423.11014 314.1005Q422.4362 313.42654 422.17102 312.65314Q421.8948 311.8687 422.06055 311.12845Q422.22626 310.3661 422.7566 309.8358Q423.62943 308.96292 424.6901 309.05133Q425.75076 309.1397 426.82245 310.21143L427.14288 310.53183L424.10452 313.5702Q424.78952 314.211 425.56293 314.2552Q426.34738 314.28833 426.9219 313.7138Q427.31964 313.31607 427.43015 312.8741Q427.55167 312.42114 427.49643 311.92395L428.32507 311.8245Q428.63443 313.26083 427.50748 314.38776ZM423.38635 310.46555Q422.92233 310.92957 422.94443 311.5925Q422.96652 312.2333 423.5079 312.90726L425.75076 310.6644L425.69553 310.60916Q425.07678 310.05673 424.46912 310.0236Q423.8725 309.9794 423.38635 310.46555ZM426.03802 306.70905L426.5573 307.1841Q426.4689 306.12347 427.3086 305.28378Q428.2477 304.34464 429.30838 304.7203Q429.20895 304.17892 429.36362 303.6265Q429.52936 303.06302 430.0155 302.57687Q431.496 301.09637 433.07593 302.6321L436.08115 305.63733L435.3188 306.39966L432.3578 303.43866Q431.8827 302.96356 431.42972 302.9525Q430.96567 302.93042 430.44638 303.4497Q430.0155 303.8806 429.98236 304.422Q429.96024 304.9523 430.34695 305.4274L433.319 308.39944L432.55667 309.1618L429.61774 306.2229Q428.64548 305.2506 427.68423 306.21185Q426.93295 306.96313 427.29755 307.8802L430.56793 311.15054L429.79453 311.92395L425.3088 307.43823L426.03802 306.70905ZM439.1858 298.15747Q440.2133 299.18497 440.36798 300.28983Q440.52264 301.3726 439.72717 302.1681Q438.87643 303.01883 437.80472 302.87518L438.27982 303.43866L437.58374 304.13474L431.2198 297.77075L431.98215 297.00842L434.35757 299.38385Q434.24707 298.34528 435.06467 297.52768Q435.88226 296.7101 436.96503 296.86478Q438.03674 297.00842 439.1195 298.09116L439.1858 298.15747ZM438.33505 298.83142Q437.5506 298.04697 436.82138 297.9365Q436.0922 297.8039 435.52872 298.36737Q434.76636 299.12973 435.13098 300.15726L437.0755 302.10178Q438.13617 302.45535 438.87643 301.7151Q439.42886 301.16266 439.3073 300.42242Q439.1858 299.68216 438.33505 298.83142ZM444.47803 297.4172Q443.561 298.33423 442.38986 298.31213Q441.21872 298.26794 440.2133 297.26254L440.08072 297.12994Q439.40677 296.456 439.1416 295.6826Q438.8654 294.89813 439.0311 294.1579Q439.19684 293.39554 439.72717 292.8652Q440.6 291.99237 441.66064 292.08075Q442.7213 292.16916 443.79303 293.24084L444.11343 293.56128L441.07507 296.5996Q441.7601 297.24042 442.53348 297.28464Q443.31793 297.31778 443.89246 296.74326Q444.29022 296.3455 444.4007 295.90356Q444.52222 295.45056 444.46698 294.95337L445.29562 294.85394Q445.60498 296.29025 444.47803 297.4172ZM440.35693 293.49496Q439.89288 293.959 439.91498 294.62192Q439.93707 295.26276 440.47845 295.9367L442.7213 293.69385L442.66608 293.6386Q442.04736 293.08618 441.4397 293.05304Q440.84308 293.00885 440.35693 293.49496ZM445.14096 288.97614Q444.94208 289.1308 444.7432 289.32968Q443.98087 290.092 444.3565 290.99802L447.53848 294.18L446.77612 294.94232L442.29044 290.45663L443.03067 289.71637L443.561 290.2246Q443.34003 289.25232 444.0361 288.55627Q444.25705 288.3353 444.43384 288.269L445.14096 288.97614Z" fill-rule="nonzero"/><path fill="#757575" d="M455.2344 319.19388Q456.1183 320.07776 456.48288 321.039Q456.83643 321.98917 456.63757 322.89514Q456.44974 323.79007 455.72052 324.5193Q455.01343 325.22638 454.10745 325.42526Q453.20148 325.62415 452.25128 325.2927Q451.30112 324.93912 450.42828 324.08838L449.99738 323.6575Q449.12454 322.78467 448.75995 321.82343Q448.4064 320.85117 448.60526 319.9452Q448.7931 319.02817 449.51126 318.31Q450.2294 317.59186 451.13538 317.39297Q452.04135 317.1941 453.0026 317.5587Q453.9638 317.9233 454.8477 318.8072L455.2344 319.19388ZM454.05222 319.5806Q452.9805 318.50888 451.97507 318.36523Q450.96967 318.22162 450.19626 318.995Q449.4339 319.75735 449.57755 320.7628Q449.72116 321.7682 450.7266 322.79572L451.17957 323.2487Q452.21814 324.28726 453.24567 324.453Q454.27316 324.59662 455.03552 323.83426Q455.80893 323.06088 455.67633 322.0886Q455.54376 321.09424 454.5052 320.03357L454.05222 319.5806ZM458.12912 317.77966L458.14017 318.763L459.7201 320.34293L458.95776 321.1053L452.59378 314.74133L453.35614 313.97897L457.20105 317.82385L457.1237 316.92892L457.04636 314.04526L457.97443 313.1172L458.10703 316.74112L462.67007 317.39297L461.7641 318.29895L458.12912 317.77966ZM458.6705 310.2556L459.75323 311.33838L460.58188 310.50974L461.1785 311.10635L460.34988 311.935L463.12305 314.70816Q463.39926 314.98438 463.64233 315.0065Q463.8854 315.0286 464.15057 314.76343Q464.28314 314.63083 464.47098 314.3546L465.0897 314.97333Q464.87976 315.36005 464.5925 315.6473Q464.0843 316.15555 463.50977 316.11133Q462.9242 316.0561 462.34967 315.48157L459.57648 312.70837L458.75888 313.52597L458.16226 312.92935L458.97986 312.11176L457.8971 311.02902L458.6705 310.2556ZM463.53186 311.9571Q462.87997 311.30524 462.60376 310.52078Q462.33862 309.72528 462.52643 308.98502Q462.70322 308.23373 463.2888 307.64816Q464.2058 306.73114 465.39905 306.79742Q466.60333 306.85266 467.664 307.91333L467.71924 307.96857Q468.37112 308.62042 468.6363 309.39383Q468.90146 310.16724 468.73572 310.92957Q468.55893 311.68088 467.95126 312.28854Q467.0453 313.19452 465.841 313.13928Q464.63672 313.06195 463.5871 312.01233L463.53186 311.9571ZM464.4047 311.2831Q465.14493 312.02338 465.94043 312.13385Q466.74698 312.2333 467.3215 311.65878Q467.90707 311.0732 467.7966 310.2777Q467.67505 309.47116 466.8464 308.64252Q466.11722 307.91333 465.31067 307.81387Q464.50412 307.69235 463.91855 308.27792Q463.35507 308.8414 463.4545 309.64795Q463.55396 310.43237 464.4047 311.2831ZM468.4816 307.00735Q467.82974 306.35547 467.55353 305.571Q467.28836 304.77554 467.4762 304.03528Q467.65295 303.28397 468.23853 302.6984Q469.15555 301.78137 470.34882 301.84766Q471.5531 301.90292 472.61374 302.96356L472.669 303.01883Q473.32086 303.6707 473.58603 304.4441Q473.8512 305.21747 473.68546 305.97983Q473.5087 306.73114 472.901 307.3388Q471.99503 308.24478 470.79074 308.18954Q469.58646 308.11218 468.53683 307.0626L468.4816 307.00735ZM469.35443 306.33337Q470.0947 307.07364 470.89017 307.1841Q471.69672 307.28354 472.27124 306.709Q472.8568 306.12344 472.74634 305.32797Q472.62482 304.52142 471.79617 303.69278Q471.06696 302.96356 470.2604 302.86414Q469.45386 302.7426 468.8683 303.3282Q468.3048 303.89166 468.40427 304.69818Q468.5037 305.48264 469.35443 306.33337ZM477.53036 298.15747Q478.55786 299.18497 478.71255 300.28983Q478.86722 301.3726 478.07175 302.1681Q477.221 303.01883 476.1493 302.87518L476.6244 303.43866L475.9283 304.1347L469.56436 297.77075L470.3267 297.00842L472.70215 299.38385Q472.59164 298.34528 473.40924 297.52768Q474.22684 296.71008 475.3096 296.86478Q476.38132 297.00842 477.46405 298.09116L477.53036 298.15747ZM476.67963 298.83142Q475.89517 298.04697 475.16595 297.9365Q474.43677 297.8039 473.8733 298.36737Q473.11093 299.12973 473.47556 300.15726L475.42007 302.10178Q476.48074 302.45535 477.221 301.7151Q477.77344 301.16266 477.6519 300.4224Q477.53036 299.68216 476.67963 298.83142ZM482.8226 297.4172Q481.90558 298.33423 480.73444 298.31213Q479.5633 298.26794 478.55786 297.2625L478.4253 297.12994Q477.7513 296.456 477.48618 295.6826Q477.20996 294.89813 477.37567 294.1579Q477.5414 293.39554 478.07175 292.8652Q478.94458 291.99237 480.00522 292.08075Q481.0659 292.16916 482.1376 293.24084L482.458 293.56125L479.41965 296.5996Q480.10468 297.24042 480.87805 297.2846Q481.6625 297.31778 482.23703 296.74326Q482.6348 296.3455 482.74527 295.90356Q482.8668 295.45056 482.81155 294.95337L483.6402 294.85394Q483.94955 296.29025 482.8226 297.4172ZM478.7015 293.49496Q478.23746 293.959 478.25955 294.62192Q478.28165 295.26273 478.82303 295.9367L481.0659 293.69385L481.01065 293.6386Q480.39194 293.08618 479.78427 293.05304Q479.18765 293.00885 478.7015 293.49496ZM483.48553 288.9761Q483.28665 289.1308 483.08777 289.32968Q482.3254 290.092 482.70108 290.998L485.88306 294.18L485.1207 294.94232L480.635 290.45663L481.37524 289.71637L481.90558 290.2246Q481.6846 289.25232 482.38068 288.55627Q482.60162 288.3353 482.7784 288.269L483.48553 288.9761Z" fill-rule="nonzero"/><path fill="#757575" d="M491.4466 326.961L490.6511 327.7565L482.9613 326.1434L487.61276 330.79486L486.8062 331.60138L480.7737 325.56888L481.58026 324.76236L489.29214 326.39752L484.6186 321.724L485.4141 320.9285L491.4466 326.961ZM490.5627 323.27078Q489.91086 322.61893 489.63464 321.83447Q489.36948 321.039 489.5573 320.29874Q489.73407 319.54742 490.31964 318.96185Q491.23666 318.04483 492.42993 318.1111Q493.63422 318.16635 494.6949 319.22702L494.75012 319.28226Q495.40198 319.93414 495.66714 320.70752Q495.9323 321.48093 495.76657 322.2433Q495.5898 322.99457 494.98215 323.60223Q494.07614 324.50824 492.87186 324.45297Q491.66757 324.37564 490.61795 323.32605L490.5627 323.27078ZM491.43555 322.59683Q492.1758 323.3371 492.97128 323.44757Q493.77783 323.547 494.35236 322.97247Q494.93793 322.3869 494.82745 321.5914Q494.70593 320.78488 493.8773 319.95624Q493.14807 319.22702 492.34152 319.1276Q491.53497 319.00604 490.9494 319.5916Q490.38593 320.1551 490.48538 320.96164Q490.5848 321.7461 491.43555 322.59683ZM498.44034 317.89014L496.1091 313.3271L496.89355 312.54263L499.76617 318.64142L499.1806 319.227L493.07074 316.36545L493.8552 315.581L498.44034 317.89014ZM504.19662 314.38776Q503.2796 315.30478 502.10846 315.28268Q500.93732 315.2385 499.93192 314.23306L499.79932 314.1005Q499.12537 313.4265 498.8602 312.6531Q498.58398 311.86868 498.7497 311.12842Q498.91544 310.36606 499.44577 309.83575Q500.3186 308.96292 501.37927 309.0513Q502.4399 309.13968 503.51163 310.2114L503.83203 310.5318L500.7937 313.57016Q501.4787 314.21097 502.2521 314.25516Q503.03653 314.2883 503.61105 313.71378Q504.00882 313.31604 504.1193 312.87408Q504.24084 312.4211 504.18558 311.92392L505.01422 311.8245Q505.32358 313.2608 504.19662 314.38776ZM500.07553 310.4655Q499.61148 310.92953 499.6336 311.59247Q499.6557 312.23328 500.19705 312.90723L502.4399 310.66437L502.38467 310.60913Q501.76596 310.0567 501.1583 310.02356Q500.56168 309.97937 500.07553 310.4655ZM502.72717 306.709L503.24646 307.18408Q503.15808 306.12344 503.99777 305.28375Q504.9369 304.3446 505.99756 304.72028Q505.8981 304.1789 506.0528 303.62646Q506.21854 303.063 506.70465 302.57684Q508.18515 301.09634 509.7651 302.63208L512.7703 305.6373L512.00793 306.39966L509.04694 303.43863Q508.57187 302.96356 508.11887 302.95248Q507.65485 302.9304 507.13556 303.44968Q506.70465 303.88058 506.6715 304.42197Q506.6494 304.95227 507.0361 305.42737L510.00818 308.39944L509.24582 309.16177L506.30692 306.22287Q505.33463 305.2506 504.3734 306.21182Q503.6221 306.96313 503.98672 307.88016L507.25708 311.1505L506.48367 311.92392L501.998 307.4382L502.72717 306.709ZM515.87494 298.15744Q516.90247 299.18494 517.0571 300.2898Q517.21185 301.37256 516.4163 302.16806Q515.5656 303.0188 514.4939 302.87515L514.969 303.43863L514.2729 304.1347L507.90894 297.77072L508.6713 297.0084L511.04672 299.38382Q510.93625 298.34525 511.75385 297.52768Q512.5714 296.71008 513.6542 296.86475Q514.7259 297.0084 515.80865 298.09113L515.87494 298.15744ZM515.02423 298.8314Q514.23975 298.04694 513.51056 297.93646Q512.7814 297.80386 512.2179 298.36734Q511.45554 299.1297 511.82013 300.15723L513.76465 302.10178Q514.8253 302.45532 515.5656 301.71506Q516.11804 301.16263 515.99646 300.4224Q515.87494 299.68213 515.02423 298.8314ZM521.1672 297.41718Q520.2502 298.3342 519.07904 298.3121Q517.9079 298.2679 516.90247 297.2625L516.7699 297.1299Q516.09595 296.45596 515.83075 295.68256Q515.55457 294.8981 515.7203 294.15787Q515.886 293.3955 516.4163 292.86517Q517.2892 291.99234 518.34985 292.08072Q519.41046 292.16913 520.4822 293.24084L520.8026 293.56125L517.7642 296.59958Q518.4493 297.24042 519.22266 297.2846Q520.0071 297.31775 520.5816 296.74323Q520.9794 296.34546 521.08984 295.90353Q521.2114 295.45053 521.1561 294.95337L521.9848 294.8539Q522.2941 296.29022 521.1672 297.41718ZM517.0461 293.49493Q516.58203 293.95898 516.6041 294.6219Q516.6262 295.26273 517.1676 295.93668L519.41046 293.69382L519.3552 293.63858Q518.7365 293.08615 518.12885 293.053Q517.5322 293.00882 517.0461 293.49493ZM521.83014 288.9761Q521.6312 289.13077 521.4324 289.32965Q520.67004 290.09198 521.04565 290.998L524.22766 294.17996L523.4653 294.9423L518.9796 290.4566L519.71985 289.71634L520.2502 290.22458Q520.0292 289.25232 520.7253 288.55624Q520.9462 288.33527 521.123 288.26898L521.83014 288.9761Z" fill-rule="nonzero"/><path fill="#757575" d="M523.7366 333.0156L517.70404 326.9831L519.41656 325.27057Q520.20105 324.4861 521.1512 324.24307Q522.1014 323.9779 523.07367 324.28726Q524.04596 324.59662 524.8856 325.4363L525.2613 325.81195Q526.12305 326.67374 526.43243 327.64603Q526.7528 328.60724 526.4766 329.56845Q526.2114 330.51865 525.41595 331.3362L523.7366 333.0156ZM519.1514 326.83948L523.8802 331.56824L524.7199 330.72855Q525.6369 329.81152 525.58167 328.7398Q525.5264 327.64603 524.46576 326.58536L524.11224 326.2318Q523.0847 325.20428 522.0351 325.12695Q520.9855 325.0275 520.0795 325.91138L519.1514 326.83948ZM531.2275 325.70148Q530.3104 326.6185 529.1393 326.5964Q527.96814 326.55222 526.96277 325.54678L526.83014 325.4142Q526.1562 324.74023 525.89105 323.96686Q525.6148 323.1824 525.7806 322.44214Q525.9463 321.6798 526.4766 321.14948Q527.3494 320.27664 528.4101 320.36502Q529.47076 320.4534 530.5425 321.52512L530.86285 321.84552L527.8245 324.88388Q528.5095 325.5247 529.28296 325.56888Q530.0674 325.60202 530.6419 325.0275Q531.0397 324.62976 531.15015 324.1878Q531.27167 323.73483 531.21643 323.23764L532.04504 323.1382Q532.35443 324.57452 531.2275 325.70148ZM527.1064 321.77924Q526.64233 322.2433 526.6644 322.9062Q526.6865 323.547 527.2279 324.22098L529.47076 321.97812L529.4155 321.92285Q528.7968 321.37045 528.18915 321.33728Q527.5925 321.2931 527.1064 321.77924ZM528.99567 316.61957L530.0784 317.70233L530.9071 316.8737L531.5037 317.4703L530.67505 318.29895L533.44824 321.07214Q533.7244 321.34833 533.9675 321.37045Q534.2106 321.39255 534.47577 321.12738Q534.60834 320.99478 534.79614 320.71857L535.41486 321.33728Q535.20496 321.724 534.9177 322.01126Q534.4095 322.5195 533.83496 322.47528Q533.2494 322.42004 532.67487 321.84552L529.9017 319.07236L529.08405 319.88992L528.4874 319.2933L529.30505 318.4757L528.2223 317.39297L528.99567 316.61957ZM537.76825 316.59747Q537.45886 316.28812 537.05005 316.36545Q536.6413 316.4207 535.93414 316.88474Q535.2381 317.3377 534.7188 317.50345Q534.1995 317.6692 533.8018 317.60287Q533.40405 317.5145 533.0726 317.18304Q532.52014 316.6306 532.6085 315.79092Q532.6859 314.9402 533.4151 314.211Q534.1774 313.44864 535.03925 313.38235Q535.901 313.29395 536.50867 313.9016L535.74634 314.66397Q535.43695 314.3546 534.9398 314.40985Q534.4426 314.443 534.04486 314.84076Q533.625 315.2606 533.56976 315.6915Q533.5145 316.10028 533.8018 316.38754Q534.078 316.66376 534.4426 316.58643Q534.8072 316.5091 535.51434 316.06714Q536.2104 315.61414 536.7407 315.43738Q537.27106 315.2606 537.69086 315.34897Q538.12177 315.42633 538.47534 315.77988Q539.083 316.38754 538.9615 317.23828Q538.85095 318.07797 538.0886 318.84033Q537.54724 319.3817 536.9396 319.6137Q536.3319 319.82364 535.7574 319.71317Q535.18286 319.60266 534.7851 319.20493L535.5475 318.44257Q535.95624 318.8072 536.4755 318.75192Q536.98376 318.68564 537.45886 318.21057Q537.8898 317.77966 537.97815 317.3377Q538.0665 316.89578 537.76825 316.59747ZM542.5412 314.38776Q541.62415 315.30478 540.453 315.28268Q539.28186 315.2385 538.2764 314.2331L538.14386 314.1005Q537.4699 313.42654 537.2048 312.65314Q536.9285 311.86868 537.09424 311.12845Q537.26 310.3661 537.79034 309.83575Q538.66315 308.96292 539.7238 309.0513Q540.7845 309.1397 541.8562 310.21143L542.1766 310.53183L539.13824 313.57016Q539.82324 314.211 540.5966 314.2552Q541.3811 314.28833 541.9556 313.7138Q542.3534 313.31604 542.46387 312.8741Q542.5854 312.4211 542.53015 311.92392L543.35876 311.8245Q543.66815 313.2608 542.5412 314.38776ZM538.4201 310.4655Q537.95605 310.92957 537.97815 311.59247Q538.00024 312.2333 538.5416 312.90726L540.7845 310.6644L540.72925 310.60916Q540.11053 310.05673 539.50287 310.0236Q538.90625 309.9794 538.4201 310.4655ZM541.0717 306.709L541.591 307.1841Q541.5026 306.12344 542.34235 305.28375Q543.28143 304.34464 544.3421 304.72028Q544.2427 304.1789 544.39734 303.62646Q544.56305 303.063 545.0492 302.57687Q546.5297 301.09637 548.1097 302.6321L551.11487 305.6373L550.35254 306.39966L547.3915 303.43866Q546.91644 302.96356 546.46344 302.9525Q545.9994 302.93042 545.4801 303.4497Q545.0492 303.88058 545.01605 304.42197Q544.99396 304.9523 545.3807 305.4274L548.3527 308.39944L547.5904 309.1618L544.6515 306.2229Q543.6792 305.2506 542.71796 306.21185Q541.9667 306.96313 542.3313 307.88016L545.6016 311.15054L544.82825 311.92392L540.3425 307.43823L541.0717 306.709ZM554.2195 298.15744Q555.247 299.18497 555.4017 300.28983Q555.5564 301.3726 554.76086 302.16806Q553.91016 303.0188 552.83844 302.87518L553.31354 303.43866L552.6175 304.1347L546.2535 297.77075L547.01587 297.0084L549.3913 299.38385Q549.2808 298.34528 550.0984 297.52768Q550.916 296.71008 551.9987 296.86478Q553.07043 297.0084 554.1532 298.09116L554.2195 298.15744ZM553.3688 298.83142Q552.5843 298.04697 551.8551 297.9365Q551.1259 297.8039 550.56244 298.36737Q549.8001 299.12973 550.1647 300.15723L552.10925 302.10178Q553.16986 302.45532 553.91016 301.7151Q554.4626 301.16266 554.34106 300.4224Q554.2195 299.68216 553.3688 298.83142ZM559.5118 297.4172Q558.5947 298.33423 557.4236 298.31213Q556.25244 298.26794 555.247 297.2625L555.11444 297.12994Q554.4405 296.45596 554.1753 295.6826Q553.8991 294.89813 554.0648 294.15787Q554.2305 293.39554 554.76086 292.8652Q555.6337 291.99237 556.6944 292.08075Q557.755 292.16913 558.8267 293.24084L559.14716 293.56125L556.1088 296.5996Q556.7938 297.24042 557.5672 297.2846Q558.3517 297.31775 558.9262 296.74323Q559.3239 296.3455 559.4344 295.90353Q559.55597 295.45056 559.50073 294.95337L560.32935 294.85394Q560.63873 296.29025 559.5118 297.4172ZM555.3906 293.49496Q554.92664 293.959 554.9487 294.62192Q554.9708 295.26273 555.5122 295.9367L557.755 293.69385L557.69977 293.63858Q557.08105 293.08618 556.4734 293.053Q555.8768 293.00882 555.3906 293.49496ZM560.1747 288.9761Q559.97577 289.1308 559.7769 289.32965Q559.0146 290.092 559.3902 290.998L562.5722 294.17996L561.8099 294.94232L557.32416 290.4566L558.0644 289.71637L558.5947 290.2246Q558.3738 289.25232 559.0698 288.55627Q559.2908 288.3353 559.4675 288.269L560.1747 288.9761Z" fill-rule="nonzero"/></svg>