<svg version="1.1" viewBox="0.0 0.0 600.0 371.0" fill="none" stroke="none" stroke-linecap="square" stroke-miterlimit="10" width="600" height="371" xmlns:xlink="http://www.w3.org/1999/xlink" xmlns="http://www.w3.org/2000/svg"><path fill="#ffffff" d="M0 0L600.0 0L600.0 371.0L0 371.0L0 0Z" fill-rule="nonzero"/><path stroke="#333333" stroke-width="1.0" stroke-linecap="butt" d="M62.5 300.5L581.5 300.5" fill-rule="nonzero"/><path stroke="#cccccc" stroke-width="1.0" stroke-linecap="butt" d="M62.5 247.5L581.5 247.5" fill-rule="nonzero"/><path stroke="#cccccc" stroke-width="1.0" stroke-linecap="butt" d="M62.5 194.5L581.5 194.5" fill-rule="nonzero"/><path stroke="#cccccc" stroke-width="1.0" stroke-linecap="butt" d="M62.5 142.5L581.5 142.5" fill-rule="nonzero"/><path stroke="#cccccc" stroke-width="1.0" stroke-linecap="butt" d="M62.5 89.5L581.5 89.5" fill-rule="nonzero"/><clipPath id="id_0"><path d="M62.55 89.78333L581.45 89.78333L581.45 300.1345L62.55 300.1345L62.55 89.78333Z" clip-rule="nonzero"/></clipPath><path stroke="#000000" stroke-width="2.0" stroke-linecap="butt" stroke-opacity="0.0" clip-path="url(#id_0)" d="M105.0 300.0L78.0 300.0L78.0 300.0L105.0 300.0Z" fill-rule="nonzero"/><path fill="#4285f4" clip-path="url(#id_0)" d="M105.0 300.0L78.0 300.0L78.0 300.0L105.0 300.0Z" fill-rule="nonzero"/><path stroke="#000000" stroke-width="2.0" stroke-linecap="butt" stroke-opacity="0.0" clip-path="url(#id_0)" d="M147.0 300.0L120.0 300.0L120.0 300.0L147.0 300.0Z" fill-rule="nonzero"/><path fill="#4285f4" clip-path="url(#id_0)" d="M147.0 300.0L120.0 300.0L120.0 300.0L147.0 300.0Z" fill-rule="nonzero"/><path stroke="#000000" stroke-width="2.0" stroke-linecap="butt" stroke-opacity="0.0" clip-path="url(#id_0)" d="M189.0 300.0L162.0 300.0L162.0 163.0L189.0 163.0Z" fill-rule="nonzero"/><path fill="#4285f4" clip-path="url(#id_0)" d="M189.0 300.0L162.0 300.0L162.0 163.0L189.0 163.0Z" fill-rule="nonzero"/><path stroke="#000000" stroke-width="2.0" stroke-linecap="butt" stroke-opacity="0.0" clip-path="url(#id_0)" d="M231.0 300.0L204.0 300.0L204.0 300.0L231.0 300.0Z" fill-rule="nonzero"/><path fill="#4285f4" clip-path="url(#id_0)" d="M231.0 300.0L204.0 300.0L204.0 300.0L231.0 300.0Z" fill-rule="nonzero"/><path stroke="#000000" stroke-width="2.0" stroke-linecap="butt" stroke-opacity="0.0" clip-path="url(#id_0)" d="M273.0 300.0L246.0 300.0L246.0 300.0L273.0 300.0Z" fill-rule="nonzero"/><path fill="#4285f4" clip-path="url(#id_0)" d="M273.0 300.0L246.0 300.0L246.0 300.0L273.0 300.0Z" fill-rule="nonzero"/><path stroke="#000000" stroke-width="2.0" stroke-linecap="butt" stroke-opacity="0.0" clip-path="url(#id_0)" d="M315.0 300.0L288.0 300.0L288.0 163.0L315.0 163.0Z" fill-rule="nonzero"/><path fill="#4285f4" clip-path="url(#id_0)" d="M315.0 300.0L288.0 300.0L288.0 163.0L315.0 163.0Z" fill-rule="nonzero"/><path stroke="#000000" stroke-width="2.0" stroke-linecap="butt" stroke-opacity="0.0" clip-path="url(#id_0)" d="M357.0 300.0L330.0 300.0L330.0 300.0L357.0 300.0Z" fill-rule="nonzero"/><path fill="#4285f4" clip-path="url(#id_0)" d="M357.0 300.0L330.0 300.0L330.0 300.0L357.0 300.0Z" fill-rule="nonzero"/><path stroke="#000000" stroke-width="2.0" stroke-linecap="butt" stroke-opacity="0.0" clip-path="url(#id_0)" d="M399.0 300.0L372.0 300.0L372.0 300.0L399.0 300.0Z" fill-rule="nonzero"/><path fill="#4285f4" clip-path="url(#id_0)" d="M399.0 300.0L372.0 300.0L372.0 300.0L399.0 300.0Z" fill-rule="nonzero"/><path stroke="#000000" stroke-width="2.0" stroke-linecap="butt" stroke-opacity="0.0" clip-path="url(#id_0)" d="M441.0 300.0L414.0 300.0L414.0 163.0L441.0 163.0Z" fill-rule="nonzero"/><path fill="#4285f4" clip-path="url(#id_0)" d="M441.0 300.0L414.0 300.0L414.0 163.0L441.0 163.0Z" fill-rule="nonzero"/><path stroke="#000000" stroke-width="2.0" stroke-linecap="butt" stroke-opacity="0.0" clip-path="url(#id_0)" d="M483.0 300.0L456.0 300.0L456.0 300.0L483.0 300.0Z" fill-rule="nonzero"/><path fill="#4285f4" clip-path="url(#id_0)" d="M483.0 300.0L456.0 300.0L456.0 300.0L483.0 300.0Z" fill-rule="nonzero"/><path stroke="#000000" stroke-width="2.0" stroke-linecap="butt" stroke-opacity="0.0" clip-path="url(#id_0)" d="M525.0 300.0L498.0 300.0L498.0 300.0L525.0 300.0Z" fill-rule="nonzero"/><path fill="#4285f4" clip-path="url(#id_0)" d="M525.0 300.0L498.0 300.0L498.0 300.0L525.0 300.0Z" fill-rule="nonzero"/><path stroke="#000000" stroke-width="2.0" stroke-linecap="butt" stroke-opacity="0.0" clip-path="url(#id_0)" d="M567.0 300.0L540.0 300.0L540.0 163.0L567.0 163.0Z" fill-rule="nonzero"/><path fill="#4285f4" clip-path="url(#id_0)" d="M567.0 300.0L540.0 300.0L540.0 163.0L567.0 163.0Z" fill-rule="nonzero"/><path stroke="#000000" stroke-width="2.0" stroke-linecap="butt" stroke-opacity="0.0" clip-path="url(#id_0)" d="M105.0 300.0L78.0 300.0L78.0 300.0L105.0 300.0Z" fill-rule="nonzero"/><path fill="#db4437" clip-path="url(#id_0)" d="M105.0 300.0L78.0 300.0L78.0 300.0L105.0 300.0Z" fill-rule="nonzero"/><path stroke="#000000" stroke-width="2.0" stroke-linecap="butt" stroke-opacity="0.0" clip-path="url(#id_0)" d="M147.0 300.0L120.0 300.0L120.0 300.0L147.0 300.0Z" fill-rule="nonzero"/><path fill="#db4437" clip-path="url(#id_0)" d="M147.0 300.0L120.0 300.0L120.0 300.0L147.0 300.0Z" fill-rule="nonzero"/><path stroke="#000000" stroke-width="2.0" stroke-linecap="butt" stroke-opacity="0.0" clip-path="url(#id_0)" d="M189.0 163.0L162.0 163.0L162.0 104.0L189.0 104.0Z" fill-rule="nonzero"/><path fill="#db4437" clip-path="url(#id_0)" d="M189.0 163.0L162.0 163.0L162.0 104.0L189.0 104.0Z" fill-rule="nonzero"/><path stroke="#000000" stroke-width="2.0" stroke-linecap="butt" stroke-opacity="0.0" clip-path="url(#id_0)" d="M231.0 300.0L204.0 300.0L204.0 300.0L231.0 300.0Z" fill-rule="nonzero"/><path fill="#db4437" clip-path="url(#id_0)" d="M231.0 300.0L204.0 300.0L204.0 300.0L231.0 300.0Z" fill-rule="nonzero"/><path stroke="#000000" stroke-width="2.0" stroke-linecap="butt" stroke-opacity="0.0" clip-path="url(#id_0)" d="M273.0 300.0L246.0 300.0L246.0 300.0L273.0 300.0Z" fill-rule="nonzero"/><path fill="#db4437" clip-path="url(#id_0)" d="M273.0 300.0L246.0 300.0L246.0 300.0L273.0 300.0Z" fill-rule="nonzero"/><path stroke="#000000" stroke-width="2.0" stroke-linecap="butt" stroke-opacity="0.0" clip-path="url(#id_0)" d="M315.0 163.0L288.0 163.0L288.0 104.0L315.0 104.0Z" fill-rule="nonzero"/><path fill="#db4437" clip-path="url(#id_0)" d="M315.0 163.0L288.0 163.0L288.0 104.0L315.0 104.0Z" fill-rule="nonzero"/><path stroke="#000000" stroke-width="2.0" stroke-linecap="butt" stroke-opacity="0.0" clip-path="url(#id_0)" d="M357.0 300.0L330.0 300.0L330.0 300.0L357.0 300.0Z" fill-rule="nonzero"/><path fill="#db4437" clip-path="url(#id_0)" d="M357.0 300.0L330.0 300.0L330.0 300.0L357.0 300.0Z" fill-rule="nonzero"/><path stroke="#000000" stroke-width="2.0" stroke-linecap="butt" stroke-opacity="0.0" clip-path="url(#id_0)" d="M399.0 300.0L372.0 300.0L372.0 300.0L399.0 300.0Z" fill-rule="nonzero"/><path fill="#db4437" clip-path="url(#id_0)" d="M399.0 300.0L372.0 300.0L372.0 300.0L399.0 300.0Z" fill-rule="nonzero"/><path stroke="#000000" stroke-width="2.0" stroke-linecap="butt" stroke-opacity="0.0" clip-path="url(#id_0)" d="M441.0 163.0L414.0 163.0L414.0 104.0L441.0 104.0Z" fill-rule="nonzero"/><path fill="#db4437" clip-path="url(#id_0)" d="M441.0 163.0L414.0 163.0L414.0 104.0L441.0 104.0Z" fill-rule="nonzero"/><path stroke="#000000" stroke-width="2.0" stroke-linecap="butt" stroke-opacity="0.0" clip-path="url(#id_0)" d="M483.0 300.0L456.0 300.0L456.0 300.0L483.0 300.0Z" fill-rule="nonzero"/><path fill="#db4437" clip-path="url(#id_0)" d="M483.0 300.0L456.0 300.0L456.0 300.0L483.0 300.0Z" fill-rule="nonzero"/><path stroke="#000000" stroke-width="2.0" stroke-linecap="butt" stroke-opacity="0.0" clip-path="url(#id_0)" d="M525.0 300.0L498.0 300.0L498.0 300.0L525.0 300.0Z" fill-rule="nonzero"/><path fill="#db4437" clip-path="url(#id_0)" d="M525.0 300.0L498.0 300.0L498.0 300.0L525.0 300.0Z" fill-rule="nonzero"/><path stroke="#000000" stroke-width="2.0" stroke-linecap="butt" stroke-opacity="0.0" clip-path="url(#id_0)" d="M567.0 163.0L540.0 163.0L540.0 104.0L567.0 104.0Z" fill-rule="nonzero"/><path fill="#db4437" clip-path="url(#id_0)" d="M567.0 163.0L540.0 163.0L540.0 104.0L567.0 104.0Z" fill-rule="nonzero"/><path stroke="#000000" stroke-width="2.0" stroke-linecap="butt" stroke-opacity="0.0" clip-path="url(#id_0)" d="M105.0 300.0L78.0 300.0L78.0 300.0L105.0 300.0Z" fill-rule="nonzero"/><path fill="#f4b400" clip-path="url(#id_0)" d="M105.0 300.0L78.0 300.0L78.0 300.0L105.0 300.0Z" fill-rule="nonzero"/><path stroke="#000000" stroke-width="2.0" stroke-linecap="butt" stroke-opacity="0.0" clip-path="url(#id_0)" d="M147.0 300.0L120.0 300.0L120.0 290.0C120.0 288.89542 120.89543 288.0 122.0 288.0L145.0 288.0C146.10457 288.0 147.0 288.89542 147.0 290.0Z" fill-rule="nonzero"/><path fill="#f4b400" clip-path="url(#id_0)" d="M147.0 300.0L120.0 300.0L120.0 290.0C120.0 288.89542 120.89543 288.0 122.0 288.0L145.0 288.0C146.10457 288.0 147.0 288.89542 147.0 290.0Z" fill-rule="nonzero"/><path stroke="#000000" stroke-width="2.0" stroke-linecap="butt" stroke-opacity="0.0" clip-path="url(#id_0)" d="M189.0 104.0L162.0 104.0L162.0 104.0L189.0 104.0Z" fill-rule="nonzero"/><path fill="#f4b400" clip-path="url(#id_0)" d="M189.0 104.0L162.0 104.0L162.0 104.0L189.0 104.0Z" fill-rule="nonzero"/><path stroke="#000000" stroke-width="2.0" stroke-linecap="butt" stroke-opacity="0.0" clip-path="url(#id_0)" d="M231.0 300.0L204.0 300.0L204.0 300.0L231.0 300.0Z" fill-rule="nonzero"/><path fill="#f4b400" clip-path="url(#id_0)" d="M231.0 300.0L204.0 300.0L204.0 300.0L231.0 300.0Z" fill-rule="nonzero"/><path stroke="#000000" stroke-width="2.0" stroke-linecap="butt" stroke-opacity="0.0" clip-path="url(#id_0)" d="M273.0 300.0L246.0 300.0L246.0 290.0C246.0 288.89542 246.89543 288.0 248.0 288.0L271.0 288.0C272.10458 288.0 273.0 288.89542 273.0 290.0Z" fill-rule="nonzero"/><path fill="#f4b400" clip-path="url(#id_0)" d="M273.0 300.0L246.0 300.0L246.0 290.0C246.0 288.89542 246.89543 288.0 248.0 288.0L271.0 288.0C272.10458 288.0 273.0 288.89542 273.0 290.0Z" fill-rule="nonzero"/><path stroke="#000000" stroke-width="2.0" stroke-linecap="butt" stroke-opacity="0.0" clip-path="url(#id_0)" d="M315.0 104.0L288.0 104.0L288.0 104.0L315.0 104.0Z" fill-rule="nonzero"/><path fill="#f4b400" clip-path="url(#id_0)" d="M315.0 104.0L288.0 104.0L288.0 104.0L315.0 104.0Z" fill-rule="nonzero"/><path stroke="#000000" stroke-width="2.0" stroke-linecap="butt" stroke-opacity="0.0" clip-path="url(#id_0)" d="M357.0 300.0L330.0 300.0L330.0 300.0L357.0 300.0Z" fill-rule="nonzero"/><path fill="#f4b400" clip-path="url(#id_0)" d="M357.0 300.0L330.0 300.0L330.0 300.0L357.0 300.0Z" fill-rule="nonzero"/><path stroke="#000000" stroke-width="2.0" stroke-linecap="butt" stroke-opacity="0.0" clip-path="url(#id_0)" d="M399.0 300.0L372.0 300.0L372.0 290.0C372.0 288.89542 372.89542 288.0 374.0 288.0L397.0 288.0C398.10458 288.0 399.0 288.89542 399.0 290.0Z" fill-rule="nonzero"/><path fill="#f4b400" clip-path="url(#id_0)" d="M399.0 300.0L372.0 300.0L372.0 290.0C372.0 288.89542 372.89542 288.0 374.0 288.0L397.0 288.0C398.10458 288.0 399.0 288.89542 399.0 290.0Z" fill-rule="nonzero"/><path stroke="#000000" stroke-width="2.0" stroke-linecap="butt" stroke-opacity="0.0" clip-path="url(#id_0)" d="M441.0 104.0L414.0 104.0L414.0 104.0L441.0 104.0Z" fill-rule="nonzero"/><path fill="#f4b400" clip-path="url(#id_0)" d="M441.0 104.0L414.0 104.0L414.0 104.0L441.0 104.0Z" fill-rule="nonzero"/><path stroke="#000000" stroke-width="2.0" stroke-linecap="butt" stroke-opacity="0.0" clip-path="url(#id_0)" d="M483.0 300.0L456.0 300.0L456.0 300.0L483.0 300.0Z" fill-rule="nonzero"/><path fill="#f4b400" clip-path="url(#id_0)" d="M483.0 300.0L456.0 300.0L456.0 300.0L483.0 300.0Z" fill-rule="nonzero"/><path stroke="#000000" stroke-width="2.0" stroke-linecap="butt" stroke-opacity="0.0" clip-path="url(#id_0)" d="M525.0 300.0L498.0 300.0L498.0 290.0C498.0 288.89542 498.89542 288.0 500.0 288.0L523.0 288.0C524.10455 288.0 525.0 288.89542 525.0 290.0Z" fill-rule="nonzero"/><path fill="#f4b400" clip-path="url(#id_0)" d="M525.0 300.0L498.0 300.0L498.0 290.0C498.0 288.89542 498.89542 288.0 500.0 288.0L523.0 288.0C524.10455 288.0 525.0 288.89542 525.0 290.0Z" fill-rule="nonzero"/><path stroke="#000000" stroke-width="2.0" stroke-linecap="butt" stroke-opacity="0.0" clip-path="url(#id_0)" d="M567.0 104.0L540.0 104.0L540.0 104.0L567.0 104.0Z" fill-rule="nonzero"/><path fill="#f4b400" clip-path="url(#id_0)" d="M567.0 104.0L540.0 104.0L540.0 104.0L567.0 104.0Z" fill-rule="nonzero"/><path fill="#757575" d="M30.51875 301.46262L28.26875 301.46262Q28.3 302.60324 28.815624 303.22824Q29.346874 303.83762 30.315624 303.83762Q31.003124 303.83762 31.596874 303.6345L31.721874 304.572Q31.01875 304.7595 30.315624 304.7595Q28.8625 304.7595 28.01875 303.90012Q27.190624 303.04074 27.14375 301.46262L26.1125 301.46262L26.1125 300.74387L27.14375 300.74387L27.14375 299.93137L26.1125 299.93137L26.1125 299.197L27.14375 299.197Q27.20625 297.66574 28.034374 296.822Q28.878124 295.97824 30.3 295.97824Q30.925 295.97824 31.721874 296.16574L31.596874 297.11887Q30.95625 296.91574 30.315624 296.91574Q29.346874 296.91574 28.83125 297.5095Q28.315624 298.10324 28.284374 299.197L30.51875 299.197L30.51875 299.93137L28.26875 299.93137L28.26875 300.74387L30.51875 300.74387L30.51875 301.46262ZM38.6125 300.99387Q38.6125 302.90012 37.95625 303.83762Q37.315624 304.7595 35.925 304.7595Q34.565624 304.7595 33.909374 303.85324Q33.253124 302.947 33.221874 301.1345L33.221874 299.697Q33.221874 297.80637 33.8625 296.90012Q34.51875 295.97824 35.909374 295.97824Q37.284374 295.97824 37.940624 296.86887Q38.596874 297.74387 38.6125 299.58762L38.6125 300.99387ZM37.51875 299.5095Q37.51875 298.1345 37.128124 297.5095Q36.753124 296.86887 35.909374 296.86887Q35.08125 296.86887 34.690624 297.5095Q34.315624 298.1345 34.315624 299.43137L34.315624 301.16574Q34.315624 302.54074 34.70625 303.21262Q35.1125 303.86887 35.925 303.86887Q36.721874 303.86887 37.1125 303.24387Q37.503124 302.61887 37.51875 301.29074L37.51875 299.5095ZM40.39375 304.072Q40.39375 303.79074 40.55 303.60324Q40.721874 303.41574 41.05 303.41574Q41.39375 303.41574 41.565624 303.60324Q41.7375 303.79074 41.7375 304.072Q41.7375 304.33762 41.565624 304.52512Q41.39375 304.697 41.05 304.697Q40.721874 304.697 40.55 304.52512Q40.39375 304.33762 40.39375 304.072ZM48.6125 300.99387Q48.6125 302.90012 47.95625 303.83762Q47.315624 304.7595 45.925 304.7595Q44.565624 304.7595 43.909374 303.85324Q43.253124 302.947 43.221874 301.1345L43.221874 299.697Q43.221874 297.80637 43.8625 296.90012Q44.51875 295.97824 45.909374 295.97824Q47.284374 295.97824 47.940624 296.86887Q48.596874 297.74387 48.6125 299.58762L48.6125 300.99387ZM47.51875 299.5095Q47.51875 298.1345 47.128124 297.5095Q46.753124 296.86887 45.909374 296.86887Q45.08125 296.86887 44.690624 297.5095Q44.315624 298.1345 44.315624 299.43137L44.315624 301.16574Q44.315624 302.54074 44.70625 303.21262Q45.1125 303.86887 45.925 303.86887Q46.721874 303.86887 47.1125 303.24387Q47.503124 302.61887 47.51875 301.29074L47.51875 299.5095ZM55.6125 300.99387Q55.6125 302.90012 54.95625 303.83762Q54.315624 304.7595 52.925 304.7595Q51.565624 304.7595 50.909374 303.85324Q50.253124 302.947 50.221874 301.1345L50.221874 299.697Q50.221874 297.80637 50.8625 296.90012Q51.51875 295.97824 52.909374 295.97824Q54.284374 295.97824 54.940624 296.86887Q55.596874 297.74387 55.6125 299.58762L55.6125 300.99387ZM54.51875 299.5095Q54.51875 298.1345 54.128124 297.5095Q53.753124 296.86887 52.909374 296.86887Q52.08125 296.86887 51.690624 297.5095Q51.315624 298.1345 51.315624 299.43137L51.315624 301.16574Q51.315624 302.54074 51.70625 303.21262Q52.1125 303.86887 52.925 303.86887Q53.721874 303.86887 54.1125 303.24387Q54.503124 302.61887 54.51875 301.29074L54.51875 299.5095Z" fill-rule="nonzero"/><path fill="#757575" d="M23.51875 248.87483L21.26875 248.87483Q21.3 250.01546 21.815624 250.64046Q22.346874 251.24983 23.315624 251.24983Q24.003124 251.24983 24.596874 251.0467L24.721874 251.9842Q24.01875 252.1717 23.315624 252.1717Q21.8625 252.1717 21.01875 251.31233Q20.190624 250.45296 20.14375 248.87483L19.1125 248.87483L19.1125 248.15608L20.14375 248.15608L20.14375 247.34358L19.1125 247.34358L19.1125 246.6092L20.14375 246.6092Q20.20625 245.07796 21.034374 244.2342Q21.878124 243.39046 23.3 243.39046Q23.925 243.39046 24.721874 243.57796L24.596874 244.53108Q23.95625 244.32796 23.315624 244.32796Q22.346874 244.32796 21.83125 244.9217Q21.315624 245.51546 21.284374 246.6092L23.51875 246.6092L23.51875 247.34358L21.26875 247.34358L21.26875 248.15608L23.51875 248.15608L23.51875 248.87483ZM29.815624 252.0467L28.7375 252.0467L28.7375 244.82796L26.55 245.62483L26.55 244.64046L29.659374 243.46858L29.815624 243.46858L29.815624 252.0467ZM38.6125 248.40608Q38.6125 250.31233 37.95625 251.24983Q37.315624 252.1717 35.925 252.1717Q34.565624 252.1717 33.909374 251.26546Q33.253124 250.3592 33.221874 248.5467L33.221874 247.1092Q33.221874 245.21858 33.8625 244.31233Q34.51875 243.39046 35.909374 243.39046Q37.284374 243.39046 37.940624 244.28108Q38.596874 245.15608 38.6125 246.99983L38.6125 248.40608ZM37.51875 246.9217Q37.51875 245.5467 37.128124 244.9217Q36.753124 244.28108 35.909374 244.28108Q35.08125 244.28108 34.690624 244.9217Q34.315624 245.5467 34.315624 246.84358L34.315624 248.57796Q34.315624 249.95296 34.70625 250.62483Q35.1125 251.28108 35.925 251.28108Q36.721874 251.28108 37.1125 250.65608Q37.503124 250.03108 37.51875 248.70296L37.51875 246.9217ZM40.39375 251.4842Q40.39375 251.20296 40.55 251.01546Q40.721874 250.82796 41.05 250.82796Q41.39375 250.82796 41.565624 251.01546Q41.7375 251.20296 41.7375 251.4842Q41.7375 251.74983 41.565624 251.93733Q41.39375 252.1092 41.05 252.1092Q40.721874 252.1092 40.55 251.93733Q40.39375 251.74983 40.39375 251.4842ZM48.6125 248.40608Q48.6125 250.31233 47.95625 251.24983Q47.315624 252.1717 45.925 252.1717Q44.565624 252.1717 43.909374 251.26546Q43.253124 250.3592 43.221874 248.5467L43.221874 247.1092Q43.221874 245.21858 43.8625 244.31233Q44.51875 243.39046 45.909374 243.39046Q47.284374 243.39046 47.940624 244.28108Q48.596874 245.15608 48.6125 246.99983L48.6125 248.40608ZM47.51875 246.9217Q47.51875 245.5467 47.128124 244.9217Q46.753124 244.28108 45.909374 244.28108Q45.08125 244.28108 44.690624 244.9217Q44.315624 245.5467 44.315624 246.84358L44.315624 248.57796Q44.315624 249.95296 44.70625 250.62483Q45.1125 251.28108 45.925 251.28108Q46.721874 251.28108 47.1125 250.65608Q47.503124 250.03108 47.51875 248.70296L47.51875 246.9217ZM55.6125 248.40608Q55.6125 250.31233 54.95625 251.24983Q54.315624 252.1717 52.925 252.1717Q51.565624 252.1717 50.909374 251.26546Q50.253124 250.3592 50.221874 248.5467L50.221874 247.1092Q50.221874 245.21858 50.8625 244.31233Q51.51875 243.39046 52.909374 243.39046Q54.284374 243.39046 54.940624 244.28108Q55.596874 245.15608 55.6125 246.99983L55.6125 248.40608ZM54.51875 246.9217Q54.51875 245.5467 54.128124 244.9217Q53.753124 244.28108 52.909374 244.28108Q52.08125 244.28108 51.690624 244.9217Q51.315624 245.5467 51.315624 246.84358L51.315624 248.57796Q51.315624 249.95296 51.70625 250.62483Q52.1125 251.28108 52.925 251.28108Q53.721874 251.28108 54.1125 250.65608Q54.503124 250.03108 54.51875 248.70296L54.51875 246.9217Z" fill-rule="nonzero"/><path fill="#757575" d="M23.51875 196.28705L21.26875 196.28705Q21.3 197.42767 21.815624 198.05267Q22.346874 198.66205 23.315624 198.66205Q24.003124 198.66205 24.596874 198.45892L24.721874 199.39642Q24.01875 199.58392 23.315624 199.58392Q21.8625 199.58392 21.01875 198.72455Q20.190624 197.86517 20.14375 196.28705L19.1125 196.28705L19.1125 195.5683L20.14375 195.5683L20.14375 194.7558L19.1125 194.7558L19.1125 194.02142L20.14375 194.02142Q20.20625 192.49017 21.034374 191.64642Q21.878124 190.80267 23.3 190.80267Q23.925 190.80267 24.721874 190.99017L24.596874 191.9433Q23.95625 191.74017 23.315624 191.74017Q22.346874 191.74017 21.83125 192.33392Q21.315624 192.92767 21.284374 194.02142L23.51875 194.02142L23.51875 194.7558L21.26875 194.7558L21.26875 195.5683L23.51875 195.5683L23.51875 196.28705ZM31.846874 199.45892L26.253124 199.45892L26.253124 198.67767L29.20625 195.39642Q29.8625 194.64642 30.1125 194.1933Q30.3625 193.72455 30.3625 193.22455Q30.3625 192.55267 29.95625 192.1308Q29.565624 191.6933 28.878124 191.6933Q28.08125 191.6933 27.628124 192.16205Q27.175 192.61517 27.175 193.4433L26.096874 193.4433Q26.096874 192.2558 26.846874 191.53705Q27.6125 190.80267 28.878124 190.80267Q30.08125 190.80267 30.76875 191.42767Q31.45625 192.05267 31.45625 193.09955Q31.45625 194.34955 29.846874 196.09955L27.565624 198.5683L31.846874 198.5683L31.846874 199.45892ZM38.6125 195.8183Q38.6125 197.72455 37.95625 198.66205Q37.315624 199.58392 35.925 199.58392Q34.565624 199.58392 33.909374 198.67767Q33.253124 197.77142 33.221874 195.95892L33.221874 194.52142Q33.221874 192.6308 33.8625 191.72455Q34.51875 190.80267 35.909374 190.80267Q37.284374 190.80267 37.940624 191.6933Q38.596874 192.5683 38.6125 194.41205L38.6125 195.8183ZM37.51875 194.33392Q37.51875 192.95892 37.128124 192.33392Q36.753124 191.6933 35.909374 191.6933Q35.08125 191.6933 34.690624 192.33392Q34.315624 192.95892 34.315624 194.2558L34.315624 195.99017Q34.315624 197.36517 34.70625 198.03705Q35.1125 198.6933 35.925 198.6933Q36.721874 198.6933 37.1125 198.0683Q37.503124 197.4433 37.51875 196.11517L37.51875 194.33392ZM40.39375 198.89642Q40.39375 198.61517 40.55 198.42767Q40.721874 198.24017 41.05 198.24017Q41.39375 198.24017 41.565624 198.42767Q41.7375 198.61517 41.7375 198.89642Q41.7375 199.16205 41.565624 199.34955Q41.39375 199.52142 41.05 199.52142Q40.721874 199.52142 40.55 199.34955Q40.39375 199.16205 40.39375 198.89642ZM48.6125 195.8183Q48.6125 197.72455 47.95625 198.66205Q47.315624 199.58392 45.925 199.58392Q44.565624 199.58392 43.909374 198.67767Q43.253124 197.77142 43.221874 195.95892L43.221874 194.52142Q43.221874 192.6308 43.8625 191.72455Q44.51875 190.80267 45.909374 190.80267Q47.284374 190.80267 47.940624 191.6933Q48.596874 192.5683 48.6125 194.41205L48.6125 195.8183ZM47.51875 194.33392Q47.51875 192.95892 47.128124 192.33392Q46.753124 191.6933 45.909374 191.6933Q45.08125 191.6933 44.690624 192.33392Q44.315624 192.95892 44.315624 194.2558L44.315624 195.99017Q44.315624 197.36517 44.70625 198.03705Q45.1125 198.6933 45.925 198.6933Q46.721874 198.6933 47.1125 198.0683Q47.503124 197.4433 47.51875 196.11517L47.51875 194.33392ZM55.6125 195.8183Q55.6125 197.72455 54.95625 198.66205Q54.315624 199.58392 52.925 199.58392Q51.565624 199.58392 50.909374 198.67767Q50.253124 197.77142 50.221874 195.95892L50.221874 194.52142Q50.221874 192.6308 50.8625 191.72455Q51.51875 190.80267 52.909374 190.80267Q54.284374 190.80267 54.940624 191.6933Q55.596874 192.5683 55.6125 194.41205L55.6125 195.8183ZM54.51875 194.33392Q54.51875 192.95892 54.128124 192.33392Q53.753124 191.6933 52.909374 191.6933Q52.08125 191.6933 51.690624 192.33392Q51.315624 192.95892 51.315624 194.2558L51.315624 195.99017Q51.315624 197.36517 51.70625 198.03705Q52.1125 198.6933 52.925 198.6933Q53.721874 198.6933 54.1125 198.0683Q54.503124 197.4433 54.51875 196.11517L54.51875 194.33392Z" fill-rule="nonzero"/><path fill="#757575" d="M23.51875 143.69925L21.26875 143.69925Q21.3 144.83987 21.815624 145.46487Q22.346874 146.07425 23.315624 146.07425Q24.003124 146.07425 24.596874 145.87112L24.721874 146.80862Q24.01875 146.99612 23.315624 146.99612Q21.8625 146.99612 21.01875 146.13675Q20.190624 145.27737 20.14375 143.69925L19.1125 143.69925L19.1125 142.9805L20.14375 142.9805L20.14375 142.168L19.1125 142.168L19.1125 141.43362L20.14375 141.43362Q20.20625 139.90237 21.034374 139.05862Q21.878124 138.21487 23.3 138.21487Q23.925 138.21487 24.721874 138.40237L24.596874 139.3555Q23.95625 139.15237 23.315624 139.15237Q22.346874 139.15237 21.83125 139.74612Q21.315624 140.33987 21.284374 141.43362L23.51875 141.43362L23.51875 142.168L21.26875 142.168L21.26875 142.9805L23.51875 142.9805L23.51875 143.69925ZM27.83125 142.07425L28.64375 142.07425Q29.425 142.05862 29.8625 141.668Q30.3 141.27737 30.3 140.6055Q30.3 139.1055 28.8 139.1055Q28.096874 139.1055 27.675 139.51175Q27.26875 139.918 27.26875 140.57425L26.175 140.57425Q26.175 139.55862 26.909374 138.88675Q27.659374 138.21487 28.8 138.21487Q30.003124 138.21487 30.690624 138.8555Q31.378124 139.49612 31.378124 140.63675Q31.378124 141.19925 31.01875 141.71487Q30.659374 142.2305 30.034374 142.49612Q30.7375 142.71487 31.1125 143.2305Q31.503124 143.74612 31.503124 144.49612Q31.503124 145.63675 30.753124 146.32425Q30.003124 146.99612 28.8 146.99612Q27.6125 146.99612 26.846874 146.33987Q26.096874 145.68362 26.096874 144.62112L27.190624 144.62112Q27.190624 145.293 27.628124 145.69925Q28.065624 146.1055 28.815624 146.1055Q29.596874 146.1055 30.003124 145.69925Q30.425 145.27737 30.425 144.51175Q30.425 143.77737 29.971874 143.38675Q29.51875 142.9805 28.64375 142.96487L27.83125 142.96487L27.83125 142.07425ZM38.6125 143.2305Q38.6125 145.13675 37.95625 146.07425Q37.315624 146.99612 35.925 146.99612Q34.565624 146.99612 33.909374 146.08987Q33.253124 145.18362 33.221874 143.37112L33.221874 141.93362Q33.221874 140.043 33.8625 139.13675Q34.51875 138.21487 35.909374 138.21487Q37.284374 138.21487 37.940624 139.1055Q38.596874 139.9805 38.6125 141.82425L38.6125 143.2305ZM37.51875 141.74612Q37.51875 140.37112 37.128124 139.74612Q36.753124 139.1055 35.909374 139.1055Q35.08125 139.1055 34.690624 139.74612Q34.315624 140.37112 34.315624 141.668L34.315624 143.40237Q34.315624 144.77737 34.70625 145.44925Q35.1125 146.1055 35.925 146.1055Q36.721874 146.1055 37.1125 145.4805Q37.503124 144.8555 37.51875 143.52737L37.51875 141.74612ZM40.39375 146.30862Q40.39375 146.02737 40.55 145.83987Q40.721874 145.65237 41.05 145.65237Q41.39375 145.65237 41.565624 145.83987Q41.7375 146.02737 41.7375 146.30862Q41.7375 146.57425 41.565624 146.76175Q41.39375 146.93362 41.05 146.93362Q40.721874 146.93362 40.55 146.76175Q40.39375 146.57425 40.39375 146.30862ZM48.6125 143.2305Q48.6125 145.13675 47.95625 146.07425Q47.315624 146.99612 45.925 146.99612Q44.565624 146.99612 43.909374 146.08987Q43.253124 145.18362 43.221874 143.37112L43.221874 141.93362Q43.221874 140.043 43.8625 139.13675Q44.51875 138.21487 45.909374 138.21487Q47.284374 138.21487 47.940624 139.1055Q48.596874 139.9805 48.6125 141.82425L48.6125 143.2305ZM47.51875 141.74612Q47.51875 140.37112 47.128124 139.74612Q46.753124 139.1055 45.909374 139.1055Q45.08125 139.1055 44.690624 139.74612Q44.315624 140.37112 44.315624 141.668L44.315624 143.40237Q44.315624 144.77737 44.70625 145.44925Q45.1125 146.1055 45.925 146.1055Q46.721874 146.1055 47.1125 145.4805Q47.503124 144.8555 47.51875 143.52737L47.51875 141.74612ZM55.6125 143.2305Q55.6125 145.13675 54.95625 146.07425Q54.315624 146.99612 52.925 146.99612Q51.565624 146.99612 50.909374 146.08987Q50.253124 145.18362 50.221874 143.37112L50.221874 141.93362Q50.221874 140.043 50.8625 139.13675Q51.51875 138.21487 52.909374 138.21487Q54.284374 138.21487 54.940624 139.1055Q55.596874 139.9805 55.6125 141.82425L55.6125 143.2305ZM54.51875 141.74612Q54.51875 140.37112 54.128124 139.74612Q53.753124 139.1055 52.909374 139.1055Q52.08125 139.1055 51.690624 139.74612Q51.315624 140.37112 51.315624 141.668L51.315624 143.40237Q51.315624 144.77737 51.70625 145.44925Q52.1125 146.1055 52.925 146.1055Q53.721874 146.1055 54.1125 145.4805Q54.503124 144.8555 54.51875 143.52737L54.51875 141.74612Z" fill-rule="nonzero"/><path fill="#757575" d="M23.51875 91.11146L21.26875 91.11146Q21.3 92.25208 21.815624 92.87708Q22.346874 93.48646 23.315624 93.48646Q24.003124 93.48646 24.596874 93.28333L24.721874 94.22083Q24.01875 94.40833 23.315624 94.40833Q21.8625 94.40833 21.01875 93.54896Q20.190624 92.68958 20.14375 91.11146L19.1125 91.11146L19.1125 90.39271L20.14375 90.39271L20.14375 89.58021L19.1125 89.58021L19.1125 88.84583L20.14375 88.84583Q20.20625 87.31458 21.034374 86.47083Q21.878124 85.62708 23.3 85.62708Q23.925 85.62708 24.721874 85.81458L24.596874 86.76771Q23.95625 86.56458 23.315624 86.56458Q22.346874 86.56458 21.83125 87.15833Q21.315624 87.75208 21.284374 88.84583L23.51875 88.84583L23.51875 89.58021L21.26875 89.58021L21.26875 90.39271L23.51875 90.39271L23.51875 91.11146ZM30.83125 91.42396L32.01875 91.42396L32.01875 92.29896L30.83125 92.29896L30.83125 94.28333L29.753124 94.28333L29.753124 92.29896L25.8625 92.29896L25.8625 91.65833L29.675 85.75208L30.83125 85.75208L30.83125 91.42396ZM27.096874 91.42396L29.753124 91.42396L29.753124 87.23646L29.6125 87.47083L27.096874 91.42396ZM38.6125 90.64271Q38.6125 92.54896 37.95625 93.48646Q37.315624 94.40833 35.925 94.40833Q34.565624 94.40833 33.909374 93.50208Q33.253124 92.59583 33.221874 90.78333L33.221874 89.34583Q33.221874 87.45521 33.8625 86.54896Q34.51875 85.62708 35.909374 85.62708Q37.284374 85.62708 37.940624 86.51771Q38.596874 87.39271 38.6125 89.23646L38.6125 90.64271ZM37.51875 89.15833Q37.51875 87.78333 37.128124 87.15833Q36.753124 86.51771 35.909374 86.51771Q35.08125 86.51771 34.690624 87.15833Q34.315624 87.78333 34.315624 89.08021L34.315624 90.81458Q34.315624 92.18958 34.70625 92.86146Q35.1125 93.51771 35.925 93.51771Q36.721874 93.51771 37.1125 92.89271Q37.503124 92.26771 37.51875 90.93958L37.51875 89.15833ZM40.39375 93.72083Q40.39375 93.43958 40.55 93.25208Q40.721874 93.06458 41.05 93.06458Q41.39375 93.06458 41.565624 93.25208Q41.7375 93.43958 41.7375 93.72083Q41.7375 93.98646 41.565624 94.17396Q41.39375 94.34583 41.05 94.34583Q40.721874 94.34583 40.55 94.17396Q40.39375 93.98646 40.39375 93.72083ZM48.6125 90.64271Q48.6125 92.54896 47.95625 93.48646Q47.315624 94.40833 45.925 94.40833Q44.565624 94.40833 43.909374 93.50208Q43.253124 92.59583 43.221874 90.78333L43.221874 89.34583Q43.221874 87.45521 43.8625 86.54896Q44.51875 85.62708 45.909374 85.62708Q47.284374 85.62708 47.940624 86.51771Q48.596874 87.39271 48.6125 89.23646L48.6125 90.64271ZM47.51875 89.15833Q47.51875 87.78333 47.128124 87.15833Q46.753124 86.51771 45.909374 86.51771Q45.08125 86.51771 44.690624 87.15833Q44.315624 87.78333 44.315624 89.08021L44.315624 90.81458Q44.315624 92.18958 44.70625 92.86146Q45.1125 93.51771 45.925 93.51771Q46.721874 93.51771 47.1125 92.89271Q47.503124 92.26771 47.51875 90.93958L47.51875 89.15833ZM55.6125 90.64271Q55.6125 92.54896 54.95625 93.48646Q54.315624 94.40833 52.925 94.40833Q51.565624 94.40833 50.909374 93.50208Q50.253124 92.59583 50.221874 90.78333L50.221874 89.34583Q50.221874 87.45521 50.8625 86.54896Q51.51875 85.62708 52.909374 85.62708Q54.284374 85.62708 54.940624 86.51771Q55.596874 87.39271 55.6125 89.23646L55.6125 90.64271ZM54.51875 89.15833Q54.51875 87.78333 54.128124 87.15833Q53.753124 86.51771 52.909374 86.51771Q52.08125 86.51771 51.690624 87.15833Q51.315624 87.78333 51.315624 89.08021L51.315624 90.81458Q51.315624 92.18958 51.70625 92.86146Q52.1125 93.51771 52.925 93.51771Q53.721874 93.51771 54.1125 92.89271Q54.503124 92.26771 54.51875 90.93958L54.51875 89.15833Z" fill-rule="nonzero"/><path fill="#757575" d="M64.77007 337.1809L65.576614 336.37436L69.8524 340.65015Q70.71419 341.51193 70.68104 342.53946Q70.647896 343.54486 69.78611 344.40665Q68.891174 345.30157 67.91891 345.3458Q66.95768 345.37894 66.12904 344.5503L66.92454 343.7548Q67.44382 344.27408 68.01834 344.29617Q68.592865 344.29617 69.13425 343.7548Q69.63143 343.2576 69.62038 342.64993Q69.60933 342.02017 69.05691 341.46774L64.77007 337.1809ZM75.873856 338.14212Q75.67498 338.07584 75.288284 337.77753Q75.32143 338.87134 74.58118 339.6116Q73.91827 340.2745 73.11172 340.32974Q72.31622 340.37393 71.73065 339.78836Q71.03459 339.09232 71.17822 338.1753Q71.32185 337.25824 72.29413 336.28598L73.03438 335.54572L72.680824 335.19217Q72.28308 334.79443 71.80799 334.80548Q71.3329 334.79443 70.85782 335.2695Q70.44902 335.6783 70.38273 336.16446Q70.30539 336.63953 70.6037 336.93784L69.8303 337.71124Q69.4878 337.36874 69.41045 336.82736Q69.34417 336.27493 69.57619 335.68936Q69.79716 335.09274 70.283295 334.6066Q71.06774 333.82214 71.88533 333.77795Q72.713974 333.72272 73.41003 334.37457L75.476105 336.44064Q76.094826 337.0594 76.614105 337.2693L76.6804 337.3356L75.873856 338.14212ZM74.0177 338.82715Q74.3823 338.46255 74.514885 337.9543Q74.64747 337.44608 74.49279 337.00412L73.57576 336.0871L72.97913 336.68372Q71.564926 338.09793 72.39356 338.92657Q72.747116 339.28012 73.20011 339.24698Q73.64205 339.2028 74.0177 338.82715ZM74.293915 330.75067L74.879486 331.29202Q74.75795 330.13193 75.58659 329.30328Q77.011856 327.87802 78.62494 329.46902L81.58595 332.43002L80.81255 333.20343L77.8405 330.23138Q77.36541 329.7563 76.91242 329.74524Q76.470474 329.72314 76.00644 330.1872Q75.63079 330.56284 75.5424 331.04898Q75.46506 331.52405 75.63079 331.99915L78.823814 335.19217L78.06147 335.95453L73.57576 331.4688L74.293915 330.75067ZM85.331406 327.8007Q85.4198 328.77298 84.54696 329.6458Q83.828804 330.36395 83.03331 330.31976Q82.237816 330.27557 81.42023 329.45798L78.50341 326.54117L79.265755 325.7788L82.16048 328.67352Q83.18799 329.70105 84.01663 328.8724Q84.90051 327.98853 84.524864 327.03836L81.26554 323.77902L82.03894 323.0056L86.52465 327.49133L85.79545 328.22055L85.331406 327.8007ZM90.7231 323.29288Q90.52422 323.2266 90.13753 322.92828Q90.17067 324.0221 89.43042 324.76236Q88.7675 325.42526 87.96096 325.4805Q87.16547 325.5247 86.579895 324.93912Q85.883835 324.24307 86.027466 323.32605Q86.1711 322.409 87.14337 321.43674L87.88362 320.69647L87.53007 320.34293Q87.132324 319.9452 86.657234 319.95624Q86.182144 319.9452 85.70706 320.42026Q85.29826 320.82907 85.23197 321.31522Q85.15463 321.79028 85.45294 322.0886L84.67954 322.862Q84.337036 322.5195 84.2597 321.97812Q84.193405 321.4257 84.42543 320.84012Q84.6464 320.2435 85.13254 319.75735Q85.916985 318.9729 86.73457 318.9287Q87.56322 318.87347 88.25927 319.52533L90.32535 321.5914Q90.94407 322.21014 91.46335 322.42004L91.52964 322.48636L90.7231 323.29288ZM88.86694 323.9779Q89.231544 323.6133 89.36413 323.10507Q89.49671 322.59683 89.34203 322.15488L88.425 321.23785L87.82838 321.83447Q86.41417 323.2487 87.242805 324.07733Q87.59636 324.43088 88.04935 324.39774Q88.491295 324.35355 88.86694 323.9779ZM91.27553 315.13907Q91.07665 315.29373 90.87778 315.4926Q90.115425 316.25497 90.49108 317.16095L93.67306 320.34293L92.910706 321.1053L88.425 316.61957L89.16525 315.8793L89.69558 316.38754Q89.47461 315.41528 90.17067 314.7192Q90.39164 314.49826 90.56842 314.43195L91.27553 315.13907ZM96.070595 315.6915L93.761444 311.2831L94.57904 310.46555L97.95989 317.4482Q98.65595 318.98395 97.74997 319.88995L97.58424 320.03357L97.252785 320.25455L96.63407 319.63583L96.843994 319.448Q97.24174 319.05026 97.29698 318.68564Q97.36327 318.31 97.08706 317.74652L96.78875 317.11676L90.75624 314.28833L91.59593 313.44864L96.070595 315.6915Z" fill-rule="nonzero"/><path fill="#757575" d="M108.84129 341.86548L106.30013 344.40665L108.96283 347.06937L108.167336 347.86484L102.13483 341.83234L105.88029 338.08688L106.53215 338.73874L103.58219 341.68872L105.64826 343.7548L108.18943 341.21362L108.84129 341.86548ZM114.95114 341.2578Q114.03411 342.17484 112.86296 342.15274Q111.69182 342.10855 110.6864 341.10315L110.55382 340.97055Q109.87986 340.2966 109.61469 339.5232Q109.33848 338.73874 109.5042 337.9985Q109.66994 337.23615 110.200264 336.7058Q111.0731 335.83298 112.13376 335.9214Q113.19442 336.00977 114.26613 337.08148L114.58654 337.4019L111.54819 340.44022Q112.2332 341.08105 113.00659 341.12524Q113.79104 341.1584 114.36557 340.58386Q114.76331 340.18613 114.8738 339.74417Q114.99533 339.29117 114.940094 338.794L115.76873 338.69455Q116.07809 340.13086 114.95114 341.2578ZM110.83003 337.3356Q110.366 337.79962 110.38809 338.46252Q110.41019 339.10336 110.95157 339.7773L113.19442 337.53445L113.139175 337.47922Q112.52046 336.9268 111.91279 336.89365Q111.31617 336.84946 110.83003 337.3356ZM118.85127 332.8057Q119.878784 333.8332 120.03346 334.93805Q120.18814 336.0208 119.392654 336.8163Q118.541916 337.66705 117.47021 337.5234L117.9453 338.08688L117.24924 338.78296L110.88528 332.41898L111.64762 331.65665L114.02306 334.03207Q113.912575 332.9935 114.73017 332.1759Q115.54775 331.35834 116.630516 331.513Q117.702225 331.65665 118.78498 332.7394L118.85127 332.8057ZM118.000534 333.47964Q117.21609 332.6952 116.486885 332.58472Q115.75768 332.45212 115.19421 333.0156Q114.431854 333.77795 114.79646 334.80548L116.741005 336.75Q117.80167 337.10358 118.541916 336.3633Q119.094345 335.81088 118.9728 335.07065Q118.85127 334.33038 118.000534 333.47964ZM120.5638 327.867Q120.36492 328.02167 120.166046 328.22055Q119.403694 328.98288 119.77935 329.8889L122.96133 333.07086L122.198975 333.8332L117.71327 329.3475L118.45352 328.60724L118.98385 329.11548Q118.76288 328.14322 119.45894 327.44714Q119.67991 327.22617 119.85669 327.15988L120.5638 327.867ZM127.3476 327.8007Q127.43599 328.77298 126.563156 329.6458Q125.845 330.36395 125.0495 330.31976Q124.254005 330.27557 123.43642 329.45798L120.5196 326.54117L121.28195 325.7788L124.17667 328.67352Q125.204185 329.70105 126.03282 328.8724Q126.91671 327.98853 126.54105 327.03836L123.28174 323.77902L124.05513 323.00565L128.54085 327.49133L127.81164 328.22055L127.3476 327.8007ZM132.73929 323.2929Q132.54042 323.2266 132.15372 322.92828Q132.18686 324.0221 131.44661 324.76236Q130.78369 325.42526 129.97716 325.4805Q129.18166 325.5247 128.59608 324.93912Q127.900024 324.24307 128.04366 323.32605Q128.18729 322.409 129.15956 321.43674L129.89981 320.69647L129.54626 320.34293Q129.14851 319.9452 128.67343 319.95624Q128.19833 319.9452 127.72325 320.4203Q127.31445 320.82907 127.24816 321.31522Q127.17082 321.79028 127.46913 322.0886L126.69573 322.862Q126.35323 322.5195 126.275894 321.97812Q126.2096 321.4257 126.44162 320.84012Q126.66259 320.2435 127.14873 319.75735Q127.933174 318.9729 128.75076 318.9287Q129.5794 318.87347 130.27547 319.52533L132.34154 321.59143Q132.96027 322.21014 133.47954 322.42007L133.54584 322.48636L132.73929 323.2929ZM130.88313 323.9779Q131.24774 323.6133 131.38033 323.10507Q131.5129 322.59683 131.35822 322.1549L130.4412 321.23785L129.84457 321.83447Q128.43036 323.2487 129.259 324.07733Q129.61255 324.4309 130.06554 324.39774Q130.50748 324.35355 130.88313 323.9779ZM133.29172 315.13907Q133.09285 315.29376 132.89397 315.4926Q132.13162 316.25497 132.50726 317.16095L135.68925 320.34293L134.9269 321.1053L130.4412 316.61957L131.18144 315.87933L131.71178 316.38754Q131.4908 315.41528 132.18686 314.71924Q132.40784 314.49826 132.58461 314.43198L133.29172 315.13907ZM138.08678 315.6915L135.77763 311.28314L136.59523 310.46555L139.97609 317.4482Q140.67215 318.98395 139.76616 319.88995L139.60043 320.03357L139.26898 320.25455L138.65025 319.63583L138.86018 319.448Q139.25793 319.05026 139.31317 318.68564Q139.37947 318.31 139.10326 317.74652L138.80493 317.11676L132.77243 314.28833L133.61212 313.44864L138.08678 315.6915Z" fill-rule="nonzero"/><path fill="#757575" d="M155.07803 330.90533L161.97232 333.84424L159.02237 326.961L160.06093 325.92245L166.09343 331.95496L165.29794 332.75043L162.9446 330.3971L160.49182 327.78964L163.38654 334.66183L162.77887 335.2695L155.92877 332.3748L158.52518 334.81653L160.87852 337.16986L160.08302 337.96536L154.05052 331.93286L155.07803 330.90533ZM169.80574 328.24265Q169.60687 328.17633 169.22017 327.87802Q169.25331 328.97183 168.51306 329.7121Q167.85014 330.375 167.04361 330.43024Q166.24811 330.47443 165.66254 329.88885Q164.96648 329.1928 165.1101 328.2758Q165.25374 327.35876 166.22601 326.38647L166.96626 325.64624L166.61272 325.29266Q166.21497 324.89493 165.73988 324.90598Q165.26479 324.89493 164.7897 325.37003Q164.3809 325.7788 164.31462 326.26495Q164.23727 326.74002 164.53558 327.03833L163.76219 327.81174Q163.41968 327.46924 163.34235 326.92786Q163.27605 326.37543 163.50807 325.78986Q163.72905 325.19324 164.21518 324.7071Q164.99963 323.92267 165.81721 323.87845Q166.64586 323.8232 167.34192 324.47507L169.40799 326.54117Q170.02672 327.15988 170.54599 327.3698L170.61229 327.4361L169.80574 328.24265ZM167.94958 328.92764Q168.3142 328.56305 168.44678 328.0548Q168.57936 327.54657 168.42468 327.10464L167.50764 326.1876L166.91103 326.78424Q165.49681 328.19843 166.32545 329.02707Q166.679 329.38065 167.13199 329.3475Q167.57394 329.30328 167.94958 328.92764ZM170.35817 320.0888Q170.1593 320.2435 169.96042 320.44235Q169.19807 321.2047 169.57373 322.1107L172.7557 325.29266L171.99335 326.05502L167.50764 321.5693L168.2479 320.82907L168.77823 321.33728Q168.55725 320.36502 169.25331 319.66898Q169.47429 319.448 169.65106 319.3817L170.35817 320.0888ZM176.07027 320.89536Q176.47906 320.48654 176.54535 319.93414Q176.6006 319.37067 176.25809 318.96185L176.98729 318.23267Q177.3519 318.64145 177.45134 319.2491Q177.55077 319.8347 177.3519 320.4534Q177.16408 321.0611 176.70003 321.52512Q175.783 322.44214 174.63396 322.37585Q173.48491 322.28748 172.42426 321.2268L172.29167 321.09424Q171.6398 320.44235 171.36359 319.70212Q171.09842 318.9508 171.26414 318.23267Q171.42989 317.4924 172.0486 316.8737Q172.7999 316.12238 173.75008 316.0782Q174.70024 316.0119 175.4626 316.70795L174.7334 317.43716Q174.2583 317.02835 173.68378 317.05045Q173.10925 317.07257 172.67836 317.50345Q172.09279 318.08902 172.19223 318.82928Q172.29167 319.56952 173.08716 320.36502L173.23079 320.50867Q174.0042 321.28204 174.74445 321.3815Q175.4847 321.48093 176.07027 320.89536ZM175.88245 314.27728Q175.77196 313.15033 176.58955 312.33273Q178.01482 310.90747 179.6279 312.49847L182.58891 315.45947L181.8155 316.23288L178.84344 313.2608Q178.36836 312.78574 177.91537 312.77466Q177.47343 312.75256 177.0094 313.2166Q176.63374 313.59225 176.54535 314.0784Q176.46802 314.5535 176.63374 315.02856L179.82677 318.22162L179.06442 318.98395L172.70045 312.62L173.46281 311.85764L175.88245 314.27728Z" fill-rule="nonzero"/><path fill="#757575" d="M210.2199 326.68478L207.68977 329.2149L208.70624 331.35834L207.88866 332.17593L204.15425 323.8453L204.8503 323.14926L213.19196 326.87262L212.37436 327.69022L210.2199 326.68478ZM207.28098 328.31998L209.33601 326.26495L205.49112 324.4751L207.28098 328.31998ZM215.60054 320.0888Q216.617 321.1053 216.78273 322.1991Q216.94846 323.29288 216.14192 324.09943Q215.32433 324.91702 214.341 324.8618L216.49547 327.01624L215.73312 327.7786L209.52383 321.5693L210.2199 320.87326L210.75023 321.3373Q210.65079 320.2877 211.47943 319.45905Q212.28598 318.6525 213.35768 318.79614Q214.44044 318.9287 215.5232 320.01147L215.60054 320.0888ZM214.7498 320.7628Q213.98744 320.00043 213.2251 319.901Q212.46275 319.77945 211.89928 320.34293Q211.20322 321.039 211.46838 321.98917L213.6118 324.13257Q214.57303 324.40878 215.28012 323.7017Q215.83255 323.14926 215.72208 322.39795Q215.61159 321.62457 214.7498 320.7628ZM217.32411 315.13907Q217.12523 315.29373 216.92636 315.4926Q216.16402 316.25497 216.53966 317.16095L219.72165 320.34293L218.95929 321.1053L214.47359 316.61957L215.21384 315.8793L215.74417 316.38754Q215.5232 315.41528 216.21925 314.7192Q216.44023 314.49826 216.617 314.43195L217.32411 315.13907ZM222.61636 317.4482L221.854 318.21057L217.3683 313.72485L218.13065 312.9625L222.61636 317.4482ZM216.11981 312.60895Q215.93199 312.4211 215.9099 312.17807Q215.89885 311.92395 216.11981 311.70297Q216.34079 311.482 216.58386 311.5041Q216.83797 311.51514 217.0258 311.70297Q217.20258 311.87973 217.21362 312.13385Q217.22467 312.36588 217.00371 312.58685Q216.78273 312.80783 216.53966 312.80783Q216.2966 312.78574 216.11981 312.60895ZM224.73769 315.3269L223.97533 316.08923L217.61137 309.72528L218.37372 308.96292L224.73769 315.3269Z" fill-rule="nonzero"/><path fill="#757575" d="M246.8886 323.12717L253.78288 326.06607L250.83292 319.18283L251.87149 318.1443L257.904 324.1768L257.1085 324.97226L254.75516 322.61893L252.30238 320.01147L255.1971 326.88367L254.58943 327.49133L247.73933 324.59662L250.33574 327.03836L252.68907 329.3917L251.89359 330.1872L245.86108 324.1547L246.8886 323.12717ZM261.6163 320.46448Q261.41742 320.39816 261.03073 320.09985Q261.06387 321.19366 260.3236 321.93393Q259.6607 322.59683 258.85416 322.65207Q258.05865 322.69626 257.47308 322.1107Q256.77704 321.41464 256.92065 320.49762Q257.0643 319.5806 258.03656 318.6083L258.77682 317.86807L258.42328 317.5145Q258.0255 317.11676 257.55045 317.1278Q257.07535 317.11676 256.60025 317.59186Q256.19147 318.00064 256.12518 318.4868Q256.04782 318.96185 256.34613 319.26016L255.57275 320.03357Q255.23024 319.69107 255.15291 319.1497Q255.08661 318.59726 255.31863 318.0117Q255.5396 317.41507 256.02573 316.92892Q256.81018 316.1445 257.62778 316.10028Q258.45642 316.04504 259.15247 316.6969L261.21857 318.763Q261.83728 319.3817 262.35654 319.59164L262.42285 319.65793L261.6163 320.46448ZM259.76013 321.14948Q260.12476 320.78488 260.25732 320.27664Q260.38992 319.7684 260.23523 319.32648L259.3182 318.40942L258.7216 319.00607Q257.30737 320.42026 258.13602 321.2489Q258.48956 321.60248 258.94257 321.56934Q259.3845 321.52512 259.76013 321.14948ZM264.13538 315.6915L261.82623 311.2831L262.64383 310.46555L266.02466 317.4482Q266.72073 318.98395 265.81476 319.88995L265.64902 320.03357L265.31757 320.25455L264.69885 319.63583L264.90875 319.448Q265.30652 319.05026 265.36176 318.68564Q265.42804 318.31 265.15182 317.74652L264.85352 317.11676L258.821 314.28833L259.6607 313.44864L264.13538 315.6915Z" fill-rule="nonzero"/><path fill="#757575" d="M287.57898 324.45297L288.3855 323.64645L292.6613 327.9222Q293.52307 328.78403 293.48993 329.81152Q293.4568 330.81696 292.595 331.67874Q291.70007 332.57367 290.7278 332.61786Q289.76657 332.651 288.93793 331.82236L289.73343 331.02686Q290.25272 331.54614 290.82724 331.56824Q291.40176 331.56824 291.94315 331.02686Q292.44034 330.5297 292.4293 329.922Q292.41824 329.29224 291.8658 328.7398L287.57898 324.45297ZM298.2408 324.97226Q298.3292 325.94455 297.45636 326.81738Q296.73822 327.53552 295.94272 327.49133Q295.14722 327.44714 294.32962 326.62955L291.4128 323.71274L292.17517 322.95038L295.0699 325.8451Q296.09738 326.87262 296.92603 326.04398Q297.8099 325.1601 297.43427 324.20993L294.17496 320.9506L294.94833 320.1772L299.43405 324.6629L298.70486 325.39212L298.2408 324.97226ZM297.1028 318.02274L297.6884 318.56412Q297.56686 317.40402 298.39548 316.57538Q299.82074 315.15012 301.43384 316.7411L304.39484 319.70212L303.62146 320.4755L300.64938 317.50345Q300.17432 317.02835 299.7213 317.0173Q299.2794 316.9952 298.81534 317.45926Q298.4397 317.8349 298.3513 318.32104Q298.27396 318.79614 298.4397 319.2712L301.63272 322.46423L300.87036 323.2266L296.38464 318.74088L297.1028 318.02274ZM307.76465 316.5091Q306.84763 317.42612 305.67648 317.40402Q304.50534 317.35983 303.4999 316.3544L303.36734 316.22183Q302.6934 315.54785 302.42822 314.77444Q302.152 313.99002 302.31772 313.24976Q302.48346 312.4874 303.0138 311.9571Q303.88663 311.08426 304.94727 311.17264Q306.00793 311.26102 307.07965 312.33273L307.40005 312.65314L304.3617 315.6915Q305.04672 316.3323 305.8201 316.3765Q306.60455 316.40964 307.17908 315.8351Q307.57684 315.43738 307.68732 314.99542Q307.80884 314.54245 307.7536 314.04526L308.58224 313.94583Q308.8916 315.38214 307.76465 316.5091ZM303.64355 312.58685Q303.1795 313.05087 303.2016 313.7138Q303.2237 314.3546 303.76508 315.02856L306.00793 312.78574L305.9527 312.73047Q305.33398 312.17804 304.72632 312.1449Q304.1297 312.1007 303.64355 312.58685Z" fill-rule="nonzero"/><path fill="#757575" d="M332.42358 321.62454L333.23013 320.818L337.50592 325.09378Q338.3677 325.95557 338.33456 326.9831Q338.30142 327.9885 337.43964 328.8503Q336.5447 329.74524 335.57242 329.78943Q334.6112 329.82257 333.78256 328.99393L334.57806 328.19843Q335.09735 328.7177 335.67188 328.7398Q336.2464 328.7398 336.78778 328.19843Q337.28494 327.70123 337.2739 327.09357Q337.26285 326.4638 336.71042 325.91138L332.42358 321.62454ZM343.08545 322.14383Q343.17383 323.1161 342.301 323.98892Q341.58282 324.7071 340.78735 324.6629Q339.99185 324.6187 339.17426 323.80112L336.25745 320.8843L337.01978 320.12195L339.91452 323.01666Q340.94202 324.0442 341.77066 323.21555Q342.65454 322.33167 342.2789 321.38147L339.01956 318.12216L339.79297 317.34875L344.2787 321.83447L343.54947 322.56366L343.08545 322.14383ZM346.54364 319.56952L345.78128 320.33188L339.41733 313.9679L340.1797 313.20557L346.54364 319.56952ZM348.1678 315.69147L345.8586 311.2831L346.6762 310.4655L350.05707 317.4482Q350.75314 318.98395 349.84714 319.88992L349.68143 320.03357L349.34998 320.25452L348.73123 319.6358L348.94116 319.448Q349.33893 319.05023 349.39417 318.68564Q349.46045 318.31 349.18423 317.74652L348.88593 317.11673L342.85342 314.28833L343.6931 313.44864L348.1678 315.69147Z" fill-rule="nonzero"/><path fill="#757575" d="M368.38516 336.5843L365.85507 339.1144L366.87152 341.2578L366.05392 342.0754L362.31952 333.7448L363.0156 333.04877L371.35724 336.77213L370.53964 337.58972L368.38516 336.5843ZM365.44626 338.21948L367.50128 336.16446L363.6564 334.37457L365.44626 338.21948ZM374.49503 332.75046Q374.5834 333.72272 373.71057 334.59555Q372.99243 335.31372 372.19693 335.2695Q371.40143 335.2253 370.58383 334.4077L367.66702 331.4909L368.42938 330.72858L371.3241 333.6233Q372.3516 334.6508 373.18024 333.82214Q374.06412 332.93826 373.68848 331.9881L370.42917 328.7288L371.20255 327.95538L375.68826 332.4411L374.95905 333.1703L374.49503 332.75046ZM374.66074 328.9166Q373.61115 327.867 373.47855 326.76215Q373.34598 325.6573 374.14148 324.8618Q374.95905 324.0442 375.99762 324.1547L375.53357 323.62436L376.2407 322.91724L380.6159 327.29248Q381.48874 328.1653 381.46664 329.18176Q381.4556 330.2093 380.5938 331.07108Q380.10767 331.5572 379.43372 331.8113Q378.75977 332.06543 378.16315 331.95496L378.09683 331.09317Q379.19064 331.2147 379.9088 330.49655Q380.46124 329.94412 380.4502 329.31436Q380.46124 328.68457 379.88672 328.11005L379.5 327.72336Q379.57736 328.7288 378.78186 329.52426Q377.9974 330.30872 376.8815 330.1651Q375.75455 330.0104 374.66074 328.9166ZM375.52252 328.2316Q376.27383 328.98288 377.02515 329.11548Q377.76538 329.237 378.32886 328.67352Q379.04703 327.95538 378.72662 326.94995L376.68262 324.90598Q375.68826 324.6187 374.98114 325.32584Q374.42874 325.87827 374.5392 326.62955Q374.66074 327.3698 375.52252 328.2316ZM384.3945 322.85095Q384.4829 323.8232 383.61008 324.69604Q382.8919 325.4142 382.0964 325.37003Q381.30093 325.32584 380.48334 324.50824L377.56653 321.59143L378.32886 320.82907L381.22357 323.7238Q382.2511 324.7513 383.07974 323.92267Q383.96362 323.0388 383.58798 322.0886L380.32864 318.82928L381.10205 318.05588L385.58777 322.5416L384.85855 323.27078L384.3945 322.85095ZM388.4383 317.3046Q388.12894 316.9952 387.72012 317.07257Q387.31134 317.1278 386.60422 317.59186Q385.90817 318.04483 385.3889 318.21057Q384.8696 318.37628 384.47186 318.31Q384.0741 318.22162 383.74265 317.89017Q383.19022 317.33774 383.27863 316.49805Q383.35596 315.6473 384.08514 314.9181Q384.8475 314.15576 385.7093 314.08945Q386.57108 314.00107 387.17874 314.60873L386.4164 315.3711Q386.10703 315.06174 385.60986 315.11697Q385.11267 315.15012 384.71494 315.54785Q384.29507 315.9677 384.23984 316.3986Q384.1846 316.8074 384.47186 317.09467Q384.74808 317.37088 385.11267 317.29355Q385.47726 317.2162 386.1844 316.77426Q386.88043 316.32126 387.41077 316.14447Q387.9411 315.9677 388.36093 316.0561Q388.79184 316.13342 389.1454 316.487Q389.75305 317.09467 389.63153 317.9454Q389.52103 318.7851 388.7587 319.54742Q388.21732 320.0888 387.60965 320.32083Q387.00198 320.53076 386.42746 320.42026Q385.85294 320.30978 385.45517 319.91205L386.21753 319.1497Q386.6263 319.51428 387.1456 319.45905Q387.65384 319.39276 388.12894 318.91766Q388.5598 318.4868 388.6482 318.04483Q388.7366 317.6029 388.4383 317.3046ZM386.73682 310.2556L387.81955 311.33838L388.6482 310.50974L389.2448 311.10635L388.4162 311.935L391.18936 314.70816Q391.46558 314.98438 391.70865 315.0065Q391.95172 315.0286 392.2169 314.76343Q392.34946 314.63083 392.5373 314.3546L393.156 314.97333Q392.94608 315.36005 392.6588 315.6473Q392.1506 316.15555 391.57608 316.11133Q390.9905 316.0561 390.416 315.48157L387.6428 312.70837L386.8252 313.52597L386.22858 312.92935L387.04617 312.11176L385.9634 311.02902L386.73682 310.2556Z" fill-rule="nonzero"/><path fill="#757575" d="M394.30365 350.4723Q392.98886 351.19046 392.0829 351.23465Q391.18796 351.2678 390.5582 350.63803Q389.85107 349.93094 389.95053 348.9034Q390.04996 347.8538 390.96698 346.93677Q391.5857 346.31805 392.3149 346.07498Q393.04413 345.8319 393.72913 345.9866Q394.42517 346.13022 394.9334 346.63846L394.12686 347.445Q393.57443 346.89258 392.91153 346.93677Q392.25967 346.9699 391.6299 347.59967Q391.04434 348.18524 390.97803 348.78186Q390.9007 349.36746 391.3537 349.82043Q391.72934 350.19608 392.29282 350.14084Q392.86734 350.07455 393.82855 349.53317Q394.7898 348.9918 395.46375 348.82608Q396.14874 348.6493 396.69012 348.79294Q397.24255 348.9255 397.69556 349.3785Q398.4358 350.11874 398.30322 351.13522Q398.17065 352.15167 397.22046 353.10187Q396.5907 353.73163 395.80624 354.02994Q395.03287 354.3172 394.32574 354.2067Q393.61865 354.07413 393.09937 353.55484L393.89487 352.75934Q394.43622 353.30072 395.16544 353.21234Q395.89465 353.12396 396.5686 352.44998Q397.19836 351.82022 397.2757 351.23465Q397.342 350.63803 396.90005 350.19608Q396.45813 349.75415 395.9057 349.82043Q395.35327 349.88672 394.30365 350.4723ZM401.99344 348.3289Q401.07642 349.2459 399.90527 349.22382Q398.7341 349.17963 397.7287 348.1742L397.5961 348.04163Q396.92215 347.36768 396.65698 346.59427Q396.38077 345.8098 396.5465 345.06955Q396.71222 344.30722 397.24255 343.7769Q398.1154 342.90405 399.17606 342.99243Q400.23672 343.08084 401.3084 344.15253L401.62885 344.47293L398.59048 347.5113Q399.27548 348.1521 400.0489 348.1963Q400.83334 348.22946 401.40787 347.65494Q401.8056 347.25717 401.9161 346.81525Q402.03763 346.36224 401.9824 345.86505L402.81104 345.76562Q403.1204 347.20193 401.99344 348.3289ZM397.8723 344.40665Q397.4083 344.8707 397.4304 345.5336Q397.45248 346.1744 397.99387 346.8484L400.23672 344.60553L400.1815 344.5503Q399.56274 343.99786 398.95508 343.96472Q398.35846 343.9205 397.8723 344.40665ZM405.8825 339.8878Q406.899 340.90427 407.06473 341.99808Q407.23044 343.0919 406.4239 343.8984Q405.60632 344.716 404.623 344.66077L406.77747 346.81525L406.0151 347.57758L399.80582 341.36832L400.5019 340.67224L401.03223 341.1363Q400.93277 340.08667 401.7614 339.25803Q402.56796 338.45148 403.63968 338.59512Q404.7224 338.7277 405.80518 339.81046L405.8825 339.8878ZM405.0318 340.56177Q404.26944 339.7994 403.50708 339.69998Q402.74475 339.57843 402.18127 340.1419Q401.4852 340.83798 401.75037 341.78815L403.8938 343.93158Q404.855 344.20776 405.5621 343.50067Q406.11453 342.94824 406.00406 342.19693Q405.8936 341.42355 405.0318 340.56177ZM404.71136 334.29724L405.79413 335.38L406.62277 334.55136L407.2194 335.14798L406.39075 335.97662L409.16394 338.7498Q409.44016 339.026 409.68323 339.0481Q409.9263 339.0702 410.19147 338.80505Q410.32404 338.67245 410.51187 338.39624L411.13058 339.01495Q410.92065 339.40167 410.6334 339.68893Q410.12515 340.19714 409.55063 340.15295Q408.96506 340.09772 408.39053 339.5232L405.61737 336.75L404.79977 337.5676L404.20316 336.97098L405.02072 336.15338L403.938 335.07062L404.71136 334.29724ZM414.01425 336.30807Q413.09723 337.2251 411.9261 337.203Q410.75494 337.1588 409.7495 336.15338L409.61694 336.0208Q408.94296 335.34683 408.6778 334.57346Q408.40158 333.789 408.56732 333.04874Q408.73303 332.2864 409.26337 331.75607Q410.1362 330.88324 411.19687 330.97162Q412.25754 331.06 413.32925 332.1317L413.64966 332.45212L410.6113 335.49048Q411.2963 336.1313 412.0697 336.17548Q412.85416 336.20862 413.42868 335.6341Q413.82642 335.23636 413.93692 334.79443Q414.05844 334.34143 414.0032 333.84424L414.83185 333.7448Q415.1412 335.18112 414.01425 336.30807ZM409.89316 332.38583Q409.4291 332.84988 409.4512 333.5128Q409.4733 334.1536 410.01468 334.82758L412.25754 332.58472L412.2023 332.52948Q411.58356 331.97705 410.9759 331.9439Q410.37927 331.8997 409.89316 332.38583ZM412.5448 328.62933L413.0641 329.10443Q412.97568 328.04376 413.81537 327.20407Q414.75452 326.26495 415.81516 326.6406Q415.71573 326.0992 415.8704 325.54678Q416.03613 324.9833 416.52228 324.49716Q418.00278 323.01666 419.5827 324.55243L422.58792 327.55762L421.82556 328.31998L418.86456 325.35898Q418.38947 324.88388 417.9365 324.87283Q417.47244 324.85074 416.95316 325.37003Q416.52228 325.8009 416.48914 326.3423Q416.46704 326.87262 416.85373 327.3477L419.82578 330.31976L419.06345 331.08212L416.1245 328.1432Q415.15225 327.17093 414.19104 328.13214Q413.43973 328.88345 413.80432 329.80048L417.0747 333.07083L416.3013 333.84424L411.81558 329.35852L412.5448 328.62933ZM425.69257 320.07776Q426.72006 321.1053 426.87476 322.2101Q427.02945 323.29288 426.23395 324.08838Q425.3832 324.93912 424.3115 324.7955L424.7866 325.35898L424.0905 326.05502L417.72656 319.69107L418.48892 318.9287L420.86435 321.30414Q420.75388 320.2656 421.57144 319.448Q422.38904 318.6304 423.4718 318.78506Q424.54352 318.9287 425.62628 320.01147L425.69257 320.07776ZM424.84183 320.7517Q424.05737 319.9673 423.3282 319.85678Q422.59897 319.7242 422.0355 320.2877Q421.27313 321.05002 421.63776 322.07755L423.58228 324.0221Q424.64294 324.37564 425.3832 323.63538Q425.93564 323.08298 425.8141 322.3427Q425.69257 321.60245 424.84183 320.7517ZM430.9848 319.3375Q430.06778 320.25455 428.89664 320.23245Q427.7255 320.18823 426.72006 319.18283L426.5875 319.05023Q425.91354 318.37628 425.64838 317.60287Q425.37216 316.81845 425.53787 316.0782Q425.7036 315.31583 426.23395 314.7855Q427.10678 313.91266 428.16742 314.00107Q429.2281 314.08945 430.2998 315.16116L430.6202 315.48157L427.58185 318.51993Q428.26688 319.16074 429.04028 319.20493Q429.8247 319.23807 430.39923 318.66354Q430.797 318.2658 430.90747 317.82385Q431.02902 317.37088 430.97375 316.8737L431.8024 316.77423Q432.11176 318.21054 430.9848 319.3375ZM426.8637 315.41528Q426.39966 315.8793 426.42175 316.54224Q426.44385 317.18304 426.98523 317.857L429.2281 315.61414L429.17285 315.5589Q428.55414 315.00647 427.94647 314.97333Q427.34985 314.92914 426.8637 315.41528ZM431.64774 310.89642Q431.44885 311.0511 431.24997 311.24997Q430.48764 312.01233 430.86328 312.9183L434.04526 316.10028L433.2829 316.86264L428.7972 312.37692L429.53745 311.63666L430.06778 312.1449Q429.8468 311.17264 430.54288 310.47656Q430.76385 310.2556 430.9406 310.1893L431.64774 310.89642Z" fill-rule="nonzero"/><path fill="#757575" d="M450.36255 336.16443Q451.24643 337.0483 451.61102 338.00955Q451.9646 338.95972 451.76572 339.8657Q451.57788 340.76062 450.8487 341.48984Q450.14157 342.19693 449.2356 342.3958Q448.32962 342.5947 447.37946 342.2632Q446.42926 341.90967 445.55643 341.05893L445.12555 340.62805Q444.25272 339.75522 443.8881 338.79398Q443.53455 337.82172 443.73343 336.91574Q443.92123 335.9987 444.6394 335.28055Q445.35754 334.56238 446.26355 334.36353Q447.16953 334.16464 448.13074 334.52924Q449.09198 334.89386 449.97586 335.77774L450.36255 336.16443ZM449.18036 336.55112Q448.10864 335.47943 447.10324 335.3358Q446.0978 335.19217 445.3244 335.96555Q444.56207 336.7279 444.7057 337.73334Q444.84933 338.73874 445.85474 339.76627L446.30774 340.21924Q447.34628 341.2578 448.3738 341.42352Q449.40134 341.56717 450.16367 340.8048Q450.93707 340.03143 450.8045 339.05914Q450.6719 338.0648 449.63333 337.00412L449.18036 336.55112ZM455.33438 335.7446Q455.7432 335.3358 455.80948 334.78336Q455.86472 334.21988 455.52222 333.8111L456.25143 333.08188Q456.61603 333.4907 456.71545 334.09836Q456.8149 334.68393 456.61603 335.30264Q456.4282 335.9103 455.96417 336.37436Q455.04712 337.29138 453.89807 337.2251Q452.74902 337.1367 451.6884 336.07605L451.5558 335.94345Q450.90393 335.2916 450.62772 334.55133Q450.36255 333.80005 450.5283 333.08188Q450.694 332.34164 451.3127 331.72293Q452.06403 330.97162 453.0142 330.92743Q453.9644 330.86115 454.7267 331.5572L453.99753 332.2864Q453.52243 331.8776 452.9479 331.8997Q452.37338 331.92178 451.9425 332.3527Q451.3569 332.93826 451.45636 333.6785Q451.5558 334.41876 452.3513 335.21426L452.4949 335.35788Q453.2683 336.1313 454.00858 336.2307Q454.7488 336.33017 455.33438 335.7446ZM453.79865 327.22617L454.8814 328.30893L455.71005 327.4803L456.30667 328.0769L455.47803 328.90555L458.25122 331.6787Q458.52744 331.95493 458.77048 331.97702Q459.01355 331.9991 459.27872 331.73398Q459.41132 331.60138 459.59912 331.32516L460.21786 331.94388Q460.00793 332.3306 459.72067 332.61786Q459.21243 333.12607 458.6379 333.08188Q458.05234 333.02664 457.4778 332.45212L454.70462 329.67892L453.88702 330.49652L453.2904 329.8999L454.108 329.0823L453.02524 327.99954L453.79865 327.22617ZM458.66 328.92764Q458.00815 328.27576 457.73193 327.49133Q457.46677 326.69583 457.6546 325.95557Q457.83136 325.20428 458.41693 324.6187Q459.33395 323.70166 460.52722 323.76797Q461.7315 323.8232 462.79218 324.88388L462.8474 324.93912Q463.49927 325.59097 463.76443 326.36438Q464.0296 327.13776 463.86386 327.90012Q463.6871 328.65143 463.07944 329.2591Q462.17343 330.16507 460.96915 330.10983Q459.76486 330.0325 458.71524 328.98288L458.66 328.92764ZM459.53284 328.25366Q460.2731 328.99393 461.06857 329.1044Q461.87512 329.20386 462.44965 328.62933Q463.03522 328.04376 462.92474 327.24826Q462.80322 326.4417 461.97458 325.61307Q461.24536 324.88388 460.4388 324.78442Q459.63226 324.6629 459.0467 325.24847Q458.48322 325.81195 458.58267 326.6185Q458.6821 327.40292 459.53284 328.25366ZM467.70877 320.07776Q468.73627 321.10526 468.89096 322.2101Q469.04562 323.29288 468.25015 324.08838Q467.3994 324.93912 466.3277 324.79547L466.8028 325.35895L466.10672 326.05502L459.74277 319.69104L460.50513 318.9287L462.88055 321.30414Q462.77005 320.26556 463.58765 319.448Q464.40524 318.6304 465.488 318.78506Q466.55972 318.9287 467.6425 320.01147L467.70877 320.07776ZM466.85803 320.7517Q466.07358 319.96725 465.34436 319.85678Q464.61517 319.7242 464.0517 320.2877Q463.28934 321.05002 463.65396 322.07755L465.59848 324.0221Q466.65915 324.37564 467.3994 323.63538Q467.95184 323.08295 467.8303 322.3427Q467.70877 321.60245 466.85803 320.7517ZM473.001 319.3375Q472.08398 320.25452 470.91284 320.23242Q469.7417 320.18823 468.73627 319.18283L468.6037 319.05023Q467.92975 318.37628 467.66458 317.60287Q467.38837 316.81842 467.55408 316.0782Q467.71982 315.31583 468.25015 314.7855Q469.123 313.91266 470.18362 314.00107Q471.2443 314.08945 472.316 315.16116L472.6364 315.48157L469.59805 318.5199Q470.28308 319.16074 471.05646 319.20493Q471.8409 319.23807 472.41544 318.66354Q472.8132 318.26578 472.92368 317.82385Q473.0452 317.37085 472.98996 316.8737L473.8186 316.77423Q474.12796 318.21054 473.001 319.3375ZM468.8799 315.41525Q468.41586 315.8793 468.43796 316.5422Q468.46005 317.18304 469.00143 317.857L471.2443 315.61414L471.18906 315.5589Q470.57034 315.00647 469.96268 314.97333Q469.36606 314.92914 468.8799 315.41525ZM473.66394 310.89642Q473.46506 311.0511 473.26617 311.24997Q472.50385 312.01233 472.8795 312.9183L476.06146 316.10028L475.2991 316.86264L470.81342 312.37692L471.55365 311.63666L472.08398 312.1449Q471.863 311.17264 472.55908 310.47656Q472.78003 310.25558 472.95682 310.1893L473.66394 310.89642Z" fill-rule="nonzero"/><path fill="#757575" d="M485.2966 348.88132L484.50113 349.67682L476.81134 348.06372L481.46277 352.71515L480.65622 353.5217L474.62372 347.4892L475.43027 346.68265L483.14215 348.31784L478.46863 343.64432L479.2641 342.84882L485.2966 348.88132ZM484.41272 345.1911Q483.76086 344.53925 483.48465 343.7548Q483.21948 342.9593 483.40732 342.21906Q483.58408 341.46774 484.16965 340.88217Q485.0867 339.96515 486.27994 340.03143Q487.48422 340.08667 488.5449 341.14734L488.60013 341.20258Q489.25198 341.85443 489.51715 342.62784Q489.78232 343.40125 489.6166 344.1636Q489.43982 344.9149 488.83215 345.52255Q487.92618 346.42853 486.72186 346.3733Q485.51758 346.29596 484.468 345.24634L484.41272 345.1911ZM485.28555 344.51715Q486.02582 345.2574 486.82132 345.3679Q487.62787 345.46732 488.2024 344.8928Q488.78796 344.30722 488.67746 343.51172Q488.55594 342.70517 487.7273 341.87656Q486.99808 341.14734 486.19156 341.0479Q485.385 340.92636 484.79944 341.51193Q484.23596 342.0754 484.3354 342.88196Q484.4348 343.6664 485.28555 344.51715ZM492.29034 339.81046L489.9591 335.2474L490.74353 334.46298L493.61618 340.56177L493.03058 341.14734L486.92075 338.28577L487.7052 337.5013L492.29034 339.81046ZM498.04663 336.30807Q497.1296 337.2251 495.95847 337.203Q494.78732 337.1588 493.7819 336.1534L493.64932 336.0208Q492.97534 335.34686 492.71017 334.57346Q492.43396 333.789 492.5997 333.04877Q492.76544 332.2864 493.29575 331.75607Q494.16858 330.88324 495.22925 330.97162Q496.28992 331.06003 497.36163 332.1317L497.68204 332.45215L494.64368 335.49048Q495.3287 336.1313 496.10208 336.1755Q496.88654 336.20865 497.46106 335.63412Q497.8588 335.23636 497.9693 334.79443Q498.09082 334.34143 498.03558 333.84424L498.86423 333.7448Q499.17358 335.18112 498.04663 336.30807ZM493.92554 332.38583Q493.4615 332.84988 493.48358 333.5128Q493.50568 334.15363 494.04706 334.82758L496.28992 332.58472L496.23468 332.52948Q495.61597 331.97705 495.00827 331.9439Q494.41165 331.89972 493.92554 332.38583ZM496.57718 328.62933L497.09647 329.10443Q497.00806 328.04376 497.84775 327.20407Q498.7869 326.26495 499.84753 326.6406Q499.7481 326.0992 499.9028 325.54678Q500.0685 324.9833 500.55466 324.4972Q502.03516 323.0167 503.6151 324.55243L506.6203 327.55762L505.85794 328.31998L502.89694 325.35898Q502.42184 324.88388 501.96887 324.87283Q501.50482 324.85074 500.98553 325.37003Q500.55466 325.8009 500.5215 326.3423Q500.49942 326.87262 500.8861 327.34772L503.85815 330.31976L503.09583 331.08212L500.1569 328.1432Q499.18463 327.17093 498.22342 328.13214Q497.4721 328.88345 497.8367 329.80048L501.1071 333.07086L500.33368 333.84424L495.84796 329.35855L496.57718 328.62933ZM509.72495 320.07776Q510.75247 321.1053 510.90714 322.21014Q511.06183 323.29288 510.26633 324.08838Q509.4156 324.93912 508.34387 324.7955L508.81897 325.35898L508.1229 326.05502L501.75894 319.69107L502.5213 318.9287L504.89673 321.30417Q504.78625 320.2656 505.60382 319.448Q506.42142 318.6304 507.50418 318.7851Q508.5759 318.9287 509.65866 320.01147L509.72495 320.07776ZM508.8742 320.75174Q508.08975 319.9673 507.36057 319.85678Q506.63135 319.7242 506.06787 320.2877Q505.3055 321.05005 505.67014 322.07755L507.6147 324.0221Q508.67532 324.37564 509.4156 323.6354Q509.96802 323.08298 509.84647 322.3427Q509.72495 321.60248 508.8742 320.75174ZM515.0172 319.33752Q514.10016 320.25455 512.929 320.23245Q511.75787 320.18826 510.75247 319.18283L510.61987 319.05026Q509.94592 318.37628 509.68076 317.6029Q509.40454 316.81845 509.57025 316.0782Q509.736 315.31586 510.26633 314.78552Q511.13916 313.9127 512.1998 314.00107Q513.2605 314.08945 514.3322 315.16116L514.6526 315.48157L511.61426 318.51993Q512.29926 319.16074 513.07263 319.20493Q513.8571 319.23807 514.43164 318.66354Q514.82935 318.2658 514.9399 317.82385Q515.0614 317.37088 515.00616 316.8737L515.8348 316.77426Q516.14417 318.21057 515.0172 319.33752ZM510.8961 315.41528Q510.43204 315.87933 510.45413 316.54224Q510.47626 317.18304 511.0176 317.857L513.2605 315.61417L513.20526 315.5589Q512.5865 315.00647 511.97885 314.97333Q511.38223 314.92914 510.8961 315.41528ZM515.6801 310.89642Q515.48126 311.05112 515.28235 311.24997Q514.52 312.01233 514.8957 312.9183L518.07764 316.10028L517.3153 316.86264L512.8296 312.37692L513.5698 311.6367L514.10016 312.1449Q513.8792 311.17264 514.57526 310.4766Q514.7962 310.2556 514.973 310.18933L515.6801 310.89642Z" fill-rule="nonzero"/><path fill="#757575" d="M524.0866 352.1075L518.05414 346.075L519.76666 344.3625Q520.5511 343.57803 521.5013 343.33496Q522.4514 343.0698 523.4237 343.37915Q524.396 343.6885 525.23566 344.5282L525.6113 344.90387Q526.4731 345.76566 526.7825 346.7379Q527.10284 347.69913 526.82666 348.66037Q526.56146 349.61053 525.766 350.42813L524.0866 352.1075ZM519.50146 345.93137L524.2302 350.66016L525.06995 349.82047Q525.98694 348.90344 525.9317 347.83173Q525.87646 346.7379 524.8158 345.67725L524.4623 345.3237Q523.43475 344.29617 522.38513 344.21884Q521.3355 344.11942 520.42957 345.0033L519.50146 345.93137ZM531.5775 344.79337Q530.6605 345.7104 529.4894 345.6883Q528.31824 345.6441 527.3128 344.6387L527.18024 344.5061Q526.5062 343.83215 526.2411 343.05875Q525.96484 342.2743 526.1306 341.53406Q526.2963 340.7717 526.82666 340.24136Q527.69946 339.36853 528.76013 339.45694Q529.8208 339.54532 530.8925 340.61703L531.21295 340.93744L528.17456 343.97577Q528.8596 344.6166 529.633 344.6608Q530.4174 344.69394 530.99194 344.11942Q531.3897 343.72165 531.5002 343.27972Q531.6217 342.82672 531.56647 342.32956L532.39514 342.2301Q532.70447 343.6664 531.5775 344.79337ZM527.4564 340.87112Q526.9924 341.33517 527.01447 341.99808Q527.03656 342.63892 527.57794 343.31287L529.8208 341.07L529.76556 341.01477Q529.14685 340.46234 528.5392 340.4292Q527.94257 340.385 527.4564 340.87112ZM535.1241 339.98724Q535.5329 339.57846 535.5992 339.02603Q535.6544 338.46255 535.31195 338.05377L536.04114 337.32455Q536.40576 337.73334 536.5052 338.34103Q536.6046 338.9266 536.40576 339.54532Q536.2179 340.15298 535.7539 340.61703Q534.83685 341.53406 533.6878 341.46777Q532.53876 341.37936 531.4781 340.31873L531.3455 340.18613Q530.69366 339.53427 530.4174 338.794Q530.1523 338.04272 530.318 337.32455Q530.4837 336.5843 531.1024 335.96558Q531.85376 335.2143 532.8039 335.1701Q533.7541 335.1038 534.5164 335.79987L533.78723 336.52905Q533.31213 336.12027 532.7376 336.14236Q532.1631 336.16446 531.73224 336.59537Q531.14667 337.18094 531.2461 337.92117Q531.3455 338.66144 532.141 339.45694L532.28467 339.60056Q533.05804 340.37396 533.7983 340.4734Q534.5385 340.5728 535.1241 339.98724ZM540.0628 336.3081Q539.1458 337.22513 537.9746 337.20303Q536.80347 337.1588 535.7981 336.1534L535.66547 336.02084Q534.9915 335.34686 534.7264 334.57346Q534.45013 333.78903 534.6159 333.04877Q534.7816 332.2864 535.31195 331.7561Q536.18475 330.88327 537.2454 330.97165Q538.3061 331.06003 539.3778 332.13174L539.6982 332.45215L536.65985 335.4905Q537.34485 336.13132 538.1183 336.1755Q538.9027 336.20865 539.47723 335.63412Q539.875 335.2364 539.9855 334.79443Q540.107 334.34146 540.05176 333.84427L540.88043 333.74484Q541.18976 335.18115 540.0628 336.3081ZM535.9417 332.38586Q535.47766 332.84988 535.49976 333.51282Q535.52185 334.15363 536.06323 334.82758L538.3061 332.58472L538.25085 332.52948Q537.63214 331.97705 537.0245 331.9439Q536.42786 331.89972 535.9417 332.38586ZM538.5934 328.62936L539.1126 329.10443Q539.02423 328.0438 539.86395 327.2041Q540.80304 326.26495 541.8637 326.64062Q541.7643 326.09924 541.91895 325.5468Q542.0847 324.98334 542.57086 324.4972Q544.05133 323.0167 545.6313 324.55243L548.6365 327.55765L547.87415 328.32L544.91315 325.35898Q544.43805 324.8839 543.98505 324.87283Q543.521 324.85074 543.0017 325.37003Q542.57086 325.80093 542.53766 326.34232Q542.51556 326.87262 542.9023 327.34772L545.8743 330.3198L545.112 331.08212L542.1731 328.14322Q541.2008 327.17096 540.23956 328.13217Q539.4883 328.88348 539.8529 329.8005L543.1232 333.07086L542.34985 333.84427L537.86414 329.35855L538.5934 328.62936ZM551.74115 320.0778Q552.7686 321.1053 552.92334 322.21014Q553.078 323.2929 552.28253 324.0884Q551.43176 324.93915 550.36005 324.7955L550.83514 325.35898L550.1391 326.05505L543.77515 319.69107L544.5375 318.92874L546.9129 321.30417Q546.8024 320.2656 547.62 319.448Q548.4376 318.63043 549.5204 318.7851Q550.5921 318.92874 551.6748 320.01147L551.74115 320.0778ZM550.8904 320.75174Q550.10596 319.9673 549.3767 319.8568Q548.6475 319.7242 548.08405 320.2877Q547.3217 321.05005 547.6863 322.07758L549.63086 324.02213Q550.6915 324.37567 551.43176 323.6354Q551.9842 323.08298 551.8627 322.34274Q551.74115 321.60248 550.8904 320.75174ZM557.0334 319.33752Q556.11633 320.25455 554.9452 320.23245Q553.77405 320.18826 552.7686 319.18286L552.63605 319.05026Q551.9621 318.3763 551.6969 317.6029Q551.4207 316.81845 551.5864 316.07822Q551.7522 315.31586 552.28253 314.78552Q553.15533 313.9127 554.216 314.00107Q555.2767 314.08948 556.3484 315.16116L556.66876 315.4816L553.63043 318.51993Q554.3154 319.16074 555.0888 319.20496Q555.8733 319.2381 556.4478 318.66357Q556.8455 318.2658 556.95605 317.82388Q557.0776 317.37088 557.02234 316.8737L557.85095 316.77426Q558.16034 318.21057 557.0334 319.33752ZM552.9123 315.41528Q552.44824 315.87933 552.47034 316.54224Q552.49243 317.18307 553.0338 317.85703L555.2767 315.61417L555.22144 315.55893Q554.6027 315.0065 553.99506 314.97336Q553.3984 314.92917 552.9123 315.41528ZM557.6963 310.89645Q557.49744 311.05112 557.2985 311.25Q556.5362 312.01233 556.91187 312.91833L560.0938 316.1003L559.3315 316.86264L554.84576 312.37695L555.586 311.6367L556.11633 312.14493Q555.8954 311.17267 556.59143 310.4766Q556.8124 310.2556 556.9892 310.18933L557.6963 310.89645Z" fill-rule="nonzero"/><path fill="#f4b400" d="M226.0 57.416668C226.0 56.864384 226.44771 56.416668 227.0 56.416668L237.0 56.416668C237.55229 56.416668 238.0 56.864384 238.0 57.416668L238.0 67.416664C238.0 67.96895 237.55229 68.416664 237.0 68.416664L227.0 68.416664C226.44771 68.416664 226.0 67.96895 226.0 67.416664Z" fill-rule="nonzero"/><path fill="#757575" d="M248.4375 58.385414L251.23438 65.33854L254.01562 58.385414L255.48438 58.385414L255.48438 66.916664L254.35938 66.916664L254.35938 63.58854L254.46875 60.010414L251.65625 66.916664L250.79688 66.916664L248.0 60.02604L248.10938 63.58854L248.10938 66.916664L246.98438 66.916664L246.98438 58.385414L248.4375 58.385414ZM261.70312 64.68229L258.125 64.68229L257.32812 66.916664L256.17188 66.916664L259.42188 58.385414L260.40625 58.385414L263.67188 66.916664L262.51562 66.916664L261.70312 64.68229ZM258.46875 63.760414L261.375 63.760414L259.92188 59.77604L258.46875 63.760414Z" fill-rule="nonzero"/><path fill="#db4437" d="M280.0 57.416668C280.0 56.864384 280.44772 56.416668 281.0 56.416668L291.0 56.416668C291.55228 56.416668 292.0 56.864384 292.0 57.416668L292.0 67.416664C292.0 67.96895 291.55228 68.416664 291.0 68.416664L281.0 68.416664C280.44772 68.416664 280.0 67.96895 280.0 67.416664Z" fill-rule="nonzero"/><path fill="#757575" d="M305.8125 62.979164L302.10938 62.979164L302.10938 65.99479L306.40625 65.99479L306.40625 66.916664L300.98438 66.916664L300.98438 58.385414L306.35938 58.385414L306.35938 59.30729L302.10938 59.30729L302.10938 62.05729L305.8125 62.05729L305.8125 62.979164ZM307.98438 66.916664L307.98438 58.385414L310.40625 58.385414Q311.51562 58.385414 312.35938 58.885414Q313.21875 59.36979 313.6875 60.27604Q314.15625 61.18229 314.15625 62.36979L314.15625 62.90104Q314.15625 64.11979 313.6875 65.02604Q313.23438 65.93229 312.35938 66.416664Q311.5 66.90104 310.35938 66.916664L307.98438 66.916664ZM309.10938 59.30729L309.10938 65.99479L310.29688 65.99479Q311.59375 65.99479 312.3125 65.197914Q313.04688 64.385414 313.04688 62.885414L313.04688 62.385414Q313.04688 60.93229 312.35938 60.135414Q311.6875 59.322914 310.42188 59.30729L309.10938 59.30729Z" fill-rule="nonzero"/><path fill="#4285f4" d="M331.0 57.416668C331.0 56.864384 331.44772 56.416668 332.0 56.416668L342.0 56.416668C342.55228 56.416668 343.0 56.864384 343.0 57.416668L343.0 67.416664C343.0 67.96895 342.55228 68.416664 342.0 68.416664L332.0 68.416664C331.44772 68.416664 331.0 67.96895 331.0 67.416664Z" fill-rule="nonzero"/><path fill="#757575" d="M353.125 65.99479L357.17188 65.99479L357.17188 66.916664L351.98438 66.916664L351.98438 58.385414L353.125 58.385414L353.125 65.99479ZM359.4375 58.385414L362.23438 65.33854L365.01562 58.385414L366.48438 58.385414L366.48438 66.916664L365.35938 66.916664L365.35938 63.58854L365.46875 60.010414L362.65625 66.916664L361.79688 66.916664L359.0 60.02604L359.10938 63.58854L359.10938 66.916664L357.98438 66.916664L357.98438 58.385414L359.4375 58.385414ZM373.89062 59.30729L371.14062 59.30729L371.14062 66.916664L370.03125 66.916664L370.03125 59.30729L367.28125 59.30729L367.28125 58.385414L373.89062 58.385414L373.89062 59.30729Z" fill-rule="nonzero"/><path fill="#757575" d="M22.20625 37.55L20.33125 37.55L20.33125 23.33125L22.20625 23.33125L22.20625 37.55ZM24.4875 32.175Q24.4875 29.70625 25.628124 28.253124Q26.76875 26.784374 28.659374 26.784374Q30.596874 26.784374 31.675 28.159374L31.76875 26.9875L33.409374 26.9875L33.409374 37.3Q33.409374 39.346874 32.190624 40.51875Q30.9875 41.70625 28.925 41.70625Q27.784374 41.70625 26.690624 41.221874Q25.596874 40.7375 25.01875 39.878124L25.95625 38.8Q27.128124 40.2375 28.8 40.2375Q30.128124 40.2375 30.8625 39.4875Q31.596874 38.753124 31.596874 37.409374L31.596874 36.4875Q30.51875 37.753124 28.64375 37.753124Q26.784374 37.753124 25.628124 36.253124Q24.4875 34.753124 24.4875 32.175ZM26.3 32.378124Q26.3 34.175 27.034374 35.190624Q27.76875 36.20625 29.08125 36.20625Q30.8 36.20625 31.596874 34.659374L31.596874 29.83125Q30.76875 28.315624 29.1125 28.315624Q27.784374 28.315624 27.034374 29.346874Q26.3 30.378124 26.3 32.378124ZM42.440624 37.55Q42.284374 37.2375 42.190624 36.440624Q40.925 37.753124 39.175 37.753124Q37.6125 37.753124 36.6125 36.8625Q35.6125 35.971874 35.6125 34.6125Q35.6125 32.971874 36.8625 32.065624Q38.128124 31.14375 40.39375 31.14375L42.159374 31.14375L42.159374 30.315624Q42.159374 29.3625 41.58125 28.8Q41.01875 28.2375 39.925 28.2375Q38.95625 28.2375 38.3 28.7375Q37.64375 29.221874 37.64375 29.909374L35.83125 29.909374Q35.83125 29.128124 36.39375 28.39375Q36.95625 27.64375 37.909374 27.221874Q38.878124 26.784374 40.034374 26.784374Q41.8625 26.784374 42.89375 27.70625Q43.925 28.6125 43.971874 30.221874L43.971874 35.08125Q43.971874 36.534374 44.33125 37.39375L44.33125 37.55L42.440624 37.55ZM39.440624 36.175Q40.3 36.175 41.05 35.7375Q41.815624 35.3 42.159374 34.596874L42.159374 32.425L40.7375 32.425Q37.425 32.425 37.425 34.3625Q37.425 35.221874 37.9875 35.70625Q38.55 36.175 39.440624 36.175ZM49.8625 32.659374L48.7375 33.83125L48.7375 37.55L46.925 37.55L46.925 22.55L48.7375 22.55L48.7375 31.628124L49.70625 30.45625L52.9875 26.9875L55.190624 26.9875L51.08125 31.39375L55.675 37.55L53.55 37.55L49.8625 32.659374ZM63.440624 36.503124Q62.39375 37.753124 60.346874 37.753124Q58.659374 37.753124 57.76875 36.76875Q56.89375 35.784374 56.878124 33.8625L56.878124 26.9875L58.690624 26.9875L58.690624 33.815624Q58.690624 36.20625 60.64375 36.20625Q62.70625 36.20625 63.39375 34.675L63.39375 26.9875L65.20625 26.9875L65.20625 37.55L63.4875 37.55L63.440624 36.503124ZM69.87813 37.55L68.08125 37.55L68.08125 26.9875L69.87813 26.9875L69.87813 37.55ZM67.925 24.175Q67.925 23.7375 68.19063 23.440624Q68.47188 23.128124 68.9875 23.128124Q69.51875 23.128124 69.78438 23.440624Q70.06563 23.7375 70.06563 24.175Q70.06563 24.6125 69.78438 24.909374Q69.51875 25.20625 68.9875 25.20625Q68.47188 25.20625 68.19063 24.909374Q67.925 24.6125 67.925 24.175ZM79.06563 34.753124Q79.06563 34.01875 78.51875 33.6125Q77.97188 33.20625 76.59688 32.909374Q75.22188 32.6125 74.40938 32.20625Q73.6125 31.8 73.22188 31.2375Q72.84688 30.659374 72.84688 29.878124Q72.84688 28.58125 73.94063 27.690624Q75.03438 26.784374 76.75313 26.784374Q78.55 26.784374 79.65938 27.721874Q80.78438 28.64375 80.78438 30.08125L78.95625 30.08125Q78.95625 29.346874 78.33125 28.815624Q77.70625 28.26875 76.75313 28.26875Q75.75313 28.26875 75.19063 28.70625Q74.64375 29.128124 74.64375 29.83125Q74.64375 30.471874 75.15938 30.815624Q75.675 31.14375 77.03438 31.45625Q78.39375 31.753124 79.22188 32.175Q80.06563 32.58125 80.47188 33.175Q80.87813 33.76875 80.87813 34.6125Q80.87813 36.034374 79.7375 36.89375Q78.6125 37.753124 76.8 37.753124Q75.53438 37.753124 74.55 37.3Q73.58125 36.846874 73.01875 36.05Q72.47188 35.2375 72.47188 34.3L74.28438 34.3Q74.33125 35.20625 75.00313 35.7375Q75.69063 36.26875 76.8 36.26875Q77.83125 36.26875 78.44063 35.8625Q79.06563 35.440624 79.06563 34.753124ZM87.3 37.753124Q85.15938 37.753124 83.8 36.346874Q82.45625 34.925 82.45625 32.565624L82.45625 32.221874Q82.45625 30.659374 83.05 29.425Q83.65938 28.190624 84.7375 27.4875Q85.81563 26.784374 87.08125 26.784374Q89.14375 26.784374 90.28438 28.14375Q91.425 29.503124 91.425 32.034374L91.425 32.784374L84.26875 32.784374Q84.3 34.346874 85.175 35.315624Q86.05 36.26875 87.39375 36.26875Q88.3625 36.26875 89.01875 35.878124Q89.69063 35.4875 90.19063 34.846874L91.28438 35.70625Q89.95625 37.753124 87.3 37.753124ZM87.08125 28.26875Q85.9875 28.26875 85.2375 29.065624Q84.50313 29.8625 84.33125 31.3L89.6125 31.3L89.6125 31.159374Q89.53438 29.784374 88.8625 29.034374Q88.20625 28.26875 87.08125 28.26875ZM93.47188 32.175Q93.47188 29.753124 94.62813 28.26875Q95.78438 26.784374 97.64375 26.784374Q99.50313 26.784374 100.58125 28.05L100.58125 22.55L102.39375 22.55L102.39375 37.55L100.7375 37.55L100.64375 36.409374Q99.56563 37.753124 97.62813 37.753124Q95.8 37.753124 94.62813 36.253124Q93.47188 34.7375 93.47188 32.315624L93.47188 32.175ZM95.28438 32.378124Q95.28438 34.175 96.01875 35.190624Q96.76875 36.20625 98.08125 36.20625Q99.8 36.20625 100.58125 34.675L100.58125 29.815624Q99.78438 28.315624 98.09688 28.315624Q96.76875 28.315624 96.01875 29.346874Q95.28438 30.378124 95.28438 32.378124ZM109.47188 32.175Q109.47188 29.753124 110.62813 28.26875Q111.78438 26.784374 113.64375 26.784374Q115.50313 26.784374 116.58125 28.05L116.58125 22.55L118.39375 22.55L118.39375 37.55L116.7375 37.55L116.64375 36.409374Q115.56563 37.753124 113.62813 37.753124Q111.8 37.753124 110.62813 36.253124Q109.47188 34.7375 109.47188 32.315624L109.47188 32.175ZM111.28438 32.378124Q111.28438 34.175 112.01875 35.190624Q112.76875 36.20625 114.08125 36.20625Q115.8 36.20625 116.58125 34.675L116.58125 29.815624Q115.78438 28.315624 114.09688 28.315624Q112.76875 28.315624 112.01875 29.346874Q111.28438 30.378124 111.28438 32.378124ZM122.87813 37.55L121.08125 37.55L121.08125 26.9875L122.87813 26.9875L122.87813 37.55ZM120.925 24.175Q120.925 23.7375 121.19063 23.440624Q121.47188 23.128124 121.9875 23.128124Q122.51875 23.128124 122.78438 23.440624Q123.06563 23.7375 123.06563 24.175Q123.06563 24.6125 122.78438 24.909374Q122.51875 25.20625 121.9875 25.20625Q121.47188 25.20625 121.19063 24.909374Q120.925 24.6125 120.925 24.175ZM129.40938 35.096874L132.01875 26.9875L133.8625 26.9875L130.08125 37.55L128.70625 37.55L124.87813 26.9875L126.72188 26.9875L129.40938 35.096874ZM137.87813 37.55L136.08125 37.55L136.08125 26.9875L137.87813 26.9875L137.87813 37.55ZM135.925 24.175Q135.925 23.7375 136.19063 23.440624Q136.47188 23.128124 136.9875 23.128124Q137.51875 23.128124 137.78438 23.440624Q138.06563 23.7375 138.06563 24.175Q138.06563 24.6125 137.78438 24.909374Q137.51875 25.20625 136.9875 25.20625Q136.47188 25.20625 136.19063 24.909374Q135.925 24.6125 135.925 24.175ZM140.47188 32.175Q140.47188 29.753124 141.62813 28.26875Q142.78438 26.784374 144.64375 26.784374Q146.50313 26.784374 147.58125 28.05L147.58125 22.55L149.39375 22.55L149.39375 37.55L147.7375 37.55L147.64375 36.409374Q146.56563 37.753124 144.62813 37.753124Q142.8 37.753124 141.62813 36.253124Q140.47188 34.7375 140.47188 32.315624L140.47188 32.175ZM142.28438 32.378124Q142.28438 34.175 143.01875 35.190624Q143.76875 36.20625 145.08125 36.20625Q146.8 36.20625 147.58125 34.675L147.58125 29.815624Q146.78438 28.315624 145.09688 28.315624Q143.76875 28.315624 143.01875 29.346874Q142.28438 30.378124 142.28438 32.378124ZM156.3 37.753124Q154.15938 37.753124 152.8 36.346874Q151.45625 34.925 151.45625 32.565624L151.45625 32.221874Q151.45625 30.659374 152.05 29.425Q152.65938 28.190624 153.7375 27.4875Q154.81563 26.784374 156.08125 26.784374Q158.14375 26.784374 159.28438 28.14375Q160.425 29.503124 160.425 32.034374L160.425 32.784374L153.26875 32.784374Q153.3 34.346874 154.175 35.315624Q155.05 36.26875 156.39375 36.26875Q157.3625 36.26875 158.01875 35.878124Q158.69063 35.4875 159.19063 34.846874L160.28438 35.70625Q158.95625 37.753124 156.3 37.753124ZM156.08125 28.26875Q154.9875 28.26875 154.2375 29.065624Q153.50313 29.8625 153.33125 31.3L158.6125 31.3L158.6125 31.159374Q158.53438 29.784374 157.8625 29.034374Q157.20625 28.26875 156.08125 28.26875ZM164.62813 26.9875L164.69063 28.315624Q165.89375 26.784374 167.84688 26.784374Q171.20625 26.784374 171.22188 30.565624L171.22188 37.55L169.425 37.55L169.425 30.55Q169.40938 29.409374 168.89375 28.8625Q168.39375 28.315624 167.3 28.315624Q166.425 28.315624 165.75313 28.784374Q165.09688 29.253124 164.72188 30.01875L164.72188 37.55L162.925 37.55L162.925 26.9875L164.62813 26.9875ZM173.47188 32.175Q173.47188 29.753124 174.62813 28.26875Q175.78438 26.784374 177.64375 26.784374Q179.50313 26.784374 180.58125 28.05L180.58125 22.55L182.39375 22.55L182.39375 37.55L180.7375 37.55L180.64375 36.409374Q179.56563 37.753124 177.62813 37.753124Q175.8 37.753124 174.62813 36.253124Q173.47188 34.7375 173.47188 32.315624L173.47188 32.175ZM175.28438 32.378124Q175.28438 34.175 176.01875 35.190624Q176.76875 36.20625 178.08125 36.20625Q179.8 36.20625 180.58125 34.675L180.58125 29.815624Q179.78438 28.315624 178.09688 28.315624Q176.76875 28.315624 176.01875 29.346874Q175.28438 30.378124 175.28438 32.378124ZM186.87813 37.55L185.08125 37.55L185.08125 26.9875L186.87813 26.9875L186.87813 37.55ZM184.925 24.175Q184.925 23.7375 185.19063 23.440624Q185.47188 23.128124 185.9875 23.128124Q186.51875 23.128124 186.78438 23.440624Q187.06563 23.7375 187.06563 24.175Q187.06563 24.6125 186.78438 24.909374Q186.51875 25.20625 185.9875 25.20625Q185.47188 25.20625 185.19063 24.909374Q184.925 24.6125 184.925 24.175ZM189.47188 32.175Q189.47188 29.753124 190.62813 28.26875Q191.78438 26.784374 193.64375 26.784374Q195.50313 26.784374 196.58125 28.05L196.58125 22.55L198.39375 22.55L198.39375 37.55L196.7375 37.55L196.64375 36.409374Q195.56563 37.753124 193.62813 37.753124Q191.8 37.753124 190.62813 36.253124Q189.47188 34.7375 189.47188 32.315624L189.47188 32.175ZM191.28438 32.378124Q191.28438 34.175 192.01875 35.190624Q192.76875 36.20625 194.08125 36.20625Q195.8 36.20625 196.58125 34.675L196.58125 29.815624Q195.78438 28.315624 194.09688 28.315624Q192.76875 28.315624 192.01875 29.346874Q191.28438 30.378124 191.28438 32.378124Z" fill-rule="nonzero"/></svg>