<svg version="1.1" viewBox="0.0 0.0 600.0 371.0" fill="none" stroke="none" stroke-linecap="square" stroke-miterlimit="10" width="600" height="371" xmlns:xlink="http://www.w3.org/1999/xlink" xmlns="http://www.w3.org/2000/svg"><path fill="#ffffff" d="M0 0L600.0 0L600.0 371.0L0 371.0L0 0Z" fill-rule="nonzero"/><path stroke="#333333" stroke-width="1.0" stroke-linecap="butt" d="M95.5 300.5L581.5 300.5" fill-rule="nonzero"/><path stroke="#cccccc" stroke-width="1.0" stroke-linecap="butt" d="M95.5 240.5L581.5 240.5" fill-rule="nonzero"/><path stroke="#cccccc" stroke-width="1.0" stroke-linecap="butt" d="M95.5 181.5L581.5 181.5" fill-rule="nonzero"/><path stroke="#cccccc" stroke-width="1.0" stroke-linecap="butt" d="M95.5 121.5L581.5 121.5" fill-rule="nonzero"/><path stroke="#cccccc" stroke-width="1.0" stroke-linecap="butt" d="M95.5 62.5L581.5 62.5" fill-rule="nonzero"/><clipPath id="id_0"><path d="M95.55 62.416668L581.45 62.416668L581.45 300.1345L95.55 300.1345L95.55 62.416668Z" clip-rule="nonzero"/></clipPath><path stroke="#000000" stroke-width="0.0" stroke-linecap="butt" stroke-opacity="0.0" clip-path="url(#id_0)" d="M138.0 300.0L110.0 300.0L110.0 151.0C110.0 149.89543 110.89543 149.0 112.0 149.0L136.0 149.0C137.10457 149.0 138.0 149.89543 138.0 151.0Z" fill-rule="nonzero"/><path fill="#4285f4" clip-path="url(#id_0)" d="M138.0 300.0L110.0 300.0L110.0 151.0C110.0 149.89543 110.89543 149.0 112.0 149.0L136.0 149.0C137.10457 149.0 138.0 149.89543 138.0 151.0Z" fill-rule="nonzero"/><path stroke="#000000" stroke-width="0.0" stroke-linecap="butt" stroke-opacity="0.0" clip-path="url(#id_0)" d="M181.0 300.0L153.0 300.0L153.0 96.0C153.0 94.89543 153.89543 94.0 155.0 94.0L179.0 94.0C180.10457 94.0 181.0 94.89543 181.0 96.0Z" fill-rule="nonzero"/><path fill="#4285f4" clip-path="url(#id_0)" d="M181.0 300.0L153.0 300.0L153.0 96.0C153.0 94.89543 153.89543 94.0 155.0 94.0L179.0 94.0C180.10457 94.0 181.0 94.89543 181.0 96.0Z" fill-rule="nonzero"/><path stroke="#000000" stroke-width="0.0" stroke-linecap="butt" stroke-opacity="0.0" clip-path="url(#id_0)" d="M224.0 300.0L196.0 300.0L196.0 151.0C196.0 149.89543 196.89543 149.0 198.0 149.0L222.0 149.0C223.10457 149.0 224.0 149.89543 224.0 151.0Z" fill-rule="nonzero"/><path fill="#4285f4" clip-path="url(#id_0)" d="M224.0 300.0L196.0 300.0L196.0 151.0C196.0 149.89543 196.89543 149.0 198.0 149.0L222.0 149.0C223.10457 149.0 224.0 149.89543 224.0 151.0Z" fill-rule="nonzero"/><path stroke="#000000" stroke-width="0.0" stroke-linecap="butt" stroke-opacity="0.0" clip-path="url(#id_0)" d="M267.0 300.0L239.0 300.0L239.0 151.0C239.0 149.89543 239.89543 149.0 241.0 149.0L265.0 149.0C266.10458 149.0 267.0 149.89543 267.0 151.0Z" fill-rule="nonzero"/><path fill="#4285f4" clip-path="url(#id_0)" d="M267.0 300.0L239.0 300.0L239.0 151.0C239.0 149.89543 239.89543 149.0 241.0 149.0L265.0 149.0C266.10458 149.0 267.0 149.89543 267.0 151.0Z" fill-rule="nonzero"/><path stroke="#000000" stroke-width="0.0" stroke-linecap="butt" stroke-opacity="0.0" clip-path="url(#id_0)" d="M310.0 300.0L282.0 300.0L282.0 96.0C282.0 94.89543 282.89542 94.0 284.0 94.0L308.0 94.0C309.10458 94.0 310.0 94.89543 310.0 96.0Z" fill-rule="nonzero"/><path fill="#4285f4" clip-path="url(#id_0)" d="M310.0 300.0L282.0 300.0L282.0 96.0C282.0 94.89543 282.89542 94.0 284.0 94.0L308.0 94.0C309.10458 94.0 310.0 94.89543 310.0 96.0Z" fill-rule="nonzero"/><path stroke="#000000" stroke-width="0.0" stroke-linecap="butt" stroke-opacity="0.0" clip-path="url(#id_0)" d="M353.0 300.0L325.0 300.0L325.0 151.0C325.0 149.89543 325.89542 149.0 327.0 149.0L351.0 149.0C352.10458 149.0 353.0 149.89543 353.0 151.0Z" fill-rule="nonzero"/><path fill="#4285f4" clip-path="url(#id_0)" d="M353.0 300.0L325.0 300.0L325.0 151.0C325.0 149.89543 325.89542 149.0 327.0 149.0L351.0 149.0C352.10458 149.0 353.0 149.89543 353.0 151.0Z" fill-rule="nonzero"/><path stroke="#000000" stroke-width="0.0" stroke-linecap="butt" stroke-opacity="0.0" clip-path="url(#id_0)" d="M395.0 300.0L367.0 300.0L367.0 151.0C367.0 149.89543 367.89542 149.0 369.0 149.0L393.0 149.0C394.10458 149.0 395.0 149.89543 395.0 151.0Z" fill-rule="nonzero"/><path fill="#4285f4" clip-path="url(#id_0)" d="M395.0 300.0L367.0 300.0L367.0 151.0C367.0 149.89543 367.89542 149.0 369.0 149.0L393.0 149.0C394.10458 149.0 395.0 149.89543 395.0 151.0Z" fill-rule="nonzero"/><path stroke="#000000" stroke-width="0.0" stroke-linecap="butt" stroke-opacity="0.0" clip-path="url(#id_0)" d="M438.0 300.0L410.0 300.0L410.0 96.0C410.0 94.89543 410.89542 94.0 412.0 94.0L436.0 94.0C437.10458 94.0 438.0 94.89543 438.0 96.0Z" fill-rule="nonzero"/><path fill="#4285f4" clip-path="url(#id_0)" d="M438.0 300.0L410.0 300.0L410.0 96.0C410.0 94.89543 410.89542 94.0 412.0 94.0L436.0 94.0C437.10458 94.0 438.0 94.89543 438.0 96.0Z" fill-rule="nonzero"/><path stroke="#000000" stroke-width="0.0" stroke-linecap="butt" stroke-opacity="0.0" clip-path="url(#id_0)" d="M481.0 300.0L453.0 300.0L453.0 151.0C453.0 149.89543 453.89542 149.0 455.0 149.0L479.0 149.0C480.10458 149.0 481.0 149.89543 481.0 151.0Z" fill-rule="nonzero"/><path fill="#4285f4" clip-path="url(#id_0)" d="M481.0 300.0L453.0 300.0L453.0 151.0C453.0 149.89543 453.89542 149.0 455.0 149.0L479.0 149.0C480.10458 149.0 481.0 149.89543 481.0 151.0Z" fill-rule="nonzero"/><path stroke="#000000" stroke-width="0.0" stroke-linecap="butt" stroke-opacity="0.0" clip-path="url(#id_0)" d="M524.0 300.0L496.0 300.0L496.0 151.0C496.0 149.89543 496.89542 149.0 498.0 149.0L522.0 149.0C523.10455 149.0 524.0 149.89543 524.0 151.0Z" fill-rule="nonzero"/><path fill="#4285f4" clip-path="url(#id_0)" d="M524.0 300.0L496.0 300.0L496.0 151.0C496.0 149.89543 496.89542 149.0 498.0 149.0L522.0 149.0C523.10455 149.0 524.0 149.89543 524.0 151.0Z" fill-rule="nonzero"/><path stroke="#000000" stroke-width="0.0" stroke-linecap="butt" stroke-opacity="0.0" clip-path="url(#id_0)" d="M567.0 300.0L539.0 300.0L539.0 96.0C539.0 94.89543 539.89545 94.0 541.0 94.0L565.0 94.0C566.10455 94.0 567.0 94.89543 567.0 96.0Z" fill-rule="nonzero"/><path fill="#4285f4" clip-path="url(#id_0)" d="M567.0 300.0L539.0 300.0L539.0 96.0C539.0 94.89543 539.89545 94.0 541.0 94.0L565.0 94.0C566.10455 94.0 567.0 94.89543 567.0 96.0Z" fill-rule="nonzero"/><path fill="#424242" d="M26.753138 244.68333Q26.331263 246.12083 25.721888 246.79271Q25.112513 247.44896 24.221888 247.44896Q23.221888 247.44896 22.565638 246.65208Q21.893763 245.83958 21.893763 244.54271Q21.893763 243.66771 22.237513 242.98021Q22.581263 242.29271 23.175013 241.91771Q23.768763 241.52708 24.487513 241.52708L24.487513 242.66771Q23.706263 242.66771 23.268763 243.16771Q22.831263 243.65208 22.831263 244.54271Q22.831263 245.37083 23.206263 245.83958Q23.565638 246.30833 24.206263 246.30833Q24.737513 246.30833 25.096888 245.87083Q25.456263 245.41771 25.753138 244.35521Q26.050013 243.29271 26.409388 242.69896Q26.768763 242.08958 27.253138 241.80833Q27.737513 241.51146 28.378138 241.51146Q29.425013 241.51146 30.050013 242.32396Q30.675013 243.13646 30.675013 244.48021Q30.675013 245.37083 30.331263 246.13646Q29.987513 246.88646 29.409388 247.30833Q28.815638 247.71458 28.081263 247.71458L28.081263 246.58958Q28.846888 246.58958 29.300013 246.01146Q29.753138 245.43333 29.753138 244.48021Q29.753138 243.58958 29.393763 243.12083Q29.018763 242.65208 28.393763 242.65208Q27.768763 242.65208 27.425013 243.08958Q27.081263 243.52708 26.753138 244.68333ZM29.925013 236.44896Q30.675013 237.07396 30.675013 238.30833Q30.675013 239.32396 30.081263 239.85521Q29.487513 240.38646 28.331263 240.38646L24.206263 240.38646L24.206263 239.30833L28.300013 239.30833Q29.753138 239.30833 29.753138 238.13646Q29.753138 236.88646 28.815638 236.48021L24.206263 236.48021L24.206263 235.38646L30.550013 235.38646L30.550013 236.41771L29.925013 236.44896ZM24.206263 232.33958L24.909388 232.30833Q24.096888 231.62083 24.096888 230.43333Q24.096888 229.10521 25.112513 228.62083Q24.659388 228.30833 24.378138 227.80833Q24.096888 227.29271 24.096888 226.60521Q24.096888 224.51146 26.300013 224.48021L30.550013 224.48021L30.550013 225.55833L26.362513 225.55833Q25.690638 225.55833 25.362513 225.87083Q25.018763 226.18333 25.018763 226.91771Q25.018763 227.52708 25.378138 227.93333Q25.737513 228.32396 26.346888 228.38646L30.550013 228.38646L30.550013 229.46458L26.393763 229.46458Q25.018763 229.46458 25.018763 230.82396Q25.018763 231.88646 25.925013 232.27708L30.550013 232.27708L30.550013 233.37083L24.206263 233.37083L24.206263 232.33958ZM24.206263 221.33958L24.909388 221.30833Q24.096888 220.62083 24.096888 219.43333Q24.096888 218.10521 25.112513 217.62083Q24.659388 217.30833 24.378138 216.80833Q24.096888 216.29271 24.096888 215.60521Q24.096888 213.51146 26.300013 213.48021L30.550013 213.48021L30.550013 214.55833L26.362513 214.55833Q25.690638 214.55833 25.362513 214.87083Q25.018763 215.18333 25.018763 215.91771Q25.018763 216.52708 25.378138 216.93333Q25.737513 217.32396 26.346888 217.38646L30.550013 217.38646L30.550013 218.46458L26.393763 218.46458Q25.018763 218.46458 25.018763 219.82396Q25.018763 220.88646 25.925013 221.27708L30.550013 221.27708L30.550013 222.37083L24.206263 222.37083L24.206263 221.33958ZM30.550013 207.44896Q30.362513 207.54271 29.878138 207.60521Q30.675013 208.35521 30.675013 209.40208Q30.675013 210.33958 30.143763 210.94896Q29.612513 211.54271 28.784388 211.54271Q27.800013 211.54271 27.253138 210.79271Q26.706263 210.04271 26.706263 208.66771L26.706263 207.62083L26.206263 207.62083Q25.643763 207.62083 25.315638 207.96458Q24.971888 208.29271 24.971888 208.96458Q24.971888 209.54271 25.268763 209.93333Q25.550013 210.32396 25.971888 210.32396L25.971888 211.41771Q25.487513 211.41771 25.050013 211.08958Q24.612513 210.74583 24.362513 210.16771Q24.096888 209.58958 24.096888 208.90208Q24.096888 207.79271 24.643763 207.18333Q25.190638 206.55833 26.143763 206.52708L29.065638 206.52708Q29.940638 206.52708 30.456263 206.30833L30.550013 206.30833L30.550013 207.44896ZM29.721888 209.24583Q29.721888 208.73021 29.456263 208.27708Q29.190638 207.82396 28.768763 207.62083L27.471888 207.62083L27.471888 208.46458Q27.471888 210.46458 28.643763 210.46458Q29.143763 210.46458 29.440638 210.12083Q29.721888 209.77708 29.721888 209.24583ZM30.675013 198.73021Q30.675013 200.02708 29.831263 200.83958Q28.971888 201.63646 27.550013 201.63646L27.362513 201.63646Q26.409388 201.63646 25.675013 201.27708Q24.925013 200.91771 24.518763 200.27708Q24.096888 199.62083 24.096888 198.87083Q24.096888 197.63646 24.909388 196.94896Q25.721888 196.26146 27.237513 196.26146L27.690638 196.26146L27.690638 200.55833Q28.628138 200.52708 29.206263 200.01146Q29.784388 199.48021 29.784388 198.66771Q29.784388 198.10521 29.550013 197.71458Q29.315638 197.30833 28.925013 196.99583L29.440638 196.33958Q30.675013 197.13646 30.675013 198.73021ZM24.987513 198.87083Q24.987513 199.52708 25.471888 199.98021Q25.940638 200.41771 26.800013 200.51146L26.800013 197.33958L26.721888 197.33958Q25.893763 197.38646 25.440638 197.79271Q24.987513 198.18333 24.987513 198.87083ZM29.925013 191.44896Q30.675013 192.07396 30.675013 193.30833Q30.675013 194.32396 30.081263 194.85521Q29.487513 195.38646 28.331263 195.38646L24.206263 195.38646L24.206263 194.30833L28.300013 194.30833Q29.753138 194.30833 29.753138 193.13646Q29.753138 191.88646 28.815638 191.48021L24.206263 191.48021L24.206263 190.38646L30.550013 190.38646L30.550013 191.41771L29.925013 191.44896ZM25.175013 185.29271Q25.143763 185.54271 25.143763 185.82396Q25.143763 186.90208 26.050013 187.27708L30.550013 187.27708L30.550013 188.35521L24.206263 188.35521L24.206263 187.30833L24.940638 187.29271Q24.096888 186.76146 24.096888 185.77708Q24.096888 185.46458 24.175013 185.29271L25.175013 185.29271ZM27.315638 184.65208Q26.393763 184.65208 25.643763 184.29271Q24.893763 183.91771 24.503138 183.26146Q24.096888 182.60521 24.096888 181.77708Q24.096888 180.48021 24.987513 179.68333Q25.878138 178.87083 27.378138 178.87083L27.456263 178.87083Q28.378138 178.87083 29.112513 179.23021Q29.846888 179.58958 30.268763 180.24583Q30.675013 180.90208 30.675013 181.76146Q30.675013 183.04271 29.784388 183.85521Q28.878138 184.65208 27.393763 184.65208L27.315638 184.65208ZM27.456263 183.55833Q28.503138 183.55833 29.143763 183.07396Q29.784388 182.57396 29.784388 181.76146Q29.784388 180.93333 29.143763 180.44896Q28.487513 179.96458 27.315638 179.96458Q26.284388 179.96458 25.643763 180.46458Q24.987513 180.94896 24.987513 181.77708Q24.987513 182.57396 25.628138 183.07396Q26.253138 183.55833 27.456263 183.55833ZM27.331263 177.62083Q25.862513 177.62083 24.987513 176.93333Q24.096888 176.24583 24.096888 175.12083Q24.096888 174.01146 24.846888 173.35521L21.550013 173.35521L21.550013 172.27708L30.550013 172.27708L30.550013 173.27708L29.862513 173.32396Q30.675013 173.98021 30.675013 175.13646Q30.675013 176.23021 29.768763 176.93333Q28.862513 177.62083 27.409388 177.62083L27.331263 177.62083ZM27.456263 176.54271Q28.534388 176.54271 29.143763 176.10521Q29.753138 175.65208 29.753138 174.87083Q29.753138 173.83958 28.815638 173.35521L25.909388 173.35521Q25.018763 173.83958 25.018763 174.85521Q25.018763 175.65208 25.628138 176.10521Q26.237513 176.54271 27.456263 176.54271ZM30.675013 167.73021Q30.675013 169.02708 29.831263 169.83958Q28.971888 170.63646 27.550013 170.63646L27.362513 170.63646Q26.409388 170.63646 25.675013 170.27708Q24.925013 169.91771 24.518763 169.27708Q24.096888 168.62083 24.096888 167.87083Q24.096888 166.63646 24.909388 165.94896Q25.721888 165.26146 27.237513 165.26146L27.690638 165.26146L27.690638 169.55833Q28.628138 169.52708 29.206263 169.01146Q29.784388 168.48021 29.784388 167.66771Q29.784388 167.10521 29.550013 166.71458Q29.315638 166.30833 28.925013 165.99583L29.440638 165.33958Q30.675013 166.13646 30.675013 167.73021ZM24.987513 167.87083Q24.987513 168.52708 25.471888 168.98021Q25.940638 169.41771 26.800013 169.51146L26.800013 166.33958L26.721888 166.33958Q25.893763 166.38646 25.440638 166.79271Q24.987513 167.18333 24.987513 167.87083ZM28.862513 160.66771Q28.425013 160.66771 28.190638 161.01146Q27.940638 161.33958 27.768763 162.16771Q27.596888 162.98021 27.346888 163.46458Q27.096888 163.94896 26.768763 164.18333Q26.425013 164.40208 25.956263 164.40208Q25.175013 164.40208 24.643763 163.74583Q24.096888 163.08958 24.096888 162.05833Q24.096888 160.98021 24.659388 160.32396Q25.206263 159.65208 26.065638 159.65208L26.065638 160.73021Q25.628138 160.73021 25.315638 161.12083Q24.987513 161.49583 24.987513 162.05833Q24.987513 162.65208 25.253138 162.99583Q25.503138 163.32396 25.909388 163.32396Q26.300013 163.32396 26.503138 163.01146Q26.706263 162.69896 26.893763 161.88646Q27.065638 161.07396 27.315638 160.57396Q27.565638 160.07396 27.925013 159.83958Q28.284388 159.58958 28.784388 159.58958Q29.643763 159.58958 30.159388 160.27708Q30.675013 160.94896 30.675013 162.02708Q30.675013 162.79271 30.409388 163.38646Q30.128138 163.96458 29.643763 164.29271Q29.159388 164.62083 28.596888 164.62083L28.596888 163.54271Q29.143763 163.51146 29.471888 163.10521Q29.784388 162.69896 29.784388 162.02708Q29.784388 161.41771 29.534388 161.04271Q29.284388 160.66771 28.862513 160.66771Z" fill-rule="nonzero"/><path fill="#757575" d="M63.51875 301.46262L61.26875 301.46262Q61.3 302.60324 61.815624 303.22824Q62.346874 303.83762 63.315624 303.83762Q64.00313 303.83762 64.59688 303.6345L64.72188 304.572Q64.01875 304.7595 63.315624 304.7595Q61.8625 304.7595 61.01875 303.90012Q60.190624 303.04074 60.14375 301.46262L59.1125 301.46262L59.1125 300.74387L60.14375 300.74387L60.14375 299.93137L59.1125 299.93137L59.1125 299.197L60.14375 299.197Q60.20625 297.66574 61.034374 296.822Q61.878124 295.97824 63.3 295.97824Q63.925 295.97824 64.72188 296.16574L64.59688 297.11887Q63.95625 296.91574 63.315624 296.91574Q62.346874 296.91574 61.83125 297.5095Q61.315624 298.10324 61.284374 299.197L63.51875 299.197L63.51875 299.93137L61.26875 299.93137L61.26875 300.74387L63.51875 300.74387L63.51875 301.46262ZM71.6125 300.99387Q71.6125 302.90012 70.95625 303.83762Q70.31563 304.7595 68.925 304.7595Q67.56563 304.7595 66.90938 303.85324Q66.25313 302.947 66.22188 301.1345L66.22188 299.697Q66.22188 297.80637 66.8625 296.90012Q67.51875 295.97824 68.90938 295.97824Q70.28438 295.97824 70.94063 296.86887Q71.59688 297.74387 71.6125 299.58762L71.6125 300.99387ZM70.51875 299.5095Q70.51875 298.1345 70.12813 297.5095Q69.75313 296.86887 68.90938 296.86887Q68.08125 296.86887 67.69063 297.5095Q67.31563 298.1345 67.31563 299.43137L67.31563 301.16574Q67.31563 302.54074 67.70625 303.21262Q68.1125 303.86887 68.925 303.86887Q69.72188 303.86887 70.1125 303.24387Q70.50313 302.61887 70.51875 301.29074L70.51875 299.5095ZM73.39375 304.072Q73.39375 303.79074 73.55 303.60324Q73.72188 303.41574 74.05 303.41574Q74.39375 303.41574 74.56563 303.60324Q74.7375 303.79074 74.7375 304.072Q74.7375 304.33762 74.56563 304.52512Q74.39375 304.697 74.05 304.697Q73.72188 304.697 73.55 304.52512Q73.39375 304.33762 73.39375 304.072ZM81.6125 300.99387Q81.6125 302.90012 80.95625 303.83762Q80.31563 304.7595 78.925 304.7595Q77.56563 304.7595 76.90938 303.85324Q76.25313 302.947 76.22188 301.1345L76.22188 299.697Q76.22188 297.80637 76.8625 296.90012Q77.51875 295.97824 78.90938 295.97824Q80.28438 295.97824 80.94063 296.86887Q81.59688 297.74387 81.6125 299.58762L81.6125 300.99387ZM80.51875 299.5095Q80.51875 298.1345 80.12813 297.5095Q79.75313 296.86887 78.90938 296.86887Q78.08125 296.86887 77.69063 297.5095Q77.31563 298.1345 77.31563 299.43137L77.31563 301.16574Q77.31563 302.54074 77.70625 303.21262Q78.1125 303.86887 78.925 303.86887Q79.72188 303.86887 80.1125 303.24387Q80.50313 302.61887 80.51875 301.29074L80.51875 299.5095ZM88.6125 300.99387Q88.6125 302.90012 87.95625 303.83762Q87.31563 304.7595 85.925 304.7595Q84.56563 304.7595 83.90938 303.85324Q83.25313 302.947 83.22188 301.1345L83.22188 299.697Q83.22188 297.80637 83.8625 296.90012Q84.51875 295.97824 85.90938 295.97824Q87.28438 295.97824 87.94063 296.86887Q88.59688 297.74387 88.6125 299.58762L88.6125 300.99387ZM87.51875 299.5095Q87.51875 298.1345 87.12813 297.5095Q86.75313 296.86887 85.90938 296.86887Q85.08125 296.86887 84.69063 297.5095Q84.31563 298.1345 84.31563 299.43137L84.31563 301.16574Q84.31563 302.54074 84.70625 303.21262Q85.1125 303.86887 85.925 303.86887Q86.72188 303.86887 87.1125 303.24387Q87.50313 302.61887 87.51875 301.29074L87.51875 299.5095Z" fill-rule="nonzero"/><path fill="#757575" d="M56.51875 242.03317L54.26875 242.03317Q54.3 243.1738 54.815624 243.7988Q55.346874 244.40817 56.315624 244.40817Q57.003124 244.40817 57.596874 244.20505L57.721874 245.14255Q57.01875 245.33005 56.315624 245.33005Q54.8625 245.33005 54.01875 244.47067Q53.190624 243.6113 53.14375 242.03317L52.1125 242.03317L52.1125 241.31442L53.14375 241.31442L53.14375 240.50192L52.1125 240.50192L52.1125 239.76755L53.14375 239.76755Q53.20625 238.2363 54.034374 237.39255Q54.878124 236.5488 56.3 236.5488Q56.925 236.5488 57.721874 236.7363L57.596874 237.68942Q56.95625 237.4863 56.315624 237.4863Q55.346874 237.4863 54.83125 238.08005Q54.315624 238.6738 54.284374 239.76755L56.51875 239.76755L56.51875 240.50192L54.26875 240.50192L54.26875 241.31442L56.51875 241.31442L56.51875 242.03317ZM64.84688 245.20505L59.253124 245.20505L59.253124 244.4238L62.20625 241.14255Q62.8625 240.39255 63.1125 239.93942Q63.3625 239.47067 63.3625 238.97067Q63.3625 238.2988 62.95625 237.87692Q62.565624 237.43942 61.878124 237.43942Q61.08125 237.43942 60.628124 237.90817Q60.175 238.3613 60.175 239.18942L59.096874 239.18942Q59.096874 238.00192 59.846874 237.28317Q60.6125 236.5488 61.878124 236.5488Q63.08125 236.5488 63.76875 237.1738Q64.45625 237.7988 64.45625 238.84567Q64.45625 240.09567 62.846874 241.84567L60.565624 244.31442L64.84688 244.31442L64.84688 245.20505ZM71.6125 241.56442Q71.6125 243.47067 70.95625 244.40817Q70.31563 245.33005 68.925 245.33005Q67.56563 245.33005 66.90938 244.4238Q66.25313 243.51755 66.22188 241.70505L66.22188 240.26755Q66.22188 238.37692 66.8625 237.47067Q67.51875 236.5488 68.90938 236.5488Q70.28438 236.5488 70.94063 237.43942Q71.59688 238.31442 71.6125 240.15817L71.6125 241.56442ZM70.51875 240.08005Q70.51875 238.70505 70.12813 238.08005Q69.75313 237.43942 68.90938 237.43942Q68.08125 237.43942 67.69063 238.08005Q67.31563 238.70505 67.31563 240.00192L67.31563 241.7363Q67.31563 243.1113 67.70625 243.78317Q68.1125 244.43942 68.925 244.43942Q69.72188 244.43942 70.1125 243.81442Q70.50313 243.18942 70.51875 241.8613L70.51875 240.08005ZM73.39375 244.64255Q73.39375 244.3613 73.55 244.1738Q73.72188 243.9863 74.05 243.9863Q74.39375 243.9863 74.56563 244.1738Q74.7375 244.3613 74.7375 244.64255Q74.7375 244.90817 74.56563 245.09567Q74.39375 245.26755 74.05 245.26755Q73.72188 245.26755 73.55 245.09567Q73.39375 244.90817 73.39375 244.64255ZM81.6125 241.56442Q81.6125 243.47067 80.95625 244.40817Q80.31563 245.33005 78.925 245.33005Q77.56563 245.33005 76.90938 244.4238Q76.25313 243.51755 76.22188 241.70505L76.22188 240.26755Q76.22188 238.37692 76.8625 237.47067Q77.51875 236.5488 78.90938 236.5488Q80.28438 236.5488 80.94063 237.43942Q81.59688 238.31442 81.6125 240.15817L81.6125 241.56442ZM80.51875 240.08005Q80.51875 238.70505 80.12813 238.08005Q79.75313 237.43942 78.90938 237.43942Q78.08125 237.43942 77.69063 238.08005Q77.31563 238.70505 77.31563 240.00192L77.31563 241.7363Q77.31563 243.1113 77.70625 243.78317Q78.1125 244.43942 78.925 244.43942Q79.72188 244.43942 80.1125 243.81442Q80.50313 243.18942 80.51875 241.8613L80.51875 240.08005ZM88.6125 241.56442Q88.6125 243.47067 87.95625 244.40817Q87.31563 245.33005 85.925 245.33005Q84.56563 245.33005 83.90938 244.4238Q83.25313 243.51755 83.22188 241.70505L83.22188 240.26755Q83.22188 238.37692 83.8625 237.47067Q84.51875 236.5488 85.90938 236.5488Q87.28438 236.5488 87.94063 237.43942Q88.59688 238.31442 88.6125 240.15817L88.6125 241.56442ZM87.51875 240.08005Q87.51875 238.70505 87.12813 238.08005Q86.75313 237.43942 85.90938 237.43942Q85.08125 237.43942 84.69063 238.08005Q84.31563 238.70505 84.31563 240.00192L84.31563 241.7363Q84.31563 243.1113 84.70625 243.78317Q85.1125 244.43942 85.925 244.43942Q86.72188 244.43942 87.1125 243.81442Q87.50313 243.18942 87.51875 241.8613L87.51875 240.08005Z" fill-rule="nonzero"/><path fill="#757575" d="M56.51875 182.60371L54.26875 182.60371Q54.3 183.74434 54.815624 184.36934Q55.346874 184.97871 56.315624 184.97871Q57.003124 184.97871 57.596874 184.77559L57.721874 185.71309Q57.01875 185.90059 56.315624 185.90059Q54.8625 185.90059 54.01875 185.04121Q53.190624 184.18184 53.14375 182.60371L52.1125 182.60371L52.1125 181.88496L53.14375 181.88496L53.14375 181.07246L52.1125 181.07246L52.1125 180.33809L53.14375 180.33809Q53.20625 178.80684 54.034374 177.96309Q54.878124 177.11934 56.3 177.11934Q56.925 177.11934 57.721874 177.30684L57.596874 178.25996Q56.95625 178.05684 56.315624 178.05684Q55.346874 178.05684 54.83125 178.65059Q54.315624 179.24434 54.284374 180.33809L56.51875 180.33809L56.51875 181.07246L54.26875 181.07246L54.26875 181.88496L56.51875 181.88496L56.51875 182.60371ZM63.83125 182.91621L65.01875 182.91621L65.01875 183.79121L63.83125 183.79121L63.83125 185.77559L62.753124 185.77559L62.753124 183.79121L58.8625 183.79121L58.8625 183.15059L62.675 177.24434L63.83125 177.24434L63.83125 182.91621ZM60.096874 182.91621L62.753124 182.91621L62.753124 178.72871L62.6125 178.96309L60.096874 182.91621ZM71.6125 182.13496Q71.6125 184.04121 70.95625 184.97871Q70.31563 185.90059 68.925 185.90059Q67.56563 185.90059 66.90938 184.99434Q66.25313 184.08809 66.22188 182.27559L66.22188 180.83809Q66.22188 178.94746 66.8625 178.04121Q67.51875 177.11934 68.90938 177.11934Q70.28438 177.11934 70.94063 178.00996Q71.59688 178.88496 71.6125 180.72871L71.6125 182.13496ZM70.51875 180.65059Q70.51875 179.27559 70.12813 178.65059Q69.75313 178.00996 68.90938 178.00996Q68.08125 178.00996 67.69063 178.65059Q67.31563 179.27559 67.31563 180.57246L67.31563 182.30684Q67.31563 183.68184 67.70625 184.35371Q68.1125 185.00996 68.925 185.00996Q69.72188 185.00996 70.1125 184.38496Q70.50313 183.75996 70.51875 182.43184L70.51875 180.65059ZM73.39375 185.21309Q73.39375 184.93184 73.55 184.74434Q73.72188 184.55684 74.05 184.55684Q74.39375 184.55684 74.56563 184.74434Q74.7375 184.93184 74.7375 185.21309Q74.7375 185.47871 74.56563 185.66621Q74.39375 185.83809 74.05 185.83809Q73.72188 185.83809 73.55 185.66621Q73.39375 185.47871 73.39375 185.21309ZM81.6125 182.13496Q81.6125 184.04121 80.95625 184.97871Q80.31563 185.90059 78.925 185.90059Q77.56563 185.90059 76.90938 184.99434Q76.25313 184.08809 76.22188 182.27559L76.22188 180.83809Q76.22188 178.94746 76.8625 178.04121Q77.51875 177.11934 78.90938 177.11934Q80.28438 177.11934 80.94063 178.00996Q81.59688 178.88496 81.6125 180.72871L81.6125 182.13496ZM80.51875 180.65059Q80.51875 179.27559 80.12813 178.65059Q79.75313 178.00996 78.90938 178.00996Q78.08125 178.00996 77.69063 178.65059Q77.31563 179.27559 77.31563 180.57246L77.31563 182.30684Q77.31563 183.68184 77.70625 184.35371Q78.1125 185.00996 78.925 185.00996Q79.72188 185.00996 80.1125 184.38496Q80.50313 183.75996 80.51875 182.43184L80.51875 180.65059ZM88.6125 182.13496Q88.6125 184.04121 87.95625 184.97871Q87.31563 185.90059 85.925 185.90059Q84.56563 185.90059 83.90938 184.99434Q83.25313 184.08809 83.22188 182.27559L83.22188 180.83809Q83.22188 178.94746 83.8625 178.04121Q84.51875 177.11934 85.90938 177.11934Q87.28438 177.11934 87.94063 178.00996Q88.59688 178.88496 88.6125 180.72871L88.6125 182.13496ZM87.51875 180.65059Q87.51875 179.27559 87.12813 178.65059Q86.75313 178.00996 85.90938 178.00996Q85.08125 178.00996 84.69063 178.65059Q84.31563 179.27559 84.31563 180.57246L84.31563 182.30684Q84.31563 183.68184 84.70625 184.35371Q85.1125 185.00996 85.925 185.00996Q86.72188 185.00996 87.1125 184.38496Q87.50313 183.75996 87.51875 182.43184L87.51875 180.65059Z" fill-rule="nonzero"/><path fill="#757575" d="M56.51875 123.17425L54.26875 123.17425Q54.3 124.31487 54.815624 124.93987Q55.346874 125.54925 56.315624 125.54925Q57.003124 125.54925 57.596874 125.34612L57.721874 126.28362Q57.01875 126.47112 56.315624 126.47112Q54.8625 126.47112 54.01875 125.61175Q53.190624 124.75237 53.14375 123.17425L52.1125 123.17425L52.1125 122.4555L53.14375 122.4555L53.14375 121.643L52.1125 121.643L52.1125 120.90862L53.14375 120.90862Q53.20625 119.37737 54.034374 118.53362Q54.878124 117.68987 56.3 117.68987Q56.925 117.68987 57.721874 117.87737L57.596874 118.8305Q56.95625 118.62737 56.315624 118.62737Q55.346874 118.62737 54.83125 119.22112Q54.315624 119.81487 54.284374 120.90862L56.51875 120.90862L56.51875 121.643L54.26875 121.643L54.26875 122.4555L56.51875 122.4555L56.51875 123.17425ZM63.51875 117.81487L63.51875 118.72112L63.315624 118.72112Q62.05 118.75237 61.3 119.48675Q60.55 120.2055 60.425 121.518Q61.1125 120.75237 62.26875 120.75237Q63.378124 120.75237 64.05 121.53362Q64.72188 122.31487 64.72188 123.56487Q64.72188 124.87737 64.00313 125.67425Q63.284374 126.47112 62.065624 126.47112Q60.846874 126.47112 60.08125 125.53362Q59.33125 124.5805 59.33125 123.09612L59.33125 122.68987Q59.33125 120.3305 60.33125 119.0805Q61.33125 117.8305 63.315624 117.81487L63.51875 117.81487ZM62.096874 121.65862Q61.534374 121.65862 61.065624 121.98675Q60.596874 122.31487 60.409374 122.8305L60.409374 123.22112Q60.409374 124.28362 60.878124 124.92425Q61.3625 125.56487 62.065624 125.56487Q62.8 125.56487 63.221874 125.03362Q63.64375 124.48675 63.64375 123.61175Q63.64375 122.73675 63.221874 122.2055Q62.8 121.65862 62.096874 121.65862ZM71.6125 122.7055Q71.6125 124.61175 70.95625 125.54925Q70.31563 126.47112 68.925 126.47112Q67.56563 126.47112 66.90938 125.56487Q66.25313 124.65862 66.22188 122.84612L66.22188 121.40862Q66.22188 119.518 66.8625 118.61175Q67.51875 117.68987 68.90938 117.68987Q70.28438 117.68987 70.94063 118.5805Q71.59688 119.4555 71.6125 121.29925L71.6125 122.7055ZM70.51875 121.22112Q70.51875 119.84612 70.12813 119.22112Q69.75313 118.5805 68.90938 118.5805Q68.08125 118.5805 67.69063 119.22112Q67.31563 119.84612 67.31563 121.143L67.31563 122.87737Q67.31563 124.25237 67.70625 124.92425Q68.1125 125.5805 68.925 125.5805Q69.72188 125.5805 70.1125 124.9555Q70.50313 124.3305 70.51875 123.00237L70.51875 121.22112ZM73.39375 125.78362Q73.39375 125.50237 73.55 125.31487Q73.72188 125.12737 74.05 125.12737Q74.39375 125.12737 74.56563 125.31487Q74.7375 125.50237 74.7375 125.78362Q74.7375 126.04925 74.56563 126.23675Q74.39375 126.40862 74.05 126.40862Q73.72188 126.40862 73.55 126.23675Q73.39375 126.04925 73.39375 125.78362ZM81.6125 122.7055Q81.6125 124.61175 80.95625 125.54925Q80.31563 126.47112 78.925 126.47112Q77.56563 126.47112 76.90938 125.56487Q76.25313 124.65862 76.22188 122.84612L76.22188 121.40862Q76.22188 119.518 76.8625 118.61175Q77.51875 117.68987 78.90938 117.68987Q80.28438 117.68987 80.94063 118.5805Q81.59688 119.4555 81.6125 121.29925L81.6125 122.7055ZM80.51875 121.22112Q80.51875 119.84612 80.12813 119.22112Q79.75313 118.5805 78.90938 118.5805Q78.08125 118.5805 77.69063 119.22112Q77.31563 119.84612 77.31563 121.143L77.31563 122.87737Q77.31563 124.25237 77.70625 124.92425Q78.1125 125.5805 78.925 125.5805Q79.72188 125.5805 80.1125 124.9555Q80.50313 124.3305 80.51875 123.00237L80.51875 121.22112ZM88.6125 122.7055Q88.6125 124.61175 87.95625 125.54925Q87.31563 126.47112 85.925 126.47112Q84.56563 126.47112 83.90938 125.56487Q83.25313 124.65862 83.22188 122.84612L83.22188 121.40862Q83.22188 119.518 83.8625 118.61175Q84.51875 117.68987 85.90938 117.68987Q87.28438 117.68987 87.94063 118.5805Q88.59688 119.4555 88.6125 121.29925L88.6125 122.7055ZM87.51875 121.22112Q87.51875 119.84612 87.12813 119.22112Q86.75313 118.5805 85.90938 118.5805Q85.08125 118.5805 84.69063 119.22112Q84.31563 119.84612 84.31563 121.143L84.31563 122.87737Q84.31563 124.25237 84.70625 124.92425Q85.1125 125.5805 85.925 125.5805Q86.72188 125.5805 87.1125 124.9555Q87.50313 124.3305 87.51875 123.00237L87.51875 121.22112Z" fill-rule="nonzero"/><path fill="#757575" d="M56.51875 63.74479L54.26875 63.74479Q54.3 64.885414 54.815624 65.510414Q55.346874 66.11979 56.315624 66.11979Q57.003124 66.11979 57.596874 65.916664L57.721874 66.854164Q57.01875 67.041664 56.315624 67.041664Q54.8625 67.041664 54.01875 66.18229Q53.190624 65.322914 53.14375 63.74479L52.1125 63.74479L52.1125 63.02604L53.14375 63.02604L53.14375 62.21354L52.1125 62.21354L52.1125 61.479164L53.14375 61.479164Q53.20625 59.947914 54.034374 59.104164Q54.878124 58.260414 56.3 58.260414Q56.925 58.260414 57.721874 58.447914L57.596874 59.40104Q56.95625 59.197914 56.315624 59.197914Q55.346874 59.197914 54.83125 59.791664Q54.315624 60.385414 54.284374 61.479164L56.51875 61.479164L56.51875 62.21354L54.26875 62.21354L54.26875 63.02604L56.51875 63.02604L56.51875 63.74479ZM64.44063 60.604164Q64.44063 61.24479 64.09688 61.74479Q63.753124 62.24479 63.190624 62.52604Q63.846874 62.80729 64.2375 63.36979Q64.62813 63.916664 64.62813 64.61979Q64.62813 65.71354 63.878124 66.385414Q63.14375 67.041664 61.925 67.041664Q60.690624 67.041664 59.940624 66.385414Q59.20625 65.71354 59.20625 64.61979Q59.20625 63.916664 59.58125 63.36979Q59.95625 62.80729 60.628124 62.52604Q60.065624 62.24479 59.7375 61.74479Q59.409374 61.24479 59.409374 60.604164Q59.409374 59.52604 60.096874 58.90104Q60.784374 58.260414 61.925 58.260414Q63.05 58.260414 63.7375 58.90104Q64.44063 59.52604 64.44063 60.604164ZM63.55 64.58854Q63.55 63.86979 63.096874 63.43229Q62.64375 62.979164 61.909374 62.979164Q61.175 62.979164 60.721874 63.43229Q60.284374 63.86979 60.284374 64.604164Q60.284374 65.322914 60.721874 65.74479Q61.159374 66.15104 61.925 66.15104Q62.675 66.15104 63.1125 65.729164Q63.55 65.30729 63.55 64.58854ZM61.925 59.15104Q61.284374 59.15104 60.878124 59.55729Q60.4875 59.947914 60.4875 60.635414Q60.4875 61.27604 60.878124 61.68229Q61.26875 62.08854 61.909374 62.08854Q62.565624 62.08854 62.95625 61.68229Q63.346874 61.27604 63.346874 60.635414Q63.346874 59.979164 62.940624 59.572914Q62.534374 59.15104 61.925 59.15104ZM71.6125 63.27604Q71.6125 65.18229 70.95625 66.11979Q70.31563 67.041664 68.925 67.041664Q67.56563 67.041664 66.90938 66.135414Q66.25313 65.229164 66.22188 63.416664L66.22188 61.979164Q66.22188 60.08854 66.8625 59.18229Q67.51875 58.260414 68.90938 58.260414Q70.28438 58.260414 70.94063 59.15104Q71.59688 60.02604 71.6125 61.86979L71.6125 63.27604ZM70.51875 61.791664Q70.51875 60.416664 70.12813 59.791664Q69.75313 59.15104 68.90938 59.15104Q68.08125 59.15104 67.69063 59.791664Q67.31563 60.416664 67.31563 61.71354L67.31563 63.447914Q67.31563 64.822914 67.70625 65.49479Q68.1125 66.15104 68.925 66.15104Q69.72188 66.15104 70.1125 65.52604Q70.50313 64.90104 70.51875 63.572914L70.51875 61.791664ZM73.39375 66.354164Q73.39375 66.072914 73.55 65.885414Q73.72188 65.697914 74.05 65.697914Q74.39375 65.697914 74.56563 65.885414Q74.7375 66.072914 74.7375 66.354164Q74.7375 66.61979 74.56563 66.80729Q74.39375 66.979164 74.05 66.979164Q73.72188 66.979164 73.55 66.80729Q73.39375 66.61979 73.39375 66.354164ZM81.6125 63.27604Q81.6125 65.18229 80.95625 66.11979Q80.31563 67.041664 78.925 67.041664Q77.56563 67.041664 76.90938 66.135414Q76.25313 65.229164 76.22188 63.416664L76.22188 61.979164Q76.22188 60.08854 76.8625 59.18229Q77.51875 58.260414 78.90938 58.260414Q80.28438 58.260414 80.94063 59.15104Q81.59688 60.02604 81.6125 61.86979L81.6125 63.27604ZM80.51875 61.791664Q80.51875 60.416664 80.12813 59.791664Q79.75313 59.15104 78.90938 59.15104Q78.08125 59.15104 77.69063 59.791664Q77.31563 60.416664 77.31563 61.71354L77.31563 63.447914Q77.31563 64.822914 77.70625 65.49479Q78.1125 66.15104 78.925 66.15104Q79.72188 66.15104 80.1125 65.52604Q80.50313 64.90104 80.51875 63.572914L80.51875 61.791664ZM88.6125 63.27604Q88.6125 65.18229 87.95625 66.11979Q87.31563 67.041664 85.925 67.041664Q84.56563 67.041664 83.90938 66.135414Q83.25313 65.229164 83.22188 63.416664L83.22188 61.979164Q83.22188 60.08854 83.8625 59.18229Q84.51875 58.260414 85.90938 58.260414Q87.28438 58.260414 87.94063 59.15104Q88.59688 60.02604 88.6125 61.86979L88.6125 63.27604ZM87.51875 61.791664Q87.51875 60.416664 87.12813 59.791664Q86.75313 59.15104 85.90938 59.15104Q85.08125 59.15104 84.69063 59.791664Q84.31563 60.416664 84.31563 61.71354L84.31563 63.447914Q84.31563 64.822914 84.70625 65.49479Q85.1125 66.15104 85.925 66.15104Q86.72188 66.15104 87.1125 65.52604Q87.50313 64.90104 87.51875 63.572914L87.51875 61.791664Z" fill-rule="nonzero"/><path fill="#757575" d="M100.36131 341.8655L97.820145 344.40668L100.48284 347.06937L99.68735 347.86487L93.65485 341.83237L97.4003 338.08688L98.05216 338.73877L95.1022 341.68872L97.16828 343.7548L99.70944 341.21362L100.36131 341.8655ZM106.47115 341.25784Q105.55412 342.17487 104.38298 342.15277Q103.21184 342.10855 102.20641 341.10315L102.07384 340.97055Q101.39987 340.2966 101.134705 339.5232Q100.8585 338.73877 101.02422 337.9985Q101.18995 337.23615 101.72028 336.70584Q102.59312 335.833 103.65378 335.9214Q104.71444 336.00977 105.78615 337.08148L106.10655 337.4019L103.06821 340.44025Q103.75321 341.08105 104.52661 341.12524Q105.31106 341.1584 105.88558 340.58386Q106.28333 340.18613 106.393814 339.74417Q106.51535 339.2912 106.460106 338.794L107.28875 338.69458Q107.59811 340.1309 106.47115 341.25784ZM102.350044 337.3356Q101.88601 337.79962 101.908104 338.46255Q101.93021 339.10336 102.47158 339.7773L104.71444 337.53445L104.659195 337.47922Q104.040474 336.9268 103.43281 336.89365Q102.83618 336.84946 102.350044 337.3356ZM110.37129 332.8057Q111.3988 333.83322 111.55348 334.93805Q111.70816 336.0208 110.91267 336.8163Q110.06193 337.66705 108.99022 337.5234L109.46531 338.08688L108.76925 338.78296L102.40529 332.419L103.16764 331.65665L105.543076 334.03207Q105.432594 332.99353 106.25018 332.17593Q107.06778 331.35834 108.150536 331.513Q109.222244 331.65665 110.305 332.7394L110.37129 332.8057ZM109.52055 333.47964Q108.73611 332.69522 108.006905 332.58472Q107.277695 332.45215 106.714226 333.01562Q105.95187 333.77795 106.316475 334.80548L108.26102 336.75003Q109.32168 337.10358 110.06193 336.3633Q110.61436 335.81088 110.49282 335.07065Q110.37129 334.33038 109.52055 333.47964ZM112.08382 327.867Q111.88494 328.02167 111.686066 328.22055Q110.92371 328.9829 111.29937 329.8889L114.481346 333.07086L113.719 333.83322L109.23329 329.3475L109.97354 328.60724L110.503876 329.11548Q110.282906 328.14322 110.97896 327.44714Q111.19993 327.22617 111.37671 327.15988L112.08382 327.867ZM118.86762 327.8007Q118.95601 328.77298 118.083176 329.6458Q117.36502 330.36395 116.56953 330.31976Q115.774025 330.27557 114.956436 329.45798L112.03962 326.54117L112.80197 325.7788L115.696686 328.67352Q116.724205 329.70105 117.55284 328.8724Q118.43673 327.98853 118.06107 327.03836L114.80176 323.77902L115.57516 323.00565L120.06086 327.49133L119.33166 328.22055L118.86762 327.8007ZM124.25931 323.2929Q124.06043 323.2266 123.67374 322.92828Q123.70688 324.0221 122.96663 324.76236Q122.30372 325.42526 121.49718 325.4805Q120.701675 325.5247 120.116104 324.93912Q119.420044 324.24307 119.563675 323.32605Q119.707306 322.40903 120.67958 321.43674L121.41983 320.6965L121.06628 320.34293Q120.66853 319.9452 120.19344 319.95624Q119.71836 319.9452 119.24327 320.4203Q118.83447 320.82907 118.76818 321.31522Q118.69084 321.79028 118.98915 322.0886L118.21576 322.862Q117.87325 322.5195 117.79591 321.97812Q117.72962 321.4257 117.96164 320.84012Q118.18261 320.2435 118.66875 319.75735Q119.45319 318.9729 120.27078 318.9287Q121.09943 318.87347 121.79549 319.52533L123.861565 321.59143Q124.48028 322.21014 124.999565 322.42007L125.06585 322.48636L124.25931 323.2929ZM122.40315 323.9779Q122.76775 323.6133 122.90034 323.10507Q123.03292 322.59683 122.87824 322.1549L121.96121 321.23785L121.36459 321.8345Q119.95038 323.2487 120.779015 324.07733Q121.13257 324.4309 121.58556 324.39774Q122.027504 324.35355 122.40315 323.9779ZM124.81174 315.13907Q124.61286 315.29376 124.41399 315.4926Q123.65164 316.25497 124.02729 317.16095L127.209274 320.34293L126.44692 321.1053L121.96121 316.61957L122.70146 315.87933L123.2318 316.38754Q123.010826 315.41528 123.70688 314.71924Q123.92786 314.49826 124.10463 314.43198L124.81174 315.13907ZM129.60681 315.6915L127.29766 311.28314L128.11525 310.46555L131.49611 317.4482Q132.19217 318.98398 131.28618 319.88995L131.12045 320.03357L130.789 320.25455L130.17027 319.63583L130.3802 319.448Q130.77795 319.05026 130.83319 318.68564Q130.89949 318.31 130.62328 317.74652L130.32497 317.11676L124.29246 314.28833L125.13214 313.44864L129.60681 315.6915Z" fill-rule="nonzero"/><path fill="#757575" d="M147.39243 330.90533L154.28673 333.84424L151.33676 326.961L152.37532 325.92245L158.40782 331.95496L157.61234 332.75046L155.25899 330.3971L152.80621 327.78964L155.70093 334.66183L155.09326 335.2695L148.24316 332.3748L150.83957 334.81653L153.19292 337.16986L152.39742 337.96536L146.36491 331.93286L147.39243 330.90533ZM162.12013 328.24265Q161.92126 328.17636 161.53456 327.87805Q161.5677 328.97183 160.82745 329.7121Q160.16455 330.375 159.358 330.43024Q158.5625 330.47446 157.97693 329.8889Q157.28087 329.1928 157.4245 328.2758Q157.56813 327.35876 158.5404 326.38647L159.28065 325.64624L158.92711 325.2927Q158.52936 324.89493 158.05428 324.90598Q157.5792 324.89493 157.1041 325.37003Q156.6953 325.7788 156.62901 326.26495Q156.55167 326.74005 156.84998 327.03836L156.07658 327.81174Q155.73409 327.46924 155.65674 326.92786Q155.59045 326.37543 155.82246 325.78986Q156.04344 325.19324 156.52957 324.7071Q157.31403 323.92267 158.1316 323.87848Q158.96025 323.8232 159.65631 324.4751L161.7224 326.54117Q162.34111 327.15988 162.8604 327.3698L162.92668 327.4361L162.12013 328.24265ZM160.26398 328.92764Q160.62859 328.56305 160.76117 328.0548Q160.89375 327.54657 160.73907 327.10464L159.82204 326.18762L159.22542 326.78424Q157.8112 328.19846 158.63985 329.0271Q158.9934 329.38065 159.4464 329.3475Q159.88834 329.3033 160.26398 328.92764ZM162.67256 320.0888Q162.4737 320.2435 162.27481 320.44238Q161.51247 321.2047 161.88812 322.1107L165.0701 325.2927L164.30775 326.05502L159.82204 321.5693L160.56229 320.82907L161.09262 321.3373Q160.87166 320.36502 161.5677 319.66898Q161.78868 319.448 161.96545 319.3817L162.67256 320.0888ZM168.38466 320.89536Q168.79346 320.48657 168.85976 319.93414Q168.915 319.37067 168.5725 318.96185L169.3017 318.23267Q169.66629 318.64145 169.76573 319.2491Q169.86517 319.8347 169.66629 320.45343Q169.47847 321.0611 169.01443 321.52512Q168.0974 322.44217 166.94835 322.37585Q165.7993 322.28748 164.73865 321.2268L164.60606 321.09424Q163.9542 320.44238 163.67798 319.70212Q163.41281 318.9508 163.57855 318.23267Q163.74428 317.4924 164.36299 316.8737Q165.11429 316.12238 166.06447 316.0782Q167.01465 316.0119 167.777 316.70795L167.04779 317.43716Q166.57271 317.02838 165.99818 317.05048Q165.42365 317.07257 164.99275 317.50345Q164.40718 318.08902 164.50662 318.82928Q164.60606 319.56952 165.40155 320.36502L165.54518 320.50867Q166.31859 321.28204 167.05884 321.3815Q167.79909 321.48093 168.38466 320.89536ZM168.19684 314.27728Q168.08635 313.15033 168.90395 312.33273Q170.32921 310.90747 171.94229 312.49847L174.9033 315.45947L174.1299 316.23288L171.15785 313.2608Q170.68275 312.78574 170.22977 312.7747Q169.78783 312.7526 169.32379 313.2166Q168.94814 313.5923 168.85976 314.0784Q168.78241 314.5535 168.94814 315.0286L172.14117 318.22162L171.37881 318.98395L165.01486 312.62L165.7772 311.85764L168.19684 314.27728Z" fill-rule="nonzero"/><path fill="#757575" d="M203.32867 326.68478L200.79855 329.2149L201.81502 331.35834L200.99744 332.1759L197.26303 323.8453L197.95908 323.14926L206.30074 326.87262L205.48314 327.69022L203.32867 326.68478ZM200.38976 328.31998L202.4448 326.26495L198.5999 324.4751L200.38976 328.31998ZM208.70932 320.0888Q209.72578 321.1053 209.89151 322.1991Q210.05724 323.29288 209.2507 324.09943Q208.4331 324.91702 207.44978 324.8618L209.60425 327.01624L208.8419 327.7786L202.63261 321.5693L203.32867 320.87326L203.85901 321.3373Q203.75957 320.2877 204.58821 319.45905Q205.39476 318.6525 206.46646 318.79614Q207.54922 318.9287 208.63197 320.01147L208.70932 320.0888ZM207.85858 320.7628Q207.09622 320.00043 206.33388 319.901Q205.57153 319.77945 205.00806 320.34293Q204.312 321.039 204.57716 321.98917L206.72058 324.13257Q207.68181 324.40878 208.3889 323.7017Q208.94133 323.14926 208.83086 322.39795Q208.72037 321.62457 207.85858 320.7628ZM210.43289 315.13907Q210.23401 315.29373 210.03514 315.4926Q209.2728 316.25497 209.64844 317.16095L212.83043 320.34293L212.06807 321.1053L207.58237 316.61957L208.32262 315.8793L208.85295 316.38754Q208.63197 315.41528 209.32803 314.7192Q209.54901 314.49826 209.72578 314.43195L210.43289 315.13907ZM215.72514 317.4482L214.96278 318.21057L210.47708 313.72485L211.23943 312.9625L215.72514 317.4482ZM209.22859 312.60895Q209.04077 312.4211 209.01868 312.17804Q209.00763 311.92395 209.22859 311.70297Q209.44957 311.482 209.69264 311.5041Q209.94675 311.51514 210.13458 311.70297Q210.31136 311.87973 210.3224 312.13385Q210.33345 312.36588 210.11249 312.58685Q209.89151 312.80783 209.64844 312.80783Q209.40538 312.78574 209.22859 312.60895ZM217.84647 315.3269L217.0841 316.08923L210.72015 309.72528L211.4825 308.96292L217.84647 315.3269Z" fill-rule="nonzero"/><path fill="#757575" d="M240.79175 323.12717L247.68604 326.06607L244.73607 319.18283L245.77464 318.1443L251.80714 324.1768L251.01164 324.9723L248.65831 322.61893L246.20554 320.01147L249.10025 326.88367L248.49258 327.49133L241.64249 324.59662L244.23889 327.03836L246.59222 329.3917L245.79674 330.1872L239.76424 324.1547L240.79175 323.12717ZM255.51945 320.46448Q255.32059 320.3982 254.93388 320.09985Q254.96703 321.19366 254.22678 321.93393Q253.56386 322.59683 252.75732 322.65207Q251.96182 322.6963 251.37625 322.11072Q250.68019 321.41464 250.82382 320.49762Q250.96745 319.5806 251.93973 318.6083L252.67998 317.86807L252.32643 317.5145Q251.92868 317.11676 251.45358 317.1278Q250.9785 317.11676 250.50342 317.59186Q250.09462 318.00064 250.02832 318.4868Q249.95099 318.96185 250.2493 319.2602L249.4759 320.03357Q249.13339 319.69107 249.05606 319.1497Q248.98976 318.59726 249.22179 318.0117Q249.44275 317.41507 249.9289 316.92892Q250.71333 316.1445 251.53093 316.10028Q252.35957 316.04504 253.05563 316.69693L255.1217 318.763Q255.74042 319.3817 256.2597 319.59164L256.326 319.65793L255.51945 320.46448ZM253.6633 321.14948Q254.0279 320.78488 254.16048 320.27664Q254.29306 319.7684 254.13838 319.32648L253.22136 318.40945L252.62474 319.00607Q251.21053 320.4203 252.03917 321.2489Q252.39272 321.60248 252.8457 321.56934Q253.28764 321.52512 253.6633 321.14948ZM258.0385 315.6915L255.72937 311.28314L256.54697 310.46555L259.92783 317.4482Q260.62387 318.98398 259.7179 319.88995L259.5522 320.03357L259.2207 320.25455L258.602 319.63583L258.81192 319.448Q259.20966 319.05026 259.26492 318.68567Q259.3312 318.31 259.055 317.74652L258.75668 317.11676L252.72417 314.28833L253.56386 313.44864L258.0385 315.6915Z" fill-rule="nonzero"/><path fill="#757575" d="M282.2765 324.453L283.08304 323.64645L287.35883 327.92224Q288.2206 328.78403 288.18747 329.81152Q288.15433 330.81696 287.29254 331.67874Q286.3976 332.57367 285.42532 332.61786Q284.4641 332.651 283.63547 331.82236L284.43097 331.0269Q284.95026 331.54614 285.52478 331.56827Q286.0993 331.56827 286.6407 331.0269Q287.13785 330.5297 287.1268 329.92203Q287.11575 329.29227 286.56332 328.73984L282.2765 324.453ZM292.93835 324.97226Q293.02673 325.94455 292.1539 326.81738Q291.43573 327.53552 290.64026 327.49133Q289.84476 327.44714 289.02716 326.62955L286.11035 323.71274L286.87268 322.95038L289.7674 325.8451Q290.79492 326.87262 291.62357 326.04398Q292.50745 325.1601 292.1318 324.20993L288.87247 320.9506L289.64587 320.17722L294.1316 324.6629L293.40237 325.39212L292.93835 324.97226ZM291.80035 318.02274L292.38593 318.56412Q292.26437 317.40402 293.09302 316.57538Q294.51828 315.15012 296.13138 316.74112L299.09238 319.70212L298.31897 320.47552L295.34692 317.50345Q294.87183 317.02838 294.41885 317.01733Q293.9769 316.9952 293.51288 317.45926Q293.1372 317.8349 293.04883 318.32104Q292.9715 318.79614 293.1372 319.2712L296.33023 322.46426L295.5679 323.2266L291.08218 318.7409L291.80035 318.02274ZM302.4622 316.5091Q301.54517 317.42612 300.37402 317.40402Q299.20285 317.35983 298.19745 316.3544L298.06485 316.22183Q297.3909 315.54785 297.12573 314.77448Q296.84952 313.99002 297.01526 313.24976Q297.18097 312.48743 297.7113 311.9571Q298.58414 311.08426 299.6448 311.17264Q300.70547 311.26102 301.77716 312.33273L302.0976 312.65314L299.05923 315.6915Q299.74423 316.3323 300.51764 316.3765Q301.3021 316.40964 301.87662 315.8351Q302.27435 315.43738 302.38486 314.99542Q302.50638 314.54245 302.45114 314.04526L303.2798 313.94583Q303.58914 315.38214 302.4622 316.5091ZM298.34106 312.58685Q297.87704 313.0509 297.89914 313.7138Q297.92123 314.3546 298.46262 315.0286L300.70547 312.78574L300.65024 312.7305Q300.0315 312.17807 299.42383 312.14493Q298.8272 312.1007 298.34106 312.58685Z" fill-rule="nonzero"/><path fill="#757575" d="M327.9155 321.62457L328.72205 320.81802L332.99783 325.0938Q333.85962 325.9556 333.82648 326.9831Q333.79333 327.98853 332.93155 328.8503Q332.03662 329.74524 331.06433 329.78943Q330.10312 329.82257 329.27448 328.99393L330.06998 328.19846Q330.58923 328.7177 331.16376 328.7398Q331.73828 328.7398 332.27966 328.19846Q332.77686 327.70126 332.7658 327.0936Q332.75476 326.46384 332.20233 325.9114L327.9155 321.62457ZM338.57733 322.14383Q338.66574 323.11612 337.7929 323.98895Q337.07474 324.7071 336.27924 324.6629Q335.48376 324.6187 334.66617 323.80112L331.74933 320.8843L332.5117 320.12195L335.4064 323.01666Q336.43393 324.0442 337.26257 323.21555Q338.14645 322.33167 337.7708 321.3815L334.51147 318.12216L335.28488 317.3488L339.7706 321.83447L339.04138 322.5637L338.57733 322.14383ZM342.03555 319.56952L341.2732 320.33188L334.90924 313.96793L335.67157 313.20557L342.03555 319.56952ZM343.65967 315.6915L341.35052 311.2831L342.16812 310.46555L345.54898 317.4482Q346.24503 318.98395 345.33905 319.88995L345.1733 320.03357L344.84186 320.25455L344.22314 319.63583L344.43307 319.448Q344.8308 319.05026 344.88605 318.68564Q344.95236 318.31 344.67615 317.74652L344.37784 317.11676L338.34534 314.28833L339.18503 313.44864L343.65967 315.6915Z" fill-rule="nonzero"/><path fill="#757575" d="M364.67148 336.5843L362.14136 339.1144L363.15784 341.2578L362.34024 342.0754L358.60583 333.7448L359.30188 333.04874L367.64352 336.7721L366.82593 337.5897L364.67148 336.5843ZM361.73257 338.21948L363.7876 336.16443L359.9427 334.37457L361.73257 338.21948ZM370.7813 332.75043Q370.86972 333.72272 369.99686 334.59555Q369.27872 335.3137 368.48322 335.2695Q367.6877 335.2253 366.87015 334.4077L363.9533 331.4909L364.71567 330.72855L367.61038 333.62326Q368.6379 334.6508 369.46655 333.82214Q370.35043 332.93826 369.97476 331.9881L366.71545 328.72876L367.48886 327.95538L371.97455 332.44107L371.24536 333.1703L370.7813 332.75043ZM370.94705 328.9166Q369.89743 327.86697 369.76486 326.76212Q369.63226 325.6573 370.42776 324.8618Q371.24536 324.0442 372.2839 324.15466L371.8199 323.62433L372.52698 322.91724L376.90222 327.29245Q377.77505 328.16528 377.75296 329.18176Q377.7419 330.2093 376.88013 331.07108Q376.39398 331.5572 375.72003 331.8113Q375.04605 332.06543 374.44943 331.95496L374.38315 331.09317Q375.47696 331.2147 376.1951 330.49655Q376.74753 329.94412 376.73648 329.31433Q376.74753 328.68457 376.173 328.11005L375.78632 327.72336Q375.86365 328.72876 375.06815 329.52426Q374.2837 330.30872 373.16782 330.16507Q372.04086 330.0104 370.94705 328.9166ZM371.80884 328.2316Q372.56012 328.98288 373.31143 329.11548Q374.0517 329.237 374.61517 328.67352Q375.3333 327.95538 375.0129 326.94995L372.96893 324.90598Q371.97455 324.6187 371.26746 325.3258Q370.71503 325.87823 370.8255 326.62955Q370.94705 327.3698 371.80884 328.2316ZM380.68082 322.85095Q380.7692 323.8232 379.89636 324.69604Q379.17822 325.4142 378.38272 325.37003Q377.58722 325.3258 376.76962 324.50824L373.8528 321.5914L374.61517 320.82907L377.5099 323.7238Q378.53738 324.75128 379.36603 323.92267Q380.2499 323.03876 379.87427 322.0886L376.61496 318.82928L377.38834 318.05588L381.87405 322.5416L381.14487 323.27078L380.68082 322.85095ZM384.72458 317.30457Q384.41522 316.9952 384.00644 317.07257Q383.59763 317.1278 382.89053 317.59183Q382.19446 318.04483 381.67517 318.21057Q381.1559 318.37628 380.75815 318.31Q380.3604 318.22162 380.02896 317.89014Q379.47653 317.3377 379.5649 316.49805Q379.64224 315.6473 380.37146 314.9181Q381.1338 314.15573 381.99557 314.08945Q382.85736 314.00107 383.46506 314.60873L382.7027 315.3711Q382.39334 315.06174 381.89615 315.11697Q381.39896 315.15012 381.00122 315.54785Q380.5814 315.9677 380.52612 316.3986Q380.4709 316.8074 380.75815 317.09467Q381.03436 317.37088 381.39896 317.29352Q381.76358 317.2162 382.47067 316.77426Q383.16675 316.32126 383.69705 316.14447Q384.2274 315.9677 384.64725 316.0561Q385.07812 316.13342 385.4317 316.48697Q386.03937 317.09467 385.91782 317.9454Q385.80734 318.7851 385.04498 319.54742Q384.5036 320.0888 383.89594 320.32083Q383.28827 320.53076 382.71375 320.42026Q382.13922 320.30978 381.7415 319.91202L382.5038 319.1497Q382.91263 319.51428 383.43192 319.45905Q383.94012 319.39276 384.41522 318.91766Q384.8461 318.48676 384.9345 318.04483Q385.0229 317.60287 384.72458 317.30457ZM383.0231 310.2556L384.10587 311.33835L384.9345 310.50974L385.53113 311.10635L384.70248 311.935L387.47568 314.70816Q387.7519 314.98438 387.99493 315.00647Q388.238 315.02856 388.50317 314.7634Q388.63577 314.63083 388.82358 314.3546L389.44232 314.97333Q389.2324 315.36005 388.94513 315.6473Q388.4369 316.15552 387.86237 316.11133Q387.2768 316.0561 386.70227 315.48157L383.92908 312.70837L383.11148 313.52597L382.51486 312.92935L383.33246 312.11176L382.2497 311.029L383.0231 310.2556Z" fill-rule="nonzero"/><path fill="#757575" d="M391.3843 350.4723Q390.06955 351.19046 389.16357 351.23465Q388.26865 351.2678 387.63885 350.63803Q386.93176 349.9309 387.0312 348.9034Q387.13065 347.8538 388.04767 346.93677Q388.66638 346.31805 389.39557 346.07498Q390.1248 345.8319 390.80978 345.9866Q391.50586 346.13022 392.0141 346.63846L391.20755 347.445Q390.65512 346.89258 389.99222 346.93677Q389.34033 346.9699 388.71057 347.59967Q388.125 348.18524 388.05872 348.78186Q387.98138 349.36743 388.43436 349.82043Q388.81 350.19608 389.37347 350.14084Q389.948 350.07455 390.90924 349.53317Q391.87045 348.9918 392.54443 348.82608Q393.22943 348.6493 393.7708 348.7929Q394.32324 348.9255 394.7762 349.3785Q395.51648 350.11874 395.38388 351.13522Q395.2513 352.15167 394.30115 353.10187Q393.67136 353.73163 392.88693 354.02994Q392.11353 354.3172 391.40643 354.2067Q390.6993 354.07413 390.18002 353.55484L390.97552 352.75934Q391.5169 353.30072 392.2461 353.21234Q392.9753 353.12396 393.64926 352.44998Q394.27905 351.82022 394.35638 351.23465Q394.42267 350.63803 393.98074 350.19608Q393.5388 349.75415 392.98636 349.82043Q392.43393 349.88672 391.3843 350.4723ZM399.0741 348.3289Q398.15707 349.2459 396.98593 349.22382Q395.8148 349.17963 394.80936 348.1742L394.6768 348.04163Q394.00284 347.36765 393.73767 346.59427Q393.46146 345.8098 393.62717 345.06955Q393.7929 344.30722 394.32324 343.7769Q395.19608 342.90405 396.25674 342.99243Q397.31738 343.0808 398.3891 344.15253L398.7095 344.47293L395.67114 347.5113Q396.35617 348.1521 397.12958 348.1963Q397.914 348.22943 398.48853 347.6549Q398.8863 347.25717 398.99677 346.81525Q399.11832 346.36224 399.06305 345.86505L399.8917 345.76562Q400.20105 347.20193 399.0741 348.3289ZM394.953 344.40665Q394.48895 344.8707 394.51105 345.5336Q394.53314 346.1744 395.07452 346.8484L397.31738 344.60553L397.26215 344.5503Q396.64343 343.99786 396.03577 343.96472Q395.43915 343.9205 394.953 344.40665ZM402.9632 339.8878Q403.97968 340.90427 404.1454 341.99808Q404.31113 343.0919 403.50458 343.8984Q402.68698 344.716 401.70367 344.66077L403.85812 346.81525L403.09576 347.57758L396.8865 341.3683L397.58255 340.67224L398.11288 341.1363Q398.01346 340.08667 398.8421 339.25803Q399.64862 338.45148 400.72034 338.59512Q401.8031 338.7277 402.88586 339.81046L402.9632 339.8878ZM402.11246 340.56177Q401.3501 339.7994 400.58777 339.69998Q399.8254 339.57843 399.26193 340.1419Q398.5659 340.83798 398.83105 341.78815L400.97446 343.93155Q401.93567 344.20776 402.6428 343.50067Q403.19522 342.94824 403.08472 342.19693Q402.97424 341.42355 402.11246 340.56177ZM401.79205 334.29724L402.87482 335.38L403.70346 334.55136L404.30008 335.14798L403.47144 335.97662L406.2446 338.7498Q406.5208 339.026 406.7639 339.0481Q407.00696 339.0702 407.27213 338.80505Q407.40472 338.67245 407.59253 338.39624L408.21124 339.01495Q408.00134 339.40167 407.71408 339.68893Q407.20584 340.19714 406.63132 340.15295Q406.04575 340.09772 405.47122 339.5232L402.69803 336.75L401.88043 337.5676L401.2838 336.97098L402.1014 336.15338L401.01865 335.07062L401.79205 334.29724ZM411.0949 336.30807Q410.1779 337.2251 409.00674 337.203Q407.8356 337.1588 406.8302 336.15338L406.6976 336.0208Q406.02365 335.34683 405.75848 334.57346Q405.48227 333.789 405.64798 333.04874Q405.81372 332.2864 406.34406 331.75607Q407.2169 330.88324 408.27756 330.97162Q409.3382 331.06 410.4099 332.1317L410.73032 332.45212L407.692 335.49048Q408.37698 336.1313 409.1504 336.17548Q409.9348 336.20862 410.50934 335.6341Q410.9071 335.23636 411.01758 334.7944Q411.13913 334.34143 411.08386 333.84424L411.9125 333.7448Q412.22186 335.18112 411.0949 336.30807ZM406.97382 332.38583Q406.50977 332.84988 406.53186 333.5128Q406.554 334.1536 407.09534 334.82758L409.3382 332.58472L409.28296 332.52948Q408.66425 331.97705 408.05658 331.94388Q407.45996 331.8997 406.97382 332.38583ZM409.62546 328.62933L410.14474 329.10443Q410.05637 328.04376 410.89606 327.20407Q411.83517 326.26495 412.89584 326.6406Q412.7964 326.0992 412.95108 325.54678Q413.11682 324.9833 413.60294 324.49716Q415.08344 323.01666 416.6634 324.55243L419.66858 327.55762L418.90625 328.31998L415.94522 325.35895Q415.47015 324.88388 415.01715 324.87283Q414.55313 324.85074 414.03384 325.37Q413.60294 325.8009 413.5698 326.3423Q413.5477 326.87262 413.9344 327.3477L416.90646 330.31976L416.1441 331.0821L413.2052 328.1432Q412.2329 327.17093 411.2717 328.13214Q410.5204 328.88345 410.885 329.80048L414.15536 333.07083L413.38196 333.84424L408.89627 329.35852L409.62546 328.62933ZM422.77322 320.07776Q423.80075 321.1053 423.9554 322.2101Q424.1101 323.29288 423.3146 324.08838Q422.46387 324.93912 421.39215 324.79547L421.86725 325.35895L421.1712 326.05502L414.80722 319.69107L415.56958 318.9287L417.945 321.30414Q417.83453 320.2656 418.65213 319.448Q419.46973 318.6304 420.5525 318.78506Q421.62418 318.9287 422.70694 320.01147L422.77322 320.07776ZM421.9225 320.7517Q421.13806 319.9673 420.40884 319.85678Q419.67963 319.7242 419.11618 320.2877Q418.35382 321.05002 418.7184 322.07755L420.66296 324.0221Q421.72363 324.37564 422.46387 323.63538Q423.0163 323.08295 422.89478 322.3427Q422.77322 321.60245 421.9225 320.7517ZM428.0655 319.3375Q427.14847 320.25455 425.97733 320.23242Q424.80615 320.18823 423.80075 319.18283L423.66815 319.05023Q422.9942 318.37628 422.72903 317.60287Q422.45282 316.81845 422.61856 316.0782Q422.78427 315.31583 423.3146 314.7855Q424.18744 313.91266 425.2481 314.00107Q426.30878 314.08945 427.38046 315.16116L427.7009 315.48157L424.66254 318.51993Q425.34753 319.16074 426.12094 319.20493Q426.9054 319.23807 427.47992 318.66354Q427.87766 318.2658 427.98816 317.82385Q428.10968 317.37085 428.05444 316.8737L428.8831 316.77423Q429.19244 318.21054 428.0655 319.3375ZM423.94437 315.41528Q423.48035 315.8793 423.50244 316.54224Q423.52454 317.18304 424.06592 317.857L426.30878 315.61414L426.25354 315.5589Q425.6348 315.00647 425.02713 314.97333Q424.4305 314.92914 423.94437 315.41528ZM428.7284 310.89642Q428.5295 311.0511 428.33066 311.24997Q427.5683 312.01233 427.94394 312.9183L431.12595 316.10028L430.3636 316.86264L425.87787 312.37692L426.61813 311.63666L427.14847 312.1449Q426.9275 311.17264 427.62354 310.47656Q427.8445 310.2556 428.0213 310.1893L428.7284 310.89642Z" fill-rule="nonzero"/><path fill="#757575" d="M448.23758 336.16446Q449.12146 337.04834 449.48605 338.00955Q449.8396 338.95975 449.64075 339.86572Q449.4529 340.76065 448.72372 341.48987Q448.0166 342.19696 447.11063 342.39584Q446.20465 342.5947 445.25446 342.26324Q444.3043 341.9097 443.43146 341.05896L443.00058 340.62805Q442.12772 339.75522 441.76312 338.794Q441.40958 337.82175 441.60846 336.91574Q441.79626 335.99872 442.51443 335.28058Q443.23257 334.5624 444.13858 334.36356Q445.04456 334.16467 446.00577 334.52927Q446.96698 334.89386 447.85086 335.77777L448.23758 336.16446ZM447.0554 336.55115Q445.98367 335.47943 444.97824 335.33582Q443.97284 335.19217 443.19943 335.96558Q442.4371 336.72794 442.58072 337.73334Q442.72437 338.73877 443.72977 339.76627L444.18277 340.21927Q445.2213 341.25784 446.24884 341.42355Q447.27634 341.5672 448.0387 340.80484Q448.8121 340.03143 448.6795 339.05917Q448.54694 338.06482 447.50836 337.00415L447.0554 336.55115ZM453.2094 335.7446Q453.61823 335.33582 453.6845 334.7834Q453.73975 334.2199 453.39725 333.81113L454.12643 333.0819Q454.49106 333.49072 454.59048 334.0984Q454.6899 334.68396 454.49106 335.30267Q454.30322 335.91034 453.83917 336.3744Q452.92215 337.2914 451.7731 337.22513Q450.62405 337.13672 449.5634 336.07608L449.43082 335.94348Q448.77896 335.29163 448.50275 334.55136Q448.23758 333.80008 448.4033 333.0819Q448.56903 332.34164 449.18774 331.72293Q449.93906 330.97165 450.88922 330.92746Q451.8394 330.86115 452.60175 331.55722L451.87256 332.2864Q451.39746 331.87762 450.82294 331.89972Q450.2484 331.9218 449.8175 332.35272Q449.23193 332.9383 449.3314 333.67853Q449.43082 334.4188 450.22632 335.2143L450.36993 335.3579Q451.14334 336.13132 451.8836 336.23074Q452.62384 336.33017 453.2094 335.7446ZM451.67368 327.2262L452.75644 328.30893L453.58508 327.4803L454.1817 328.07693L453.35306 328.90555L456.12622 331.67874Q456.40244 331.95496 456.6455 331.97705Q456.88858 331.99915 457.15375 331.73398Q457.28635 331.6014 457.47415 331.3252L458.09286 331.9439Q457.88297 332.3306 457.5957 332.61786Q457.08746 333.1261 456.51294 333.0819Q455.92737 333.02667 455.35284 332.45215L452.57965 329.67896L451.76205 330.49655L451.16544 329.89993L451.98303 329.08234L450.90027 327.99957L451.67368 327.2262ZM456.53503 328.92767Q455.88318 328.2758 455.60696 327.49136Q455.3418 326.69586 455.5296 325.9556Q455.7064 325.20428 456.29196 324.6187Q457.20898 323.7017 458.40222 323.76797Q459.60654 323.82324 460.66718 324.88388L460.72244 324.93915Q461.3743 325.591 461.63947 326.3644Q461.90463 327.1378 461.7389 327.90015Q461.5621 328.65146 460.95444 329.25912Q460.04846 330.1651 458.84418 330.10986Q457.6399 330.0325 456.59027 328.9829L456.53503 328.92767ZM457.40787 328.2537Q458.14813 328.99396 458.9436 329.10443Q459.75015 329.20386 460.32468 328.62933Q460.91025 328.04376 460.79977 327.2483Q460.67822 326.44174 459.84958 325.6131Q459.1204 324.88388 458.31384 324.78445Q457.5073 324.66293 456.92172 325.2485Q456.35825 325.81198 456.4577 326.6185Q456.55713 327.40295 457.40787 328.2537ZM465.5838 320.0778Q466.6113 321.1053 466.766 322.21014Q466.92065 323.2929 466.12515 324.0884Q465.2744 324.93915 464.20273 324.7955L464.6778 325.35898L463.98175 326.05502L457.6178 319.69107L458.38013 318.92874L460.75558 321.30417Q460.64508 320.2656 461.46268 319.448Q462.28027 318.6304 463.36304 318.7851Q464.43475 318.92874 465.5175 320.01147L465.5838 320.0778ZM464.73306 320.75174Q463.9486 319.9673 463.2194 319.8568Q462.4902 319.7242 461.92673 320.2877Q461.16437 321.05005 461.52896 322.07758L463.4735 324.0221Q464.53418 324.37567 465.2744 323.6354Q465.82684 323.08298 465.70532 322.3427Q465.5838 321.60248 464.73306 320.75174ZM470.87604 319.33752Q469.959 320.25455 468.78787 320.23245Q467.61673 320.18826 466.6113 319.18283L466.47873 319.05026Q465.80475 318.3763 465.53958 317.6029Q465.26337 316.81845 465.4291 316.07822Q465.59485 315.31586 466.12515 314.78552Q466.99802 313.9127 468.05865 314.00107Q469.11932 314.08948 470.19104 315.16116L470.51144 315.48157L467.47308 318.51993Q468.1581 319.16074 468.9315 319.20496Q469.71594 319.2381 470.29047 318.66357Q470.6882 318.2658 470.7987 317.82388Q470.92023 317.37088 470.865 316.8737L471.69363 316.77426Q472.003 318.21057 470.87604 319.33752ZM466.75494 315.41528Q466.2909 315.87933 466.313 316.54224Q466.33508 317.18304 466.87646 317.85703L469.11932 315.61417L469.0641 315.55893Q468.44537 315.0065 467.83768 314.97336Q467.24106 314.92917 466.75494 315.41528ZM471.53894 310.89642Q471.3401 311.05112 471.1412 311.25Q470.37885 312.01233 470.75452 312.9183L473.9365 316.1003L473.17413 316.86264L468.68842 312.37695L469.42868 311.6367L469.959 312.14493Q469.73804 311.17264 470.4341 310.4766Q470.65506 310.2556 470.83185 310.18933L471.53894 310.89642Z" fill-rule="nonzero"/><path fill="#757575" d="M483.96603 348.88132L483.17053 349.67682L475.48074 348.06372L480.1322 352.71518L479.32565 353.52173L473.29315 347.4892L474.09967 346.68268L481.81155 348.31784L477.13803 343.64432L477.93353 342.84882L483.96603 348.88132ZM483.08215 345.1911Q482.4303 344.53925 482.15408 343.7548Q481.88892 342.95932 482.07672 342.21906Q482.2535 341.46774 482.83908 340.88217Q483.7561 339.96515 484.94934 340.03143Q486.15366 340.08667 487.2143 341.14734L487.26956 341.20258Q487.92142 341.85446 488.18658 342.62784Q488.45175 343.40125 488.286 344.1636Q488.10925 344.9149 487.50156 345.52258Q486.59558 346.42856 485.3913 346.3733Q484.187 346.29596 483.1374 345.24637L483.08215 345.1911ZM483.955 344.51715Q484.69525 345.25742 485.49072 345.3679Q486.29727 345.46732 486.8718 344.8928Q487.45737 344.30722 487.3469 343.51172Q487.22534 342.7052 486.39673 341.87656Q485.6675 341.14734 484.86096 341.0479Q484.0544 340.92636 483.46884 341.51193Q482.90536 342.0754 483.00482 342.88196Q483.10425 343.6664 483.955 344.51715ZM490.95975 339.8105L488.6285 335.24744L489.41296 334.46298L492.28558 340.56177L491.7 341.14734L485.59018 338.28577L486.3746 337.5013L490.95975 339.8105ZM496.71606 336.30807Q495.799 337.2251 494.62787 337.203Q493.45673 337.1588 492.45132 336.1534L492.31873 336.0208Q491.64478 335.34686 491.3796 334.57346Q491.1034 333.789 491.26913 333.04877Q491.43484 332.2864 491.96518 331.75607Q492.838 330.88324 493.89868 330.97165Q494.95932 331.06003 496.03104 332.13174L496.35144 332.45215L493.3131 335.49048Q493.9981 336.13132 494.7715 336.1755Q495.55597 336.20865 496.1305 335.63412Q496.52823 335.2364 496.6387 334.79443Q496.76025 334.34143 496.70502 333.84427L497.53366 333.7448Q497.84302 335.18112 496.71606 336.30807ZM492.59494 332.38586Q492.13092 332.84988 492.153 333.5128Q492.1751 334.15363 492.7165 334.82758L494.95932 332.58472L494.90408 332.52948Q494.28537 331.97705 493.6777 331.9439Q493.0811 331.89972 492.59494 332.38586ZM495.2466 328.62933L495.7659 329.1044Q495.67752 328.04376 496.5172 327.20407Q497.45633 326.26492 498.517 326.6406Q498.41754 326.0992 498.57224 325.54678Q498.73795 324.9833 499.2241 324.49716Q500.7046 323.01666 502.28455 324.5524L505.28973 327.55762L504.5274 328.31998L501.56638 325.35895Q501.0913 324.88388 500.6383 324.87283Q500.17426 324.8507 499.655 325.37Q499.2241 325.8009 499.19095 326.3423Q499.16885 326.87262 499.55554 327.3477L502.52762 330.31976L501.76526 331.0821L498.82635 328.1432Q497.85406 327.17093 496.89285 328.13214Q496.14154 328.88345 496.50616 329.80048L499.77652 333.07083L499.0031 333.84427L494.5174 329.35855L495.2466 328.62933ZM508.39438 320.07776Q509.4219 321.10526 509.57657 322.2101Q509.73126 323.29288 508.93576 324.08838Q508.08502 324.93912 507.0133 324.79547L507.4884 325.35895L506.79236 326.05502L500.42838 319.69104L501.19073 318.9287L503.56616 321.30414Q503.4557 320.26556 504.2733 319.448Q505.09088 318.6304 506.1736 318.78506Q507.24533 318.9287 508.3281 320.01147L508.39438 320.07776ZM507.54364 320.7517Q506.75922 319.96725 506.03 319.85678Q505.30078 319.7242 504.7373 320.28766Q503.97498 321.05002 504.33957 322.07755L506.28412 324.0221Q507.3448 324.37564 508.08502 323.63538Q508.63745 323.08295 508.51593 322.3427Q508.39438 321.60245 507.54364 320.7517ZM513.68665 319.3375Q512.7696 320.25452 511.59845 320.23242Q510.4273 320.18823 509.4219 319.18283L509.2893 319.05023Q508.61536 318.37628 508.3502 317.60287Q508.07397 316.81842 508.23972 316.0782Q508.40543 315.31583 508.93576 314.7855Q509.8086 313.91266 510.86926 314.00104Q511.92993 314.08945 513.00165 315.16116L513.322 315.48157L510.2837 318.5199Q510.9687 319.16074 511.7421 319.20493Q512.52655 319.23807 513.1011 318.66354Q513.49884 318.26578 513.6093 317.82385Q513.73083 317.37085 513.6756 316.8737L514.5042 316.77423Q514.8136 318.21054 513.68665 319.3375ZM509.56552 315.41525Q509.1015 315.8793 509.1236 316.5422Q509.1457 317.18304 509.68707 317.857L511.92993 315.61414L511.87466 315.5589Q511.25595 315.00647 510.6483 314.97333Q510.05167 314.92914 509.56552 315.41525ZM514.34955 310.89642Q514.1507 311.0511 513.9518 311.24997Q513.18945 312.01233 513.5651 312.9183L516.7471 316.10028L515.98474 316.8626L511.49902 312.37692L512.23926 311.63666L512.7696 312.1449Q512.54865 311.17264 513.2447 310.47656Q513.46564 310.25558 513.64246 310.1893L514.34955 310.89642Z" fill-rule="nonzero"/><path fill="#757575" d="M523.5504 352.10748L517.51794 346.07498L519.23047 344.36246Q520.0149 343.57803 520.9651 343.33496Q521.9152 343.0698 522.8875 343.37915Q523.8598 343.6885 524.69946 344.5282L525.07513 344.90384Q525.93695 345.76562 526.2463 346.7379Q526.5667 347.69913 526.29047 348.66034Q526.0253 349.61053 525.2298 350.42813L523.5504 352.10748ZM518.9653 345.93137L523.6941 350.66013L524.53375 349.82043Q525.4508 348.9034 525.39557 347.8317Q525.3403 346.7379 524.27966 345.67725L523.9261 345.3237Q522.89856 344.29617 521.84894 344.21884Q520.7994 344.1194 519.8934 345.0033L518.9653 345.93137ZM531.0413 344.79337Q530.1243 345.7104 528.9532 345.6883Q527.78204 345.6441 526.7766 344.63867L526.64404 344.5061Q525.9701 343.83212 525.7049 343.05875Q525.4287 342.2743 525.5944 341.53403Q525.76013 340.7717 526.29047 340.24136Q527.1633 339.36853 528.224 339.4569Q529.2846 339.5453 530.3563 340.617L530.67676 340.9374L527.63837 343.97577Q528.3234 344.61658 529.0968 344.66077Q529.8812 344.6939 530.45575 344.1194Q530.8535 343.72165 530.964 343.27972Q531.0856 342.82672 531.0303 342.32953L531.85895 342.2301Q532.1683 343.6664 531.0413 344.79337ZM526.9202 340.87112Q526.4562 341.33517 526.4783 341.99808Q526.5004 342.6389 527.04175 343.31287L529.2846 341.07L529.2294 341.01477Q528.61066 340.46234 528.003 340.4292Q527.4064 340.38498 526.9202 340.87112ZM534.58795 339.98724Q534.9967 339.57846 535.063 339.02603Q535.1183 338.46255 534.77576 338.05374L535.50494 337.32455Q535.86957 337.73334 535.969 338.341Q536.0684 338.92657 535.86957 339.5453Q535.68176 340.15298 535.2177 340.617Q534.30066 341.53403 533.1516 341.46774Q532.00256 341.37936 530.9419 340.3187L530.8093 340.18613Q530.1575 339.53424 529.8812 338.794Q529.6161 338.0427 529.7818 337.32455Q529.9476 336.5843 530.5663 335.96558Q531.31757 335.21426 532.26776 335.17007Q533.2179 335.1038 533.9803 335.79984L533.25104 336.52905Q532.77594 336.12024 532.2014 336.14236Q531.6269 336.16446 531.19604 336.59534Q530.6105 337.1809 530.7099 337.92117Q530.8093 338.6614 531.6048 339.4569L531.7485 339.60056Q532.52185 340.37393 533.2621 340.4734Q534.0024 340.5728 534.58795 339.98724ZM539.5266 336.30807Q538.6096 337.2251 537.4385 337.203Q536.26733 337.1588 535.2619 336.1534L535.12933 336.0208Q534.4553 335.34686 534.1902 334.57346Q533.91394 333.789 534.0797 333.04877Q534.2454 332.2864 534.77576 331.75607Q535.6486 330.88324 536.7092 330.97162Q537.7699 331.06003 538.8416 332.13174L539.16205 332.45215L536.12366 335.49048Q536.8087 336.13132 537.5821 336.1755Q538.3665 336.20865 538.94104 335.63412Q539.3388 335.23636 539.4493 334.79443Q539.5708 334.34143 539.51556 333.84427L540.34424 333.7448Q540.65356 335.18112 539.5266 336.30807ZM535.4055 332.38583Q534.94147 332.84988 534.96356 333.5128Q534.98566 334.15363 535.52704 334.82758L537.7699 332.58472L537.71466 332.52948Q537.09595 331.97705 536.4883 331.9439Q535.89166 331.89972 535.4055 332.38583ZM538.0572 328.62933L538.5765 329.10443Q538.48804 328.04376 539.32776 327.20407Q540.2669 326.26495 541.3275 326.6406Q541.2281 326.0992 541.3828 325.54678Q541.5485 324.98334 542.03467 324.4972Q543.51514 323.0167 545.0951 324.55243L548.1003 327.55765L547.33795 328.31998L544.37695 325.35898Q543.90186 324.88388 543.44885 324.87283Q542.9848 324.85074 542.4655 325.37003Q542.03467 325.8009 542.0015 326.3423Q541.97943 326.87262 542.3661 327.34772L545.33813 330.31976L544.5758 331.08212L541.6369 328.14322Q540.6646 327.17093 539.7034 328.13217Q538.9521 328.88345 539.3167 329.80048L542.5871 333.07086L541.81366 333.84427L537.32794 329.35855L538.0572 328.62933ZM551.20496 320.07776Q552.2325 321.1053 552.38715 322.21014Q552.5418 323.2929 551.74634 324.08838Q550.89557 324.93912 549.82385 324.7955L550.29895 325.35898L549.6029 326.05502L543.23895 319.69107L544.0013 318.9287L546.3767 321.30417Q546.26624 320.2656 547.08386 319.448Q547.9014 318.6304 548.9842 318.7851Q550.0559 318.9287 551.1387 320.01147L551.20496 320.07776ZM550.3542 320.75174Q549.56976 319.9673 548.8406 319.8568Q548.1113 319.7242 547.54785 320.2877Q546.7855 321.05005 547.15015 322.07755L549.09467 324.0221Q550.15533 324.37564 550.89557 323.6354Q551.448 323.08298 551.3265 322.3427Q551.20496 321.60248 550.3542 320.75174ZM556.4972 319.33752Q555.58014 320.25455 554.409 320.23245Q553.23785 320.18826 552.2325 319.18283L552.09985 319.05026Q551.4259 318.37628 551.16077 317.6029Q550.8845 316.81845 551.05023 316.0782Q551.216 315.31586 551.74634 314.78552Q552.61914 313.9127 553.6798 314.00107Q554.7405 314.08945 555.8122 315.16116L556.13257 315.48157L553.09424 318.51993Q553.77924 319.16074 554.5527 319.20493Q555.3371 319.23807 555.9116 318.66354Q556.3094 318.2658 556.41986 317.82385Q556.5414 317.37088 556.48615 316.8737L557.31476 316.77426Q557.62415 318.21057 556.4972 319.33752ZM552.3761 315.41528Q551.91205 315.87933 551.93414 316.54224Q551.95624 317.18304 552.4976 317.85703L554.7405 315.61417L554.68524 315.55893Q554.0665 315.0065 553.45886 314.97333Q552.86224 314.92914 552.3761 315.41528ZM557.1601 310.89642Q556.96124 311.05112 556.7623 311.24997Q556.0 312.01233 556.3757 312.9183L559.5576 316.10028L558.7953 316.86264L554.3096 312.37692L555.0498 311.6367L555.58014 312.14493Q555.3592 311.17264 556.05524 310.4766Q556.27625 310.2556 556.453 310.18933L557.1601 310.89642Z" fill-rule="nonzero"/><path fill="#757575" d="M20.20625 37.55L20.20625 23.33125L24.221874 23.33125Q26.065624 23.33125 27.4875 24.159374Q28.925 24.971874 29.690624 26.4875Q30.471874 28.003124 30.4875 29.95625L30.4875 30.8625Q30.4875 32.878124 29.70625 34.39375Q28.925 35.909374 27.4875 36.721874Q26.05 37.534374 24.14375 37.55L20.20625 37.55ZM22.08125 24.878124L22.08125 36.01875L24.05 36.01875Q26.221874 36.01875 27.425 34.675Q28.628124 33.315624 28.628124 30.83125L28.628124 30.003124Q28.628124 27.58125 27.4875 26.2375Q26.346874 24.89375 24.26875 24.878124L22.08125 24.878124ZM34.878124 37.55L33.08125 37.55L33.08125 26.9875L34.878124 26.9875L34.878124 37.55ZM32.925 24.175Q32.925 23.7375 33.190624 23.440624Q33.471874 23.128124 33.9875 23.128124Q34.51875 23.128124 34.784374 23.440624Q35.065624 23.7375 35.065624 24.175Q35.065624 24.6125 34.784374 24.909374Q34.51875 25.20625 33.9875 25.20625Q33.471874 25.20625 33.190624 24.909374Q32.925 24.6125 32.925 24.175ZM41.409374 35.096874L44.01875 26.9875L45.8625 26.9875L42.08125 37.55L40.70625 37.55L36.878124 26.9875L38.721874 26.9875L41.409374 35.096874ZM49.878124 37.55L48.08125 37.55L48.08125 26.9875L49.878124 26.9875L49.878124 37.55ZM47.925 24.175Q47.925 23.7375 48.190624 23.440624Q48.471874 23.128124 48.9875 23.128124Q49.51875 23.128124 49.784374 23.440624Q50.065624 23.7375 50.065624 24.175Q50.065624 24.6125 49.784374 24.909374Q49.51875 25.20625 48.9875 25.20625Q48.471874 25.20625 48.190624 24.909374Q47.925 24.6125 47.925 24.175ZM52.471874 32.175Q52.471874 29.753124 53.628124 28.26875Q54.784374 26.784374 56.64375 26.784374Q58.503124 26.784374 59.58125 28.05L59.58125 22.55L61.39375 22.55L61.39375 37.55L59.7375 37.55L59.64375 36.409374Q58.565624 37.753124 56.628124 37.753124Q54.8 37.753124 53.628124 36.253124Q52.471874 34.7375 52.471874 32.315624L52.471874 32.175ZM54.284374 32.378124Q54.284374 34.175 55.01875 35.190624Q55.76875 36.20625 57.08125 36.20625Q58.8 36.20625 59.58125 34.675L59.58125 29.815624Q58.784374 28.315624 57.096874 28.315624Q55.76875 28.315624 55.01875 29.346874Q54.284374 30.378124 54.284374 32.378124ZM68.3 37.753124Q66.15938 37.753124 64.8 36.346874Q63.45625 34.925 63.45625 32.565624L63.45625 32.221874Q63.45625 30.659374 64.05 29.425Q64.65938 28.190624 65.7375 27.4875Q66.81563 26.784374 68.08125 26.784374Q70.14375 26.784374 71.28438 28.14375Q72.425 29.503124 72.425 32.034374L72.425 32.784374L65.26875 32.784374Q65.3 34.346874 66.175 35.315624Q67.05 36.26875 68.39375 36.26875Q69.3625 36.26875 70.01875 35.878124Q70.69063 35.4875 71.19063 34.846874L72.28438 35.70625Q70.95625 37.753124 68.3 37.753124ZM68.08125 28.26875Q66.9875 28.26875 66.2375 29.065624Q65.50313 29.8625 65.33125 31.3L70.6125 31.3L70.6125 31.159374Q70.53438 29.784374 69.8625 29.034374Q69.20625 28.26875 68.08125 28.26875ZM76.62813 26.9875L76.69063 28.315624Q77.89375 26.784374 79.84688 26.784374Q83.20625 26.784374 83.22188 30.565624L83.22188 37.55L81.425 37.55L81.425 30.55Q81.40938 29.409374 80.89375 28.8625Q80.39375 28.315624 79.3 28.315624Q78.425 28.315624 77.75313 28.784374Q77.09688 29.253124 76.72188 30.01875L76.72188 37.55L74.925 37.55L74.925 26.9875L76.62813 26.9875ZM85.47188 32.175Q85.47188 29.753124 86.62813 28.26875Q87.78438 26.784374 89.64375 26.784374Q91.50313 26.784374 92.58125 28.05L92.58125 22.55L94.39375 22.55L94.39375 37.55L92.7375 37.55L92.64375 36.409374Q91.56563 37.753124 89.62813 37.753124Q87.8 37.753124 86.62813 36.253124Q85.47188 34.7375 85.47188 32.315624L85.47188 32.175ZM87.28438 32.378124Q87.28438 34.175 88.01875 35.190624Q88.76875 36.20625 90.08125 36.20625Q91.8 36.20625 92.58125 34.675L92.58125 29.815624Q91.78438 28.315624 90.09688 28.315624Q88.76875 28.315624 88.01875 29.346874Q87.28438 30.378124 87.28438 32.378124ZM98.87813 37.55L97.08125 37.55L97.08125 26.9875L98.87813 26.9875L98.87813 37.55ZM96.925 24.175Q96.925 23.7375 97.19063 23.440624Q97.47188 23.128124 97.9875 23.128124Q98.51875 23.128124 98.78438 23.440624Q99.06563 23.7375 99.06563 24.175Q99.06563 24.6125 98.78438 24.909374Q98.51875 25.20625 97.9875 25.20625Q97.47188 25.20625 97.19063 24.909374Q96.925 24.6125 96.925 24.175ZM103.78438 26.9875L103.78438 38.76875Q103.78438 41.815624 101.01875 41.815624Q100.425 41.815624 99.90938 41.64375L99.90938 40.190624Q100.22188 40.26875 100.7375 40.26875Q101.34688 40.26875 101.65938 39.940624Q101.97188 39.628124 101.97188 38.815624L101.97188 26.9875L103.78438 26.9875ZM101.78438 24.175Q101.78438 23.753124 102.05 23.440624Q102.33125 23.128124 102.84688 23.128124Q103.37813 23.128124 103.64375 23.440624Q103.925 23.7375 103.925 24.175Q103.925 24.6125 103.64375 24.909374Q103.37813 25.20625 102.84688 25.20625Q102.31563 25.20625 102.05 24.909374Q101.78438 24.6125 101.78438 24.175ZM113.44063 37.55Q113.28438 37.2375 113.19063 36.440624Q111.925 37.753124 110.175 37.753124Q108.6125 37.753124 107.6125 36.8625Q106.6125 35.971874 106.6125 34.6125Q106.6125 32.971874 107.8625 32.065624Q109.12813 31.14375 111.39375 31.14375L113.15938 31.14375L113.15938 30.315624Q113.15938 29.3625 112.58125 28.8Q112.01875 28.2375 110.925 28.2375Q109.95625 28.2375 109.3 28.7375Q108.64375 29.221874 108.64375 29.909374L106.83125 29.909374Q106.83125 29.128124 107.39375 28.39375Q107.95625 27.64375 108.90938 27.221874Q109.87813 26.784374 111.03438 26.784374Q112.8625 26.784374 113.89375 27.70625Q114.925 28.6125 114.97188 30.221874L114.97188 35.08125Q114.97188 36.534374 115.33125 37.39375L115.33125 37.55L113.44063 37.55ZM110.44063 36.175Q111.3 36.175 112.05 35.7375Q112.81563 35.3 113.15938 34.596874L113.15938 32.425L111.7375 32.425Q108.425 32.425 108.425 34.3625Q108.425 35.221874 108.9875 35.70625Q109.55 36.175 110.44063 36.175ZM117.44063 32.175Q117.44063 30.6125 118.05 29.378124Q118.65938 28.128124 119.7375 27.45625Q120.83125 26.784374 122.2375 26.784374Q124.39375 26.784374 125.72188 28.284374Q127.06563 29.76875 127.06563 32.253124L127.06563 32.378124Q127.06563 33.925 126.47188 35.159374Q125.87813 36.378124 124.76875 37.065624Q123.675 37.753124 122.25313 37.753124Q120.1125 37.753124 118.76875 36.253124Q117.44063 34.753124 117.44063 32.3L117.44063 32.175ZM119.25313 32.378124Q119.25313 34.14375 120.06563 35.20625Q120.89375 36.26875 122.25313 36.26875Q123.62813 36.26875 124.44063 35.190624Q125.25313 34.1125 125.25313 32.175Q125.25313 30.425 124.425 29.346874Q123.59688 28.26875 122.2375 28.26875Q120.89375 28.26875 120.06563 29.33125Q119.25313 30.39375 119.25313 32.378124ZM131.3625 24.425L131.3625 26.9875L133.34688 26.9875L133.34688 28.378124L131.3625 28.378124L131.3625 34.925Q131.3625 35.565624 131.62813 35.89375Q131.89375 36.20625 132.53438 36.20625Q132.84688 36.20625 133.39375 36.08125L133.39375 37.55Q132.675 37.753124 132.00313 37.753124Q130.8 37.753124 130.175 37.01875Q129.56563 36.284374 129.56563 34.925L129.56563 28.378124L127.64375 28.378124L127.64375 26.9875L129.56563 26.9875L129.56563 24.425L131.3625 24.425ZM142.44063 36.503124Q141.39375 37.753124 139.34688 37.753124Q137.65938 37.753124 136.76875 36.76875Q135.89375 35.784374 135.87813 33.8625L135.87813 26.9875L137.69063 26.9875L137.69063 33.815624Q137.69063 36.20625 139.64375 36.20625Q141.70625 36.20625 142.39375 34.675L142.39375 26.9875L144.20625 26.9875L144.20625 37.55L142.4875 37.55L142.44063 36.503124ZM153.06563 34.753124Q153.06563 34.01875 152.51875 33.6125Q151.97188 33.20625 150.59688 32.909374Q149.22188 32.6125 148.40938 32.20625Q147.6125 31.8 147.22188 31.2375Q146.84688 30.659374 146.84688 29.878124Q146.84688 28.58125 147.94063 27.690624Q149.03438 26.784374 150.75313 26.784374Q152.55 26.784374 153.65938 27.721874Q154.78438 28.64375 154.78438 30.08125L152.95625 30.08125Q152.95625 29.346874 152.33125 28.815624Q151.70625 28.26875 150.75313 28.26875Q149.75313 28.26875 149.19063 28.70625Q148.64375 29.128124 148.64375 29.83125Q148.64375 30.471874 149.15938 30.815624Q149.675 31.14375 151.03438 31.45625Q152.39375 31.753124 153.22188 32.175Q154.06563 32.58125 154.47188 33.175Q154.87813 33.76875 154.87813 34.6125Q154.87813 36.034374 153.7375 36.89375Q152.6125 37.753124 150.8 37.753124Q149.53438 37.753124 148.55 37.3Q147.58125 36.846874 147.01875 36.05Q146.47188 35.2375 146.47188 34.3L148.28438 34.3Q148.33125 35.20625 149.00313 35.7375Q149.69063 36.26875 150.8 36.26875Q151.83125 36.26875 152.44063 35.8625Q153.06563 35.440624 153.06563 34.753124Z" fill-rule="nonzero"/></svg>